<svg width="1440" height="1024" viewBox="0 0 1440 1024" fill="none" xmlns="http://www.w3.org/2000/svg">
<g clip-path="url(#clip0_479_1719)">
<rect width="1440" height="1024" fill="white"/>
<path d="M1584.76 -28.1101H-335.24V1051.89H1584.76V-28.1101Z" fill="#416900" fill-opacity="0.2"/>
<mask id="mask0_479_1719" style="mask-type:alpha" maskUnits="userSpaceOnUse" x="-486" y="-34" width="1919" height="752">
<path d="M1433 -34H-485.73V717.11H1433V-34Z" fill="white"/>
</mask>
<g mask="url(#mask0_479_1719)">
<path d="M1387.4 514.73C1205.69 585.73 978.72 469.73 783.72 464.54C475.28 456.41 199.72 246.35 -108.69 236.27C-226.94 232.4 -343.9 258.38 -459.36 284.22L-327.36 1183.67L1926.27 622.89L1909.39 555.07C1715.61 532.68 1569.1 443.77 1387.4 514.73Z" fill="#416900" fill-opacity="0.4"/>
</g>
<path d="M1405.27 400.59C1225.93 379.23 1055.01 304.74 874.69 294.51C679.56 283.44 489.32 348.09 300.76 399.61C93.1798 456.33 -120.73 497.96 -335.24 504.68V1051.89H1584.76V406.24C1524.84 408.89 1464.95 407.7 1405.27 400.59Z" fill="white"/>
<mask id="mask1_479_1719" style="mask-type:alpha" maskUnits="userSpaceOnUse" x="-487" y="-159" width="1920" height="1080">
<path d="M1433 -159H-487V921H1433V-159Z" fill="white"/>
</mask>
<g mask="url(#mask1_479_1719)">
<g opacity="0.2">
<path d="M180.7 -37.5C110.28 33.83 7.93018 61.39 -89.5098 84.89C-215.92 115.35 -343.13 143.89 -472.37 158.09C-484.37 141.4 -487.37 124.09 -486.95 106.9C-433.85 119.34 -385.28 112.6 -340.1 102.5C-256.93 83.898 -176.426 54.9211 -100.48 16.25C-41.1898 -13.95 15.4102 -50.11 66.1902 -84.04C103.38 -65.26 150.15 -73.9 180.7 -37.5Z" fill="white"/>
<path d="M819.27 -69.25C823.856 -99.5182 830.233 -129.488 838.37 -159C709.06 -147.28 600.76 -58.11 480.32 -3.92999C366.13 47.42 240.76 67.17 119.81 99.53C-1.14003 131.89 -123.59 180.53 -210.02 278.98C-181.02 283.57 -151.91 287.03 -124.62 301.64C-89.22 253.95 -32.06 226.79 25.66 212.77C83.38 198.75 143.19 196.13 201.89 187.08C269.52 176.66 335.98 157.61 397.89 128.49C468.63 95.22 532.56 49.33 600.31 10.35C668.06 -28.63 742.07 -61.33 819.27 -69.25Z" fill="white"/>
<path d="M1343.63 362.77C1366.16 279.17 1435.1 217.39 1501.94 162.35C1551.69 121.35 1602.16 81.29 1652.85 41.49C1641.97 16.79 1637.85 1.15999 1633.62 -14.51C1596.83 45.08 1546.76 85.4 1494.47 118.89C1442.18 152.38 1386.36 180.45 1336.87 217.89C1287.38 255.33 1243.51 304.19 1222.93 368.06C1269.04 364.71 1315.37 364.37 1343.63 362.77Z" fill="white"/>
<path d="M1530.94 -152.24C1329.64 -69.7961 1150.18 58.1586 1006.63 221.59C863.88 384.46 759.63 580.86 696.37 800.38C712.424 793.409 729.656 789.551 747.15 789.01C757.42 788.71 768.35 789.39 780.73 781.58C796.73 657.58 855.73 543.84 913.82 433.09C931.73 398.95 949.67 364.74 970.99 332.62C998.92 290.53 1032.43 252.37 1068.15 216.62C1203.88 81.2941 1370.63 -18.8012 1553.88 -74.95C1546.9 -99.56 1539.91 -124.11 1530.94 -152.24Z" fill="white"/>
</g>
</g>
<path d="M211.9 165.68C216.373 165.68 220 162.053 220 157.58C220 153.106 216.373 149.48 211.9 149.48C207.426 149.48 203.8 153.106 203.8 157.58C203.8 162.053 207.426 165.68 211.9 165.68Z" fill="white"/>
<path d="M271.807 228.721C273.026 223.578 269.845 218.421 264.703 217.201C259.56 215.982 254.402 219.162 253.183 224.305C251.963 229.448 255.144 234.606 260.287 235.825C265.429 237.045 270.587 233.864 271.807 228.721Z" fill="white"/>
<path d="M1032.73 67.5337C1034.76 58.6431 1029.19 49.7944 1020.3 47.7697C1011.41 45.7449 1002.56 51.3107 1000.54 60.2013C998.513 69.0918 1004.08 77.9405 1012.97 79.9653C1021.86 81.9901 1030.71 76.4242 1032.73 67.5337Z" fill="white"/>
<path d="M295.517 63.9155C298.755 60.4413 298.564 54.9994 295.09 51.7608C291.616 48.5221 286.174 48.7131 282.935 52.1873C279.697 55.6616 279.888 61.1035 283.362 64.3421C286.836 67.5808 292.278 67.3898 295.517 63.9155Z" fill="white"/>
<path d="M944.09 127.16C948.459 127.16 952 123.619 952 119.25C952 114.882 948.459 111.34 944.09 111.34C939.722 111.34 936.18 114.882 936.18 119.25C936.18 123.619 939.722 127.16 944.09 127.16Z" fill="white"/>
<path d="M1165.65 74.0133C1166.69 69.5788 1163.95 65.1354 1159.51 64.0888C1155.08 63.0421 1150.64 65.7885 1149.59 70.2231C1148.54 74.6576 1151.29 79.1009 1155.72 80.1475C1160.16 81.1942 1164.6 78.4478 1165.65 74.0133Z" fill="white"/>
<path d="M570.22 79.2301C570.22 80.5453 569.83 81.831 569.099 82.9246C568.369 84.0182 567.33 84.8705 566.115 85.3739C564.9 85.8772 563.563 86.0089 562.273 85.7523C560.983 85.4957 559.798 84.8624 558.868 83.9323C557.938 83.0023 557.304 81.8174 557.048 80.5274C556.791 79.2375 556.923 77.9004 557.426 76.6852C557.929 75.4701 558.782 74.4315 559.875 73.7008C560.969 72.9701 562.255 72.5801 563.57 72.5801C565.334 72.5801 567.025 73.2807 568.272 74.5278C569.519 75.7749 570.22 77.4664 570.22 79.2301V79.2301Z" fill="white"/>
<path d="M480.33 38.1899C480.332 38.5547 480.225 38.9118 480.024 39.2159C479.823 39.52 479.535 39.7574 479.199 39.8979C478.862 40.0384 478.491 40.0757 478.133 40.005C477.776 39.9343 477.447 39.7589 477.189 39.5009C476.931 39.243 476.755 38.9142 476.685 38.5564C476.614 38.1985 476.651 37.8277 476.792 37.4911C476.932 37.1545 477.17 36.8672 477.474 36.6658C477.778 36.4644 478.135 36.3579 478.5 36.3599C478.985 36.3599 479.451 36.5527 479.794 36.8959C480.137 37.2391 480.33 37.7045 480.33 38.1899V38.1899Z" fill="white"/>
<path d="M726.6 38.2C729.135 38.2 731.19 36.145 731.19 33.61C731.19 31.075 729.135 29.02 726.6 29.02C724.065 29.02 722.01 31.075 722.01 33.61C722.01 36.145 724.065 38.2 726.6 38.2Z" fill="white"/>
<path d="M107.76 53.7199C107.76 54.5704 107.508 55.4017 107.035 56.1089C106.563 56.816 105.891 57.3671 105.106 57.6926C104.32 58.0181 103.455 58.1032 102.621 57.9373C101.787 57.7714 101.021 57.3618 100.42 56.7605C99.8182 56.1591 99.4087 55.3929 99.2428 54.5588C99.0769 53.7247 99.162 52.8601 99.4875 52.0744C99.8129 51.2887 100.364 50.6171 101.071 50.1446C101.778 49.6721 102.61 49.4199 103.46 49.4199C104.601 49.4199 105.694 49.873 106.501 50.6794C107.307 51.4858 107.76 52.5795 107.76 53.7199V53.7199Z" fill="white"/>
<path d="M394.752 306.543C396.124 300.761 392.549 294.961 386.767 293.589C380.985 292.217 375.185 295.792 373.813 301.574C372.441 307.356 376.016 313.155 381.798 314.527C387.58 315.9 393.379 312.325 394.752 306.543Z" fill="white"/>
<path d="M281.61 329.09C281.61 330.277 281.258 331.437 280.599 332.423C279.939 333.41 279.002 334.179 277.906 334.633C276.81 335.087 275.603 335.206 274.439 334.975C273.275 334.743 272.206 334.172 271.367 333.332C270.528 332.493 269.957 331.424 269.725 330.26C269.494 329.096 269.612 327.89 270.067 326.794C270.521 325.697 271.29 324.76 272.276 324.101C273.263 323.442 274.423 323.09 275.61 323.09C277.201 323.09 278.727 323.722 279.853 324.847C280.978 325.972 281.61 327.499 281.61 329.09Z" fill="white"/>
</g>
<defs>
<clipPath id="clip0_479_1719">
<rect width="1440" height="1024" fill="white"/>
</clipPath>
</defs>
</svg>
