<svg width="602" height="350" viewBox="0 0 602 350" fill="none" xmlns="http://www.w3.org/2000/svg">
<g clip-path="url(#clip0_294_7061)">
<rect width="601.829" height="350" fill="white"/>
<path d="M252.208 77H257.164V71.12C257.724 71.204 258.396 71.26 258.928 71.26C263.772 71.26 267.636 68.992 267.636 64.064C267.636 59.556 264.36 57.288 260.664 57.288C259.152 57.288 257.948 57.568 256.548 58.184L252.208 57.288V77ZM257.164 60.732C257.668 60.648 258.172 60.536 259.04 60.536C261.252 60.536 262.568 61.908 262.568 64.148C262.568 66.36 261.168 68.012 258.452 68.012C258.088 68.012 257.64 67.984 257.164 67.928V60.732ZM281.184 72.352C279.896 73.276 278.748 73.724 277.264 73.724C275.556 73.724 273.876 73.08 273.596 70.896H283.34C283.48 70.252 283.564 69.664 283.564 68.824C283.564 64.792 280.764 62.58 276.564 62.58C272.028 62.58 268.836 65.688 268.836 70.028C268.836 74.48 271.692 77.364 276.844 77.364C279.7 77.364 281.52 76.524 283.228 75.348L281.184 72.352ZM273.512 69.132C273.736 67.06 274.912 65.94 276.48 65.94C277.908 65.94 278.972 66.948 279.084 68.488L273.512 69.132ZM285.802 77H290.59V66.332C292.074 66.332 293.866 66.444 295.238 66.724L295.994 62.664C295.63 62.608 295.21 62.58 294.846 62.58C293.138 62.58 291.402 62.944 290.142 63.896L285.802 62.58V77ZM311.345 77.364V55.888L306.557 56.672V62.972C305.941 62.776 305.129 62.58 303.953 62.58C300.173 62.58 296.645 64.932 296.645 70.084C296.645 75.208 299.697 77.364 303.393 77.364C304.905 77.364 305.997 77.028 307.117 76.44L311.345 77.364ZM306.557 74.34C305.885 74.536 305.465 74.62 304.821 74.62C302.721 74.62 301.433 73.108 301.433 70.056C301.433 66.696 302.973 65.492 305.521 65.492C305.801 65.492 306.137 65.52 306.557 65.548V74.34ZM314.293 71.96C314.293 75.348 315.693 77.364 319.137 77.364C321.069 77.364 322.553 76.86 323.729 76.216L328.153 77.392V62.58L323.337 63.476V73.472C322.497 73.724 321.909 73.836 321.237 73.836C319.613 73.836 319.109 73.136 319.109 71.4V62.944H314.293V71.96ZM333.296 77.364C334.808 77.364 336.04 76.272 336.04 74.732C336.04 73.108 334.808 72.016 333.296 72.016C331.868 72.016 330.664 73.108 330.664 74.732C330.664 76.272 331.868 77.364 333.296 77.364ZM340.624 77.364C342.136 77.364 343.368 76.272 343.368 74.732C343.368 73.108 342.136 72.016 340.624 72.016C339.196 72.016 337.992 73.108 337.992 74.732C337.992 76.272 339.196 77.364 340.624 77.364ZM347.952 77.364C349.464 77.364 350.696 76.272 350.696 74.732C350.696 73.108 349.464 72.016 347.952 72.016C346.524 72.016 345.32 73.108 345.32 74.732C345.32 76.272 346.524 77.364 347.952 77.364Z" fill="#71001B" fill-opacity="0.9"/>
<path d="M160.116 122H164.652L172.268 102.68H167.116L162.552 116.596L157.792 102.68H152.584L160.116 122ZM183.627 117.352C182.339 118.276 181.191 118.724 179.707 118.724C177.999 118.724 176.319 118.08 176.039 115.896H185.783C185.923 115.252 186.007 114.664 186.007 113.824C186.007 109.792 183.207 107.58 179.007 107.58C174.471 107.58 171.279 110.688 171.279 115.028C171.279 119.48 174.135 122.364 179.287 122.364C182.143 122.364 183.963 121.524 185.671 120.348L183.627 117.352ZM175.955 114.132C176.179 112.06 177.355 110.94 178.923 110.94C180.351 110.94 181.415 111.948 181.527 113.488L175.955 114.132ZM188.386 122H193.174V111.36C194.322 111.108 195.022 110.968 195.946 110.968C197.15 110.968 197.654 111.444 197.654 112.76V122H202.442V112.592C202.442 109.26 200.986 107.58 197.962 107.58C195.806 107.58 193.902 108.336 192.726 108.896L188.386 107.58V122ZM217.178 117.352C215.89 118.276 214.742 118.724 213.258 118.724C211.55 118.724 209.87 118.08 209.59 115.896H219.334C219.474 115.252 219.558 114.664 219.558 113.824C219.558 109.792 216.758 107.58 212.558 107.58C208.022 107.58 204.83 110.688 204.83 115.028C204.83 119.48 207.686 122.364 212.838 122.364C215.694 122.364 217.514 121.524 219.222 120.348L217.178 117.352ZM209.506 114.132C209.73 112.06 210.906 110.94 212.474 110.94C213.902 110.94 214.966 111.948 215.078 113.488L209.506 114.132ZM220.536 122H233.64V118.136L226.584 118.892L233.836 110.212V107.944H221.292V111.752L228.348 110.968L220.536 120.852V122ZM241.757 122H246.545V111.332C248.029 111.332 249.821 111.444 251.193 111.724L251.949 107.664C251.585 107.608 251.165 107.58 250.801 107.58C249.093 107.58 247.357 107.944 246.097 108.896L241.757 107.58V122ZM264.702 117.352C263.414 118.276 262.266 118.724 260.782 118.724C259.074 118.724 257.394 118.08 257.114 115.896H266.858C266.998 115.252 267.082 114.664 267.082 113.824C267.082 109.792 264.282 107.58 260.082 107.58C255.546 107.58 252.354 110.688 252.354 115.028C252.354 119.48 255.21 122.364 260.362 122.364C263.218 122.364 265.038 121.524 266.746 120.348L264.702 117.352ZM257.03 114.132C257.254 112.06 258.43 110.94 259.998 110.94C261.426 110.94 262.49 111.948 262.602 113.488L257.03 114.132ZM269.46 122H274.248V111.36C275.396 111.108 276.096 110.968 277.02 110.968C278.224 110.968 278.728 111.444 278.728 112.76V122H283.516V112.592C283.516 109.26 282.06 107.58 279.036 107.58C276.88 107.58 274.976 108.336 273.8 108.896L269.46 107.58V122ZM287.304 117.156C287.304 121.3 289.236 122.364 292.54 122.364C294.556 122.364 296.208 121.776 297.132 121.328L296.404 118.556C295.732 118.836 295.088 118.948 294.276 118.948C292.568 118.948 292.12 118.024 292.12 116.456V110.576H296.348L296.628 107.524L292.12 108.056V103.156L287.304 104.22V108.336L285.344 108.616V110.576H287.304V117.156ZM310.338 117.352C309.05 118.276 307.902 118.724 306.418 118.724C304.71 118.724 303.03 118.08 302.75 115.896H312.494C312.634 115.252 312.718 114.664 312.718 113.824C312.718 109.792 309.918 107.58 305.718 107.58C301.182 107.58 297.99 110.688 297.99 115.028C297.99 119.48 300.846 122.364 305.998 122.364C308.854 122.364 310.674 121.524 312.382 120.348L310.338 117.352ZM302.666 114.132C302.89 112.06 304.066 110.94 305.634 110.94C307.062 110.94 308.126 111.948 308.238 113.488L302.666 114.132ZM315.097 122H319.885V111.36C321.033 111.108 321.733 110.968 322.657 110.968C323.861 110.968 324.365 111.444 324.365 112.76V122H329.153V112.592C329.153 109.26 327.697 107.58 324.673 107.58C322.517 107.58 320.613 108.336 319.437 108.896L315.097 107.58V122ZM332.941 117.156C332.941 121.3 334.873 122.364 338.177 122.364C340.193 122.364 341.845 121.776 342.769 121.328L342.041 118.556C341.369 118.836 340.725 118.948 339.913 118.948C338.205 118.948 337.757 118.024 337.757 116.456V110.576H341.985L342.265 107.524L337.757 108.056V103.156L332.941 104.22V108.336L330.981 108.616V110.576H332.941V117.156ZM355.975 117.352C354.687 118.276 353.539 118.724 352.055 118.724C350.347 118.724 348.667 118.08 348.387 115.896H358.131C358.271 115.252 358.355 114.664 358.355 113.824C358.355 109.792 355.555 107.58 351.355 107.58C346.819 107.58 343.627 110.688 343.627 115.028C343.627 119.48 346.483 122.364 351.635 122.364C354.491 122.364 356.311 121.524 358.019 120.348L355.975 117.352ZM348.303 114.132C348.527 112.06 349.703 110.94 351.271 110.94C352.699 110.94 353.763 111.948 353.875 113.488L348.303 114.132ZM360.593 122H365.381V111.332C366.865 111.332 368.657 111.444 370.029 111.724L370.785 107.664C370.421 107.608 370.001 107.58 369.637 107.58C367.929 107.58 366.193 107.944 364.933 108.896L360.593 107.58V122ZM382.098 122H386.354L391.954 107.944H386.998L384.31 116.68L381.65 107.944H376.666L382.098 122ZM392.244 115C392.244 118.976 394.708 122.364 399.944 122.364C405.18 122.364 407.588 118.976 407.588 115C407.588 110.968 405.18 107.58 399.944 107.58C394.708 107.58 392.244 110.968 392.244 115ZM399.944 119.172C397.956 119.172 396.976 117.52 396.976 115.028C396.976 112.508 397.956 110.772 399.944 110.772C401.876 110.772 402.856 112.508 402.856 115.028C402.856 117.52 401.876 119.172 399.944 119.172ZM410.679 117.156C410.679 121.3 412.611 122.364 415.915 122.364C417.931 122.364 419.583 121.776 420.507 121.328L419.779 118.556C419.107 118.836 418.463 118.948 417.651 118.948C415.943 118.948 415.495 118.024 415.495 116.456V110.576H419.723L420.003 107.524L415.495 108.056V103.156L410.679 104.22V108.336L408.719 108.616V110.576H410.679V117.156ZM422.254 122H427.042V111.332C428.526 111.332 430.318 111.444 431.69 111.724L432.446 107.664C432.082 107.608 431.662 107.58 431.298 107.58C429.59 107.58 427.854 107.944 426.594 108.896L422.254 107.58V122ZM445.198 117.352C443.91 118.276 442.762 118.724 441.278 118.724C439.57 118.724 437.89 118.08 437.61 115.896H447.354C447.494 115.252 447.578 114.664 447.578 113.824C447.578 109.792 444.778 107.58 440.578 107.58C436.042 107.58 432.85 110.688 432.85 115.028C432.85 119.48 435.706 122.364 440.858 122.364C443.714 122.364 445.534 121.524 447.242 120.348L445.198 117.352ZM437.526 114.132C437.75 112.06 438.926 110.94 440.494 110.94C441.922 110.94 442.986 111.948 443.098 113.488L437.526 114.132ZM205.636 152.136C204.516 152.668 203.592 152.864 202.556 152.864C200.4 152.864 198.832 151.716 198.832 149.028C198.832 146.312 200.456 145.248 202.696 145.248C203.676 145.248 204.572 145.472 205.328 145.892L207.064 142.756C205.608 141.916 204.096 141.58 202.136 141.58C197.628 141.58 193.96 144.212 193.96 149.028C193.96 153.844 196.956 156.364 201.884 156.364C203.732 156.364 205.384 155.972 206.7 155.244L205.636 152.136ZM209.1 156H213.888V145.08C214.644 144.884 215.54 144.744 216.492 144.744C217.752 144.744 218.368 145.332 218.368 146.788V156H223.156V146.788C223.156 143.176 221.448 141.58 218.564 141.58C216.884 141.58 215.204 142.028 213.888 142.56V135.7L209.1 134.888V156ZM227.817 146.256C229.077 145.444 230.645 144.968 232.045 144.968C233.361 144.968 234.005 145.864 234.005 147.32V147.88C231.905 147.908 229.245 147.992 226.641 148.328C225.689 149.392 225.297 150.484 225.297 151.828C225.297 154.6 227.201 156.364 230.253 156.364C231.765 156.364 233.417 155.86 234.593 155.104L238.793 156.364V147.264C238.793 143.736 236.665 141.58 232.661 141.58C229.861 141.58 227.901 142.14 225.857 143.484L227.817 146.256ZM234.005 153.256C233.613 153.424 232.997 153.536 232.213 153.536C230.533 153.536 229.917 152.332 229.917 151.268C229.917 150.876 230.001 150.512 230.057 150.316C231.541 150.008 232.437 149.84 234.005 149.616V153.256ZM241.72 156H246.508V145.36C247.656 145.108 248.356 144.968 249.28 144.968C250.484 144.968 250.988 145.444 250.988 146.76V156H255.776V146.592C255.776 143.26 254.32 141.58 251.296 141.58C249.14 141.58 247.236 142.336 246.06 142.896L241.72 141.58V156ZM269.784 152.136C268.664 152.668 267.74 152.864 266.704 152.864C264.548 152.864 262.98 151.716 262.98 149.028C262.98 146.312 264.604 145.248 266.844 145.248C267.824 145.248 268.72 145.472 269.476 145.892L271.212 142.756C269.756 141.916 268.244 141.58 266.284 141.58C261.776 141.58 258.108 144.212 258.108 149.028C258.108 153.844 261.104 156.364 266.032 156.364C267.88 156.364 269.532 155.972 270.848 155.244L269.784 152.136ZM284.129 151.352C282.841 152.276 281.693 152.724 280.209 152.724C278.501 152.724 276.821 152.08 276.541 149.896H286.285C286.425 149.252 286.509 148.664 286.509 147.824C286.509 143.792 283.709 141.58 279.509 141.58C274.973 141.58 271.781 144.688 271.781 149.028C271.781 153.48 274.637 156.364 279.789 156.364C282.645 156.364 284.465 155.524 286.173 154.348L284.129 151.352ZM276.457 148.132C276.681 146.06 277.857 144.94 279.425 144.94C280.853 144.94 281.917 145.948 282.029 147.488L276.457 148.132ZM308.985 156.364V134.888L304.197 135.672V141.972C303.581 141.776 302.769 141.58 301.593 141.58C297.813 141.58 294.285 143.932 294.285 149.084C294.285 154.208 297.337 156.364 301.033 156.364C302.545 156.364 303.637 156.028 304.757 155.44L308.985 156.364ZM304.197 153.34C303.525 153.536 303.105 153.62 302.461 153.62C300.361 153.62 299.073 152.108 299.073 149.056C299.073 145.696 300.613 144.492 303.161 144.492C303.441 144.492 303.777 144.52 304.197 144.548V153.34ZM323.778 151.352C322.49 152.276 321.342 152.724 319.858 152.724C318.15 152.724 316.47 152.08 316.19 149.896H325.934C326.074 149.252 326.158 148.664 326.158 147.824C326.158 143.792 323.358 141.58 319.158 141.58C314.622 141.58 311.43 144.688 311.43 149.028C311.43 153.48 314.286 156.364 319.438 156.364C322.294 156.364 324.114 155.524 325.822 154.348L323.778 151.352ZM316.106 148.132C316.33 146.06 317.506 144.94 319.074 144.94C320.502 144.94 321.566 145.948 321.678 147.488L316.106 148.132ZM328.536 156H333.324V145.36C334.136 145.136 335.088 144.968 335.816 144.968C336.992 144.968 337.356 145.248 337.356 146.732V156H342.2V147.404C342.2 146.732 342.116 145.948 341.948 145.304C342.956 145.08 343.852 144.912 344.608 144.912C345.868 144.912 346.232 145.304 346.232 146.76V156H351.02V146.984C351.02 143.652 349.816 141.58 346.54 141.58C344.524 141.58 342.564 142.28 341.248 143.036C340.52 142.196 339.512 141.58 337.916 141.58C335.956 141.58 334.22 142.196 332.876 142.896L328.536 141.58V156ZM355.813 146.256C357.073 145.444 358.641 144.968 360.041 144.968C361.357 144.968 362.001 145.864 362.001 147.32V147.88C359.901 147.908 357.241 147.992 354.637 148.328C353.685 149.392 353.293 150.484 353.293 151.828C353.293 154.6 355.197 156.364 358.249 156.364C359.761 156.364 361.413 155.86 362.589 155.104L366.789 156.364V147.264C366.789 143.736 364.661 141.58 360.657 141.58C357.857 141.58 355.897 142.14 353.853 143.484L355.813 146.256ZM362.001 153.256C361.609 153.424 360.993 153.536 360.209 153.536C358.529 153.536 357.913 152.332 357.913 151.268C357.913 150.876 357.997 150.512 358.053 150.316C359.537 150.008 360.433 149.84 362.001 149.616V153.256ZM369.716 156H374.532V141.58L369.716 142.252V156ZM372.124 140.292C373.524 140.292 374.728 139.2 374.728 137.632C374.728 136.036 373.524 135 372.124 135C370.668 135 369.548 136.036 369.548 137.632C369.548 139.2 370.668 140.292 372.124 140.292ZM377.618 156H382.406V145.36C383.554 145.108 384.254 144.968 385.178 144.968C386.382 144.968 386.886 145.444 386.886 146.76V156H391.674V146.592C391.674 143.26 390.218 141.58 387.194 141.58C385.038 141.58 383.134 142.336 381.958 142.896L377.618 141.58V156ZM402.036 150.652H405.06L406.152 136.288L401 136.904L402.036 150.652ZM403.66 156.336C405.004 156.336 406.152 155.328 406.152 153.9C406.152 152.444 405.004 151.436 403.66 151.436C402.344 151.436 401.224 152.444 401.224 153.9C401.224 155.328 402.344 156.336 403.66 156.336Z" fill="#E65F28"/>
<path fill-rule="evenodd" clip-rule="evenodd" d="M602 0H0V350H44.1532C71.6153 466.777 176.189 553.688 301 553.688C425.811 553.688 530.385 466.777 557.847 350H602V0ZM557.847 350C562.452 330.417 564.889 309.994 564.889 289C564.889 142.817 446.742 24.3115 301 24.3115C155.258 24.3115 37.1111 142.817 37.1111 289C37.1111 309.994 39.5479 330.417 44.1532 350H557.847Z" fill="#E65F28"/>
<circle cx="579.81" cy="75.4938" r="4" transform="rotate(36.9913 579.81 75.4938)" fill="white"/>
<circle cx="530.626" cy="162.39" r="5" transform="rotate(36.9913 530.626 162.39)" fill="white"/>
<circle cx="375.976" cy="-2.93833" r="5" transform="rotate(36.9913 375.976 -2.93833)" fill="white"/>
<circle cx="457.738" cy="14.8351" r="3" transform="rotate(36.9913 457.738 14.8351)" fill="white"/>
<circle cx="528.899" cy="33.3858" r="3" transform="rotate(36.9913 528.899 33.3858)" fill="white"/>
<circle cx="510.609" cy="75.9469" r="3" transform="rotate(36.9913 510.609 75.9469)" fill="white"/>
<circle cx="487.372" cy="93.4977" r="5" transform="rotate(36.9913 487.372 93.4977)" fill="white"/>
<circle cx="486.51" cy="121.559" r="4" transform="rotate(36.9913 486.51 121.559)" fill="white"/>
<circle cx="579.508" cy="122.756" r="4" transform="rotate(36.9913 579.508 122.756)" fill="white"/>
<circle cx="591.118" cy="306.781" r="5" transform="rotate(36.9913 591.118 306.781)" fill="white"/>
<circle cx="518.231" cy="159.227" r="3" transform="rotate(36.9913 518.231 159.227)" fill="white"/>
<circle cx="589.392" cy="177.777" r="3" transform="rotate(36.9913 589.392 177.777)" fill="white"/>
<circle cx="571.101" cy="220.338" r="3" transform="rotate(36.9913 571.101 220.338)" fill="white"/>
<circle cx="547.864" cy="237.889" r="5" transform="rotate(36.9913 547.864 237.889)" fill="white"/>
<circle cx="108.302" cy="53.8854" r="4" transform="rotate(36.9913 108.302 53.8854)" fill="white"/>
<circle cx="59.1182" cy="140.781" r="5" transform="rotate(36.9913 59.1182 140.781)" fill="white"/>
<circle cx="57.3915" cy="11.7774" r="3" transform="rotate(36.9913 57.3915 11.7774)" fill="white"/>
<circle cx="39.1013" cy="54.3385" r="3" transform="rotate(36.9913 39.1013 54.3385)" fill="white"/>
<circle cx="147.391" cy="11.9679" r="5" transform="rotate(36.9913 147.391 11.9679)" fill="white"/>
<circle cx="15.8641" cy="71.8893" r="5" transform="rotate(36.9913 15.8641 71.8893)" fill="white"/>
<circle cx="317.302" cy="10.8854" r="4" transform="rotate(36.9913 317.302 10.8854)" fill="white"/>
<circle cx="248.101" cy="11.3385" r="3" transform="rotate(36.9913 248.101 11.3385)" fill="white"/>
<circle cx="224.864" cy="28.8893" r="5" transform="rotate(36.9913 224.864 28.8893)" fill="white"/>
<circle cx="37.6521" cy="241.006" r="4" transform="rotate(118.555 37.6521 241.006)" fill="white"/>
<circle cx="50.112" cy="333.173" r="4" transform="rotate(118.555 50.112 333.173)" fill="white"/>
<circle cx="10.6314" cy="194.424" r="5" transform="rotate(118.555 10.6314 194.424)" fill="white"/>
<circle cx="5.04616" cy="277.909" r="3" transform="rotate(118.555 5.04616 277.909)" fill="white"/>
<circle cx="-2.8636" cy="351.021" r="3" transform="rotate(118.555 -2.8636 351.021)" fill="white"/>
<path d="M207.624 179.372L205.813 179.263L195.013 358.747L196.823 358.855L207.624 179.372Z" fill="#416900"/>
<path d="M210.786 337.327L210.376 337.302C202.459 336.689 198.985 332.332 197.641 329.885C196.013 332.153 192.041 336.062 184.108 335.722C180.925 335.604 177.811 334.757 175.008 333.245C172.204 331.732 169.785 329.596 167.938 327.001C158.393 335.22 150.968 330.711 147.355 327.236C147.167 327.044 147.053 326.792 147.035 326.523C147.016 326.255 147.094 325.989 147.254 325.773C147.322 325.671 147.411 325.585 147.515 325.521C147.62 325.457 147.737 325.416 147.859 325.402C147.981 325.388 148.104 325.401 148.22 325.44C148.336 325.479 148.443 325.543 148.531 325.627C152.566 329.504 159.14 332.488 167.56 324.733L168.341 324.008L168.884 324.949C170.569 327.51 172.837 329.634 175.502 331.147C178.167 332.661 181.154 333.52 184.216 333.654C193.911 334.049 196.848 327.678 196.985 327.395L197.957 325.208L198.642 327.494C198.727 327.791 200.878 334.485 210.552 335.239C213.608 335.478 216.678 334.986 219.506 333.803C222.335 332.62 224.84 330.78 226.816 328.436L227.468 327.566L228.157 328.379C235.586 337.088 242.487 334.915 246.958 331.55C247.052 331.473 247.163 331.419 247.282 331.391C247.401 331.363 247.524 331.363 247.643 331.39C247.762 331.417 247.873 331.47 247.968 331.547C248.064 331.623 248.14 331.72 248.192 331.83C248.325 332.064 248.371 332.337 248.32 332.601C248.27 332.865 248.127 333.103 247.917 333.271C243.895 336.302 235.983 339.889 227.51 330.586C225.399 332.882 222.802 334.679 219.909 335.845C217.016 337.011 213.899 337.517 210.786 337.327Z" fill="#416900"/>
<path d="M211.501 325.731L211.074 325.705C203.157 325.092 199.683 320.735 198.34 318.271C196.711 320.556 192.739 324.465 184.806 324.125C181.623 324.006 178.51 323.158 175.706 321.646C172.903 320.134 170.484 317.998 168.636 315.404C161.12 321.808 154.93 320.407 151.014 317.977C150.797 317.823 150.642 317.596 150.576 317.338C150.51 317.08 150.538 316.807 150.653 316.567C150.699 316.451 150.769 316.346 150.859 316.259C150.949 316.172 151.057 316.105 151.175 316.064C151.293 316.022 151.418 316.006 151.543 316.017C151.667 316.028 151.788 316.066 151.897 316.128C157.068 319.353 162.579 318.348 168.242 313.118L169.021 312.41L169.565 313.352C171.252 315.908 173.522 318.028 176.187 319.538C178.852 321.048 181.837 321.905 184.897 322.039C194.591 322.451 197.529 316.08 197.666 315.797L198.637 313.61L199.321 315.913C199.407 316.193 201.558 322.904 211.233 323.624C214.288 323.865 217.357 323.375 220.185 322.195C223.013 321.015 225.519 319.179 227.497 316.838L228.149 315.968L228.838 316.764C233.85 322.636 239.187 324.243 244.704 321.713C244.82 321.664 244.944 321.641 245.069 321.645C245.194 321.649 245.317 321.68 245.429 321.735C245.541 321.791 245.64 321.87 245.719 321.967C245.797 322.064 245.855 322.177 245.886 322.298C245.972 322.55 245.967 322.824 245.87 323.073C245.774 323.321 245.592 323.527 245.359 323.655C241.179 325.597 234.914 326.317 228.19 318.988C226.085 321.283 223.495 323.079 220.607 324.246C217.72 325.412 214.609 325.92 211.501 325.731Z" fill="#416900"/>
<path d="M185.076 312.52C181.969 312.337 178.943 311.461 176.219 309.956C173.495 308.452 171.142 306.357 169.332 303.825C164.506 307.974 159.692 309.364 155.031 307.918C154.785 307.824 154.585 307.64 154.469 307.404C154.352 307.169 154.33 306.898 154.404 306.646C154.424 306.521 154.469 306.401 154.538 306.295C154.607 306.188 154.697 306.097 154.803 306.028C154.909 305.958 155.028 305.911 155.153 305.891C155.278 305.87 155.406 305.876 155.529 305.908C159.837 307.23 164.365 305.771 168.937 301.573L169.717 300.848L170.261 301.789C171.948 304.347 174.217 306.469 176.882 307.982C179.546 309.495 182.531 310.355 185.592 310.494C195.287 310.889 198.226 304.501 198.362 304.235L199.334 302.03L200.018 304.334C200.104 304.614 202.254 311.325 211.928 312.079C214.984 312.312 218.052 311.818 220.879 310.635C223.707 309.452 226.213 307.615 228.193 305.275L228.844 304.423L229.533 305.219C233.568 309.953 237.887 311.944 242.341 311.132C242.466 311.118 242.591 311.129 242.711 311.166C242.83 311.202 242.941 311.263 243.036 311.344C243.131 311.426 243.208 311.526 243.262 311.638C243.317 311.751 243.347 311.873 243.352 311.998C243.397 312.255 243.344 312.52 243.204 312.74C243.064 312.96 242.847 313.119 242.595 313.187C237.777 314.063 233.164 312.105 228.887 307.408C226.782 309.703 224.192 311.5 221.304 312.666C218.417 313.833 215.306 314.34 212.197 314.152L211.77 314.126C203.854 313.513 200.379 309.155 199.036 306.692C197.408 308.977 193.436 312.886 185.503 312.545L185.076 312.52Z" fill="#416900"/>
<path d="M212.877 302.571L212.467 302.547C204.552 301.916 201.076 297.576 199.733 295.112C198.105 297.397 194.134 301.289 186.2 300.966C183.018 300.841 179.907 299.99 177.105 298.479C174.302 296.967 171.882 294.835 170.029 292.245C167.168 294.994 163.425 296.64 159.465 296.889C159.21 296.852 158.979 296.716 158.822 296.512C158.665 296.307 158.593 296.049 158.623 295.793C158.619 295.541 158.712 295.298 158.882 295.113C159.053 294.929 159.289 294.817 159.54 294.802C163.408 294.509 167.03 292.791 169.703 289.98L170.484 289.256L171.027 290.197C172.711 292.756 174.98 294.879 177.646 296.389C180.312 297.899 183.298 298.755 186.359 298.884C196.053 299.296 198.991 292.925 199.128 292.642L200.1 290.438L200.785 292.742C200.87 293.038 203.021 299.733 212.695 300.469C215.75 300.71 218.819 300.221 221.647 299.041C224.475 297.861 226.981 296.024 228.959 293.683L229.611 292.814L230.299 293.626C233.339 297.238 236.549 299.145 239.828 299.634C240.082 299.691 240.305 299.843 240.451 300.059C240.597 300.274 240.656 300.538 240.615 300.795C240.6 301.05 240.485 301.289 240.295 301.461C240.105 301.632 239.856 301.722 239.6 301.711C235.696 300.996 232.175 298.912 229.669 295.834C227.551 298.139 224.943 299.94 222.037 301.106C219.131 302.272 216.002 302.773 212.877 302.571Z" fill="#416900"/>
<path d="M186.47 289.36C183.363 289.177 180.337 288.301 177.613 286.797C174.888 285.292 172.535 283.197 170.726 280.665C168.857 282.34 166.691 283.652 164.34 284.532C164.222 284.57 164.098 284.582 163.975 284.567C163.852 284.552 163.734 284.51 163.629 284.445C163.523 284.38 163.433 284.293 163.365 284.19C163.297 284.087 163.252 283.97 163.233 283.848C163.161 283.594 163.183 283.323 163.295 283.084C163.407 282.845 163.601 282.655 163.842 282.548C166.261 281.612 168.468 280.2 170.331 278.396L171.112 277.672L171.655 278.613C173.346 281.166 175.616 283.284 178.28 284.794C180.945 286.304 183.928 287.163 186.988 287.3C196.75 287.716 199.713 281.21 199.739 281.057L200.714 278.819L201.413 281.158C201.499 281.437 203.649 288.149 213.324 288.885C216.378 289.122 219.445 288.631 222.273 287.451C225.1 286.271 227.607 284.437 229.587 282.099L230.24 281.23L230.928 282.042C232.565 284.053 234.586 285.719 236.872 286.942C237.102 287.075 237.276 287.286 237.362 287.537C237.448 287.788 237.439 288.062 237.338 288.308C237.303 288.427 237.242 288.538 237.16 288.632C237.078 288.726 236.977 288.801 236.863 288.853C236.75 288.905 236.626 288.931 236.502 288.931C236.377 288.931 236.254 288.904 236.14 288.853C233.917 287.696 231.93 286.135 230.281 284.249C228.132 286.604 225.472 288.435 222.504 289.599C219.536 290.764 216.341 291.232 213.164 290.967C205.249 290.336 201.773 285.996 200.43 283.533C198.801 285.817 194.831 289.709 186.897 289.386L186.47 289.36Z" fill="#416900"/>
<path d="M187.166 277.781C184.06 277.598 181.033 276.722 178.309 275.217C175.585 273.713 173.232 271.618 171.423 269.086L169.91 270.297C169.808 270.367 169.693 270.414 169.572 270.436C169.45 270.458 169.326 270.454 169.206 270.424C169.086 270.394 168.974 270.339 168.877 270.263C168.78 270.187 168.701 270.091 168.644 269.981C168.52 269.744 168.481 269.472 168.534 269.21C168.587 268.947 168.729 268.712 168.936 268.542C169.646 268.009 170.327 267.437 170.976 266.831L171.757 266.106L172.3 267.047C173.987 269.604 176.257 271.724 178.922 273.234C181.587 274.744 184.572 275.601 187.632 275.735C197.395 276.151 200.357 269.644 200.384 269.491L201.358 267.253L202.058 269.592C202.144 269.872 204.294 276.583 213.968 277.32C217.023 277.564 220.093 277.075 222.921 275.895C225.75 274.715 228.256 272.877 230.232 270.533L230.884 269.664L231.572 270.477C232.165 271.164 232.793 271.836 233.425 272.44C233.545 272.551 233.638 272.687 233.697 272.839C233.756 272.991 233.78 273.155 233.767 273.317C233.766 273.575 233.664 273.823 233.483 274.007C233.302 274.192 233.057 274.298 232.799 274.305L232.491 274.286L232.282 274.068C231.811 273.628 231.376 273.173 230.925 272.683C228.774 275.035 226.113 276.862 223.146 278.027C220.179 279.191 216.985 279.661 213.809 279.401C205.892 278.788 202.418 274.43 201.075 271.967C199.446 274.252 195.474 278.161 187.541 277.82L187.166 277.781Z" fill="#416900"/>
<path d="M214.972 267.764L214.562 267.74C206.647 267.109 203.171 262.769 201.828 260.306C200.199 262.59 196.228 266.482 188.294 266.159C185.376 266.036 182.516 265.306 179.896 264.015C177.276 262.724 174.954 260.901 173.079 258.661C172.917 258.449 172.836 258.186 172.852 257.919C172.868 257.653 172.98 257.401 173.166 257.21C173.25 257.121 173.353 257.052 173.467 257.007C173.58 256.962 173.703 256.942 173.825 256.95C173.947 256.957 174.066 256.991 174.173 257.049C174.281 257.107 174.374 257.188 174.447 257.287C176.176 259.343 178.313 261.018 180.723 262.204C183.133 263.391 185.764 264.064 188.448 264.18C198.211 264.579 201.179 257.987 201.2 257.919L202.175 255.681L202.874 258.02C202.96 258.3 205.11 265.011 214.784 265.765C217.462 265.975 220.156 265.625 222.692 264.736C225.227 263.846 227.549 262.438 229.51 260.6C229.592 260.509 229.695 260.437 229.809 260.39C229.923 260.343 230.046 260.323 230.169 260.33C230.292 260.338 230.412 260.373 230.519 260.433C230.627 260.493 230.72 260.576 230.791 260.677C230.948 260.895 231.024 261.16 231.008 261.427C230.992 261.695 230.884 261.949 230.702 262.146C228.607 264.112 226.128 265.626 223.422 266.593C220.716 267.559 217.839 267.958 214.972 267.764Z" fill="#416900"/>
<path d="M188.577 254.623C184.171 254.388 179.959 252.734 176.571 249.906C176.373 249.726 176.244 249.482 176.206 249.217C176.169 248.952 176.226 248.682 176.367 248.454C176.426 248.346 176.508 248.252 176.607 248.179C176.706 248.106 176.821 248.056 176.941 248.032C177.062 248.008 177.187 248.011 177.307 248.041C177.426 248.071 177.538 248.127 177.633 248.205C180.856 250.892 184.884 252.426 189.078 252.562C198.841 252.978 201.803 246.471 201.83 246.318L202.804 244.08L203.503 246.419C203.589 246.698 205.74 253.41 215.414 254.146C219.594 254.514 223.777 253.475 227.299 251.193C227.403 251.127 227.521 251.085 227.643 251.07C227.765 251.055 227.889 251.067 228.006 251.105C228.124 251.143 228.231 251.206 228.321 251.291C228.411 251.375 228.481 251.478 228.526 251.593C228.644 251.833 228.673 252.108 228.607 252.368C228.541 252.628 228.385 252.856 228.167 253.011C224.33 255.467 219.795 256.597 215.255 256.228C207.339 255.597 203.864 251.257 202.521 248.794C200.892 251.078 196.921 254.97 188.987 254.647L188.577 254.623Z" fill="#416900"/>
<path d="M216.361 244.673L215.951 244.648C208.036 244.018 204.56 239.678 203.217 237.214C201.589 239.499 197.618 243.391 189.684 243.068C186.387 242.95 183.167 242.038 180.296 240.412C180.075 240.268 179.914 240.05 179.841 239.797C179.768 239.544 179.789 239.273 179.899 239.034C179.94 238.917 180.005 238.81 180.091 238.72C180.176 238.631 180.28 238.56 180.394 238.514C180.509 238.467 180.632 238.445 180.756 238.45C180.88 238.455 181.001 238.486 181.112 238.541C183.764 240.032 186.734 240.868 189.775 240.982C199.538 241.398 202.5 234.891 202.527 234.739L203.501 232.501L204.2 234.84C204.286 235.119 206.436 241.83 216.111 242.567C219.138 242.824 222.183 242.348 224.988 241.181C225.104 241.139 225.228 241.122 225.352 241.131C225.476 241.14 225.596 241.175 225.706 241.233C225.815 241.291 225.911 241.372 225.988 241.469C226.064 241.567 226.12 241.68 226.15 241.8C226.232 242.053 226.221 242.327 226.118 242.572C226.015 242.818 225.828 243.018 225.59 243.137C222.673 244.353 219.515 244.878 216.361 244.673Z" fill="#416900"/>
<path d="M189.971 231.464C188.026 231.347 186.105 230.966 184.262 230.332C184.022 230.224 183.829 230.032 183.72 229.792C183.611 229.551 183.594 229.28 183.672 229.028C183.698 228.906 183.748 228.79 183.821 228.688C183.893 228.587 183.985 228.501 184.092 228.437C184.199 228.372 184.318 228.331 184.442 228.314C184.565 228.298 184.691 228.308 184.811 228.342C186.636 228.969 188.543 229.326 190.472 229.403C200.166 229.815 203.104 223.426 203.24 223.16L204.213 220.956L204.897 223.26C204.983 223.539 207.133 230.251 216.808 230.987C218.732 231.143 220.668 231.017 222.555 230.613C222.679 230.591 222.806 230.595 222.928 230.624C223.049 230.654 223.164 230.71 223.263 230.787C223.362 230.864 223.443 230.961 223.502 231.072C223.56 231.183 223.595 231.305 223.603 231.431C223.651 231.69 223.601 231.958 223.465 232.183C223.328 232.409 223.113 232.576 222.861 232.654C220.822 233.098 218.728 233.238 216.648 233.069C208.733 232.438 205.257 228.098 203.914 225.635C202.286 227.919 198.315 231.811 190.381 231.488L189.971 231.464Z" fill="#416900"/>
<path d="M217.755 221.514L217.345 221.489C209.429 220.859 205.954 216.519 204.611 214.055C202.982 216.34 199.011 220.232 191.077 219.909C190.192 219.877 189.31 219.784 188.437 219.63C188.184 219.568 187.965 219.412 187.825 219.192C187.685 218.973 187.635 218.708 187.685 218.453C187.71 218.198 187.833 217.964 188.029 217.799C188.225 217.634 188.477 217.553 188.732 217.573C189.538 217.709 190.352 217.792 191.169 217.823C200.931 218.239 203.894 211.732 203.92 211.58L204.895 209.341L205.594 211.68C205.68 211.96 207.83 218.671 217.504 219.408C218.319 219.475 219.137 219.49 219.953 219.452C220.208 219.463 220.45 219.574 220.624 219.76C220.799 219.947 220.893 220.195 220.887 220.451C220.902 220.71 220.819 220.964 220.655 221.164C220.49 221.364 220.256 221.494 219.999 221.529C219.251 221.568 218.502 221.563 217.755 221.514Z" fill="#416900"/>
<path d="M192.785 208.338C192.539 208.31 192.315 208.187 192.16 207.995C192.005 207.803 191.931 207.557 191.955 207.311C191.937 207.053 192.021 206.799 192.191 206.603C192.36 206.408 192.6 206.287 192.858 206.269C201.826 206.208 204.592 200.118 204.617 200L205.591 197.762L206.29 200.101C206.378 200.363 208.385 206.603 217.213 207.734C217.468 207.784 217.693 207.931 217.84 208.145C217.988 208.359 218.045 208.623 218.001 208.879C217.995 209.006 217.965 209.131 217.911 209.246C217.856 209.361 217.78 209.464 217.685 209.55C217.591 209.635 217.48 209.7 217.36 209.742C217.24 209.785 217.113 209.802 216.986 209.795C214.59 209.621 212.273 208.863 210.237 207.587C208.201 206.311 206.509 204.556 205.308 202.475C203.866 204.397 201.975 205.936 199.801 206.959C197.627 207.981 195.236 208.456 192.836 208.341L192.785 208.338Z" fill="#416900"/>
<path d="M213.976 197.427C213.902 197.437 213.827 197.433 213.754 197.413C210.46 196.317 207.694 194.029 205.998 190.999C203.952 193.804 200.932 195.743 197.529 196.437C197.406 196.46 197.279 196.456 197.157 196.426C197.035 196.396 196.921 196.341 196.822 196.263C196.723 196.186 196.642 196.089 196.583 195.978C196.524 195.867 196.49 195.745 196.481 195.62C196.433 195.362 196.48 195.096 196.613 194.871C196.747 194.645 196.957 194.476 197.207 194.395C198.911 194.087 200.524 193.401 201.929 192.388C203.333 191.376 204.493 190.061 205.324 188.541L206.296 186.337L206.98 188.641C207.613 190.252 208.602 191.699 209.873 192.873C211.144 194.048 212.664 194.92 214.32 195.425C214.556 195.538 214.744 195.731 214.852 195.969C214.96 196.208 214.981 196.477 214.91 196.729C214.853 196.931 214.73 197.11 214.561 197.236C214.393 197.362 214.187 197.429 213.976 197.427Z" fill="#416900"/>
<path d="M210.597 183.511L210.273 183.491L210.06 183.324C208.663 182.214 207.499 180.839 206.635 179.278C205.59 180.724 204.27 181.95 202.75 182.884C202.644 182.946 202.526 182.985 202.404 182.998C202.281 183.01 202.158 182.996 202.042 182.957C201.925 182.917 201.819 182.853 201.729 182.769C201.64 182.684 201.57 182.582 201.524 182.468C201.413 182.223 201.392 181.947 201.464 181.688C201.536 181.429 201.696 181.204 201.917 181.051C203.623 180.033 205.02 178.571 205.96 176.821L206.933 174.617L207.617 176.921C208.325 178.765 209.527 180.379 211.09 181.586C211.227 181.698 211.336 181.841 211.406 182.004C211.477 182.166 211.508 182.343 211.497 182.519C211.501 182.768 211.411 183.009 211.244 183.194C211.077 183.378 210.845 183.491 210.597 183.511Z" fill="#416900"/>
<path d="M382.247 197.326L380.65 197.543L402.14 355.921L403.738 355.704L382.247 197.326Z" fill="#416900"/>
<path d="M412.207 334.526L411.845 334.575C404.836 335.403 401.056 332.202 399.462 330.3C398.433 332.558 395.643 336.651 388.666 337.72C385.87 338.166 383.009 337.963 380.303 337.127C377.598 336.291 375.121 334.845 373.063 332.9C366.155 341.711 358.903 339.057 355.154 336.65C354.957 336.515 354.814 336.314 354.752 336.083C354.69 335.853 354.712 335.607 354.815 335.391C354.856 335.291 354.919 335.2 354.999 335.126C355.079 335.052 355.174 334.997 355.278 334.964C355.382 334.931 355.491 334.921 355.599 334.934C355.707 334.948 355.811 334.986 355.903 335.044C360.089 337.73 366.336 339.2 372.343 330.987L372.899 330.221L373.535 330.948C375.445 332.891 377.789 334.352 380.373 335.213C382.958 336.074 385.71 336.309 388.404 335.898C396.926 334.573 398.391 328.512 398.461 328.241L398.932 326.167L399.923 328.043C400.048 328.287 403.077 333.754 411.643 332.745C414.349 332.428 416.942 331.47 419.204 329.951C421.467 328.432 423.335 326.396 424.655 324.011L425.074 323.141L425.814 323.731C433.792 330.047 439.437 326.963 442.756 323.259C442.825 323.176 442.912 323.109 443.011 323.064C443.11 323.02 443.217 322.998 443.326 323.001C443.434 323.004 443.54 323.032 443.636 323.082C443.732 323.132 443.816 323.203 443.88 323.291C444.037 323.471 444.123 323.702 444.125 323.941C444.126 324.18 444.042 324.411 443.888 324.594C440.903 327.931 434.621 332.421 425.63 325.767C424.184 328.133 422.229 330.147 419.907 331.662C417.585 333.177 414.955 334.156 412.207 334.526Z" fill="#416900"/>
<path d="M410.833 324.29L410.456 324.342C403.447 325.17 399.667 321.969 398.072 320.052C397.045 322.324 394.254 326.417 387.278 327.487C384.481 327.931 381.62 327.728 378.915 326.892C376.21 326.057 373.733 324.611 371.674 322.667C366.223 329.546 360.584 329.39 356.751 327.945C356.535 327.848 356.361 327.677 356.259 327.463C356.157 327.25 356.134 327.007 356.193 326.778C356.213 326.669 356.256 326.565 356.32 326.473C356.383 326.382 356.466 326.306 356.561 326.249C356.657 326.192 356.764 326.157 356.874 326.145C356.985 326.133 357.097 326.145 357.202 326.181C362.267 328.103 366.9 326.277 370.937 320.741L371.495 319.99L372.131 320.717C374.043 322.656 376.387 324.114 378.971 324.972C381.556 325.829 384.306 326.063 386.998 325.652C395.523 324.342 396.987 318.28 397.058 318.01L397.528 315.935L398.522 317.827C398.645 318.055 401.676 323.538 410.237 322.499C412.943 322.183 415.534 321.228 417.797 319.712C420.06 318.196 421.93 316.162 423.251 313.78L423.67 312.91L424.408 313.485C429.79 317.743 434.721 318.225 439.096 315.068C439.189 315.006 439.293 314.965 439.403 314.947C439.512 314.929 439.625 314.934 439.732 314.963C439.839 314.992 439.939 315.044 440.025 315.115C440.11 315.186 440.179 315.275 440.228 315.375C440.346 315.58 440.389 315.82 440.347 316.053C440.306 316.286 440.183 316.497 440.001 316.649C436.691 319.063 431.352 320.77 424.226 315.536C422.786 317.9 420.836 319.912 418.519 321.427C416.202 322.941 413.576 323.92 410.833 324.29Z" fill="#416900"/>
<path d="M385.514 317.32C382.774 317.695 379.984 317.453 377.349 316.61C374.715 315.767 372.302 314.345 370.288 312.449C366.794 316.898 362.835 318.939 358.521 318.481C358.291 318.441 358.084 318.316 357.942 318.13C357.801 317.945 357.734 317.712 357.756 317.48C357.751 317.367 357.771 317.255 357.812 317.15C357.853 317.046 357.916 316.951 357.997 316.872C358.077 316.793 358.173 316.732 358.279 316.692C358.384 316.653 358.497 316.636 358.609 316.643C362.594 317.054 366.291 315.002 369.555 310.553L370.111 309.787L370.747 310.514C372.659 312.454 375.003 313.913 377.587 314.774C380.171 315.634 382.923 315.871 385.616 315.464C394.138 314.139 395.601 308.062 395.673 307.807L396.142 305.717L397.135 307.609C397.258 307.837 400.289 313.32 408.855 312.311C411.56 311.989 414.15 311.029 416.412 309.511C418.674 307.992 420.544 305.959 421.867 303.577L422.288 302.722L423.026 303.297C427.359 306.731 431.469 307.723 435.214 306.248C435.319 306.214 435.431 306.202 435.542 306.214C435.652 306.225 435.759 306.259 435.856 306.314C435.953 306.368 436.037 306.442 436.104 306.531C436.171 306.62 436.218 306.721 436.244 306.83C436.328 307.046 436.327 307.286 436.243 307.502C436.159 307.717 435.997 307.894 435.789 307.996C431.738 309.59 427.378 308.677 422.84 305.318C421.399 307.682 419.45 309.694 417.133 311.209C414.816 312.723 412.19 313.702 409.447 314.073L409.07 314.124C402.061 314.952 398.281 311.751 396.685 309.834C395.658 312.107 392.868 316.199 385.891 317.269L385.514 317.32Z" fill="#416900"/>
<path d="M408.045 303.857L407.683 303.906C400.672 304.719 396.894 301.533 395.299 299.616C394.272 301.889 391.479 305.967 384.505 307.051C381.709 307.49 378.849 307.284 376.145 306.448C373.44 305.613 370.963 304.17 368.901 302.231C366.88 305.121 363.899 307.2 360.489 308.1C360.26 308.111 360.035 308.033 359.863 307.882C359.69 307.73 359.584 307.517 359.565 307.289C359.518 307.07 359.557 306.842 359.675 306.652C359.792 306.461 359.978 306.324 360.194 306.267C363.517 305.346 366.379 303.224 368.227 300.312L368.783 299.546L369.419 300.273C371.328 302.215 373.672 303.675 376.257 304.533C378.842 305.391 381.593 305.623 384.285 305.208C392.81 303.898 394.274 297.836 394.345 297.566L394.814 295.476L395.807 297.368C395.932 297.611 398.961 303.079 407.524 302.055C410.23 301.739 412.821 300.784 415.085 299.268C417.348 297.752 419.217 295.718 420.538 293.336L420.957 292.466L421.697 293.056C424.97 295.682 428.098 296.792 431.042 296.654C431.273 296.66 431.493 296.754 431.658 296.917C431.823 297.08 431.919 297.3 431.928 297.531C431.959 297.756 431.9 297.985 431.763 298.167C431.627 298.349 431.425 298.47 431.201 298.505C427.673 298.553 424.244 297.342 421.528 295.09C420.078 297.465 418.114 299.485 415.781 301.002C413.447 302.519 410.804 303.494 408.045 303.857Z" fill="#416900"/>
<path d="M382.741 296.884C380.001 297.26 377.211 297.017 374.576 296.174C371.941 295.331 369.529 293.91 367.515 292.013C366.173 293.796 364.51 295.312 362.612 296.485C362.515 296.538 362.409 296.57 362.299 296.578C362.189 296.586 362.079 296.57 361.976 296.532C361.873 296.493 361.78 296.433 361.703 296.355C361.625 296.277 361.566 296.183 361.528 296.079C361.422 295.87 361.394 295.63 361.451 295.402C361.507 295.175 361.644 294.975 361.836 294.84C363.784 293.608 365.465 291.997 366.78 290.102L367.336 289.336L367.972 290.063C369.886 291.999 372.23 293.455 374.813 294.313C377.397 295.17 380.147 295.406 382.838 294.999C391.423 293.68 392.886 287.496 392.883 287.358L393.347 285.239L394.36 287.158C394.483 287.387 397.514 292.869 406.077 291.845C408.782 291.526 411.372 290.569 413.634 289.054C415.897 287.538 417.767 285.507 419.091 283.127L419.51 282.257L420.251 282.847C422.025 284.318 424.074 285.423 426.278 286.096C426.501 286.172 426.69 286.326 426.808 286.531C426.926 286.735 426.966 286.975 426.92 287.206C426.91 287.317 426.875 287.423 426.82 287.52C426.765 287.616 426.69 287.699 426.6 287.764C426.509 287.828 426.406 287.873 426.298 287.894C426.189 287.916 426.077 287.913 425.969 287.888C423.831 287.262 421.83 286.243 420.066 284.882C418.598 287.306 416.593 289.361 414.206 290.887C411.819 292.414 409.113 293.372 406.297 293.688C399.286 294.501 395.507 291.315 393.912 289.398C392.885 291.671 390.092 295.749 383.118 296.833L382.741 296.884Z" fill="#416900"/>
<path d="M381.355 286.666C378.614 287.042 375.824 286.799 373.19 285.956C370.555 285.113 368.142 283.692 366.129 281.795L365.018 283.112C364.941 283.191 364.849 283.252 364.747 283.292C364.645 283.332 364.535 283.349 364.426 283.344C364.316 283.339 364.209 283.31 364.111 283.26C364.014 283.21 363.928 283.14 363.859 283.055C363.71 282.869 363.629 282.638 363.631 282.401C363.632 282.163 363.715 281.933 363.866 281.749C364.394 281.162 364.889 280.546 365.35 279.906L365.906 279.139L366.542 279.867C368.454 281.805 370.798 283.263 373.382 284.121C375.967 284.979 378.717 285.212 381.409 284.802C389.994 283.484 391.457 277.299 391.454 277.162L391.918 275.042L392.931 276.961C393.054 277.19 396.084 282.673 404.648 281.649C407.354 281.335 409.947 280.381 412.21 278.865C414.474 277.348 416.343 275.314 417.662 272.93L418.081 272.06L418.821 272.65C419.456 273.147 420.12 273.625 420.775 274.042C420.899 274.119 421.003 274.222 421.081 274.344C421.159 274.466 421.208 274.605 421.224 274.749C421.267 274.974 421.221 275.208 421.095 275.399C420.97 275.591 420.774 275.727 420.55 275.777L420.279 275.813L420.058 275.659C419.572 275.357 419.114 275.035 418.637 274.686C417.166 277.106 415.16 279.159 412.773 280.685C410.386 282.211 407.682 283.171 404.867 283.491C397.858 284.32 394.078 281.118 392.482 279.201C391.456 281.474 388.665 285.567 381.689 286.637L381.355 286.666Z" fill="#416900"/>
<path d="M403.878 273.143L403.516 273.192C396.505 274.005 392.727 270.819 391.131 268.902C390.104 271.175 387.312 275.253 380.337 276.337C377.771 276.733 375.151 276.589 372.644 275.914C370.137 275.239 367.798 274.049 365.777 272.419C365.599 272.262 365.484 272.046 365.452 271.811C365.42 271.576 365.474 271.337 365.604 271.138C365.662 271.046 365.739 270.968 365.831 270.91C365.922 270.851 366.025 270.813 366.133 270.798C366.241 270.784 366.35 270.793 366.454 270.825C366.558 270.857 366.653 270.912 366.734 270.985C368.595 272.48 370.748 273.573 373.054 274.192C375.36 274.812 377.77 274.946 380.13 274.585C388.713 273.251 390.166 266.992 390.173 266.929L390.637 264.81L391.65 266.729C391.773 266.958 394.804 272.44 403.369 271.432C405.742 271.154 408.03 270.385 410.088 269.172C412.146 267.96 413.929 266.332 415.322 264.392C415.378 264.298 415.455 264.218 415.546 264.157C415.638 264.097 415.741 264.058 415.85 264.043C415.959 264.029 416.069 264.038 416.173 264.072C416.277 264.106 416.373 264.163 416.452 264.238C416.626 264.401 416.739 264.619 416.771 264.855C416.803 265.091 416.752 265.331 416.628 265.534C415.139 267.61 413.239 269.357 411.045 270.666C408.851 271.975 406.411 272.818 403.878 273.143Z" fill="#416900"/>
<path d="M378.597 266.229C374.714 266.783 370.756 266.066 367.315 264.183C367.111 264.061 366.956 263.87 366.878 263.645C366.8 263.42 366.803 263.175 366.887 262.952C366.919 262.848 366.975 262.752 367.049 262.671C367.123 262.59 367.214 262.527 367.315 262.485C367.416 262.444 367.526 262.425 367.635 262.43C367.744 262.436 367.851 262.465 367.948 262.517C371.221 264.305 374.998 264.949 378.679 264.345C387.264 263.027 388.727 256.842 388.724 256.705L389.188 254.585L390.2 256.504C390.324 256.733 393.354 262.216 401.918 261.192C405.627 260.793 409.095 259.166 411.774 256.57C411.853 256.495 411.948 256.438 412.052 256.403C412.156 256.369 412.267 256.358 412.375 256.371C412.484 256.384 412.589 256.421 412.681 256.479C412.774 256.537 412.853 256.615 412.913 256.707C413.057 256.896 413.129 257.131 413.117 257.369C413.104 257.607 413.007 257.833 412.843 258.006C409.921 260.808 406.16 262.574 402.137 263.034C395.126 263.848 391.348 260.661 389.752 258.745C388.726 261.017 385.933 265.095 378.959 266.18L378.597 266.229Z" fill="#416900"/>
<path d="M401.113 252.767L400.751 252.816C393.74 253.629 389.962 250.443 388.366 248.526C387.339 250.799 384.547 254.877 377.572 255.961C374.677 256.426 371.712 256.186 368.928 255.262C368.711 255.174 368.533 255.012 368.425 254.804C368.318 254.596 368.29 254.356 368.345 254.128C368.361 254.019 368.399 253.915 368.458 253.822C368.517 253.729 368.595 253.65 368.687 253.59C368.779 253.529 368.883 253.489 368.991 253.472C369.1 253.455 369.211 253.461 369.317 253.49C371.887 254.333 374.621 254.551 377.293 254.127C385.878 252.808 387.341 246.624 387.337 246.486L387.802 244.367L388.814 246.286C388.937 246.515 391.968 251.997 400.532 250.973C403.216 250.676 405.789 249.737 408.034 248.236C408.129 248.18 408.234 248.144 408.343 248.13C408.453 248.117 408.564 248.126 408.669 248.158C408.775 248.19 408.872 248.244 408.956 248.315C409.039 248.387 409.107 248.476 409.154 248.575C409.269 248.782 409.307 249.023 409.259 249.255C409.212 249.487 409.083 249.694 408.896 249.838C406.561 251.401 403.898 252.403 401.113 252.767Z" fill="#416900"/>
<path d="M375.824 245.792C374.108 246.025 372.367 246.024 370.651 245.788C370.423 245.736 370.221 245.602 370.085 245.411C369.949 245.22 369.887 244.986 369.912 244.753C369.913 244.642 369.937 244.533 369.983 244.432C370.028 244.33 370.094 244.24 370.176 244.165C370.258 244.091 370.355 244.034 370.46 243.998C370.565 243.963 370.676 243.949 370.787 243.959C372.487 244.191 374.211 244.174 375.906 243.909C384.431 242.599 385.893 236.522 385.966 236.266L386.434 234.177L387.428 236.068C387.551 236.297 390.582 241.779 399.145 240.756C400.85 240.56 402.516 240.116 404.093 239.44C404.197 239.399 404.308 239.38 404.419 239.385C404.531 239.39 404.64 239.419 404.74 239.469C404.839 239.519 404.927 239.59 404.997 239.677C405.068 239.763 405.119 239.864 405.147 239.972C405.233 240.19 405.237 240.432 405.156 240.652C405.076 240.872 404.917 241.055 404.711 241.167C403.009 241.905 401.207 242.387 399.365 242.598C392.353 243.411 388.575 240.225 386.98 238.308C385.953 240.581 383.16 244.659 376.186 245.743L375.824 245.792Z" fill="#416900"/>
<path d="M398.34 232.331L397.978 232.381C390.967 233.194 387.188 230.008 385.593 228.091C384.566 230.363 381.774 234.441 374.799 235.526C374.022 235.65 373.236 235.721 372.449 235.737C372.218 235.727 372 235.628 371.84 235.461C371.68 235.294 371.59 235.072 371.591 234.841C371.568 234.614 371.635 234.388 371.777 234.211C371.92 234.034 372.126 233.92 372.352 233.893C373.078 233.873 373.802 233.805 374.519 233.691C383.104 232.373 384.567 226.188 384.564 226.051L385.029 223.931L386.041 225.85C386.164 226.079 389.195 231.562 397.759 230.538C398.48 230.456 399.196 230.329 399.901 230.155C400.126 230.12 400.355 230.175 400.54 230.308C400.725 230.441 400.85 230.641 400.888 230.865C400.946 231.088 400.917 231.324 400.808 231.527C400.699 231.73 400.517 231.884 400.299 231.958C399.654 232.121 399 232.246 398.34 232.331Z" fill="#416900"/>
<path d="M374.295 225.142C374.077 225.16 373.86 225.091 373.691 224.95C373.523 224.809 373.416 224.608 373.395 224.389C373.335 224.167 373.365 223.931 373.478 223.731C373.592 223.531 373.781 223.385 374.003 223.324C381.813 221.727 383.177 215.94 383.177 215.833L383.642 213.713L384.654 215.632C384.775 215.846 387.6 220.942 395.494 220.408C395.725 220.408 395.947 220.498 396.112 220.659C396.277 220.82 396.373 221.04 396.378 221.271C396.395 221.382 396.39 221.497 396.363 221.606C396.335 221.716 396.286 221.819 396.219 221.91C396.151 222.001 396.066 222.077 395.968 222.134C395.871 222.192 395.763 222.229 395.651 222.244C393.531 222.505 391.38 222.243 389.385 221.481C387.39 220.719 385.612 219.48 384.206 217.873C383.28 219.797 381.896 221.465 380.176 222.731C378.457 223.997 376.453 224.823 374.341 225.136L374.295 225.142Z" fill="#416900"/>
<path d="M390.896 211.977C390.834 211.999 390.767 212.008 390.7 212.003C387.639 211.614 384.832 210.096 382.832 207.745C381.531 210.544 379.231 212.755 376.383 213.946C376.279 213.987 376.168 214.005 376.057 214C375.945 213.995 375.836 213.966 375.737 213.916C375.637 213.866 375.549 213.795 375.479 213.709C375.409 213.622 375.357 213.521 375.329 213.414C375.242 213.198 375.237 212.957 375.315 212.738C375.392 212.518 375.547 212.334 375.75 212.221C377.183 211.659 378.472 210.783 379.523 209.658C380.573 208.532 381.358 207.186 381.82 205.718L382.289 203.629L383.282 205.52C384.112 206.816 385.223 207.907 386.534 208.713C387.845 209.518 389.32 210.017 390.851 210.172C391.076 210.23 391.274 210.365 391.409 210.555C391.544 210.744 391.608 210.975 391.59 211.207C391.575 211.394 391.499 211.57 391.374 211.709C391.248 211.849 391.08 211.942 390.896 211.977Z" fill="#416900"/>
<path d="M385.553 200.423L385.267 200.462L385.052 200.353C383.643 199.626 382.391 198.627 381.369 197.415C380.707 198.856 379.766 200.152 378.602 201.228C378.52 201.301 378.424 201.355 378.32 201.387C378.215 201.419 378.105 201.428 377.997 201.413C377.888 201.399 377.785 201.361 377.692 201.303C377.6 201.245 377.521 201.168 377.461 201.076C377.322 200.882 377.256 200.645 377.274 200.407C377.293 200.169 377.394 199.945 377.56 199.774C378.872 198.591 379.839 197.076 380.357 195.388L380.826 193.299L381.819 195.19C382.755 196.676 384.08 197.876 385.651 198.66C385.79 198.734 385.909 198.84 385.999 198.97C386.089 199.099 386.146 199.248 386.167 199.404C386.214 199.62 386.177 199.846 386.062 200.035C385.948 200.225 385.766 200.364 385.553 200.423Z" fill="#416900"/>
<path d="M300.88 213.621L299.47 213.646L301.909 353.475L303.319 353.451L300.88 213.621Z" fill="#416900"/>
<path d="M312.849 335.915L312.53 335.921C306.354 335.922 303.397 332.753 302.208 330.937C301.082 332.793 298.238 336.064 292.066 336.278C289.59 336.378 287.125 335.909 284.859 334.905C282.594 333.902 280.59 332.391 279.001 330.49C272.095 337.438 266.066 334.389 263.054 331.912C262.897 331.775 262.794 331.586 262.763 331.379C262.733 331.172 262.777 330.961 262.888 330.784C262.934 330.701 262.998 330.628 263.075 330.572C263.153 330.516 263.241 330.478 263.335 330.46C263.428 330.442 263.525 330.444 263.617 330.467C263.71 330.491 263.796 330.534 263.87 330.594C267.232 333.357 272.51 335.275 278.572 328.754L279.133 328.145L279.611 328.842C281.072 330.726 282.959 332.236 285.117 333.249C287.274 334.262 289.642 334.748 292.024 334.668C299.566 334.39 301.46 329.273 301.549 329.045L302.171 327.29L302.84 329.022C302.924 329.247 304.995 334.309 312.542 334.31C314.926 334.312 317.277 333.745 319.399 332.657C321.521 331.569 323.353 329.991 324.744 328.055L325.198 327.341L325.78 327.93C332.066 334.236 337.287 332.135 340.55 329.256C340.619 329.191 340.702 329.142 340.792 329.113C340.883 329.085 340.978 329.077 341.072 329.09C341.166 329.104 341.256 329.139 341.334 329.193C341.412 329.246 341.478 329.317 341.525 329.399C341.642 329.572 341.694 329.781 341.67 329.989C341.647 330.197 341.551 330.389 341.398 330.532C338.462 333.126 332.543 336.384 325.411 329.68C323.913 331.588 322.008 333.138 319.834 334.216C317.661 335.295 315.275 335.875 312.849 335.915Z" fill="#416900"/>
<path d="M312.705 326.881L312.372 326.886C306.196 326.888 303.24 323.718 302.05 321.889C300.924 323.759 298.08 327.029 291.908 327.243C289.433 327.343 286.967 326.873 284.702 325.869C282.437 324.866 280.433 323.356 278.843 321.455C273.401 326.874 268.517 326.161 265.334 324.513C265.157 324.406 265.023 324.239 264.956 324.043C264.889 323.847 264.894 323.634 264.969 323.441C264.998 323.348 265.046 323.262 265.11 323.189C265.175 323.116 265.254 323.058 265.343 323.019C265.432 322.98 265.529 322.96 265.626 322.961C265.723 322.962 265.819 322.984 265.907 323.025C270.111 325.215 274.324 324.103 278.4 319.706L278.962 319.111L279.44 319.808C280.903 321.688 282.79 323.196 284.948 324.206C287.106 325.217 289.472 325.701 291.853 325.621C299.395 325.356 301.289 320.239 301.378 320.011L302 318.256L302.669 320.001C302.753 320.213 304.824 325.288 312.37 325.263C314.754 325.266 317.104 324.701 319.226 323.616C321.348 322.53 323.181 320.955 324.573 319.02L325.026 318.307L325.609 318.883C329.849 323.134 334.084 324.059 338.21 321.764C338.297 321.719 338.392 321.694 338.489 321.69C338.586 321.685 338.683 321.702 338.773 321.738C338.864 321.774 338.945 321.83 339.012 321.9C339.079 321.971 339.13 322.055 339.162 322.147C339.244 322.337 339.256 322.55 339.196 322.748C339.136 322.947 339.008 323.117 338.835 323.23C335.711 324.989 330.896 325.924 325.24 320.646C323.746 322.552 321.846 324.101 319.677 325.18C317.509 326.259 315.126 326.84 312.705 326.881Z" fill="#416900"/>
<path d="M291.418 318.228C288.998 318.273 286.599 317.776 284.395 316.774C282.192 315.771 280.242 314.288 278.686 312.434C275.194 315.942 271.544 317.31 267.842 316.469C267.647 316.411 267.48 316.281 267.376 316.105C267.271 315.93 267.237 315.721 267.28 315.521C267.288 315.423 267.316 315.327 267.363 315.24C267.409 315.154 267.474 315.078 267.552 315.017C267.63 314.957 267.72 314.914 267.815 314.89C267.911 314.867 268.011 314.864 268.108 314.881C271.528 315.647 274.951 314.243 278.243 310.711L278.805 310.103L279.283 310.8C280.746 312.681 282.633 314.19 284.79 315.202C286.948 316.215 289.314 316.703 291.696 316.626C299.238 316.348 301.132 311.217 301.221 311.003L301.842 309.235L302.512 310.98C302.595 311.192 304.667 316.266 312.214 316.268C314.597 316.265 316.946 315.696 319.068 314.609C321.189 313.521 323.022 311.946 324.416 310.012L324.87 309.312L325.452 309.888C328.866 313.315 332.335 314.599 335.74 313.701C335.836 313.683 335.934 313.684 336.029 313.705C336.124 313.726 336.213 313.767 336.292 313.824C336.37 313.881 336.436 313.954 336.485 314.038C336.534 314.122 336.565 314.216 336.576 314.312C336.627 314.509 336.602 314.717 336.506 314.896C336.411 315.075 336.252 315.212 336.061 315.279C332.377 316.249 328.682 315.009 325.083 311.624C323.589 313.531 321.688 315.08 319.52 316.159C317.351 317.237 314.969 317.818 312.547 317.859L312.215 317.865C306.039 317.866 303.082 314.697 301.892 312.868C300.767 314.737 297.923 318.008 291.751 318.222L291.418 318.228Z" fill="#416900"/>
<path d="M312.377 308.838L312.058 308.844C305.882 308.832 302.925 305.676 301.735 303.846C300.61 305.716 297.765 308.973 291.593 309.201C289.119 309.295 286.655 308.823 284.391 307.82C282.126 306.817 280.121 305.309 278.529 303.413C276.476 305.717 273.672 307.218 270.617 307.65C270.417 307.637 270.229 307.546 270.095 307.396C269.961 307.247 269.89 307.051 269.897 306.851C269.879 306.656 269.936 306.462 270.058 306.308C270.179 306.155 270.355 306.054 270.549 306.028C273.531 305.568 276.235 304.017 278.139 301.676L278.701 301.067L279.179 301.764C280.639 303.647 282.526 305.157 284.684 306.167C286.843 307.178 289.21 307.661 291.592 307.577C299.134 307.312 301.028 302.195 301.117 301.967L301.738 300.199L302.407 301.945C302.491 302.17 304.563 307.231 312.109 307.219C314.493 307.222 316.842 306.658 318.964 305.572C321.086 304.487 322.919 302.911 324.312 300.977L324.765 300.264L325.348 300.852C327.922 303.469 330.527 304.755 333.099 304.936C333.299 304.966 333.481 305.07 333.607 305.229C333.734 305.387 333.795 305.588 333.779 305.79C333.782 305.988 333.708 306.181 333.571 306.325C333.434 306.469 333.246 306.554 333.047 306.561C329.977 306.242 327.121 304.838 324.992 302.602C323.488 304.517 321.574 306.071 319.391 307.15C317.209 308.229 314.812 308.806 312.377 308.838Z" fill="#416900"/>
<path d="M291.103 300.186C288.683 300.231 286.284 299.734 284.081 298.731C281.878 297.729 279.927 296.246 278.371 294.392C277.023 295.803 275.422 296.95 273.652 297.775C273.563 297.811 273.467 297.828 273.371 297.824C273.275 297.82 273.181 297.795 273.095 297.751C273.01 297.706 272.935 297.644 272.876 297.569C272.816 297.493 272.774 297.405 272.752 297.311C272.681 297.119 272.682 296.907 272.754 296.715C272.827 296.523 272.966 296.364 273.147 296.266C274.966 295.395 276.592 294.167 277.929 292.656L278.49 292.047L278.968 292.744C280.433 294.622 282.321 296.128 284.478 297.138C286.635 298.148 289 298.634 291.381 298.557C298.976 298.291 300.882 293.067 300.893 292.947L301.514 291.153L302.197 292.925C302.28 293.136 304.352 298.211 311.898 298.199C314.281 298.199 316.63 297.633 318.752 296.548C320.873 295.462 322.706 293.889 324.101 291.957L324.554 291.243L325.137 291.832C326.528 293.293 328.195 294.463 330.042 295.274C330.228 295.363 330.376 295.516 330.457 295.706C330.539 295.895 330.549 296.108 330.486 296.304C330.465 296.399 330.425 296.488 330.367 296.566C330.309 296.644 330.235 296.709 330.15 296.756C330.065 296.803 329.971 296.831 329.874 296.838C329.778 296.846 329.68 296.832 329.589 296.799C327.796 296.036 326.161 294.945 324.768 293.582C323.244 295.538 321.291 297.118 319.06 298.2C316.829 299.282 314.38 299.837 311.9 299.823C305.724 299.811 302.768 296.655 301.578 294.825C300.453 296.695 297.608 299.952 291.436 300.18L291.103 300.186Z" fill="#416900"/>
<path d="M290.946 291.164C288.526 291.209 286.126 290.712 283.923 289.71C281.72 288.707 279.769 287.224 278.214 285.37L277.114 286.401C277.039 286.461 276.953 286.505 276.86 286.529C276.767 286.553 276.67 286.557 276.575 286.541C276.481 286.525 276.391 286.49 276.311 286.436C276.231 286.383 276.164 286.313 276.113 286.232C276.002 286.056 275.956 285.847 275.981 285.64C276.007 285.434 276.103 285.242 276.253 285.098C276.771 284.642 277.265 284.158 277.731 283.648L278.293 283.039L278.771 283.737C280.234 285.617 282.121 287.125 284.279 288.135C286.436 289.145 288.803 289.63 291.184 289.549C298.779 289.284 300.685 284.06 300.696 283.94L301.317 282.145L302 283.917C302.083 284.128 304.155 289.203 311.701 289.191C314.085 289.197 316.436 288.633 318.558 287.547C320.68 286.462 322.513 284.885 323.904 282.949L324.357 282.236L324.94 282.825C325.441 283.322 325.969 283.805 326.495 284.235C326.595 284.314 326.675 284.414 326.73 284.528C326.785 284.643 326.813 284.768 326.813 284.895C326.827 285.095 326.763 285.293 326.634 285.447C326.505 285.601 326.321 285.698 326.122 285.719L325.882 285.723L325.706 285.566C325.315 285.254 324.95 284.927 324.571 284.575C323.044 286.527 321.091 288.105 318.861 289.187C316.63 290.268 314.182 290.825 311.703 290.815C305.527 290.816 302.571 287.647 301.381 285.818C300.255 287.687 297.411 290.958 291.239 291.172L290.946 291.164Z" fill="#416900"/>
<path d="M311.904 281.721L311.585 281.727C305.409 281.715 302.452 278.559 301.262 276.73C300.137 278.599 297.292 281.857 291.12 282.084C288.85 282.165 286.588 281.771 284.478 280.928C282.369 280.084 280.459 278.81 278.87 277.187C278.731 277.032 278.653 276.833 278.649 276.625C278.646 276.417 278.717 276.215 278.85 276.056C278.91 275.982 278.985 275.922 279.071 275.88C279.156 275.839 279.25 275.816 279.345 275.815C279.44 275.813 279.534 275.832 279.621 275.871C279.708 275.91 279.786 275.967 279.848 276.038C281.312 277.529 283.071 278.699 285.011 279.474C286.951 280.249 289.032 280.612 291.12 280.54C298.715 280.261 300.619 274.971 300.632 274.917L301.252 273.123L301.936 274.894C302.019 275.106 304.091 280.181 311.637 280.182C313.727 280.184 315.795 279.75 317.707 278.908C319.62 278.065 321.336 276.833 322.746 275.29C322.804 275.214 322.879 275.152 322.965 275.109C323.05 275.066 323.144 275.043 323.24 275.041C323.336 275.04 323.431 275.06 323.518 275.1C323.605 275.14 323.682 275.199 323.743 275.273C323.878 275.432 323.954 275.633 323.957 275.841C323.961 276.05 323.892 276.253 323.763 276.417C322.257 278.068 320.426 279.391 318.386 280.304C316.345 281.216 314.139 281.699 311.904 281.721Z" fill="#416900"/>
<path d="M290.644 273.121C287.213 273.205 283.848 272.176 281.05 270.188C280.886 270.06 280.771 269.879 280.726 269.675C280.681 269.472 280.709 269.259 280.805 269.074C280.844 268.986 280.902 268.909 280.974 268.846C281.047 268.783 281.132 268.738 281.225 268.712C281.317 268.686 281.414 268.681 281.508 268.697C281.603 268.713 281.693 268.749 281.771 268.804C284.432 270.694 287.648 271.64 290.909 271.493C298.504 271.227 300.409 266.003 300.421 265.883L301.042 264.089L301.725 265.861C301.808 266.072 303.88 271.147 311.426 271.135C314.69 271.169 317.871 270.111 320.464 268.129C320.541 268.072 320.63 268.032 320.724 268.013C320.817 267.994 320.914 267.995 321.008 268.018C321.101 268.04 321.188 268.083 321.263 268.143C321.337 268.203 321.398 268.279 321.44 268.365C321.546 268.544 321.585 268.756 321.55 268.961C321.514 269.167 321.407 269.353 321.247 269.486C318.42 271.622 314.971 272.771 311.428 272.759C305.252 272.747 302.295 269.591 301.106 267.761C299.98 269.631 297.136 272.888 290.964 273.116L290.644 273.121Z" fill="#416900"/>
<path d="M311.59 263.732L311.271 263.737C305.095 263.725 302.138 260.569 300.948 258.74C299.823 260.61 296.978 263.867 290.806 264.094C288.243 264.201 285.691 263.689 283.367 262.6C283.187 262.502 283.048 262.343 282.977 262.151C282.905 261.959 282.905 261.748 282.976 261.556C283.001 261.463 283.045 261.376 283.106 261.301C283.166 261.227 283.242 261.166 283.329 261.123C283.415 261.08 283.509 261.055 283.605 261.052C283.701 261.048 283.797 261.064 283.886 261.101C286.033 262.097 288.387 262.567 290.752 262.471C298.347 262.206 300.252 256.982 300.263 256.862L300.884 255.068L301.567 256.839C301.651 257.051 303.723 262.125 311.269 262.114C313.632 262.13 315.964 261.578 318.069 260.504C318.157 260.465 318.252 260.444 318.348 260.444C318.445 260.443 318.54 260.463 318.629 260.501C318.717 260.54 318.797 260.596 318.862 260.667C318.927 260.739 318.977 260.822 319.008 260.914C319.086 261.105 319.094 261.318 319.029 261.515C318.964 261.711 318.831 261.878 318.654 261.985C316.465 263.103 314.048 263.701 311.59 263.732Z" fill="#416900"/>
<path d="M290.33 255.079C288.814 255.105 287.302 254.926 285.835 254.545C285.642 254.476 285.481 254.339 285.382 254.159C285.283 253.979 285.254 253.769 285.299 253.569C285.312 253.473 285.344 253.381 285.394 253.297C285.443 253.214 285.51 253.142 285.589 253.086C285.668 253.029 285.758 252.99 285.853 252.97C285.947 252.95 286.045 252.949 286.14 252.969C287.594 253.345 289.094 253.507 290.594 253.45C298.136 253.186 300.03 248.055 300.119 247.84L300.741 246.073L301.41 247.818C301.494 248.029 303.565 253.104 311.112 253.092C312.613 253.097 314.107 252.883 315.546 252.456C315.64 252.431 315.739 252.426 315.835 252.442C315.932 252.458 316.023 252.494 316.105 252.548C316.186 252.602 316.255 252.672 316.308 252.755C316.36 252.837 316.394 252.93 316.408 253.027C316.46 253.225 316.438 253.436 316.346 253.619C316.253 253.802 316.097 253.945 315.906 254.02C314.352 254.487 312.737 254.722 311.113 254.716C304.937 254.704 301.981 251.548 300.791 249.719C299.666 251.588 296.821 254.846 290.649 255.073L290.33 255.079Z" fill="#416900"/>
<path d="M311.275 245.689L310.956 245.695C304.78 245.683 301.823 242.527 300.633 240.698C299.508 242.567 296.663 245.825 290.492 246.052C289.803 246.081 289.114 246.062 288.428 245.995C288.228 245.962 288.048 245.854 287.927 245.693C287.805 245.531 287.75 245.329 287.774 245.128C287.777 244.929 287.859 244.739 288.001 244.6C288.143 244.46 288.334 244.382 288.533 244.383C289.166 244.439 289.802 244.455 290.437 244.429C298.032 244.164 299.937 238.94 299.949 238.82L300.569 237.025L301.253 238.797C301.336 239.008 303.408 244.083 310.954 244.071C311.59 244.075 312.225 244.037 312.855 243.958C313.054 243.951 313.248 244.022 313.395 244.157C313.541 244.291 313.63 244.478 313.64 244.677C313.667 244.876 313.618 245.079 313.503 245.244C313.387 245.408 313.214 245.524 313.017 245.566C312.439 245.641 311.858 245.683 311.275 245.689Z" fill="#416900"/>
<path d="M291.119 236.977C290.927 236.97 290.745 236.888 290.613 236.749C290.481 236.609 290.41 236.423 290.414 236.231C290.384 236.032 290.434 235.829 290.553 235.668C290.673 235.506 290.852 235.398 291.051 235.368C298.001 234.781 299.779 229.892 299.791 229.799L300.412 228.004L301.095 229.776C301.178 229.974 303.111 234.692 310.025 235.037C310.225 235.06 310.409 235.161 310.536 235.318C310.663 235.475 310.724 235.676 310.705 235.877C310.708 235.976 310.692 236.075 310.657 236.167C310.622 236.26 310.569 236.344 310.501 236.416C310.432 236.488 310.351 236.546 310.26 236.585C310.169 236.625 310.072 236.647 309.973 236.648C308.104 236.658 306.262 236.21 304.606 235.343C302.951 234.476 301.533 233.218 300.476 231.677C299.474 233.253 298.1 234.561 296.476 235.485C294.852 236.409 293.026 236.921 291.159 236.977L291.119 236.977Z" fill="#416900"/>
<path d="M306.894 227.239C306.837 227.252 306.778 227.253 306.721 227.242C304.1 226.59 301.817 224.983 300.32 222.735C298.902 225.033 296.677 226.719 294.081 227.462C293.986 227.487 293.888 227.492 293.791 227.476C293.695 227.46 293.603 227.424 293.522 227.37C293.44 227.316 293.371 227.246 293.319 227.163C293.267 227.081 293.233 226.988 293.219 226.892C293.166 226.695 293.186 226.486 293.276 226.303C293.366 226.12 293.519 225.976 293.707 225.898C295.01 225.557 296.22 224.928 297.248 224.058C298.276 223.188 299.097 222.098 299.649 220.87L300.27 219.102L300.94 220.847C301.527 222.058 302.381 223.121 303.438 223.955C304.494 224.79 305.725 225.374 307.04 225.666C307.229 225.739 307.387 225.877 307.485 226.056C307.583 226.234 307.615 226.441 307.576 226.641C307.544 226.802 307.459 226.948 307.336 227.056C307.213 227.164 307.057 227.228 306.894 227.239Z" fill="#416900"/>
<path d="M303.435 216.652L303.182 216.656L303.007 216.539C301.857 215.763 300.872 214.767 300.108 213.608C299.384 214.793 298.434 215.822 297.312 216.639C297.234 216.693 297.145 216.73 297.051 216.747C296.956 216.764 296.86 216.761 296.767 216.737C296.675 216.714 296.588 216.67 296.514 216.61C296.439 216.55 296.379 216.475 296.336 216.389C296.236 216.206 296.203 215.994 296.243 215.789C296.283 215.584 296.394 215.399 296.556 215.268C297.817 214.375 298.813 213.157 299.436 211.744L300.058 209.976L300.727 211.721C301.387 213.108 302.416 214.287 303.701 215.13C303.814 215.208 303.907 215.313 303.972 215.434C304.036 215.556 304.071 215.691 304.073 215.829C304.092 216.021 304.036 216.214 303.917 216.367C303.799 216.52 303.626 216.622 303.435 216.652Z" fill="#416900"/>
</g>
<defs>
<clipPath id="clip0_294_7061">
<rect width="601.829" height="350" fill="white"/>
</clipPath>
</defs>
</svg>
