<svg width="602" height="350" viewBox="0 0 602 350" fill="none" xmlns="http://www.w3.org/2000/svg">
<g clip-path="url(#clip0_277_6425)">
<rect width="601.829" height="350" fill="white"/>
<path d="M211.985 106H216.941V97.964H223.941V93.988L216.941 94.856V90.264H225.369V86.68H211.985V106ZM238.145 101.352C236.857 102.276 235.709 102.724 234.225 102.724C232.517 102.724 230.837 102.08 230.557 99.896H240.301C240.441 99.252 240.525 98.664 240.525 97.824C240.525 93.792 237.725 91.58 233.525 91.58C228.989 91.58 225.797 94.688 225.797 99.028C225.797 103.48 228.653 106.364 233.805 106.364C236.661 106.364 238.481 105.524 240.189 104.348L238.145 101.352ZM230.473 98.132C230.697 96.06 231.873 94.94 233.441 94.94C234.869 94.94 235.933 95.948 236.045 97.488L230.473 98.132ZM230.165 89.312L231.901 90.992L238.201 87.072L235.289 84.132L230.165 89.312ZM242.903 101.072C242.903 105.132 245.031 106.364 247.271 106.364C248.671 106.364 249.315 106.224 250.491 105.776V102.556C250.183 102.64 249.931 102.696 249.567 102.696C248.279 102.696 247.691 102.024 247.691 99.7V84.888L242.903 85.7V101.072ZM252.501 106H257.317V91.58L252.501 92.252V106ZM254.909 90.292C256.309 90.292 257.513 89.2 257.513 87.632C257.513 86.036 256.309 85 254.909 85C253.453 85 252.333 86.036 252.333 87.632C252.333 89.2 253.453 90.292 254.909 90.292ZM271.323 102.136C270.203 102.668 269.279 102.864 268.243 102.864C266.087 102.864 264.519 101.716 264.519 99.028C264.519 96.312 266.143 95.248 268.383 95.248C269.363 95.248 270.259 95.472 271.015 95.892L272.751 92.756C271.295 91.916 269.783 91.58 267.823 91.58C263.315 91.58 259.647 94.212 259.647 99.028C259.647 103.844 262.643 106.364 267.571 106.364C269.419 106.364 271.071 105.972 272.387 105.244L271.323 102.136ZM274.595 106H279.411V91.58L274.595 92.252V106ZM277.003 90.292C278.403 90.292 279.607 89.2 279.607 87.632C279.607 86.036 278.403 85 277.003 85C275.547 85 274.427 86.036 274.427 87.632C274.427 89.2 275.547 90.292 277.003 90.292ZM283.197 101.156C283.197 105.3 285.129 106.364 288.433 106.364C290.449 106.364 292.101 105.776 293.025 105.328L292.297 102.556C291.625 102.836 290.981 102.948 290.169 102.948C288.461 102.948 288.013 102.024 288.013 100.456V94.576H292.241L292.521 91.524L288.013 92.056V87.156L283.197 88.22V92.336L281.237 92.616V94.576H283.197V101.156ZM296.731 96.256C297.991 95.444 299.559 94.968 300.959 94.968C302.275 94.968 302.919 95.864 302.919 97.32V97.88C300.819 97.908 298.159 97.992 295.555 98.328C294.603 99.392 294.211 100.484 294.211 101.828C294.211 104.6 296.115 106.364 299.167 106.364C300.679 106.364 302.331 105.86 303.507 105.104L307.707 106.364V97.264C307.707 93.736 305.579 91.58 301.575 91.58C298.775 91.58 296.815 92.14 294.771 93.484L296.731 96.256ZM302.919 103.256C302.527 103.424 301.911 103.536 301.127 103.536C299.447 103.536 298.831 102.332 298.831 101.268C298.831 100.876 298.915 100.512 298.971 100.316C300.455 100.008 301.351 99.84 302.919 99.616V103.256ZM311.334 101.156C311.334 105.3 313.266 106.364 316.57 106.364C318.586 106.364 320.238 105.776 321.162 105.328L320.434 102.556C319.762 102.836 319.118 102.948 318.306 102.948C316.598 102.948 316.15 102.024 316.15 100.456V94.576H320.378L320.658 91.524L316.15 92.056V87.156L311.334 88.22V92.336L309.374 92.616V94.576H311.334V101.156ZM323.048 106H327.864V91.58L323.048 92.252V106ZM325.456 90.292C326.856 90.292 328.06 89.2 328.06 87.632C328.06 86.036 326.856 85 325.456 85C324 85 322.88 86.036 322.88 87.632C322.88 89.2 324 90.292 325.456 90.292ZM330.25 99C330.25 102.976 332.714 106.364 337.95 106.364C343.186 106.364 345.594 102.976 345.594 99C345.594 94.968 343.186 91.58 337.95 91.58C332.714 91.58 330.25 94.968 330.25 99ZM337.95 103.172C335.962 103.172 334.982 101.52 334.982 99.028C334.982 96.508 335.962 94.772 337.95 94.772C339.882 94.772 340.862 96.508 340.862 99.028C340.862 101.52 339.882 103.172 337.95 103.172ZM347.985 106H352.773V95.36C353.921 95.108 354.621 94.968 355.545 94.968C356.749 94.968 357.253 95.444 357.253 96.76V106H362.041V96.592C362.041 93.26 360.585 91.58 357.561 91.58C355.405 91.58 353.501 92.336 352.325 92.896L347.985 91.58V106ZM364.29 105.58C365.69 106.056 367.986 106.364 370.17 106.364C374.174 106.364 376.47 104.712 376.47 101.772C376.47 99.728 375.182 98.748 373.698 98.16C371.598 97.32 369.078 97.236 369.078 95.948C369.078 95.248 369.806 94.968 371.066 94.968C372.466 94.968 373.53 95.248 374.734 95.78L376.218 92.672C374.51 91.916 372.662 91.58 370.814 91.58C366.39 91.58 364.402 93.344 364.402 96.088C364.402 98.496 366.222 99.56 368.07 100.26C369.946 100.96 371.822 101.268 371.822 102.136C371.822 102.892 370.646 103.06 369.218 103.06C367.622 103.06 366.362 102.836 365.018 102.416L364.29 105.58ZM386.103 100.652H389.127L390.219 86.288L385.067 86.904L386.103 100.652ZM387.727 106.336C389.071 106.336 390.219 105.328 390.219 103.9C390.219 102.444 389.071 101.436 387.727 101.436C386.411 101.436 385.291 102.444 385.291 103.9C385.291 105.328 386.411 106.336 387.727 106.336Z" fill="#71001B" fill-opacity="0.9"/>
<path d="M206.751 143H210.175L218.463 121.144H215.391L208.671 140.216L201.631 121.144H198.527L206.751 143ZM227.244 143.416C232.684 143.416 235.532 139.512 235.532 135.032C235.532 130.552 232.684 126.648 227.244 126.648C221.804 126.648 218.956 130.552 218.956 135.032C218.956 139.512 221.804 143.416 227.244 143.416ZM227.244 141.272C223.724 141.272 221.836 138.712 221.836 135.064C221.836 131.384 223.724 128.792 227.244 128.792C230.764 128.792 232.652 131.384 232.652 135.064C232.652 138.712 230.764 141.272 227.244 141.272ZM239.544 137.592C239.544 141.24 241.208 143.416 245.016 143.416C247.288 143.416 249.272 142.648 250.776 141.848L253.528 143.416V126.648L250.776 127.512V140.472C248.824 140.952 247.352 141.176 246.104 141.176C243.32 141.176 242.296 140.024 242.296 137.72V127.064H239.544V137.592ZM257.961 142.552C259.113 142.936 261.545 143.416 263.945 143.416C267.913 143.416 270.665 141.656 270.665 138.584C270.665 136.056 268.553 134.968 266.281 134.232C263.657 133.368 260.841 132.92 260.841 131.096C260.841 129.72 262.057 128.728 264.585 128.728C266.569 128.728 267.881 129.144 269.033 129.688L269.993 127.64C268.649 126.936 266.793 126.648 264.361 126.648C260.457 126.648 258.089 128.568 258.089 131.224C258.089 134.008 260.841 135.096 263.433 135.896C265.769 136.6 268.009 137.272 268.009 138.808C268.009 140.664 265.961 141.496 263.465 141.496C261.545 141.496 259.689 141.176 258.377 140.92L257.961 142.552ZM282.039 148.344C283.575 149.56 285.751 150.36 288.695 150.36C292.599 150.36 296.279 148.024 296.279 142.84V126.648L293.559 127.512C292.183 126.936 290.903 126.648 289.271 126.648C284.759 126.648 281.143 129.368 281.143 134.872C281.143 140.44 284.759 143.416 289.271 143.416C290.871 143.416 292.375 142.968 293.527 142.328V143.352C293.527 146.68 291.287 148.248 288.055 148.248C285.719 148.248 284.151 147.832 282.679 147.16L282.039 148.344ZM293.527 140.696C292.439 141.112 291.287 141.304 289.751 141.304C286.135 141.304 284.023 138.84 284.023 134.808C284.023 130.552 286.455 128.696 290.615 128.696C291.479 128.696 292.503 128.76 293.527 128.92V140.696ZM314.124 143.416V132.184C314.124 128.376 311.82 126.648 307.82 126.648C305.228 126.648 303.276 127.384 301.388 128.696L302.636 130.456C304.012 129.528 306.028 128.792 307.788 128.792C310.028 128.792 311.372 129.784 311.372 132.088V134.136C308.588 134.136 304.716 134.232 301.772 134.616C300.94 135.544 300.428 136.984 300.428 138.392C300.428 140.92 302.092 143.416 306.316 143.416C308.332 143.416 310.22 142.744 311.372 141.88L314.124 143.416ZM311.372 140.376C310.252 140.824 308.396 141.336 306.668 141.336C304.268 141.336 303.308 139.672 303.308 138.008C303.308 137.464 303.436 136.888 303.724 136.376C306.348 135.928 308.396 135.672 311.372 135.32V140.376ZM319.008 148.344C320.544 149.56 322.72 150.36 325.664 150.36C329.568 150.36 333.248 148.024 333.248 142.84V126.648L330.528 127.512C329.152 126.936 327.872 126.648 326.24 126.648C321.728 126.648 318.112 129.368 318.112 134.872C318.112 140.44 321.728 143.416 326.24 143.416C327.84 143.416 329.344 142.968 330.496 142.328V143.352C330.496 146.68 328.256 148.248 325.024 148.248C322.688 148.248 321.12 147.832 319.648 147.16L319.008 148.344ZM330.496 140.696C329.408 141.112 328.256 141.304 326.72 141.304C323.104 141.304 320.992 138.84 320.992 134.808C320.992 130.552 323.424 128.696 327.584 128.696C328.448 128.696 329.472 128.76 330.496 128.92V140.696ZM338.581 143H341.333V129.624C343.413 129.144 344.949 128.888 346.325 128.888C349.109 128.888 350.133 130.04 350.133 132.344V143H352.885V132.472C352.885 128.824 351.221 126.648 347.413 126.648C345.013 126.648 342.933 127.416 341.333 128.216L338.581 126.648V143ZM359.805 134.168C360.029 130.936 361.757 128.728 365.021 128.728C367.933 128.728 369.501 130.488 369.501 133.4L359.805 134.168ZM370.653 139.608C369.213 140.696 367.549 141.304 365.565 141.304C361.917 141.304 359.933 139 359.773 135.384H372.125C372.221 134.744 372.285 134.136 372.285 133.56C372.285 129.144 369.341 126.648 365.021 126.648C360.061 126.648 356.893 130.168 356.893 135C356.893 140.952 361.117 143.416 365.277 143.416C367.645 143.416 369.981 142.648 371.549 141.24L370.653 139.608ZM374.632 143H387.496V140.504L378.44 140.984L387.56 128.984V127.064H375.368V129.72L384.744 128.76L374.632 142.456V143ZM400.258 131.352C401.378 131.352 402.306 130.52 402.306 129.304C402.306 128.12 401.378 127.288 400.258 127.288C399.138 127.288 398.21 128.12 398.21 129.304C398.21 130.52 399.138 131.352 400.258 131.352ZM400.258 143.416C401.378 143.416 402.306 142.584 402.306 141.368C402.306 140.184 401.378 139.352 400.258 139.352C399.138 139.352 398.21 140.184 398.21 141.368C398.21 142.584 399.138 143.416 400.258 143.416Z" fill="#416900"/>
<path fill-rule="evenodd" clip-rule="evenodd" d="M602 0H0V350H44.1532C71.6153 466.777 176.189 553.688 301 553.688C425.811 553.688 530.385 466.777 557.847 350H602V0ZM557.847 350C562.452 330.417 564.889 309.994 564.889 289C564.889 142.817 446.742 24.3115 301 24.3115C155.258 24.3115 37.1111 142.817 37.1111 289C37.1111 309.994 39.5479 330.417 44.1532 350H557.847Z" fill="#416900"/>
<path d="M133.916 330H135.093L137.942 322.487H136.886L134.576 329.043L132.156 322.487H131.089L133.916 330ZM140.96 330.143C142.83 330.143 143.809 328.801 143.809 327.261C143.809 325.721 142.83 324.379 140.96 324.379C139.09 324.379 138.111 325.721 138.111 327.261C138.111 328.801 139.09 330.143 140.96 330.143ZM140.96 329.406C139.75 329.406 139.101 328.526 139.101 327.272C139.101 326.007 139.75 325.116 140.96 325.116C142.17 325.116 142.819 326.007 142.819 327.272C142.819 328.526 142.17 329.406 140.96 329.406ZM145.508 328.823C145.508 329.692 146.08 330.143 147.004 330.143C147.554 330.143 148.082 329.978 148.478 329.813L148.346 329.296C148.126 329.362 147.763 329.439 147.257 329.439C146.784 329.439 146.454 329.153 146.454 328.68V325.215H148.192L148.302 324.39L146.454 324.621V322.784L145.508 323.081V324.665L144.529 324.764V325.215H145.508V328.823ZM149.541 330H150.487V325.325C150.63 325.314 150.839 325.314 151.07 325.314C151.51 325.314 152.027 325.336 152.423 325.413L152.599 324.412C152.456 324.39 152.313 324.379 152.181 324.379C151.499 324.379 150.916 324.588 150.487 324.918L149.541 324.379V330ZM154.108 326.964C154.185 325.853 154.779 325.094 155.901 325.094C156.902 325.094 157.441 325.699 157.441 326.7L154.108 326.964ZM157.837 328.834C157.342 329.208 156.77 329.417 156.088 329.417C154.834 329.417 154.152 328.625 154.097 327.382H158.343C158.376 327.162 158.398 326.953 158.398 326.755C158.398 325.237 157.386 324.379 155.901 324.379C154.196 324.379 153.107 325.589 153.107 327.25C153.107 329.296 154.559 330.143 155.989 330.143C156.803 330.143 157.606 329.879 158.145 329.395L157.837 328.834ZM162.528 328.636C162.528 329.659 163.089 330.143 163.848 330.143C164.277 330.143 164.662 330.077 164.926 329.978V329.494C164.761 329.527 164.585 329.549 164.409 329.549C163.914 329.549 163.474 329.351 163.474 328.559V321.893L162.528 322.19V328.636ZM168.385 330.143C170.255 330.143 171.234 328.801 171.234 327.261C171.234 325.721 170.255 324.379 168.385 324.379C166.515 324.379 165.536 325.721 165.536 327.261C165.536 328.801 166.515 330.143 168.385 330.143ZM168.385 329.406C167.175 329.406 166.526 328.526 166.526 327.272C166.526 326.007 167.175 325.116 168.385 325.116C169.595 325.116 170.244 326.007 170.244 327.272C170.244 328.526 169.595 329.406 168.385 329.406ZM172.932 328.823C172.932 329.692 173.504 330.143 174.428 330.143C174.978 330.143 175.506 329.978 175.902 329.813L175.77 329.296C175.55 329.362 175.187 329.439 174.681 329.439C174.208 329.439 173.878 329.153 173.878 328.68V325.215H175.616L175.726 324.39L173.878 324.621V322.784L172.932 323.081V324.665L171.953 324.764V325.215H172.932V328.823ZM179.277 329.846C179.673 329.978 180.509 330.143 181.334 330.143C182.698 330.143 183.644 329.538 183.644 328.482C183.644 327.613 182.918 327.239 182.137 326.986C181.235 326.689 180.267 326.535 180.267 325.908C180.267 325.435 180.685 325.094 181.554 325.094C182.236 325.094 182.687 325.237 183.083 325.424L183.413 324.72C182.951 324.478 182.313 324.379 181.477 324.379C180.135 324.379 179.321 325.039 179.321 325.952C179.321 326.909 180.267 327.283 181.158 327.558C181.961 327.8 182.731 328.031 182.731 328.559C182.731 329.197 182.027 329.483 181.169 329.483C180.509 329.483 179.871 329.373 179.42 329.285L179.277 329.846ZM185.551 326.964C185.628 325.853 186.222 325.094 187.344 325.094C188.345 325.094 188.884 325.699 188.884 326.7L185.551 326.964ZM189.28 328.834C188.785 329.208 188.213 329.417 187.531 329.417C186.277 329.417 185.595 328.625 185.54 327.382H189.786C189.819 327.162 189.841 326.953 189.841 326.755C189.841 325.237 188.829 324.379 187.344 324.379C185.639 324.379 184.55 325.589 184.55 327.25C184.55 329.296 186.002 330.143 187.432 330.143C188.246 330.143 189.049 329.879 189.588 329.395L189.28 328.834ZM191.274 330H192.22V325.325C192.363 325.314 192.572 325.314 192.803 325.314C193.243 325.314 193.76 325.336 194.156 325.413L194.332 324.412C194.189 324.39 194.046 324.379 193.914 324.379C193.232 324.379 192.649 324.588 192.22 324.918L191.274 324.379V330ZM199.529 330.143V326.282C199.529 324.973 198.737 324.379 197.362 324.379C196.471 324.379 195.8 324.632 195.151 325.083L195.58 325.688C196.053 325.369 196.746 325.116 197.351 325.116C198.121 325.116 198.583 325.457 198.583 326.249V326.953C197.626 326.953 196.295 326.986 195.283 327.118C194.997 327.437 194.821 327.932 194.821 328.416C194.821 329.285 195.393 330.143 196.845 330.143C197.538 330.143 198.187 329.912 198.583 329.615L199.529 330.143ZM198.583 329.098C198.198 329.252 197.56 329.428 196.966 329.428C196.141 329.428 195.811 328.856 195.811 328.284C195.811 328.097 195.855 327.899 195.954 327.723C196.856 327.569 197.56 327.481 198.583 327.36V329.098ZM204.597 326.964C204.674 325.853 205.268 325.094 206.39 325.094C207.391 325.094 207.93 325.699 207.93 326.7L204.597 326.964ZM208.326 328.834C207.831 329.208 207.259 329.417 206.577 329.417C205.323 329.417 204.641 328.625 204.586 327.382H208.832C208.865 327.162 208.887 326.953 208.887 326.755C208.887 325.237 207.875 324.379 206.39 324.379C204.685 324.379 203.596 325.589 203.596 327.25C203.596 329.296 205.048 330.143 206.478 330.143C207.292 330.143 208.095 329.879 208.634 329.395L208.326 328.834ZM210.32 330H211.266V325.402C211.981 325.237 212.509 325.149 212.982 325.149C213.939 325.149 214.291 325.545 214.291 326.337V330H215.237V326.381C215.237 325.127 214.665 324.379 213.356 324.379C212.531 324.379 211.816 324.643 211.266 324.918L210.32 324.379V330ZM218.268 330H219.258L221.359 324.522H220.391L218.796 329.274L217.245 324.522H216.233L218.268 330ZM224.921 330.143C226.791 330.143 227.77 328.801 227.77 327.261C227.77 325.721 226.791 324.379 224.921 324.379C223.051 324.379 222.072 325.721 222.072 327.261C222.072 328.801 223.051 330.143 224.921 330.143ZM224.921 329.406C223.711 329.406 223.062 328.526 223.062 327.272C223.062 326.007 223.711 325.116 224.921 325.116C226.131 325.116 226.78 326.007 226.78 327.272C226.78 328.526 226.131 329.406 224.921 329.406ZM228.82 332.53C230.316 332.299 231.086 331.628 231.57 330.451L234.001 324.522H233.022L231.24 329.098L229.59 324.522H228.49L230.877 330.022L230.866 330.066C230.393 331.287 229.722 331.738 228.688 331.969L228.82 332.53ZM235.717 326.964C235.794 325.853 236.388 325.094 237.51 325.094C238.511 325.094 239.05 325.699 239.05 326.7L235.717 326.964ZM239.446 328.834C238.951 329.208 238.379 329.417 237.697 329.417C236.443 329.417 235.761 328.625 235.706 327.382H239.952C239.985 327.162 240.007 326.953 240.007 326.755C240.007 325.237 238.995 324.379 237.51 324.379C235.805 324.379 234.716 325.589 234.716 327.25C234.716 329.296 236.168 330.143 237.598 330.143C238.412 330.143 239.215 329.879 239.754 329.395L239.446 328.834ZM236.212 323.565L236.575 323.928L238.863 322.465L238.126 321.75L236.212 323.565ZM248.438 330.143V326.282C248.438 324.973 247.646 324.379 246.271 324.379C245.38 324.379 244.709 324.632 244.06 325.083L244.489 325.688C244.962 325.369 245.655 325.116 246.26 325.116C247.03 325.116 247.492 325.457 247.492 326.249V326.953C246.535 326.953 245.204 326.986 244.192 327.118C243.906 327.437 243.73 327.932 243.73 328.416C243.73 329.285 244.302 330.143 245.754 330.143C246.447 330.143 247.096 329.912 247.492 329.615L248.438 330.143ZM247.492 329.098C247.107 329.252 246.469 329.428 245.875 329.428C245.05 329.428 244.72 328.856 244.72 328.284C244.72 328.097 244.764 327.899 244.863 327.723C245.765 327.569 246.469 327.481 247.492 327.36V329.098ZM244.819 322.465L247.107 323.928L247.47 323.565L245.556 321.75L244.819 322.465ZM252.967 328.636C252.967 329.659 253.528 330.143 254.287 330.143C254.716 330.143 255.101 330.077 255.365 329.978V329.494C255.2 329.527 255.024 329.549 254.848 329.549C254.353 329.549 253.913 329.351 253.913 328.559V321.893L252.967 322.19V328.636ZM260.845 330.143V326.282C260.845 324.973 260.053 324.379 258.678 324.379C257.787 324.379 257.116 324.632 256.467 325.083L256.896 325.688C257.369 325.369 258.062 325.116 258.667 325.116C259.437 325.116 259.899 325.457 259.899 326.249V326.953C258.942 326.953 257.611 326.986 256.599 327.118C256.313 327.437 256.137 327.932 256.137 328.416C256.137 329.285 256.709 330.143 258.161 330.143C258.854 330.143 259.503 329.912 259.899 329.615L260.845 330.143ZM259.899 329.098C259.514 329.252 258.876 329.428 258.282 329.428C257.457 329.428 257.127 328.856 257.127 328.284C257.127 328.097 257.171 327.899 257.27 327.723C258.172 327.569 258.876 327.481 259.899 327.36V329.098ZM265.594 330H266.54V325.215H269.037V330H269.983V324.379L266.54 324.643V323.499C266.54 322.828 266.936 322.399 267.541 322.399C267.849 322.399 268.058 322.421 268.212 322.443L268.333 321.926C268.091 321.849 267.717 321.75 267.343 321.75C266.144 321.75 265.594 322.509 265.594 323.653V324.665L264.615 324.764V325.215H265.594V330ZM269.477 323.411C269.84 323.411 270.148 323.136 270.148 322.74C270.148 322.355 269.84 322.08 269.477 322.08C269.114 322.08 268.806 322.355 268.806 322.74C268.806 323.136 269.114 323.411 269.477 323.411ZM271.895 330H272.841V325.402C273.556 325.237 274.084 325.149 274.557 325.149C275.514 325.149 275.866 325.545 275.866 326.337V330H276.812V326.381C276.812 325.127 276.24 324.379 274.931 324.379C274.106 324.379 273.391 324.643 272.841 324.918L271.895 324.379V330ZM286.089 330.143V321.893L285.143 322.19V324.665C284.67 324.478 284.23 324.379 283.68 324.379C282.129 324.379 280.886 325.358 280.886 327.25C280.886 329.142 282.129 330.143 283.68 330.143C284.23 330.143 284.747 329.989 285.143 329.769L286.089 330.143ZM285.143 329.186C284.758 329.329 284.318 329.428 283.845 329.428C282.602 329.428 281.876 328.614 281.876 327.228C281.876 325.765 282.712 325.083 284.142 325.083C284.439 325.083 284.791 325.105 285.143 325.16V329.186ZM287.845 328.141C287.845 329.395 288.417 330.143 289.726 330.143C290.507 330.143 291.189 329.879 291.706 329.604L292.652 330.143V324.379L291.706 324.676V329.131C291.035 329.296 290.529 329.373 290.1 329.373C289.143 329.373 288.791 328.977 288.791 328.185V324.522H287.845V328.141ZM296.212 332.53C297.697 331.947 298.203 330.836 298.203 329.747V324.379L297.257 324.676V329.835C297.257 330.858 296.751 331.584 295.97 332.189L296.212 332.53ZM297.73 323.411C298.093 323.411 298.379 323.158 298.379 322.773C298.379 322.388 298.093 322.135 297.73 322.135C297.378 322.135 297.092 322.388 297.092 322.773C297.092 323.158 297.378 323.411 297.73 323.411ZM300.653 326.964C300.73 325.853 301.324 325.094 302.446 325.094C303.447 325.094 303.986 325.699 303.986 326.7L300.653 326.964ZM304.382 328.834C303.887 329.208 303.315 329.417 302.633 329.417C301.379 329.417 300.697 328.625 300.642 327.382H304.888C304.921 327.162 304.943 326.953 304.943 326.755C304.943 325.237 303.931 324.379 302.446 324.379C300.741 324.379 299.652 325.589 299.652 327.25C299.652 329.296 301.104 330.143 302.534 330.143C303.348 330.143 304.151 329.879 304.69 329.395L304.382 328.834ZM306.3 328.141C306.3 329.395 306.872 330.143 308.181 330.143C308.962 330.143 309.644 329.879 310.161 329.604L311.107 330.143V324.379L310.161 324.676V329.131C309.49 329.296 308.984 329.373 308.555 329.373C307.598 329.373 307.246 328.977 307.246 328.185V324.522H306.3V328.141ZM316.251 326.964C316.328 325.853 316.922 325.094 318.044 325.094C319.045 325.094 319.584 325.699 319.584 326.7L316.251 326.964ZM319.98 328.834C319.485 329.208 318.913 329.417 318.231 329.417C316.977 329.417 316.295 328.625 316.24 327.382H320.486C320.519 327.162 320.541 326.953 320.541 326.755C320.541 325.237 319.529 324.379 318.044 324.379C316.339 324.379 315.25 325.589 315.25 327.25C315.25 329.296 316.702 330.143 318.132 330.143C318.946 330.143 319.749 329.879 320.288 329.395L319.98 328.834ZM322.217 328.823C322.217 329.692 322.789 330.143 323.713 330.143C324.263 330.143 324.791 329.978 325.187 329.813L325.055 329.296C324.835 329.362 324.472 329.439 323.966 329.439C323.493 329.439 323.163 329.153 323.163 328.68V325.215H324.901L325.011 324.39L323.163 324.621V322.784L322.217 323.081V324.665L321.238 324.764V325.215H322.217V328.823ZM328.561 329.846C328.957 329.978 329.793 330.143 330.618 330.143C331.982 330.143 332.928 329.538 332.928 328.482C332.928 327.613 332.202 327.239 331.421 326.986C330.519 326.689 329.551 326.535 329.551 325.908C329.551 325.435 329.969 325.094 330.838 325.094C331.52 325.094 331.971 325.237 332.367 325.424L332.697 324.72C332.235 324.478 331.597 324.379 330.761 324.379C329.419 324.379 328.605 325.039 328.605 325.952C328.605 326.909 329.551 327.283 330.442 327.558C331.245 327.8 332.015 328.031 332.015 328.559C332.015 329.197 331.311 329.483 330.453 329.483C329.793 329.483 329.155 329.373 328.704 329.285L328.561 329.846ZM336.683 330.143C338.553 330.143 339.532 328.801 339.532 327.261C339.532 325.721 338.553 324.379 336.683 324.379C334.813 324.379 333.834 325.721 333.834 327.261C333.834 328.801 334.813 330.143 336.683 330.143ZM336.683 329.406C335.473 329.406 334.824 328.526 334.824 327.272C334.824 326.007 335.473 325.116 336.683 325.116C337.893 325.116 338.542 326.007 338.542 327.272C338.542 328.526 337.893 329.406 336.683 329.406ZM340.911 328.141C340.911 329.395 341.483 330.143 342.792 330.143C343.573 330.143 344.255 329.879 344.772 329.604L345.718 330.143V324.379L344.772 324.676V329.131C344.101 329.296 343.595 329.373 343.166 329.373C342.209 329.373 341.857 328.977 341.857 328.185V324.522H340.911V328.141ZM347.242 329.846C347.638 329.978 348.474 330.143 349.299 330.143C350.663 330.143 351.609 329.538 351.609 328.482C351.609 327.613 350.883 327.239 350.102 326.986C349.2 326.689 348.232 326.535 348.232 325.908C348.232 325.435 348.65 325.094 349.519 325.094C350.201 325.094 350.652 325.237 351.048 325.424L351.378 324.72C350.916 324.478 350.278 324.379 349.442 324.379C348.1 324.379 347.286 325.039 347.286 325.952C347.286 326.909 348.232 327.283 349.123 327.558C349.926 327.8 350.696 328.031 350.696 328.559C350.696 329.197 349.992 329.483 349.134 329.483C348.474 329.483 347.836 329.373 347.385 329.285L347.242 329.846ZM356.707 326.15C356.135 326.447 355.244 327.085 355.244 328.163C355.244 329.307 356.124 330.143 357.807 330.143C359.38 330.143 360.513 329.406 360.513 328.064C360.513 327.25 360.084 326.722 359.039 326.194C359.908 325.688 360.227 325.149 360.227 324.434C360.227 323.433 359.391 322.674 357.873 322.674C356.531 322.674 355.607 323.411 355.607 324.456C355.607 325.369 356.08 325.82 356.707 326.15ZM357.213 326.403C358.016 326.733 359.567 327.074 359.567 328.152C359.567 328.977 358.885 329.417 357.895 329.417C356.817 329.417 356.179 328.966 356.179 328.053C356.179 327.283 356.795 326.711 357.213 326.403ZM358.511 325.952C357.829 325.655 356.498 325.38 356.498 324.5C356.498 323.884 357.026 323.367 357.961 323.367C358.291 323.367 358.643 323.433 359.061 323.587C359.314 323.928 359.38 324.236 359.38 324.555C359.38 325.16 358.973 325.633 358.511 325.952ZM364.365 329.846C364.761 329.978 365.597 330.143 366.422 330.143C367.786 330.143 368.732 329.538 368.732 328.482C368.732 327.613 368.006 327.239 367.225 326.986C366.323 326.689 365.355 326.535 365.355 325.908C365.355 325.435 365.773 325.094 366.642 325.094C367.324 325.094 367.775 325.237 368.171 325.424L368.501 324.72C368.039 324.478 367.401 324.379 366.565 324.379C365.223 324.379 364.409 325.039 364.409 325.952C364.409 326.909 365.355 327.283 366.246 327.558C367.049 327.8 367.819 328.031 367.819 328.559C367.819 329.197 367.115 329.483 366.257 329.483C365.597 329.483 364.959 329.373 364.508 329.285L364.365 329.846ZM370.639 326.964C370.716 325.853 371.31 325.094 372.432 325.094C373.433 325.094 373.972 325.699 373.972 326.7L370.639 326.964ZM374.368 328.834C373.873 329.208 373.301 329.417 372.619 329.417C371.365 329.417 370.683 328.625 370.628 327.382H374.874C374.907 327.162 374.929 326.953 374.929 326.755C374.929 325.237 373.917 324.379 372.432 324.379C370.727 324.379 369.638 325.589 369.638 327.25C369.638 329.296 371.09 330.143 372.52 330.143C373.334 330.143 374.137 329.879 374.676 329.395L374.368 328.834ZM376.362 330H377.308V325.402C377.979 325.237 378.441 325.149 378.881 325.149C379.761 325.149 380.047 325.545 380.047 326.337V330H380.993V326.381C380.993 325.985 380.938 325.644 380.828 325.358C381.499 325.215 381.994 325.149 382.456 325.149C383.424 325.149 383.732 325.545 383.732 326.337V330H384.678V326.381C384.678 325.127 384.139 324.379 382.83 324.379C381.928 324.379 381.202 324.665 380.608 324.951C380.333 324.577 379.893 324.379 379.255 324.379C378.474 324.379 377.814 324.643 377.297 324.918L376.362 324.379V330ZM390.815 330.143V326.282C390.815 324.973 390.023 324.379 388.648 324.379C387.757 324.379 387.086 324.632 386.437 325.083L386.866 325.688C387.339 325.369 388.032 325.116 388.637 325.116C389.407 325.116 389.869 325.457 389.869 326.249V326.953C388.912 326.953 387.581 326.986 386.569 327.118C386.283 327.437 386.107 327.932 386.107 328.416C386.107 329.285 386.679 330.143 388.131 330.143C388.824 330.143 389.473 329.912 389.869 329.615L390.815 330.143ZM389.869 329.098C389.484 329.252 388.846 329.428 388.252 329.428C387.427 329.428 387.097 328.856 387.097 328.284C387.097 328.097 387.141 327.899 387.24 327.723C388.142 327.569 388.846 327.481 389.869 327.36V329.098ZM393.12 323.411C393.483 323.411 393.769 323.158 393.769 322.773C393.769 322.388 393.483 322.135 393.12 322.135C392.768 322.135 392.482 322.388 392.482 322.773C392.482 323.158 392.768 323.411 393.12 323.411ZM392.647 330H393.593V324.379L392.647 324.676V330ZM395.505 330H396.451V325.402C397.166 325.237 397.694 325.149 398.167 325.149C399.124 325.149 399.476 325.545 399.476 326.337V330H400.422V326.381C400.422 325.127 399.85 324.379 398.541 324.379C397.716 324.379 397.001 324.643 396.451 324.918L395.505 324.379V330ZM402.801 326.964C402.878 325.853 403.472 325.094 404.594 325.094C405.595 325.094 406.134 325.699 406.134 326.7L402.801 326.964ZM406.53 328.834C406.035 329.208 405.463 329.417 404.781 329.417C403.527 329.417 402.845 328.625 402.79 327.382H407.036C407.069 327.162 407.091 326.953 407.091 326.755C407.091 325.237 406.079 324.379 404.594 324.379C402.889 324.379 401.8 325.589 401.8 327.25C401.8 329.296 403.252 330.143 404.682 330.143C405.496 330.143 406.299 329.879 406.838 329.395L406.53 328.834ZM408.139 329.846C408.535 329.978 409.371 330.143 410.196 330.143C411.56 330.143 412.506 329.538 412.506 328.482C412.506 327.613 411.78 327.239 410.999 326.986C410.097 326.689 409.129 326.535 409.129 325.908C409.129 325.435 409.547 325.094 410.416 325.094C411.098 325.094 411.549 325.237 411.945 325.424L412.275 324.72C411.813 324.478 411.175 324.379 410.339 324.379C408.997 324.379 408.183 325.039 408.183 325.952C408.183 326.909 409.129 327.283 410.02 327.558C410.823 327.8 411.593 328.031 411.593 328.559C411.593 329.197 410.889 329.483 410.031 329.483C409.371 329.483 408.733 329.373 408.282 329.285L408.139 329.846ZM420.871 330.143V326.282C420.871 324.973 420.079 324.379 418.704 324.379C417.813 324.379 417.142 324.632 416.493 325.083L416.922 325.688C417.395 325.369 418.088 325.116 418.693 325.116C419.463 325.116 419.925 325.457 419.925 326.249V326.953C418.968 326.953 417.637 326.986 416.625 327.118C416.339 327.437 416.163 327.932 416.163 328.416C416.163 329.285 416.735 330.143 418.187 330.143C418.88 330.143 419.529 329.912 419.925 329.615L420.871 330.143ZM419.925 329.098C419.54 329.252 418.902 329.428 418.308 329.428C417.483 329.428 417.153 328.856 417.153 328.284C417.153 328.097 417.197 327.899 417.296 327.723C418.198 327.569 418.902 327.481 419.925 327.36V329.098ZM417.252 322.465L419.54 323.928L419.903 323.565L417.989 321.75L417.252 322.465ZM425.4 328.636C425.4 329.659 425.961 330.143 426.72 330.143C427.149 330.143 427.534 330.077 427.798 329.978V329.494C427.633 329.527 427.457 329.549 427.281 329.549C426.786 329.549 426.346 329.351 426.346 328.559V321.893L425.4 322.19V328.636ZM428.504 325.325C429.241 324.522 429.67 323.741 429.67 323.07C429.67 322.553 429.34 322.322 428.988 322.322C428.625 322.322 428.284 322.564 428.284 323.026C428.284 323.301 428.394 323.543 428.801 323.708C428.68 324.17 428.394 324.665 428.108 325.072L428.504 325.325ZM435.373 330.143V326.282C435.373 324.973 434.581 324.379 433.206 324.379C432.315 324.379 431.644 324.632 430.995 325.083L431.424 325.688C431.897 325.369 432.59 325.116 433.195 325.116C433.965 325.116 434.427 325.457 434.427 326.249V326.953C433.47 326.953 432.139 326.986 431.127 327.118C430.841 327.437 430.665 327.932 430.665 328.416C430.665 329.285 431.237 330.143 432.689 330.143C433.382 330.143 434.031 329.912 434.427 329.615L435.373 330.143ZM434.427 329.098C434.042 329.252 433.404 329.428 432.81 329.428C431.985 329.428 431.655 328.856 431.655 328.284C431.655 328.097 431.699 327.899 431.798 327.723C432.7 327.569 433.404 327.481 434.427 327.36V329.098ZM441.947 330.143V321.893L441.001 322.19V324.665C440.528 324.478 440.088 324.379 439.538 324.379C437.987 324.379 436.744 325.358 436.744 327.25C436.744 329.142 437.987 330.143 439.538 330.143C440.088 330.143 440.605 329.989 441.001 329.769L441.947 330.143ZM441.001 329.186C440.616 329.329 440.176 329.428 439.703 329.428C438.46 329.428 437.734 328.614 437.734 327.228C437.734 325.765 438.57 325.083 440 325.083C440.297 325.083 440.649 325.105 441.001 325.16V329.186ZM443.78 330H444.726V325.325C444.869 325.314 445.078 325.314 445.309 325.314C445.749 325.314 446.266 325.336 446.662 325.413L446.838 324.412C446.695 324.39 446.552 324.379 446.42 324.379C445.738 324.379 445.155 324.588 444.726 324.918L443.78 324.379V330ZM448.348 326.964C448.425 325.853 449.019 325.094 450.141 325.094C451.142 325.094 451.681 325.699 451.681 326.7L448.348 326.964ZM452.077 328.834C451.582 329.208 451.01 329.417 450.328 329.417C449.074 329.417 448.392 328.625 448.337 327.382H452.583C452.616 327.162 452.638 326.953 452.638 326.755C452.638 325.237 451.626 324.379 450.141 324.379C448.436 324.379 447.347 325.589 447.347 327.25C447.347 329.296 448.799 330.143 450.229 330.143C451.043 330.143 451.846 329.879 452.385 329.395L452.077 328.834ZM453.686 329.846C454.082 329.978 454.918 330.143 455.743 330.143C457.107 330.143 458.053 329.538 458.053 328.482C458.053 327.613 457.327 327.239 456.546 326.986C455.644 326.689 454.676 326.535 454.676 325.908C454.676 325.435 455.094 325.094 455.963 325.094C456.645 325.094 457.096 325.237 457.492 325.424L457.822 324.72C457.36 324.478 456.722 324.379 455.886 324.379C454.544 324.379 453.73 325.039 453.73 325.952C453.73 326.909 454.676 327.283 455.567 327.558C456.37 327.8 457.14 328.031 457.14 328.559C457.14 329.197 456.436 329.483 455.578 329.483C454.918 329.483 454.28 329.373 453.829 329.285L453.686 329.846ZM459.036 329.846C459.432 329.978 460.268 330.143 461.093 330.143C462.457 330.143 463.403 329.538 463.403 328.482C463.403 327.613 462.677 327.239 461.896 326.986C460.994 326.689 460.026 326.535 460.026 325.908C460.026 325.435 460.444 325.094 461.313 325.094C461.995 325.094 462.446 325.237 462.842 325.424L463.172 324.72C462.71 324.478 462.072 324.379 461.236 324.379C459.894 324.379 459.08 325.039 459.08 325.952C459.08 326.909 460.026 327.283 460.917 327.558C461.72 327.8 462.49 328.031 462.49 328.559C462.49 329.197 461.786 329.483 460.928 329.483C460.268 329.483 459.63 329.373 459.179 329.285L459.036 329.846ZM465.309 326.964C465.386 325.853 465.98 325.094 467.102 325.094C468.103 325.094 468.642 325.699 468.642 326.7L465.309 326.964ZM469.038 328.834C468.543 329.208 467.971 329.417 467.289 329.417C466.035 329.417 465.353 328.625 465.298 327.382H469.544C469.577 327.162 469.599 326.953 469.599 326.755C469.599 325.237 468.587 324.379 467.102 324.379C465.397 324.379 464.308 325.589 464.308 327.25C464.308 329.296 465.76 330.143 467.19 330.143C468.004 330.143 468.807 329.879 469.346 329.395L469.038 328.834ZM191.795 345.53L192.741 345.156V342.901C193.126 343.044 193.621 343.143 194.16 343.143C195.733 343.143 197.042 342.12 197.042 340.151C197.042 338.325 195.788 337.379 194.215 337.379C193.654 337.379 193.214 337.478 192.741 337.676L191.795 337.379V345.53ZM192.741 338.094C193.093 338.039 193.456 338.017 193.753 338.017C195.194 338.017 196.052 338.765 196.052 340.239C196.052 341.625 195.304 342.384 194.05 342.384C193.577 342.384 193.137 342.285 192.741 342.142V338.094ZM200.939 343.143C202.809 343.143 203.788 341.801 203.788 340.261C203.788 338.721 202.809 337.379 200.939 337.379C199.069 337.379 198.09 338.721 198.09 340.261C198.09 341.801 199.069 343.143 200.939 343.143ZM200.939 342.406C199.729 342.406 199.08 341.526 199.08 340.272C199.08 339.007 199.729 338.116 200.939 338.116C202.149 338.116 202.798 339.007 202.798 340.272C202.798 341.526 202.149 342.406 200.939 342.406ZM204.86 342.846C205.256 342.978 206.092 343.143 206.917 343.143C208.281 343.143 209.227 342.538 209.227 341.482C209.227 340.613 208.501 340.239 207.72 339.986C206.818 339.689 205.85 339.535 205.85 338.908C205.85 338.435 206.268 338.094 207.137 338.094C207.819 338.094 208.27 338.237 208.666 338.424L208.996 337.72C208.534 337.478 207.896 337.379 207.06 337.379C205.718 337.379 204.904 338.039 204.904 338.952C204.904 339.909 205.85 340.283 206.741 340.558C207.544 340.8 208.314 341.031 208.314 341.559C208.314 342.197 207.61 342.483 206.752 342.483C206.092 342.483 205.454 342.373 205.003 342.285L204.86 342.846ZM210.836 341.823C210.836 342.692 211.408 343.143 212.332 343.143C212.882 343.143 213.41 342.978 213.806 342.813L213.674 342.296C213.454 342.362 213.091 342.439 212.585 342.439C212.112 342.439 211.782 342.153 211.782 341.68V338.215H213.52L213.63 337.39L211.782 337.621V335.784L210.836 336.081V337.665L209.857 337.764V338.215H210.836V341.823ZM219.171 343.143V339.282C219.171 337.973 218.379 337.379 217.004 337.379C216.113 337.379 215.442 337.632 214.793 338.083L215.222 338.688C215.695 338.369 216.388 338.116 216.993 338.116C217.763 338.116 218.225 338.457 218.225 339.249V339.953C217.268 339.953 215.937 339.986 214.925 340.118C214.639 340.437 214.463 340.932 214.463 341.416C214.463 342.285 215.035 343.143 216.487 343.143C217.18 343.143 217.829 342.912 218.225 342.615L219.171 343.143ZM218.225 342.098C217.84 342.252 217.202 342.428 216.608 342.428C215.783 342.428 215.453 341.856 215.453 341.284C215.453 341.097 215.497 340.899 215.596 340.723C216.498 340.569 217.202 340.481 218.225 340.36V342.098ZM220.896 341.636C220.896 342.659 221.457 343.143 222.216 343.143C222.645 343.143 223.03 343.077 223.294 342.978V342.494C223.129 342.527 222.953 342.549 222.777 342.549C222.282 342.549 221.842 342.351 221.842 341.559V334.893L220.896 335.19V341.636ZM224.905 339.964C224.982 338.853 225.576 338.094 226.698 338.094C227.699 338.094 228.238 338.699 228.238 339.7L224.905 339.964ZM228.634 341.834C228.139 342.208 227.567 342.417 226.885 342.417C225.631 342.417 224.949 341.625 224.894 340.382H229.14C229.173 340.162 229.195 339.953 229.195 339.755C229.195 338.237 228.183 337.379 226.698 337.379C224.993 337.379 223.904 338.589 223.904 340.25C223.904 342.296 225.356 343.143 226.786 343.143C227.6 343.143 228.403 342.879 228.942 342.395L228.634 341.834ZM237.164 345.53L238.11 345.222V337.379L237.164 337.676C236.691 337.478 236.251 337.379 235.69 337.379C234.117 337.379 232.863 338.358 232.863 340.261C232.863 342.153 234.117 343.143 235.69 343.143C236.24 343.143 236.768 343.066 237.164 342.901V345.53ZM237.164 342.219C236.79 342.351 236.383 342.428 235.855 342.428C234.601 342.428 233.853 341.625 233.853 340.239C233.853 338.765 234.711 338.039 236.152 338.039C236.449 338.039 236.812 338.05 237.164 338.105V342.219ZM239.951 341.141C239.951 342.395 240.523 343.143 241.832 343.143C242.613 343.143 243.295 342.879 243.812 342.604L244.758 343.143V337.379L243.812 337.676V342.131C243.141 342.296 242.635 342.373 242.206 342.373C241.249 342.373 240.897 341.977 240.897 341.185V337.522H239.951V341.141ZM247.205 339.964C247.282 338.853 247.876 338.094 248.998 338.094C249.999 338.094 250.538 338.699 250.538 339.7L247.205 339.964ZM250.934 341.834C250.439 342.208 249.867 342.417 249.185 342.417C247.931 342.417 247.249 341.625 247.194 340.382H251.44C251.473 340.162 251.495 339.953 251.495 339.755C251.495 338.237 250.483 337.379 248.998 337.379C247.293 337.379 246.204 338.589 246.204 340.25C246.204 342.296 247.656 343.143 249.086 343.143C249.9 343.143 250.703 342.879 251.242 342.395L250.934 341.834ZM256.923 343H257.913L260.014 337.522H259.046L257.451 342.274L255.9 337.522H254.888L256.923 343ZM263.577 343.143C265.447 343.143 266.426 341.801 266.426 340.261C266.426 338.721 265.447 337.379 263.577 337.379C261.707 337.379 260.728 338.721 260.728 340.261C260.728 341.801 261.707 343.143 263.577 343.143ZM263.577 342.406C262.367 342.406 261.718 341.526 261.718 340.272C261.718 339.007 262.367 338.116 263.577 338.116C264.787 338.116 265.436 339.007 265.436 340.272C265.436 341.526 264.787 342.406 263.577 342.406ZM267.805 341.141C267.805 342.395 268.377 343.143 269.686 343.143C270.467 343.143 271.149 342.879 271.666 342.604L272.612 343.143V337.379L271.666 337.676V342.131C270.995 342.296 270.489 342.373 270.06 342.373C269.103 342.373 268.751 341.977 268.751 341.185V337.522H267.805V341.141ZM274.136 342.846C274.532 342.978 275.368 343.143 276.193 343.143C277.557 343.143 278.503 342.538 278.503 341.482C278.503 340.613 277.777 340.239 276.996 339.986C276.094 339.689 275.126 339.535 275.126 338.908C275.126 338.435 275.544 338.094 276.413 338.094C277.095 338.094 277.546 338.237 277.942 338.424L278.272 337.72C277.81 337.478 277.172 337.379 276.336 337.379C274.994 337.379 274.18 338.039 274.18 338.952C274.18 339.909 275.126 340.283 276.017 340.558C276.82 340.8 277.59 341.031 277.59 341.559C277.59 342.197 276.886 342.483 276.028 342.483C275.368 342.483 274.73 342.373 274.279 342.285L274.136 342.846ZM282.567 343H283.513V338.402C284.228 338.237 284.756 338.149 285.229 338.149C286.186 338.149 286.538 338.545 286.538 339.337V343H287.484V339.381C287.484 338.127 286.912 337.379 285.603 337.379C284.778 337.379 284.063 337.643 283.513 337.918L282.567 337.379V343ZM291.711 343.143C293.581 343.143 294.56 341.801 294.56 340.261C294.56 338.721 293.581 337.379 291.711 337.379C289.841 337.379 288.862 338.721 288.862 340.261C288.862 341.801 289.841 343.143 291.711 343.143ZM291.711 342.406C290.501 342.406 289.852 341.526 289.852 340.272C289.852 339.007 290.501 338.116 291.711 338.116C292.921 338.116 293.57 339.007 293.57 340.272C293.57 341.526 292.921 342.406 291.711 342.406ZM295.939 341.141C295.939 342.395 296.511 343.143 297.82 343.143C298.601 343.143 299.283 342.879 299.8 342.604L300.746 343.143V337.379L299.8 337.676V342.131C299.129 342.296 298.623 342.373 298.194 342.373C297.237 342.373 296.885 341.977 296.885 341.185V337.522H295.939V341.141ZM302.27 342.846C302.666 342.978 303.502 343.143 304.327 343.143C305.691 343.143 306.637 342.538 306.637 341.482C306.637 340.613 305.911 340.239 305.13 339.986C304.228 339.689 303.26 339.535 303.26 338.908C303.26 338.435 303.678 338.094 304.547 338.094C305.229 338.094 305.68 338.237 306.076 338.424L306.406 337.72C305.944 337.478 305.306 337.379 304.47 337.379C303.128 337.379 302.314 338.039 302.314 338.952C302.314 339.909 303.26 340.283 304.151 340.558C304.954 340.8 305.724 341.031 305.724 341.559C305.724 342.197 305.02 342.483 304.162 342.483C303.502 342.483 302.864 342.373 302.413 342.285L302.27 342.846ZM315.002 343.143V339.282C315.002 337.973 314.21 337.379 312.835 337.379C311.944 337.379 311.273 337.632 310.624 338.083L311.053 338.688C311.526 338.369 312.219 338.116 312.824 338.116C313.594 338.116 314.056 338.457 314.056 339.249V339.953C313.099 339.953 311.768 339.986 310.756 340.118C310.47 340.437 310.294 340.932 310.294 341.416C310.294 342.285 310.866 343.143 312.318 343.143C313.011 343.143 313.66 342.912 314.056 342.615L315.002 343.143ZM314.056 342.098C313.671 342.252 313.033 342.428 312.439 342.428C311.614 342.428 311.284 341.856 311.284 341.284C311.284 341.097 311.328 340.899 311.427 340.723C312.329 340.569 313.033 340.481 314.056 340.36V342.098ZM318.025 343H319.015L321.116 337.522H320.148L318.553 342.274L317.002 337.522H315.99L318.025 343ZM322.83 339.964C322.907 338.853 323.501 338.094 324.623 338.094C325.624 338.094 326.163 338.699 326.163 339.7L322.83 339.964ZM326.559 341.834C326.064 342.208 325.492 342.417 324.81 342.417C323.556 342.417 322.874 341.625 322.819 340.382H327.065C327.098 340.162 327.12 339.953 327.12 339.755C327.12 338.237 326.108 337.379 324.623 337.379C322.918 337.379 321.829 338.589 321.829 340.25C321.829 342.296 323.281 343.143 324.711 343.143C325.525 343.143 326.328 342.879 326.867 342.395L326.559 341.834ZM327.927 343H332.349V342.142L329.236 342.307L332.371 338.182V337.522H328.18V338.435L331.403 338.105L327.927 342.813V343ZM340.575 342.054C340.113 342.296 339.607 342.472 338.98 342.472C337.737 342.472 336.956 341.526 336.956 340.261C336.956 338.974 337.594 338.16 338.826 338.16C339.475 338.16 339.959 338.27 340.278 338.49L340.696 337.797C340.267 337.511 339.684 337.379 338.914 337.379C337.198 337.379 335.966 338.435 335.966 340.261C335.966 341.933 337.033 343.143 338.793 343.143C339.662 343.143 340.234 342.934 340.773 342.571L340.575 342.054ZM344.39 343.143C346.26 343.143 347.239 341.801 347.239 340.261C347.239 338.721 346.26 337.379 344.39 337.379C342.52 337.379 341.541 338.721 341.541 340.261C341.541 341.801 342.52 343.143 344.39 343.143ZM344.39 342.406C343.18 342.406 342.531 341.526 342.531 340.272C342.531 339.007 343.18 338.116 344.39 338.116C345.6 338.116 346.249 339.007 346.249 340.272C346.249 341.526 345.6 342.406 344.39 342.406ZM348.696 343H349.642V338.402C350.313 338.237 350.775 338.149 351.215 338.149C352.095 338.149 352.381 338.545 352.381 339.337V343H353.327V339.381C353.327 338.985 353.272 338.644 353.162 338.358C353.833 338.215 354.328 338.149 354.79 338.149C355.758 338.149 356.066 338.545 356.066 339.337V343H357.012V339.381C357.012 338.127 356.473 337.379 355.164 337.379C354.262 337.379 353.536 337.665 352.942 337.951C352.667 337.577 352.227 337.379 351.589 337.379C350.808 337.379 350.148 337.643 349.631 337.918L348.696 337.379V343ZM358.847 343H359.793V338.402C360.464 338.237 360.926 338.149 361.366 338.149C362.246 338.149 362.532 338.545 362.532 339.337V343H363.478V339.381C363.478 338.985 363.423 338.644 363.313 338.358C363.984 338.215 364.479 338.149 364.941 338.149C365.909 338.149 366.217 338.545 366.217 339.337V343H367.163V339.381C367.163 338.127 366.624 337.379 365.315 337.379C364.413 337.379 363.687 337.665 363.093 337.951C362.818 337.577 362.378 337.379 361.74 337.379C360.959 337.379 360.299 337.643 359.782 337.918L358.847 337.379V343ZM368.922 341.141C368.922 342.395 369.494 343.143 370.803 343.143C371.584 343.143 372.266 342.879 372.783 342.604L373.729 343.143V337.379L372.783 337.676V342.131C372.112 342.296 371.606 342.373 371.177 342.373C370.22 342.373 369.868 341.977 369.868 341.185V337.522H368.922V341.141ZM375.637 343H376.583V338.402C377.298 338.237 377.826 338.149 378.299 338.149C379.256 338.149 379.608 338.545 379.608 339.337V343H380.554V339.381C380.554 338.127 379.982 337.379 378.673 337.379C377.848 337.379 377.133 337.643 376.583 337.918L375.637 337.379V343ZM382.867 336.411C383.23 336.411 383.516 336.158 383.516 335.773C383.516 335.388 383.23 335.135 382.867 335.135C382.515 335.135 382.229 335.388 382.229 335.773C382.229 336.158 382.515 336.411 382.867 336.411ZM382.394 343H383.34V337.379L382.394 337.676V343ZM389.09 345.53L390.036 345.222V337.379L389.09 337.676C388.617 337.478 388.177 337.379 387.616 337.379C386.043 337.379 384.789 338.358 384.789 340.261C384.789 342.153 386.043 343.143 387.616 343.143C388.166 343.143 388.694 343.066 389.09 342.901V345.53ZM389.09 342.219C388.716 342.351 388.309 342.428 387.781 342.428C386.527 342.428 385.779 341.625 385.779 340.239C385.779 338.765 386.637 338.039 388.078 338.039C388.375 338.039 388.738 338.05 389.09 338.105V342.219ZM391.878 341.141C391.878 342.395 392.45 343.143 393.759 343.143C394.54 343.143 395.222 342.879 395.739 342.604L396.685 343.143V337.379L395.739 337.676V342.131C395.068 342.296 394.562 342.373 394.133 342.373C393.176 342.373 392.824 341.977 392.824 341.185V337.522H391.878V341.141ZM399.132 339.964C399.209 338.853 399.803 338.094 400.925 338.094C401.926 338.094 402.465 338.699 402.465 339.7L399.132 339.964ZM402.861 341.834C402.366 342.208 401.794 342.417 401.112 342.417C399.858 342.417 399.176 341.625 399.121 340.382H403.367C403.4 340.162 403.422 339.953 403.422 339.755C403.422 338.237 402.41 337.379 400.925 337.379C399.22 337.379 398.131 338.589 398.131 340.25C398.131 342.296 399.583 343.143 401.013 343.143C401.827 343.143 402.63 342.879 403.169 342.395L402.861 341.834ZM399.627 336.565L399.99 336.928L402.278 335.465L401.541 334.75L399.627 336.565ZM405.395 339.964C405.472 338.853 406.066 338.094 407.188 338.094C408.189 338.094 408.728 338.699 408.728 339.7L405.395 339.964ZM409.124 341.834C408.629 342.208 408.057 342.417 407.375 342.417C406.121 342.417 405.439 341.625 405.384 340.382H409.63C409.663 340.162 409.685 339.953 409.685 339.755C409.685 338.237 408.673 337.379 407.188 337.379C405.483 337.379 404.394 338.589 404.394 340.25C404.394 342.296 405.846 343.143 407.276 343.143C408.09 343.143 408.893 342.879 409.432 342.395L409.124 341.834Z" fill="#416900"/>
<circle cx="579.81" cy="75.4935" r="4" transform="rotate(36.9913 579.81 75.4935)" fill="white"/>
<circle cx="530.626" cy="162.39" r="5" transform="rotate(36.9913 530.626 162.39)" fill="white"/>
<circle cx="375.976" cy="-2.93833" r="5" transform="rotate(36.9913 375.976 -2.93833)" fill="white"/>
<circle cx="457.738" cy="14.8348" r="3" transform="rotate(36.9913 457.738 14.8348)" fill="white"/>
<circle cx="528.899" cy="33.3856" r="3" transform="rotate(36.9913 528.899 33.3856)" fill="white"/>
<circle cx="510.609" cy="75.9469" r="3" transform="rotate(36.9913 510.609 75.9469)" fill="white"/>
<circle cx="487.372" cy="93.4977" r="5" transform="rotate(36.9913 487.372 93.4977)" fill="white"/>
<circle cx="486.51" cy="121.559" r="4" transform="rotate(36.9913 486.51 121.559)" fill="white"/>
<circle cx="579.508" cy="122.756" r="4" transform="rotate(36.9913 579.508 122.756)" fill="white"/>
<circle cx="591.118" cy="306.781" r="5" transform="rotate(36.9913 591.118 306.781)" fill="white"/>
<circle cx="436.468" cy="141.453" r="5" transform="rotate(36.9913 436.468 141.453)" fill="white"/>
<circle cx="518.231" cy="159.226" r="3" transform="rotate(36.9913 518.231 159.226)" fill="white"/>
<circle cx="589.392" cy="177.777" r="3" transform="rotate(36.9913 589.392 177.777)" fill="white"/>
<circle cx="571.101" cy="220.338" r="3" transform="rotate(36.9913 571.101 220.338)" fill="white"/>
<circle cx="547.864" cy="237.889" r="5" transform="rotate(36.9913 547.864 237.889)" fill="white"/>
<circle cx="108.302" cy="53.8851" r="4" transform="rotate(36.9913 108.302 53.8851)" fill="white"/>
<circle cx="59.1182" cy="140.781" r="5" transform="rotate(36.9913 59.1182 140.781)" fill="white"/>
<circle cx="57.3915" cy="11.7772" r="3" transform="rotate(36.9913 57.3915 11.7772)" fill="white"/>
<circle cx="39.1014" cy="54.3385" r="3" transform="rotate(36.9913 39.1014 54.3385)" fill="white"/>
<circle cx="147.391" cy="11.9679" r="5" transform="rotate(36.9913 147.391 11.9679)" fill="white"/>
<circle cx="15.8641" cy="71.8893" r="5" transform="rotate(36.9913 15.8641 71.8893)" fill="white"/>
<circle cx="317.302" cy="10.8851" r="4" transform="rotate(36.9913 317.302 10.8851)" fill="white"/>
<circle cx="248.101" cy="11.3385" r="3" transform="rotate(36.9913 248.101 11.3385)" fill="white"/>
<circle cx="224.864" cy="28.8893" r="5" transform="rotate(36.9913 224.864 28.8893)" fill="white"/>
<circle cx="37.6521" cy="241.006" r="4" transform="rotate(118.555 37.6521 241.006)" fill="white"/>
<circle cx="50.112" cy="333.173" r="4" transform="rotate(118.555 50.112 333.173)" fill="white"/>
<circle cx="10.6314" cy="194.424" r="5" transform="rotate(118.555 10.6314 194.424)" fill="white"/>
<circle cx="5.04616" cy="277.909" r="3" transform="rotate(118.555 5.04616 277.909)" fill="white"/>
<circle cx="-2.86363" cy="351.022" r="3" transform="rotate(118.555 -2.86363 351.022)" fill="white"/>
</g>
<defs>
<clipPath id="clip0_277_6425">
<rect width="601.829" height="350" fill="white"/>
</clipPath>
</defs>
</svg>
