<svg width="602" height="350" viewBox="0 0 602 350" fill="none" xmlns="http://www.w3.org/2000/svg">
<g clip-path="url(#clip0_294_7249)">
<rect width="601.829" height="350" fill="white"/>
<path d="M175.524 134H180.06L187.676 114.68H182.524L177.96 128.596L173.2 114.68H167.992L175.524 134ZM186.688 127C186.688 130.976 189.152 134.364 194.388 134.364C199.624 134.364 202.032 130.976 202.032 127C202.032 122.968 199.624 119.58 194.388 119.58C189.152 119.58 186.688 122.968 186.688 127ZM194.388 131.172C192.4 131.172 191.42 129.52 191.42 127.028C191.42 124.508 192.4 122.772 194.388 122.772C196.32 122.772 197.3 124.508 197.3 127.028C197.3 129.52 196.32 131.172 194.388 131.172ZM204.227 128.96C204.227 132.348 205.627 134.364 209.071 134.364C211.003 134.364 212.487 133.86 213.663 133.216L218.087 134.392V119.58L213.271 120.476V130.472C212.431 130.724 211.843 130.836 211.171 130.836C209.547 130.836 209.043 130.136 209.043 128.4V119.944H204.227V128.96ZM220.317 133.58C221.717 134.056 224.013 134.364 226.197 134.364C230.201 134.364 232.497 132.712 232.497 129.772C232.497 127.728 231.209 126.748 229.725 126.16C227.625 125.32 225.105 125.236 225.105 123.948C225.105 123.248 225.833 122.968 227.093 122.968C228.493 122.968 229.557 123.248 230.761 123.78L232.245 120.672C230.537 119.916 228.689 119.58 226.841 119.58C222.417 119.58 220.429 121.344 220.429 124.088C220.429 126.496 222.249 127.56 224.097 128.26C225.973 128.96 227.849 129.268 227.849 130.136C227.849 130.892 226.673 131.06 225.245 131.06C223.649 131.06 222.389 130.836 221.045 130.416L220.317 133.58ZM242.774 124.256C244.034 123.444 245.602 122.968 247.002 122.968C248.318 122.968 248.962 123.864 248.962 125.32V125.88C246.862 125.908 244.202 125.992 241.598 126.328C240.646 127.392 240.254 128.484 240.254 129.828C240.254 132.6 242.158 134.364 245.21 134.364C246.722 134.364 248.374 133.86 249.55 133.104L253.75 134.364V125.264C253.75 121.736 251.622 119.58 247.618 119.58C244.818 119.58 242.858 120.14 240.814 121.484L242.774 124.256ZM248.962 131.256C248.57 131.424 247.954 131.536 247.17 131.536C245.49 131.536 244.874 130.332 244.874 129.268C244.874 128.876 244.958 128.512 245.014 128.316C246.498 128.008 247.394 127.84 248.962 127.616V131.256ZM259.885 134H264.141L269.741 119.944H264.785L262.097 128.68L259.437 119.944H254.453L259.885 134ZM282.379 129.352C281.091 130.276 279.943 130.724 278.459 130.724C276.751 130.724 275.071 130.08 274.791 127.896H284.535C284.675 127.252 284.759 126.664 284.759 125.824C284.759 121.792 281.959 119.58 277.759 119.58C273.223 119.58 270.031 122.688 270.031 127.028C270.031 131.48 272.887 134.364 278.039 134.364C280.895 134.364 282.715 133.524 284.423 132.348L282.379 129.352ZM274.707 126.132C274.931 124.06 276.107 122.94 277.675 122.94C279.103 122.94 280.167 123.948 280.279 125.488L274.707 126.132ZM285.738 134H298.842V130.136L291.786 130.892L299.038 122.212V119.944H286.494V123.752L293.55 122.968L285.738 132.852V134ZM321.099 134.364V112.888L316.311 113.672V119.972C315.695 119.776 314.883 119.58 313.707 119.58C309.927 119.58 306.399 121.932 306.399 127.084C306.399 132.208 309.451 134.364 313.147 134.364C314.659 134.364 315.751 134.028 316.871 133.44L321.099 134.364ZM316.311 131.34C315.639 131.536 315.219 131.62 314.575 131.62C312.475 131.62 311.187 130.108 311.187 127.056C311.187 123.696 312.727 122.492 315.275 122.492C315.555 122.492 315.891 122.52 316.311 122.548V131.34ZM335.891 129.352C334.603 130.276 333.455 130.724 331.971 130.724C330.263 130.724 328.583 130.08 328.303 127.896H338.047C338.187 127.252 338.271 126.664 338.271 125.824C338.271 121.792 335.471 119.58 331.271 119.58C326.735 119.58 323.543 122.688 323.543 127.028C323.543 131.48 326.399 134.364 331.551 134.364C334.407 134.364 336.227 133.524 337.935 132.348L335.891 129.352ZM328.219 126.132C328.443 124.06 329.619 122.94 331.187 122.94C332.615 122.94 333.679 123.948 333.791 125.488L328.219 126.132ZM327.911 117.312L329.647 118.992L335.947 115.072L333.035 112.132L327.911 117.312ZM339.221 141.252C344.093 139.292 345.465 136.128 345.465 132.6V119.58L340.649 120.252V133.832C340.649 136.576 339.781 137.976 337.905 139.432L339.221 141.252ZM343.057 118.292C344.457 118.292 345.661 117.2 345.661 115.632C345.661 114.036 344.457 113 343.057 113C341.601 113 340.481 114.036 340.481 115.632C340.481 117.2 341.601 118.292 343.057 118.292ZM350.372 124.256C351.632 123.444 353.2 122.968 354.6 122.968C355.916 122.968 356.56 123.864 356.56 125.32V125.88C354.46 125.908 351.8 125.992 349.196 126.328C348.244 127.392 347.852 128.484 347.852 129.828C347.852 132.6 349.756 134.364 352.808 134.364C354.32 134.364 355.972 133.86 357.148 133.104L361.348 134.364V125.264C361.348 121.736 359.22 119.58 355.216 119.58C352.416 119.58 350.456 120.14 348.412 121.484L350.372 124.256ZM356.56 131.256C356.168 131.424 355.552 131.536 354.768 131.536C353.088 131.536 352.472 130.332 352.472 129.268C352.472 128.876 352.556 128.512 352.612 128.316C354.096 128.008 354.992 127.84 356.56 127.616V131.256ZM350.932 115.1L357.092 118.992L358.94 117.144L354.04 112.132L350.932 115.1ZM368.944 141.252C373.816 139.292 375.188 136.128 375.188 132.6V119.58L370.372 120.252V133.832C370.372 136.576 369.504 137.976 367.628 139.432L368.944 141.252ZM372.78 118.292C374.18 118.292 375.384 117.2 375.384 115.632C375.384 114.036 374.18 113 372.78 113C371.324 113 370.204 114.036 370.204 115.632C370.204 117.2 371.324 118.292 372.78 118.292ZM377.574 127C377.574 130.976 380.038 134.364 385.274 134.364C390.51 134.364 392.918 130.976 392.918 127C392.918 122.968 390.51 119.58 385.274 119.58C380.038 119.58 377.574 122.968 377.574 127ZM385.274 131.172C383.286 131.172 382.306 129.52 382.306 127.028C382.306 124.508 383.286 122.772 385.274 122.772C387.206 122.772 388.186 124.508 388.186 127.028C388.186 129.52 387.206 131.172 385.274 131.172ZM395.114 128.96C395.114 132.348 396.514 134.364 399.958 134.364C401.89 134.364 403.374 133.86 404.55 133.216L408.974 134.392V119.58L404.158 120.476V130.472C403.318 130.724 402.73 130.836 402.058 130.836C400.434 130.836 399.93 130.136 399.93 128.4V119.944H395.114V128.96ZM423.692 129.352C422.404 130.276 421.256 130.724 419.772 130.724C418.064 130.724 416.384 130.08 416.104 127.896H425.848C425.988 127.252 426.072 126.664 426.072 125.824C426.072 121.792 423.272 119.58 419.072 119.58C414.536 119.58 411.344 122.688 411.344 127.028C411.344 131.48 414.2 134.364 419.352 134.364C422.208 134.364 424.028 133.524 425.736 132.348L423.692 129.352ZM416.02 126.132C416.244 124.06 417.42 122.94 418.988 122.94C420.416 122.94 421.48 123.948 421.592 125.488L416.02 126.132ZM415.712 117.312L417.448 118.992L423.748 115.072L420.836 112.132L415.712 117.312ZM224.249 158.256C225.509 157.444 227.077 156.968 228.477 156.968C229.793 156.968 230.437 157.864 230.437 159.32V159.88C228.337 159.908 225.677 159.992 223.073 160.328C222.121 161.392 221.729 162.484 221.729 163.828C221.729 166.6 223.633 168.364 226.685 168.364C228.197 168.364 229.849 167.86 231.025 167.104L235.225 168.364V159.264C235.225 155.736 233.097 153.58 229.093 153.58C226.293 153.58 224.333 154.14 222.289 155.484L224.249 158.256ZM230.437 165.256C230.045 165.424 229.429 165.536 228.645 165.536C226.965 165.536 226.349 164.332 226.349 163.268C226.349 162.876 226.433 162.512 226.489 162.316C227.973 162.008 228.869 161.84 230.437 161.616V165.256ZM237.955 162.96C237.955 166.348 239.355 168.364 242.799 168.364C244.731 168.364 246.215 167.86 247.391 167.216L251.815 168.392V153.58L246.999 154.476V164.472C246.159 164.724 245.571 164.836 244.899 164.836C243.275 164.836 242.771 164.136 242.771 162.4V153.944H237.955V162.96ZM253.458 175.252C258.33 173.292 259.702 170.128 259.702 166.6V153.58L254.886 154.252V167.832C254.886 170.576 254.018 171.976 252.142 173.432L253.458 175.252ZM257.294 152.292C258.694 152.292 259.898 151.2 259.898 149.632C259.898 148.036 258.694 147 257.294 147C255.838 147 254.718 148.036 254.718 149.632C254.718 151.2 255.838 152.292 257.294 152.292ZM262.088 161C262.088 164.976 264.552 168.364 269.788 168.364C275.024 168.364 277.432 164.976 277.432 161C277.432 156.968 275.024 153.58 269.788 153.58C264.552 153.58 262.088 156.968 262.088 161ZM269.788 165.172C267.8 165.172 266.82 163.52 266.82 161.028C266.82 158.508 267.8 156.772 269.788 156.772C271.72 156.772 272.7 158.508 272.7 161.028C272.7 163.52 271.72 165.172 269.788 165.172ZM279.627 162.96C279.627 166.348 281.027 168.364 284.471 168.364C286.403 168.364 287.887 167.86 289.063 167.216L293.487 168.392V153.58L288.671 154.476V164.472C287.831 164.724 287.243 164.836 286.571 164.836C284.947 164.836 284.443 164.136 284.443 162.4V153.944H279.627V162.96ZM296.418 168H301.206V157.332C302.69 157.332 304.482 157.444 305.854 157.724L306.61 153.664C306.246 153.608 305.826 153.58 305.462 153.58C303.754 153.58 302.018 153.944 300.758 154.896L296.418 153.58V168ZM321.96 168.364V146.888L317.172 147.672V153.972C316.556 153.776 315.744 153.58 314.568 153.58C310.788 153.58 307.26 155.932 307.26 161.084C307.26 166.208 310.312 168.364 314.008 168.364C315.52 168.364 316.612 168.028 317.732 167.44L321.96 168.364ZM317.172 165.34C316.5 165.536 316.08 165.62 315.436 165.62C313.336 165.62 312.048 164.108 312.048 161.056C312.048 157.696 313.588 156.492 316.136 156.492C316.416 156.492 316.752 156.52 317.172 156.548V165.34ZM326.504 156.884C328.828 154.56 330.256 152.376 330.256 150.388C330.256 148.68 329.024 147.532 327.428 147.532C326 147.532 324.712 148.596 324.712 150.192C324.712 151.116 325.188 151.984 326.112 152.432C325.804 153.44 325.132 154.588 324.46 155.568L326.504 156.884ZM332.68 168H337.468V157.08C338.224 156.884 339.12 156.744 340.072 156.744C341.332 156.744 341.948 157.332 341.948 158.788V168H346.736V158.788C346.736 155.176 345.028 153.58 342.144 153.58C340.464 153.58 338.784 154.028 337.468 154.56V147.7L332.68 146.888V168ZM349.49 162.96C349.49 166.348 350.89 168.364 354.334 168.364C356.266 168.364 357.75 167.86 358.926 167.216L363.35 168.392V153.58L358.534 154.476V164.472C357.694 164.724 357.106 164.836 356.434 164.836C354.81 164.836 354.306 164.136 354.306 162.4V153.944H349.49V162.96ZM366.421 168H371.237V153.58L366.421 154.252V168ZM368.829 152.292C370.229 152.292 371.433 151.2 371.433 149.632C371.433 148.036 370.229 147 368.829 147C367.373 147 366.253 148.036 366.253 149.632C366.253 151.2 367.373 152.292 368.829 152.292ZM376.395 168.364C377.907 168.364 379.139 167.272 379.139 165.732C379.139 164.108 377.907 163.016 376.395 163.016C374.967 163.016 373.763 164.108 373.763 165.732C373.763 167.272 374.967 168.364 376.395 168.364ZM91.9385 236H96.8945V228.384H98.7705L102.859 236H108.991L103.251 227.964C106.219 226.816 107.647 224.688 107.647 222.196C107.647 218.724 105.211 216.288 100.283 216.288C98.9665 216.288 97.6225 216.596 96.2785 217.184L91.9385 216.288V236ZM96.8945 225.388V219.788C97.2585 219.704 98.2105 219.592 99.0505 219.592C101.319 219.592 102.551 220.684 102.551 222.364C102.551 224.324 101.291 225.388 98.6025 225.388H96.8945ZM121.407 231.352C120.119 232.276 118.971 232.724 117.487 232.724C115.779 232.724 114.099 232.08 113.819 229.896H123.563C123.703 229.252 123.787 228.664 123.787 227.824C123.787 223.792 120.987 221.58 116.787 221.58C112.251 221.58 109.059 224.688 109.059 229.028C109.059 233.48 111.915 236.364 117.067 236.364C119.923 236.364 121.743 235.524 123.451 234.348L121.407 231.352ZM113.735 228.132C113.959 226.06 115.135 224.94 116.703 224.94C118.131 224.94 119.195 225.948 119.307 227.488L113.735 228.132ZM126.592 231.156C126.592 235.3 128.524 236.364 131.828 236.364C133.844 236.364 135.496 235.776 136.42 235.328L135.692 232.556C135.02 232.836 134.376 232.948 133.564 232.948C131.856 232.948 131.408 232.024 131.408 230.456V224.576H135.636L135.916 221.524L131.408 222.056V217.156L126.592 218.22V222.336L124.632 222.616V224.576H126.592V231.156ZM149.626 231.352C148.338 232.276 147.19 232.724 145.706 232.724C143.998 232.724 142.318 232.08 142.038 229.896H151.782C151.922 229.252 152.006 228.664 152.006 227.824C152.006 223.792 149.206 221.58 145.006 221.58C140.47 221.58 137.278 224.688 137.278 229.028C137.278 233.48 140.133 236.364 145.286 236.364C148.142 236.364 149.962 235.524 151.67 234.348L149.626 231.352ZM141.954 228.132C142.178 226.06 143.354 224.94 144.922 224.94C146.35 224.94 147.414 225.948 147.526 227.488L141.954 228.132ZM154.384 236H159.172V225.36C160.32 225.108 161.02 224.968 161.944 224.968C163.148 224.968 163.652 225.444 163.652 226.76V236H168.44V226.592C168.44 223.26 166.984 221.58 163.96 221.58C161.804 221.58 159.9 222.336 158.724 222.896L154.384 221.58V236ZM172.228 231.156C172.228 235.3 174.16 236.364 177.464 236.364C179.48 236.364 181.132 235.776 182.056 235.328L181.328 232.556C180.656 232.836 180.012 232.948 179.2 232.948C177.492 232.948 177.044 232.024 177.044 230.456V224.576H181.272L181.552 221.524L177.044 222.056V217.156L172.228 218.22V222.336L170.268 222.616V224.576H172.228V231.156ZM195.262 231.352C193.974 232.276 192.826 232.724 191.342 232.724C189.634 232.724 187.954 232.08 187.674 229.896H197.418C197.558 229.252 197.642 228.664 197.642 227.824C197.642 223.792 194.842 221.58 190.642 221.58C186.106 221.58 182.914 224.688 182.914 229.028C182.914 233.48 185.77 236.364 190.922 236.364C193.778 236.364 195.598 235.524 197.306 234.348L195.262 231.352ZM187.59 228.132C187.814 226.06 188.99 224.94 190.558 224.94C191.986 224.94 193.05 225.948 193.162 227.488L187.59 228.132ZM198.62 236H211.724V232.136L204.668 232.892L211.92 224.212V221.944H199.376V225.752L206.432 224.968L198.62 234.852V236ZM223.873 236H228.129L233.729 221.944H228.773L226.085 230.68L223.425 221.944H218.441L223.873 236ZM234.02 229C234.02 232.976 236.484 236.364 241.72 236.364C246.956 236.364 249.364 232.976 249.364 229C249.364 224.968 246.956 221.58 241.72 221.58C236.484 221.58 234.02 224.968 234.02 229ZM241.72 233.172C239.732 233.172 238.752 231.52 238.752 229.028C238.752 226.508 239.732 224.772 241.72 224.772C243.652 224.772 244.632 226.508 244.632 229.028C244.632 231.52 243.652 233.172 241.72 233.172ZM252.455 231.156C252.455 235.3 254.387 236.364 257.691 236.364C259.707 236.364 261.359 235.776 262.283 235.328L261.555 232.556C260.883 232.836 260.239 232.948 259.427 232.948C257.719 232.948 257.271 232.024 257.271 230.456V224.576H261.499L261.779 221.524L257.271 222.056V217.156L252.455 218.22V222.336L250.495 222.616V224.576H252.455V231.156ZM264.029 236H268.817V225.332C270.301 225.332 272.093 225.444 273.465 225.724L274.221 221.664C273.857 221.608 273.437 221.58 273.073 221.58C271.365 221.58 269.629 221.944 268.369 222.896L264.029 221.58V236ZM286.973 231.352C285.685 232.276 284.537 232.724 283.053 232.724C281.345 232.724 279.665 232.08 279.385 229.896H289.129C289.269 229.252 289.353 228.664 289.353 227.824C289.353 223.792 286.553 221.58 282.353 221.58C277.817 221.58 274.625 224.688 274.625 229.028C274.625 233.48 277.481 236.364 282.633 236.364C285.489 236.364 287.309 235.524 289.017 234.348L286.973 231.352ZM279.301 228.132C279.525 226.06 280.701 224.94 282.269 224.94C283.697 224.94 284.761 225.948 284.873 227.488L279.301 228.132ZM308.749 232.136C307.629 232.668 306.705 232.864 305.669 232.864C303.513 232.864 301.945 231.716 301.945 229.028C301.945 226.312 303.569 225.248 305.809 225.248C306.789 225.248 307.685 225.472 308.441 225.892L310.177 222.756C308.721 221.916 307.209 221.58 305.249 221.58C300.741 221.58 297.073 224.212 297.073 229.028C297.073 233.844 300.069 236.364 304.997 236.364C306.845 236.364 308.497 235.972 309.813 235.244L308.749 232.136ZM312.213 236H317.001V225.08C317.757 224.884 318.653 224.744 319.605 224.744C320.865 224.744 321.481 225.332 321.481 226.788V236H326.269V226.788C326.269 223.176 324.561 221.58 321.677 221.58C319.997 221.58 318.317 222.028 317.001 222.56V215.7L312.213 214.888V236ZM330.93 226.256C332.19 225.444 333.758 224.968 335.158 224.968C336.474 224.968 337.118 225.864 337.118 227.32V227.88C335.018 227.908 332.358 227.992 329.754 228.328C328.802 229.392 328.41 230.484 328.41 231.828C328.41 234.6 330.314 236.364 333.366 236.364C334.878 236.364 336.53 235.86 337.706 235.104L341.906 236.364V227.264C341.906 223.736 339.778 221.58 335.774 221.58C332.974 221.58 331.014 222.14 328.97 223.484L330.93 226.256ZM337.118 233.256C336.726 233.424 336.11 233.536 335.326 233.536C333.646 233.536 333.03 232.332 333.03 231.268C333.03 230.876 333.114 230.512 333.17 230.316C334.654 230.008 335.55 229.84 337.118 229.616V233.256ZM344.833 236H349.621V225.36C350.769 225.108 351.469 224.968 352.393 224.968C353.597 224.968 354.101 225.444 354.101 226.76V236H358.889V226.592C358.889 223.26 357.433 221.58 354.409 221.58C352.253 221.58 350.349 222.336 349.173 222.896L344.833 221.58V236ZM372.898 232.136C371.778 232.668 370.854 232.864 369.818 232.864C367.662 232.864 366.094 231.716 366.094 229.028C366.094 226.312 367.718 225.248 369.958 225.248C370.938 225.248 371.834 225.472 372.59 225.892L374.326 222.756C372.87 221.916 371.358 221.58 369.398 221.58C364.89 221.58 361.222 224.212 361.222 229.028C361.222 233.844 364.218 236.364 369.146 236.364C370.994 236.364 372.646 235.972 373.962 235.244L372.898 232.136ZM387.243 231.352C385.955 232.276 384.807 232.724 383.323 232.724C381.615 232.724 379.935 232.08 379.655 229.896H389.399C389.539 229.252 389.623 228.664 389.623 227.824C389.623 223.792 386.823 221.58 382.623 221.58C378.087 221.58 374.895 224.688 374.895 229.028C374.895 233.48 377.751 236.364 382.903 236.364C385.759 236.364 387.579 235.524 389.287 234.348L387.243 231.352ZM379.571 228.132C379.795 226.06 380.971 224.94 382.539 224.94C383.967 224.94 385.031 225.948 385.143 227.488L379.571 228.132ZM412.099 236.364V214.888L407.311 215.672V221.972C406.695 221.776 405.883 221.58 404.707 221.58C400.927 221.58 397.399 223.932 397.399 229.084C397.399 234.208 400.451 236.364 404.147 236.364C405.659 236.364 406.751 236.028 407.871 235.44L412.099 236.364ZM407.311 233.34C406.639 233.536 406.219 233.62 405.575 233.62C403.475 233.62 402.187 232.108 402.187 229.056C402.187 225.696 403.727 224.492 406.275 224.492C406.555 224.492 406.891 224.52 407.311 224.548V233.34ZM426.891 231.352C425.603 232.276 424.455 232.724 422.971 232.724C421.263 232.724 419.583 232.08 419.303 229.896H429.047C429.187 229.252 429.271 228.664 429.271 227.824C429.271 223.792 426.471 221.58 422.271 221.58C417.735 221.58 414.543 224.688 414.543 229.028C414.543 233.48 417.399 236.364 422.551 236.364C425.407 236.364 427.227 235.524 428.935 234.348L426.891 231.352ZM419.219 228.132C419.443 226.06 420.619 224.94 422.187 224.94C423.615 224.94 424.679 225.948 424.791 227.488L419.219 228.132ZM431.649 236H436.437V225.36C437.249 225.136 438.201 224.968 438.929 224.968C440.105 224.968 440.469 225.248 440.469 226.732V236H445.313V227.404C445.313 226.732 445.229 225.948 445.061 225.304C446.069 225.08 446.965 224.912 447.721 224.912C448.981 224.912 449.345 225.304 449.345 226.76V236H454.133V226.984C454.133 223.652 452.929 221.58 449.653 221.58C447.637 221.58 445.677 222.28 444.361 223.036C443.633 222.196 442.625 221.58 441.029 221.58C439.069 221.58 437.333 222.196 435.989 222.896L431.649 221.58V236ZM458.926 226.256C460.186 225.444 461.754 224.968 463.154 224.968C464.47 224.968 465.114 225.864 465.114 227.32V227.88C463.014 227.908 460.354 227.992 457.75 228.328C456.798 229.392 456.406 230.484 456.406 231.828C456.406 234.6 458.31 236.364 461.362 236.364C462.874 236.364 464.526 235.86 465.702 235.104L469.902 236.364V227.264C469.902 223.736 467.774 221.58 463.77 221.58C460.97 221.58 459.01 222.14 456.966 223.484L458.926 226.256ZM465.114 233.256C464.722 233.424 464.106 233.536 463.322 233.536C461.642 233.536 461.026 232.332 461.026 231.268C461.026 230.876 461.11 230.512 461.166 230.316C462.65 230.008 463.546 229.84 465.114 229.616V233.256ZM472.829 236H477.645V221.58L472.829 222.252V236ZM475.237 220.292C476.637 220.292 477.841 219.2 477.841 217.632C477.841 216.036 476.637 215 475.237 215C473.781 215 472.661 216.036 472.661 217.632C472.661 219.2 473.781 220.292 475.237 220.292ZM480.731 236H485.519V225.36C486.667 225.108 487.367 224.968 488.291 224.968C489.495 224.968 489.999 225.444 489.999 226.76V236H494.787V226.592C494.787 223.26 493.331 221.58 490.307 221.58C488.151 221.58 486.247 222.336 485.071 222.896L480.731 221.58V236ZM505.15 230.652H508.174L509.266 216.288L504.114 216.904L505.15 230.652ZM506.774 236.336C508.118 236.336 509.266 235.328 509.266 233.9C509.266 232.444 508.118 231.436 506.774 231.436C505.458 231.436 504.338 232.444 504.338 233.9C504.338 235.328 505.458 236.336 506.774 236.336Z" fill="#71001B"/>
<path fill-rule="evenodd" clip-rule="evenodd" d="M602 0H0V350H44.1532C71.6153 466.777 176.189 553.688 301 553.688C425.811 553.688 530.385 466.777 557.847 350H602V0ZM557.847 350C562.452 330.417 564.889 309.994 564.889 289C564.889 142.817 446.742 24.3115 301 24.3115C155.258 24.3115 37.1111 142.817 37.1111 289C37.1111 309.994 39.5479 330.417 44.1532 350H557.847Z" fill="#6E5F5F"/>
<circle cx="579.81" cy="75.4935" r="4" transform="rotate(36.9913 579.81 75.4935)" fill="white"/>
<circle cx="530.626" cy="162.39" r="5" transform="rotate(36.9913 530.626 162.39)" fill="white"/>
<circle cx="375.976" cy="-2.93833" r="5" transform="rotate(36.9913 375.976 -2.93833)" fill="white"/>
<circle cx="457.738" cy="14.8348" r="3" transform="rotate(36.9913 457.738 14.8348)" fill="white"/>
<circle cx="528.899" cy="33.3856" r="3" transform="rotate(36.9913 528.899 33.3856)" fill="white"/>
<circle cx="510.609" cy="75.9469" r="3" transform="rotate(36.9913 510.609 75.9469)" fill="white"/>
<circle cx="487.372" cy="93.4977" r="5" transform="rotate(36.9913 487.372 93.4977)" fill="white"/>
<circle cx="486.51" cy="121.559" r="4" transform="rotate(36.9913 486.51 121.559)" fill="white"/>
<circle cx="579.508" cy="122.756" r="4" transform="rotate(36.9913 579.508 122.756)" fill="white"/>
<circle cx="591.118" cy="306.781" r="5" transform="rotate(36.9913 591.118 306.781)" fill="white"/>
<circle cx="518.231" cy="159.227" r="3" transform="rotate(36.9913 518.231 159.227)" fill="white"/>
<circle cx="589.392" cy="177.777" r="3" transform="rotate(36.9913 589.392 177.777)" fill="white"/>
<circle cx="571.101" cy="220.339" r="3" transform="rotate(36.9913 571.101 220.339)" fill="white"/>
<circle cx="547.864" cy="237.89" r="5" transform="rotate(36.9913 547.864 237.89)" fill="white"/>
<circle cx="108.302" cy="53.8851" r="4" transform="rotate(36.9913 108.302 53.8851)" fill="white"/>
<circle cx="59.1182" cy="140.781" r="5" transform="rotate(36.9913 59.1182 140.781)" fill="white"/>
<circle cx="57.3915" cy="11.7772" r="3" transform="rotate(36.9913 57.3915 11.7772)" fill="white"/>
<circle cx="39.1013" cy="54.3385" r="3" transform="rotate(36.9913 39.1013 54.3385)" fill="white"/>
<circle cx="147.391" cy="11.9679" r="5" transform="rotate(36.9913 147.391 11.9679)" fill="white"/>
<circle cx="15.8641" cy="71.8893" r="5" transform="rotate(36.9913 15.8641 71.8893)" fill="white"/>
<circle cx="317.302" cy="10.8851" r="4" transform="rotate(36.9913 317.302 10.8851)" fill="white"/>
<circle cx="248.101" cy="11.3385" r="3" transform="rotate(36.9913 248.101 11.3385)" fill="white"/>
<circle cx="224.864" cy="28.8893" r="5" transform="rotate(36.9913 224.864 28.8893)" fill="white"/>
<circle cx="37.6521" cy="241.006" r="4" transform="rotate(118.555 37.6521 241.006)" fill="white"/>
<circle cx="50.112" cy="333.173" r="4" transform="rotate(118.555 50.112 333.173)" fill="white"/>
<circle cx="10.6314" cy="194.424" r="5" transform="rotate(118.555 10.6314 194.424)" fill="white"/>
<circle cx="5.04616" cy="277.909" r="3" transform="rotate(118.555 5.04616 277.909)" fill="white"/>
<circle cx="-2.8636" cy="351.022" r="3" transform="rotate(118.555 -2.8636 351.022)" fill="white"/>
<path fill-rule="evenodd" clip-rule="evenodd" d="M125.891 308.013L121.915 293.257L117.265 294.355C117.265 294.355 110.445 297.11 112.183 303.558C113.918 310.017 121.261 309.176 121.261 309.176L125.891 308.013Z" fill="#37CDEB" fill-opacity="0.32"/>
<path fill-rule="evenodd" clip-rule="evenodd" d="M163.729 293.7C162.135 287.232 152.652 283.361 145.334 284.926C142.32 285.572 139.52 286.894 136.807 288.269C135.513 288.925 134.225 289.656 132.899 290.262C131.23 291.017 129.512 291.588 127.785 292.172C125.386 292.982 125.533 293.883 126.513 295.956L128.702 304.11C128.861 304.989 128.993 306.831 130.2 306.961C131.274 307.069 132.389 306.092 133.448 305.92C134.82 305.694 136.255 305.516 137.655 305.451C140.775 305.289 144.207 306.773 147.315 307.214C151.173 307.756 154.334 307.316 157.845 305.802C162.521 303.786 165.014 298.901 163.729 293.7Z" fill="#37CDEB" fill-opacity="0.32"/>
<path fill-rule="evenodd" clip-rule="evenodd" d="M148.981 312.508L152.602 326.852C152.602 326.852 141.917 331.037 139.639 322.326C137.366 313.61 148.981 312.508 148.981 312.508Z" fill="#37CDEB" fill-opacity="0.32"/>
<path fill-rule="evenodd" clip-rule="evenodd" d="M188.172 308.508C189.827 314.552 183.692 321.873 176.84 323.752C174.022 324.521 171.08 324.633 168.165 324.674C166.776 324.69 165.366 324.637 163.967 324.71C162.232 324.812 160.523 325.086 158.812 325.351C156.43 325.714 156.143 324.895 155.994 322.759L154.039 315.053C153.767 314.261 153.034 312.674 153.974 312.053C154.824 311.494 156.214 311.815 157.171 311.508C158.422 311.1 159.711 310.623 160.905 310.071C163.587 308.848 165.772 306.128 168.165 304.426C171.127 302.296 173.983 301.296 177.615 301.027C182.484 300.666 186.829 303.64 188.172 308.508Z" fill="#37CDEB" fill-opacity="0.32"/>
<path fill-rule="evenodd" clip-rule="evenodd" d="M286.891 288.013L282.915 273.257L278.265 274.355C278.265 274.355 271.445 277.11 273.183 283.558C274.918 290.017 282.261 289.176 282.261 289.176L286.891 288.013Z" fill="#37CDEB" fill-opacity="0.32"/>
<path fill-rule="evenodd" clip-rule="evenodd" d="M324.729 273.7C323.135 267.232 313.652 263.361 306.334 264.926C303.32 265.572 300.52 266.894 297.807 268.269C296.513 268.925 295.225 269.656 293.899 270.262C292.23 271.017 290.512 271.588 288.785 272.172C286.386 272.982 286.533 273.883 287.513 275.956L289.702 284.11C289.861 284.989 289.993 286.831 291.2 286.961C292.274 287.069 293.389 286.092 294.448 285.92C295.82 285.694 297.255 285.516 298.655 285.451C301.775 285.289 305.207 286.773 308.315 287.214C312.173 287.756 315.334 287.316 318.845 285.802C323.521 283.786 326.014 278.901 324.729 273.7Z" fill="#37CDEB" fill-opacity="0.32"/>
<path fill-rule="evenodd" clip-rule="evenodd" d="M309.981 292.508L313.602 306.852C313.602 306.852 302.917 311.037 300.639 302.326C298.366 293.61 309.981 292.508 309.981 292.508Z" fill="#37CDEB" fill-opacity="0.32"/>
<path fill-rule="evenodd" clip-rule="evenodd" d="M349.172 288.508C350.827 294.552 344.692 301.873 337.84 303.752C335.022 304.521 332.08 304.633 329.165 304.674C327.776 304.69 326.366 304.637 324.967 304.71C323.232 304.812 321.523 305.086 319.812 305.351C317.43 305.714 317.143 304.895 316.994 302.759L315.039 295.053C314.767 294.261 314.034 292.674 314.974 292.053C315.824 291.494 317.214 291.815 318.171 291.508C319.422 291.1 320.711 290.623 321.905 290.071C324.586 288.848 326.772 286.128 329.165 284.426C332.127 282.296 334.983 281.296 338.615 281.027C343.484 280.666 347.829 283.64 349.172 288.508Z" fill="#37CDEB" fill-opacity="0.32"/>
<path fill-rule="evenodd" clip-rule="evenodd" d="M444.891 322.013L440.915 307.257L436.265 308.355C436.265 308.355 429.445 311.11 431.183 317.558C432.918 324.017 440.261 323.176 440.261 323.176L444.891 322.013Z" fill="#37CDEB" fill-opacity="0.32"/>
<path fill-rule="evenodd" clip-rule="evenodd" d="M482.729 307.7C481.135 301.232 471.652 297.361 464.334 298.926C461.32 299.572 458.52 300.894 455.807 302.269C454.513 302.925 453.225 303.656 451.899 304.262C450.23 305.017 448.512 305.588 446.785 306.172C444.386 306.982 444.533 307.883 445.513 309.956L447.702 318.11C447.861 318.989 447.993 320.831 449.2 320.961C450.274 321.069 451.389 320.092 452.448 319.92C453.82 319.694 455.255 319.516 456.655 319.451C459.775 319.289 463.207 320.773 466.315 321.214C470.173 321.756 473.334 321.316 476.845 319.802C481.521 317.786 484.014 312.901 482.729 307.7Z" fill="#37CDEB" fill-opacity="0.32"/>
<path fill-rule="evenodd" clip-rule="evenodd" d="M467.981 326.508L471.602 340.852C471.602 340.852 460.917 345.037 458.639 336.326C456.366 327.61 467.981 326.508 467.981 326.508Z" fill="#37CDEB" fill-opacity="0.32"/>
<path fill-rule="evenodd" clip-rule="evenodd" d="M507.172 322.508C508.827 328.552 502.692 335.873 495.84 337.752C493.022 338.521 490.08 338.633 487.165 338.674C485.776 338.69 484.366 338.637 482.967 338.71C481.232 338.812 479.523 339.086 477.812 339.351C475.43 339.714 475.143 338.895 474.994 336.759L473.039 329.053C472.767 328.261 472.034 326.674 472.974 326.053C473.824 325.494 475.214 325.815 476.171 325.508C477.422 325.1 478.711 324.623 479.905 324.071C482.587 322.848 484.772 320.128 487.165 318.426C490.127 316.296 492.983 315.296 496.615 315.027C501.484 314.666 505.829 317.64 507.172 322.508Z" fill="#37CDEB" fill-opacity="0.32"/>
</g>
<defs>
<clipPath id="clip0_294_7249">
<rect width="601.829" height="350" fill="white"/>
</clipPath>
</defs>
</svg>
