<svg width="602" height="350" viewBox="0 0 602 350" fill="none" xmlns="http://www.w3.org/2000/svg">
<g clip-path="url(#clip0_295_7368)">
<rect width="601.829" height="350" fill="white"/>
<path fill-rule="evenodd" clip-rule="evenodd" d="M602 0H0V350H44.1532C71.6153 466.777 176.189 553.688 301 553.688C425.811 553.688 530.385 466.777 557.847 350H602V0ZM557.847 350C562.452 330.417 564.889 309.994 564.889 289C564.889 142.817 446.742 24.3115 301 24.3115C155.258 24.3115 37.1111 142.817 37.1111 289C37.1111 309.994 39.5479 330.417 44.1532 350H557.847Z" fill="#792D0E"/>
<circle cx="579.81" cy="75.4935" r="4" transform="rotate(36.9913 579.81 75.4935)" fill="white"/>
<circle cx="530.626" cy="162.39" r="5" transform="rotate(36.9913 530.626 162.39)" fill="white"/>
<circle cx="375.976" cy="-2.93833" r="5" transform="rotate(36.9913 375.976 -2.93833)" fill="white"/>
<circle cx="457.738" cy="14.8348" r="3" transform="rotate(36.9913 457.738 14.8348)" fill="white"/>
<circle cx="528.899" cy="33.3856" r="3" transform="rotate(36.9913 528.899 33.3856)" fill="white"/>
<circle cx="510.609" cy="75.9469" r="3" transform="rotate(36.9913 510.609 75.9469)" fill="white"/>
<circle cx="487.372" cy="93.4977" r="5" transform="rotate(36.9913 487.372 93.4977)" fill="white"/>
<circle cx="486.51" cy="121.559" r="4" transform="rotate(36.9913 486.51 121.559)" fill="white"/>
<circle cx="579.508" cy="122.756" r="4" transform="rotate(36.9913 579.508 122.756)" fill="white"/>
<circle cx="591.118" cy="306.781" r="5" transform="rotate(36.9913 591.118 306.781)" fill="white"/>
<circle cx="518.231" cy="159.227" r="3" transform="rotate(36.9913 518.231 159.227)" fill="white"/>
<circle cx="589.392" cy="177.777" r="3" transform="rotate(36.9913 589.392 177.777)" fill="white"/>
<circle cx="571.101" cy="220.339" r="3" transform="rotate(36.9913 571.101 220.339)" fill="white"/>
<circle cx="547.864" cy="237.89" r="5" transform="rotate(36.9913 547.864 237.89)" fill="white"/>
<circle cx="108.302" cy="53.8851" r="4" transform="rotate(36.9913 108.302 53.8851)" fill="white"/>
<circle cx="59.1182" cy="140.781" r="5" transform="rotate(36.9913 59.1182 140.781)" fill="white"/>
<circle cx="57.3915" cy="11.7772" r="3" transform="rotate(36.9913 57.3915 11.7772)" fill="white"/>
<circle cx="39.1014" cy="54.3385" r="3" transform="rotate(36.9913 39.1014 54.3385)" fill="white"/>
<circle cx="147.391" cy="11.9679" r="5" transform="rotate(36.9913 147.391 11.9679)" fill="white"/>
<circle cx="15.8641" cy="71.8893" r="5" transform="rotate(36.9913 15.8641 71.8893)" fill="white"/>
<circle cx="317.302" cy="10.8851" r="4" transform="rotate(36.9913 317.302 10.8851)" fill="white"/>
<circle cx="248.101" cy="11.3385" r="3" transform="rotate(36.9913 248.101 11.3385)" fill="white"/>
<circle cx="224.864" cy="28.8893" r="5" transform="rotate(36.9913 224.864 28.8893)" fill="white"/>
<circle cx="37.6521" cy="241.006" r="4" transform="rotate(118.555 37.6521 241.006)" fill="white"/>
<circle cx="50.112" cy="333.173" r="4" transform="rotate(118.555 50.112 333.173)" fill="white"/>
<circle cx="10.6314" cy="194.424" r="5" transform="rotate(118.555 10.6314 194.424)" fill="white"/>
<circle cx="5.04616" cy="277.909" r="3" transform="rotate(118.555 5.04616 277.909)" fill="white"/>
<circle cx="-2.86363" cy="351.022" r="3" transform="rotate(118.555 -2.86363 351.022)" fill="white"/>
<path d="M147.095 117H151.631L159.247 97.68H154.095L149.531 111.596L144.771 97.68H139.562L147.095 117ZM158.258 110C158.258 113.976 160.722 117.364 165.958 117.364C171.194 117.364 173.602 113.976 173.602 110C173.602 105.968 171.194 102.58 165.958 102.58C160.722 102.58 158.258 105.968 158.258 110ZM165.958 114.172C163.97 114.172 162.99 112.52 162.99 110.028C162.99 107.508 163.97 105.772 165.958 105.772C167.89 105.772 168.87 107.508 168.87 110.028C168.87 112.52 167.89 114.172 165.958 114.172ZM175.797 111.96C175.797 115.348 177.197 117.364 180.641 117.364C182.573 117.364 184.057 116.86 185.233 116.216L189.657 117.392V102.58L184.841 103.476V113.472C184.001 113.724 183.413 113.836 182.741 113.836C181.117 113.836 180.613 113.136 180.613 111.4V102.944H175.797V111.96ZM191.888 116.58C193.288 117.056 195.584 117.364 197.768 117.364C201.772 117.364 204.068 115.712 204.068 112.772C204.068 110.728 202.78 109.748 201.296 109.16C199.196 108.32 196.676 108.236 196.676 106.948C196.676 106.248 197.404 105.968 198.664 105.968C200.064 105.968 201.128 106.248 202.332 106.78L203.816 103.672C202.108 102.916 200.26 102.58 198.412 102.58C193.988 102.58 192 104.344 192 107.088C192 109.496 193.82 110.56 195.668 111.26C197.544 111.96 199.419 112.268 199.419 113.136C199.419 113.892 198.244 114.06 196.816 114.06C195.22 114.06 193.96 113.836 192.616 113.416L191.888 116.58ZM212.524 117H217.312V106.36C218.46 106.108 219.16 105.968 220.084 105.968C221.288 105.968 221.792 106.444 221.792 107.76V117H226.58V107.592C226.58 104.26 225.124 102.58 222.1 102.58C219.944 102.58 218.04 103.336 216.864 103.896L212.524 102.58V117ZM231.069 105.884C233.393 103.56 234.821 101.376 234.821 99.388C234.821 97.68 233.589 96.532 231.993 96.532C230.565 96.532 229.277 97.596 229.277 99.192C229.277 100.116 229.753 100.984 230.677 101.432C230.369 102.44 229.697 103.588 229.025 104.568L231.069 105.884ZM246.868 112.352C245.58 113.276 244.432 113.724 242.948 113.724C241.24 113.724 239.56 113.08 239.28 110.896H249.024C249.164 110.252 249.248 109.664 249.248 108.824C249.248 104.792 246.448 102.58 242.248 102.58C237.712 102.58 234.52 105.688 234.52 110.028C234.52 114.48 237.376 117.364 242.528 117.364C245.384 117.364 247.204 116.524 248.912 115.348L246.868 112.352ZM239.196 109.132C239.42 107.06 240.596 105.94 242.164 105.94C243.592 105.94 244.656 106.948 244.768 108.488L239.196 109.132ZM238.832 101.936L242.332 99.92L245.86 101.936L247.624 100.032L242.332 95.552L237.04 100.06L238.832 101.936ZM252.053 112.156C252.053 116.3 253.985 117.364 257.289 117.364C259.305 117.364 260.957 116.776 261.881 116.328L261.153 113.556C260.481 113.836 259.837 113.948 259.025 113.948C257.317 113.948 256.869 113.024 256.869 111.456V105.576H261.097L261.377 102.524L256.869 103.056V98.156L252.053 99.22V103.336L250.093 103.616V105.576H252.053V112.156ZM275.086 112.352C273.798 113.276 272.65 113.724 271.166 113.724C269.458 113.724 267.778 113.08 267.498 110.896H277.242C277.382 110.252 277.466 109.664 277.466 108.824C277.466 104.792 274.666 102.58 270.466 102.58C265.93 102.58 262.738 105.688 262.738 110.028C262.738 114.48 265.594 117.364 270.746 117.364C273.602 117.364 275.422 116.524 277.13 115.348L275.086 112.352ZM267.414 109.132C267.638 107.06 268.814 105.94 270.382 105.94C271.81 105.94 272.874 106.948 272.986 108.488L267.414 109.132ZM279.005 116.58C280.405 117.056 282.701 117.364 284.885 117.364C288.889 117.364 291.185 115.712 291.185 112.772C291.185 110.728 289.897 109.748 288.413 109.16C286.313 108.32 283.793 108.236 283.793 106.948C283.793 106.248 284.521 105.968 285.781 105.968C287.181 105.968 288.245 106.248 289.449 106.78L290.933 103.672C289.225 102.916 287.377 102.58 285.529 102.58C281.105 102.58 279.117 104.344 279.117 107.088C279.117 109.496 280.937 110.56 282.785 111.26C284.661 111.96 286.537 112.268 286.537 113.136C286.537 113.892 285.361 114.06 283.933 114.06C282.337 114.06 281.077 113.836 279.733 113.416L279.005 116.58ZM299.502 123.384L304.29 122.516V117.112C304.934 117.28 305.662 117.364 306.642 117.364C311.262 117.364 314.566 114.816 314.566 109.692C314.566 104.876 311.346 102.58 308.014 102.58C306.306 102.58 304.934 103.084 303.954 103.644L299.502 102.58V123.384ZM304.29 105.8C304.598 105.716 305.018 105.632 305.69 105.632C308.098 105.632 309.666 106.584 309.666 109.692C309.666 112.856 308.21 114.032 306.306 114.032C305.55 114.032 304.906 113.976 304.29 113.78V105.8ZM318.77 107.256C320.03 106.444 321.598 105.968 322.998 105.968C324.314 105.968 324.958 106.864 324.958 108.32V108.88C322.858 108.908 320.198 108.992 317.594 109.328C316.642 110.392 316.25 111.484 316.25 112.828C316.25 115.6 318.154 117.364 321.206 117.364C322.718 117.364 324.37 116.86 325.546 116.104L329.746 117.364V108.264C329.746 104.736 327.618 102.58 323.614 102.58C320.814 102.58 318.854 103.14 316.81 104.484L318.77 107.256ZM324.958 114.256C324.566 114.424 323.95 114.536 323.166 114.536C321.486 114.536 320.87 113.332 320.87 112.268C320.87 111.876 320.954 111.512 321.01 111.316C322.494 111.008 323.39 110.84 324.958 110.616V114.256ZM331.833 116.58C333.233 117.056 335.529 117.364 337.713 117.364C341.717 117.364 344.013 115.712 344.013 112.772C344.013 110.728 342.725 109.748 341.241 109.16C339.141 108.32 336.621 108.236 336.621 106.948C336.621 106.248 337.349 105.968 338.609 105.968C340.009 105.968 341.073 106.248 342.277 106.78L343.761 103.672C342.053 102.916 340.205 102.58 338.357 102.58C333.933 102.58 331.945 104.344 331.945 107.088C331.945 109.496 333.765 110.56 335.613 111.26C337.489 111.96 339.365 112.268 339.365 113.136C339.365 113.892 338.189 114.06 336.761 114.06C335.165 114.06 333.905 113.836 332.561 113.416L331.833 116.58ZM354.29 107.256C355.55 106.444 357.118 105.968 358.518 105.968C359.834 105.968 360.478 106.864 360.478 108.32V108.88C358.378 108.908 355.718 108.992 353.114 109.328C352.162 110.392 351.77 111.484 351.77 112.828C351.77 115.6 353.674 117.364 356.726 117.364C358.238 117.364 359.89 116.86 361.066 116.104L365.266 117.364V108.264C365.266 104.736 363.138 102.58 359.134 102.58C356.334 102.58 354.374 103.14 352.33 104.484L354.29 107.256ZM360.478 114.256C360.086 114.424 359.47 114.536 358.686 114.536C357.006 114.536 356.39 113.332 356.39 112.268C356.39 111.876 356.474 111.512 356.53 111.316C358.014 111.008 358.91 110.84 360.478 110.616V114.256ZM367.996 111.96C367.996 115.348 369.396 117.364 372.84 117.364C374.772 117.364 376.256 116.86 377.432 116.216L381.856 117.392V102.58L377.04 103.476V113.472C376.2 113.724 375.612 113.836 374.94 113.836C373.316 113.836 372.812 113.136 372.812 111.4V102.944H367.996V111.96ZM385.627 112.156C385.627 116.3 387.559 117.364 390.863 117.364C392.879 117.364 394.531 116.776 395.455 116.328L394.727 113.556C394.055 113.836 393.411 113.948 392.599 113.948C390.891 113.948 390.443 113.024 390.443 111.456V105.576H394.671L394.951 102.524L390.443 103.056V98.156L385.627 99.22V103.336L383.667 103.616V105.576H385.627V112.156ZM396.313 110C396.313 113.976 398.777 117.364 404.013 117.364C409.249 117.364 411.657 113.976 411.657 110C411.657 105.968 409.249 102.58 404.013 102.58C398.777 102.58 396.313 105.968 396.313 110ZM404.013 114.172C402.025 114.172 401.045 112.52 401.045 110.028C401.045 107.508 402.025 105.772 404.013 105.772C405.945 105.772 406.925 107.508 406.925 110.028C406.925 112.52 405.945 114.172 404.013 114.172ZM413.908 117H418.696V106.332C420.18 106.332 421.972 106.444 423.344 106.724L424.1 102.664C423.736 102.608 423.316 102.58 422.952 102.58C421.244 102.58 419.508 102.944 418.248 103.896L413.908 102.58V117ZM425.97 117H430.786V102.58L425.97 103.252V117ZM428.378 101.292C429.778 101.292 430.982 100.2 430.982 98.632C430.982 97.036 429.778 96 428.378 96C426.922 96 425.802 97.036 425.802 98.632C425.802 100.2 426.922 101.292 428.378 101.292ZM433.032 116.58C434.432 117.056 436.728 117.364 438.912 117.364C442.916 117.364 445.212 115.712 445.212 112.772C445.212 110.728 443.924 109.748 442.44 109.16C440.34 108.32 437.82 108.236 437.82 106.948C437.82 106.248 438.548 105.968 439.808 105.968C441.208 105.968 442.272 106.248 443.476 106.78L444.96 103.672C443.252 102.916 441.404 102.58 439.556 102.58C435.132 102.58 433.144 104.344 433.144 107.088C433.144 109.496 434.964 110.56 436.812 111.26C438.688 111.96 440.564 112.268 440.564 113.136C440.564 113.892 439.388 114.06 437.96 114.06C436.364 114.06 435.104 113.836 433.76 113.416L433.032 116.58ZM459.219 112.352C457.931 113.276 456.783 113.724 455.299 113.724C453.591 113.724 451.911 113.08 451.631 110.896H461.375C461.515 110.252 461.599 109.664 461.599 108.824C461.599 104.792 458.799 102.58 454.599 102.58C450.063 102.58 446.871 105.688 446.871 110.028C446.871 114.48 449.727 117.364 454.879 117.364C457.735 117.364 459.555 116.524 461.263 115.348L459.219 112.352ZM451.547 109.132C451.771 107.06 452.947 105.94 454.515 105.94C455.943 105.94 457.007 106.948 457.119 108.488L451.547 109.132ZM451.239 100.312L452.975 101.992L459.275 98.072L456.363 95.132L451.239 100.312ZM134.255 141.256C135.515 140.444 137.083 139.968 138.483 139.968C139.799 139.968 140.443 140.864 140.443 142.32V142.88C138.343 142.908 135.683 142.992 133.079 143.328C132.127 144.392 131.735 145.484 131.735 146.828C131.735 149.6 133.639 151.364 136.691 151.364C138.203 151.364 139.855 150.86 141.031 150.104L145.231 151.364V142.264C145.231 138.736 143.103 136.58 139.099 136.58C136.299 136.58 134.339 137.14 132.295 138.484L134.255 141.256ZM140.443 148.256C140.051 148.424 139.435 148.536 138.651 148.536C136.971 148.536 136.355 147.332 136.355 146.268C136.355 145.876 136.439 145.512 136.495 145.316C137.979 145.008 138.875 144.84 140.443 144.616V148.256ZM134.815 132.1L140.975 135.992L142.823 134.144L137.923 129.132L134.815 132.1ZM152.827 158.252C157.699 156.292 159.071 153.128 159.071 149.6V136.58L154.255 137.252V150.832C154.255 153.576 153.387 154.976 151.511 156.432L152.827 158.252ZM156.663 135.292C158.063 135.292 159.267 134.2 159.267 132.632C159.267 131.036 158.063 130 156.663 130C155.207 130 154.087 131.036 154.087 132.632C154.087 134.2 155.207 135.292 156.663 135.292ZM161.457 144C161.457 147.976 163.921 151.364 169.157 151.364C174.393 151.364 176.801 147.976 176.801 144C176.801 139.968 174.393 136.58 169.157 136.58C163.921 136.58 161.457 139.968 161.457 144ZM169.157 148.172C167.169 148.172 166.189 146.52 166.189 144.028C166.189 141.508 167.169 139.772 169.157 139.772C171.089 139.772 172.069 141.508 172.069 144.028C172.069 146.52 171.089 148.172 169.157 148.172ZM178.996 145.96C178.996 149.348 180.396 151.364 183.84 151.364C185.772 151.364 187.256 150.86 188.432 150.216L192.856 151.392V136.58L188.04 137.476V147.472C187.2 147.724 186.612 147.836 185.94 147.836C184.316 147.836 183.812 147.136 183.812 145.4V136.944H178.996V145.96ZM207.575 146.352C206.287 147.276 205.139 147.724 203.655 147.724C201.947 147.724 200.267 147.08 199.987 144.896H209.731C209.871 144.252 209.955 143.664 209.955 142.824C209.955 138.792 207.155 136.58 202.955 136.58C198.419 136.58 195.227 139.688 195.227 144.028C195.227 148.48 198.083 151.364 203.235 151.364C206.091 151.364 207.911 150.524 209.619 149.348L207.575 146.352ZM199.903 143.132C200.127 141.06 201.303 139.94 202.871 139.94C204.299 139.94 205.363 140.948 205.475 142.488L199.903 143.132ZM212.193 151H216.981V140.332C218.465 140.332 220.257 140.444 221.629 140.724L222.385 136.664C222.021 136.608 221.601 136.58 221.237 136.58C219.529 136.58 217.793 136.944 216.533 137.896L212.193 136.58V151ZM224.085 151.364C225.597 151.364 226.829 150.272 226.829 148.732C226.829 147.108 225.597 146.016 224.085 146.016C222.657 146.016 221.453 147.108 221.453 148.732C221.453 150.272 222.657 151.364 224.085 151.364ZM240.884 151H245.42L253.036 131.68H247.884L243.32 145.596L238.56 131.68H233.352L240.884 151ZM264.395 146.352C263.107 147.276 261.959 147.724 260.475 147.724C258.767 147.724 257.087 147.08 256.807 144.896H266.551C266.691 144.252 266.775 143.664 266.775 142.824C266.775 138.792 263.975 136.58 259.775 136.58C255.239 136.58 252.047 139.688 252.047 144.028C252.047 148.48 254.903 151.364 260.055 151.364C262.911 151.364 264.731 150.524 266.439 149.348L264.395 146.352ZM256.723 143.132C256.947 141.06 258.123 139.94 259.691 139.94C261.119 139.94 262.183 140.948 262.295 142.488L256.723 143.132ZM268.957 145.96C268.957 149.348 270.357 151.364 273.801 151.364C275.733 151.364 277.217 150.86 278.393 150.216L282.817 151.392V136.58L278.001 137.476V147.472C277.161 147.724 276.573 147.836 275.901 147.836C274.277 147.836 273.773 147.136 273.773 145.4V136.944H268.957V145.96ZM285.888 151H290.704V136.58L285.888 137.252V151ZM288.296 135.292C289.696 135.292 290.9 134.2 290.9 132.632C290.9 131.036 289.696 130 288.296 130C286.84 130 285.72 131.036 285.72 132.632C285.72 134.2 286.84 135.292 288.296 135.292ZM293.79 146.072C293.79 150.132 295.918 151.364 298.158 151.364C299.558 151.364 300.202 151.224 301.378 150.776V147.556C301.07 147.64 300.818 147.696 300.454 147.696C299.166 147.696 298.578 147.024 298.578 144.7V129.888L293.79 130.7V146.072ZM302.841 146.072C302.841 150.132 304.969 151.364 307.209 151.364C308.609 151.364 309.253 151.224 310.429 150.776V147.556C310.121 147.64 309.869 147.696 309.505 147.696C308.217 147.696 307.629 147.024 307.629 144.7V129.888L302.841 130.7V146.072ZM323.895 146.352C322.607 147.276 321.459 147.724 319.975 147.724C318.267 147.724 316.587 147.08 316.307 144.896H326.051C326.191 144.252 326.275 143.664 326.275 142.824C326.275 138.792 323.475 136.58 319.275 136.58C314.739 136.58 311.547 139.688 311.547 144.028C311.547 148.48 314.403 151.364 319.555 151.364C322.411 151.364 324.231 150.524 325.939 149.348L323.895 146.352ZM316.223 143.132C316.447 141.06 317.623 139.94 319.191 139.94C320.619 139.94 321.683 140.948 321.795 142.488L316.223 143.132ZM327.253 151H340.357V147.136L333.301 147.892L340.553 139.212V136.944H328.009V140.752L335.065 139.968L327.253 149.852V151ZM359.534 147.136C358.414 147.668 357.49 147.864 356.454 147.864C354.298 147.864 352.73 146.716 352.73 144.028C352.73 141.312 354.354 140.248 356.594 140.248C357.574 140.248 358.47 140.472 359.226 140.892L360.962 137.756C359.506 136.916 357.994 136.58 356.034 136.58C351.526 136.58 347.858 139.212 347.858 144.028C347.858 148.844 350.854 151.364 355.782 151.364C357.63 151.364 359.282 150.972 360.598 150.244L359.534 147.136ZM361.531 144C361.531 147.976 363.995 151.364 369.231 151.364C374.467 151.364 376.875 147.976 376.875 144C376.875 139.968 374.467 136.58 369.231 136.58C363.995 136.58 361.531 139.968 361.531 144ZM369.231 148.172C367.243 148.172 366.263 146.52 366.263 144.028C366.263 141.508 367.243 139.772 369.231 139.772C371.163 139.772 372.143 141.508 372.143 144.028C372.143 146.52 371.163 148.172 369.231 148.172ZM379.267 151H384.055V140.36C385.203 140.108 385.903 139.968 386.827 139.968C388.031 139.968 388.535 140.444 388.535 141.76V151H393.323V141.592C393.323 138.26 391.867 136.58 388.843 136.58C386.687 136.58 384.783 137.336 383.607 137.896L379.267 136.58V151ZM397.111 146.156C397.111 150.3 399.043 151.364 402.347 151.364C404.363 151.364 406.015 150.776 406.939 150.328L406.211 147.556C405.539 147.836 404.895 147.948 404.083 147.948C402.375 147.948 401.927 147.024 401.927 145.456V139.576H406.155L406.435 136.524L401.927 137.056V132.156L397.111 133.22V137.336L395.151 137.616V139.576H397.111V146.156ZM410.645 141.256C411.905 140.444 413.473 139.968 414.873 139.968C416.189 139.968 416.833 140.864 416.833 142.32V142.88C414.733 142.908 412.073 142.992 409.469 143.328C408.517 144.392 408.125 145.484 408.125 146.828C408.125 149.6 410.029 151.364 413.081 151.364C414.593 151.364 416.245 150.86 417.421 150.104L421.621 151.364V142.264C421.621 138.736 419.493 136.58 415.489 136.58C412.689 136.58 410.729 137.14 408.685 138.484L410.645 141.256ZM416.833 148.256C416.441 148.424 415.825 148.536 415.041 148.536C413.361 148.536 412.745 147.332 412.745 146.268C412.745 145.876 412.829 145.512 412.885 145.316C414.369 145.008 415.265 144.84 416.833 144.616V148.256ZM435.468 147.136C434.348 147.668 433.424 147.864 432.388 147.864C430.232 147.864 428.664 146.716 428.664 144.028C428.664 141.312 430.288 140.248 432.528 140.248C433.508 140.248 434.404 140.472 435.16 140.892L436.896 137.756C435.44 136.916 433.928 136.58 431.968 136.58C427.46 136.58 423.792 139.212 423.792 144.028C423.792 148.844 426.788 151.364 431.716 151.364C433.564 151.364 435.216 150.972 436.532 150.244L435.468 147.136ZM439.576 146.156C439.576 150.3 441.508 151.364 444.812 151.364C446.828 151.364 448.48 150.776 449.404 150.328L448.676 147.556C448.004 147.836 447.36 147.948 446.548 147.948C444.84 147.948 444.392 147.024 444.392 145.456V139.576H448.62L448.9 136.524L444.392 137.056V132.156L439.576 133.22V137.336L437.616 137.616V139.576H439.576V146.156ZM462.61 146.352C461.322 147.276 460.174 147.724 458.69 147.724C456.982 147.724 455.302 147.08 455.022 144.896H464.766C464.906 144.252 464.99 143.664 464.99 142.824C464.99 138.792 462.19 136.58 457.99 136.58C453.454 136.58 450.262 139.688 450.262 144.028C450.262 148.48 453.118 151.364 458.27 151.364C461.126 151.364 462.946 150.524 464.654 149.348L462.61 146.352ZM454.938 143.132C455.162 141.06 456.338 139.94 457.906 139.94C459.334 139.94 460.398 140.948 460.51 142.488L454.938 143.132ZM467.228 151H472.016V140.332C473.5 140.332 475.292 140.444 476.664 140.724L477.42 136.664C477.056 136.608 476.636 136.58 476.272 136.58C474.564 136.58 472.828 136.944 471.568 137.896L467.228 136.58V151ZM219.06 185H223.848V174.36C224.996 174.108 225.696 173.968 226.62 173.968C227.824 173.968 228.328 174.444 228.328 175.76V185H233.116V175.592C233.116 172.26 231.66 170.58 228.636 170.58C226.48 170.58 224.576 171.336 223.4 171.896L219.06 170.58V185ZM235.504 178C235.504 181.976 237.968 185.364 243.204 185.364C248.44 185.364 250.848 181.976 250.848 178C250.848 173.968 248.44 170.58 243.204 170.58C237.968 170.58 235.504 173.968 235.504 178ZM243.204 182.172C241.216 182.172 240.236 180.52 240.236 178.028C240.236 175.508 241.216 173.772 243.204 173.772C245.136 173.772 246.116 175.508 246.116 178.028C246.116 180.52 245.136 182.172 243.204 182.172ZM252.399 184.58C253.799 185.056 256.095 185.364 258.279 185.364C262.283 185.364 264.579 183.712 264.579 180.772C264.579 178.728 263.291 177.748 261.807 177.16C259.707 176.32 257.187 176.236 257.187 174.948C257.187 174.248 257.915 173.968 259.175 173.968C260.575 173.968 261.639 174.248 262.843 174.78L264.327 171.672C262.619 170.916 260.771 170.58 258.923 170.58C254.499 170.58 252.511 172.344 252.511 175.088C252.511 177.496 254.331 178.56 256.179 179.26C258.055 179.96 259.931 180.268 259.931 181.136C259.931 181.892 258.755 182.06 257.327 182.06C255.731 182.06 254.471 181.836 253.127 181.416L252.399 184.58ZM284.684 180.352C283.396 181.276 282.248 181.724 280.764 181.724C279.056 181.724 277.376 181.08 277.096 178.896H286.84C286.98 178.252 287.064 177.664 287.064 176.824C287.064 172.792 284.264 170.58 280.064 170.58C275.528 170.58 272.336 173.688 272.336 178.028C272.336 182.48 275.192 185.364 280.344 185.364C283.2 185.364 285.02 184.524 286.728 183.348L284.684 180.352ZM277.012 177.132C277.236 175.06 278.412 173.94 279.98 173.94C281.408 173.94 282.472 174.948 282.584 176.488L277.012 177.132ZM276.704 168.312L278.44 169.992L284.74 166.072L281.828 163.132L276.704 168.312ZM298.906 191.384L303.694 190.516V170.58L299.242 171.42C298.346 170.832 297.142 170.58 295.63 170.58C292.102 170.58 288.742 173.24 288.742 178.056C288.742 183.516 292.578 185.364 295.742 185.364C297.114 185.364 298.01 185.084 298.906 184.804V191.384ZM298.906 182.06C298.318 182.228 297.73 182.284 297.058 182.284C295.322 182.284 293.642 181.024 293.642 177.916C293.642 174.808 295.518 173.772 297.226 173.772C298.122 173.772 298.43 173.856 298.906 173.94V182.06ZM306.446 179.96C306.446 183.348 307.846 185.364 311.29 185.364C313.222 185.364 314.706 184.86 315.882 184.216L320.306 185.392V170.58L315.49 171.476V181.472C314.65 181.724 314.062 181.836 313.39 181.836C311.766 181.836 311.262 181.136 311.262 179.4V170.944H306.446V179.96ZM323.376 185H328.192V170.58L323.376 171.252V185ZM325.784 169.292C327.184 169.292 328.388 168.2 328.388 166.632C328.388 165.036 327.184 164 325.784 164C324.328 164 323.208 165.036 323.208 166.632C323.208 168.2 324.328 169.292 325.784 169.292ZM331.138 191.384L335.926 190.516V185.112C336.57 185.28 337.298 185.364 338.278 185.364C342.898 185.364 346.202 182.816 346.202 177.692C346.202 172.876 342.982 170.58 339.65 170.58C337.942 170.58 336.57 171.084 335.59 171.644L331.138 170.58V191.384ZM335.926 173.8C336.234 173.716 336.654 173.632 337.326 173.632C339.734 173.632 341.302 174.584 341.302 177.692C341.302 180.856 339.846 182.032 337.942 182.032C337.186 182.032 336.542 181.976 335.926 181.78V173.8ZM360.235 180.352C358.947 181.276 357.799 181.724 356.315 181.724C354.607 181.724 352.927 181.08 352.647 178.896H362.391C362.531 178.252 362.615 177.664 362.615 176.824C362.615 172.792 359.815 170.58 355.615 170.58C351.079 170.58 347.887 173.688 347.887 178.028C347.887 182.48 350.743 185.364 355.895 185.364C358.751 185.364 360.571 184.524 362.279 183.348L360.235 180.352ZM352.563 177.132C352.787 175.06 353.963 173.94 355.531 173.94C356.959 173.94 358.023 174.948 358.135 176.488L352.563 177.132ZM364.153 184.58C365.553 185.056 367.849 185.364 370.033 185.364C374.037 185.364 376.333 183.712 376.333 180.772C376.333 178.728 375.045 177.748 373.561 177.16C371.461 176.32 368.941 176.236 368.941 174.948C368.941 174.248 369.669 173.968 370.929 173.968C372.329 173.968 373.393 174.248 374.597 174.78L376.081 171.672C374.373 170.916 372.525 170.58 370.677 170.58C366.253 170.58 364.265 172.344 364.265 175.088C364.265 177.496 366.085 178.56 367.933 179.26C369.809 179.96 371.685 180.268 371.685 181.136C371.685 181.892 370.509 182.06 369.081 182.06C367.485 182.06 366.225 181.836 364.881 181.416L364.153 184.58ZM380.764 185.364C382.276 185.364 383.508 184.272 383.508 182.732C383.508 181.108 382.276 180.016 380.764 180.016C379.336 180.016 378.132 181.108 378.132 182.732C378.132 184.272 379.336 185.364 380.764 185.364Z" fill="#71001B"/>
<g clip-path="url(#clip1_295_7368)">
<path d="M268.45 240.84L280.74 235.02C257.39 203.3 268.45 240.84 268.45 240.84Z" fill="#5E3531"/>
<path d="M335.23 232.16L321.89 229.65C336.35 193.02 335.23 232.16 335.23 232.16Z" fill="#5E3531"/>
<path d="M311.71 217.14C311.71 217.14 295.54 214.64 275.46 235.56C257.66 254.11 242.94 258 254.94 286.5C257.94 293.7 256.07 301.6 250.23 307.5C234.85 323.15 230.86 343.8 230.23 358.11C229.78 367.61 224.93 376.51 217.08 383.55C211.5 388.55 208.57 394.97 219.17 400.66C240.36 412.03 262.68 401.26 311.76 406.66C360.84 412.06 393.2 410.66 388.76 389.3C378.96 353.17 370.76 335.5 356.88 318.57C352.11 312.74 350.88 305.42 353.82 298.84C363.82 276.62 352.23 256.03 345.06 246.35C342.332 242.608 340.012 238.585 338.14 234.35C334.95 227.46 327.63 217.14 311.71 217.14Z" fill="#37CDEB" fill-opacity="0.15"/>
<path d="M267.9 299.45C267.9 299.45 294.22 332.26 339.98 308.61" stroke="#85A5D4" stroke-linecap="round" stroke-linejoin="round"/>
<path d="M304.63 336.02C304.71 341.31 296.39 341.31 296.47 336.02C296.55 330.73 304.71 330.68 304.63 336.02Z" fill="#5E3531"/>
<path d="M296.89 276.42C296.89 279.52 292.06 279.52 292.1 276.42C292.14 273.32 296.93 273.31 296.89 276.42Z" fill="#5E3531"/>
<path d="M312.13 278.74C312.18 281.84 307.3 281.84 307.35 278.74C307.4 275.64 312.18 275.64 312.13 278.74Z" fill="#5E3531"/>
<path d="M328.28 263.95C328.33 267.05 323.45 267.05 323.5 263.95C323.55 260.85 328.33 260.85 328.28 263.95Z" fill="#5E3531"/>
<path d="M303.94 278.54C303.94 281.64 299.11 281.64 299.16 278.54C299.21 275.44 303.99 275.43 303.94 278.54Z" fill="#5E3531"/>
<path d="M324.87 270.96C324.87 274.06 320.04 274.06 320.09 270.96C320.14 267.86 324.91 267.86 324.87 270.96Z" fill="#5E3531"/>
<path d="M319.05 276.45C319.05 279.55 314.22 279.55 314.26 276.45C314.3 273.35 319.09 273.35 319.05 276.45Z" fill="#5E3531"/>
<path d="M320.73 244.81C320.81 250.1 312.5 250.1 312.58 244.81C312.5 239.52 320.81 239.52 320.73 244.81Z" fill="#5E3531"/>
<path d="M284.82 263.46C284.89 268.75 276.58 268.75 276.66 263.46C276.58 258.17 284.89 258.17 284.82 263.46Z" fill="#5E3531"/>
</g>
</g>
<defs>
<clipPath id="clip0_295_7368">
<rect width="601.829" height="350" fill="white"/>
</clipPath>
<clipPath id="clip1_295_7368">
<rect width="177.1" height="195.35" fill="white" transform="translate(212 214)"/>
</clipPath>
</defs>
</svg>
