<svg width="662" height="319" viewBox="0 0 662 319" fill="none" xmlns="http://www.w3.org/2000/svg">
<rect width="662" height="319" fill="white"/>
<path d="M129.394 158.316H134.35V142.636H139.894V138.996H123.878V142.636H129.394V158.316ZM140.161 151.316C140.161 155.292 142.625 158.68 147.861 158.68C153.097 158.68 155.505 155.292 155.505 151.316C155.505 147.284 153.097 143.896 147.861 143.896C142.625 143.896 140.161 147.284 140.161 151.316ZM147.861 155.488C145.873 155.488 144.893 153.836 144.893 151.344C144.893 148.824 145.873 147.088 147.861 147.088C149.793 147.088 150.773 148.824 150.773 151.344C150.773 153.836 149.793 155.488 147.861 155.488ZM157.7 153.276C157.7 156.664 159.1 158.68 162.544 158.68C164.476 158.68 165.96 158.176 167.136 157.532L171.56 158.708V143.896L166.744 144.792V154.788C165.904 155.04 165.316 155.152 164.644 155.152C163.02 155.152 162.516 154.452 162.516 152.716V144.26H157.7V153.276ZM175.331 153.472C175.331 157.616 177.263 158.68 180.567 158.68C182.583 158.68 184.235 158.092 185.159 157.644L184.431 154.872C183.759 155.152 183.115 155.264 182.303 155.264C180.595 155.264 180.147 154.34 180.147 152.772V146.892H184.375L184.655 143.84L180.147 144.372V139.472L175.331 140.536V144.652L173.371 144.932V146.892H175.331V153.472ZM198.364 153.668C197.076 154.592 195.928 155.04 194.444 155.04C192.736 155.04 191.056 154.396 190.776 152.212H200.52C200.66 151.568 200.744 150.98 200.744 150.14C200.744 146.108 197.944 143.896 193.744 143.896C189.208 143.896 186.016 147.004 186.016 151.344C186.016 155.796 188.872 158.68 194.024 158.68C196.88 158.68 198.7 157.84 200.408 156.664L198.364 153.668ZM190.692 150.448C190.916 148.376 192.092 147.256 193.66 147.256C195.088 147.256 196.152 148.264 196.264 149.804L190.692 150.448ZM209.22 153.388C209.22 157.448 211.348 158.68 213.588 158.68C214.988 158.68 215.632 158.54 216.808 158.092V154.872C216.5 154.956 216.248 155.012 215.884 155.012C214.596 155.012 214.008 154.34 214.008 152.016V137.204L209.22 138.016V153.388ZM218.166 146.696H221.302L222.198 138.604H217.27L218.166 146.696ZM235.388 153.668C234.1 154.592 232.952 155.04 231.468 155.04C229.76 155.04 228.08 154.396 227.8 152.212H237.544C237.684 151.568 237.768 150.98 237.768 150.14C237.768 146.108 234.968 143.896 230.768 143.896C226.232 143.896 223.04 147.004 223.04 151.344C223.04 155.796 225.896 158.68 231.048 158.68C233.904 158.68 235.724 157.84 237.432 156.664L235.388 153.668ZM227.716 150.448C227.94 148.376 229.116 147.256 230.684 147.256C232.112 147.256 233.176 148.264 233.288 149.804L227.716 150.448ZM227.408 141.628L229.144 143.308L235.444 139.388L232.532 136.448L227.408 141.628ZM249.61 164.7L254.398 163.832V143.896L249.946 144.736C249.05 144.148 247.846 143.896 246.334 143.896C242.806 143.896 239.446 146.556 239.446 151.372C239.446 156.832 243.282 158.68 246.446 158.68C247.818 158.68 248.714 158.4 249.61 158.12V164.7ZM249.61 155.376C249.022 155.544 248.434 155.6 247.762 155.6C246.026 155.6 244.346 154.34 244.346 151.232C244.346 148.124 246.222 147.088 247.93 147.088C248.826 147.088 249.134 147.172 249.61 147.256V155.376ZM257.149 153.276C257.149 156.664 258.549 158.68 261.993 158.68C263.925 158.68 265.409 158.176 266.585 157.532L271.009 158.708V143.896L266.193 144.792V154.788C265.353 155.04 264.765 155.152 264.093 155.152C262.469 155.152 261.965 154.452 261.965 152.716V144.26H257.149V153.276ZM274.08 158.316H278.896V143.896L274.08 144.568V158.316ZM276.488 142.608C277.888 142.608 279.092 141.516 279.092 139.948C279.092 138.352 277.888 137.316 276.488 137.316C275.032 137.316 273.912 138.352 273.912 139.948C273.912 141.516 275.032 142.608 276.488 142.608ZM281.842 164.7L286.63 163.832V158.428C287.274 158.596 288.002 158.68 288.982 158.68C293.602 158.68 296.906 156.132 296.906 151.008C296.906 146.192 293.686 143.896 290.354 143.896C288.646 143.896 287.274 144.4 286.294 144.96L281.842 143.896V164.7ZM286.63 147.116C286.938 147.032 287.358 146.948 288.03 146.948C290.438 146.948 292.006 147.9 292.006 151.008C292.006 154.172 290.55 155.348 288.646 155.348C287.89 155.348 287.246 155.292 286.63 155.096V147.116ZM310.939 153.668C309.651 154.592 308.503 155.04 307.019 155.04C305.311 155.04 303.631 154.396 303.351 152.212H313.095C313.235 151.568 313.319 150.98 313.319 150.14C313.319 146.108 310.519 143.896 306.319 143.896C301.783 143.896 298.591 147.004 298.591 151.344C298.591 155.796 301.447 158.68 306.599 158.68C309.455 158.68 311.275 157.84 312.983 156.664L310.939 153.668ZM303.267 150.448C303.491 148.376 304.667 147.256 306.235 147.256C307.663 147.256 308.727 148.264 308.839 149.804L303.267 150.448ZM335.795 158.68V137.204L331.007 137.988V144.288C330.391 144.092 329.579 143.896 328.403 143.896C324.623 143.896 321.095 146.248 321.095 151.4C321.095 156.524 324.147 158.68 327.843 158.68C329.355 158.68 330.447 158.344 331.567 157.756L335.795 158.68ZM331.007 155.656C330.335 155.852 329.915 155.936 329.271 155.936C327.171 155.936 325.883 154.424 325.883 151.372C325.883 148.012 327.423 146.808 329.971 146.808C330.251 146.808 330.587 146.836 331.007 146.864V155.656ZM350.587 153.668C349.299 154.592 348.151 155.04 346.667 155.04C344.959 155.04 343.279 154.396 342.999 152.212H352.743C352.883 151.568 352.967 150.98 352.967 150.14C352.967 146.108 350.167 143.896 345.967 143.896C341.431 143.896 338.239 147.004 338.239 151.344C338.239 155.796 341.095 158.68 346.247 158.68C349.103 158.68 350.923 157.84 352.631 156.664L350.587 153.668ZM342.915 150.448C343.139 148.376 344.315 147.256 345.883 147.256C347.311 147.256 348.375 148.264 348.487 149.804L342.915 150.448ZM361.779 158.316H366.707V145.52L371.971 151.316L377.207 145.52V158.316H382.163V138.996H377.935L371.971 145.184L366.007 138.996H361.779V158.316ZM397.236 153.668C395.948 154.592 394.8 155.04 393.316 155.04C391.608 155.04 389.928 154.396 389.648 152.212H399.392C399.532 151.568 399.616 150.98 399.616 150.14C399.616 146.108 396.816 143.896 392.616 143.896C388.08 143.896 384.888 147.004 384.888 151.344C384.888 155.796 387.744 158.68 392.896 158.68C395.752 158.68 397.572 157.84 399.28 156.664L397.236 153.668ZM389.564 150.448C389.788 148.376 390.964 147.256 392.532 147.256C393.96 147.256 395.024 148.264 395.136 149.804L389.564 150.448ZM389.256 141.628L390.992 143.308L397.292 139.388L394.38 136.448L389.256 141.628ZM415.994 158.68V137.204L411.206 137.988V144.288C410.59 144.092 409.778 143.896 408.602 143.896C404.822 143.896 401.294 146.248 401.294 151.4C401.294 156.524 404.346 158.68 408.042 158.68C409.554 158.68 410.646 158.344 411.766 157.756L415.994 158.68ZM411.206 155.656C410.534 155.852 410.114 155.936 409.47 155.936C407.37 155.936 406.082 154.424 406.082 151.372C406.082 148.012 407.622 146.808 410.17 146.808C410.45 146.808 410.786 146.836 411.206 146.864V155.656ZM419.138 158.316H423.954V143.896L419.138 144.568V158.316ZM421.546 142.608C422.946 142.608 424.15 141.516 424.15 139.948C424.15 138.352 422.946 137.316 421.546 137.316C420.09 137.316 418.97 138.352 418.97 139.948C418.97 141.516 420.09 142.608 421.546 142.608ZM428.861 148.572C430.121 147.76 431.689 147.284 433.089 147.284C434.405 147.284 435.049 148.18 435.049 149.636V150.196C432.949 150.224 430.289 150.308 427.685 150.644C426.733 151.708 426.341 152.8 426.341 154.144C426.341 156.916 428.245 158.68 431.297 158.68C432.809 158.68 434.461 158.176 435.637 157.42L439.837 158.68V149.58C439.837 146.052 437.709 143.896 433.705 143.896C430.905 143.896 428.945 144.456 426.901 145.8L428.861 148.572ZM435.049 155.572C434.657 155.74 434.041 155.852 433.257 155.852C431.577 155.852 430.961 154.648 430.961 153.584C430.961 153.192 431.045 152.828 431.101 152.632C432.585 152.324 433.481 152.156 435.049 151.932V155.572ZM442.763 158.316H447.551V147.676C448.363 147.452 449.315 147.284 450.043 147.284C451.219 147.284 451.583 147.564 451.583 149.048V158.316H456.427V149.72C456.427 149.048 456.343 148.264 456.175 147.62C457.183 147.396 458.079 147.228 458.835 147.228C460.095 147.228 460.459 147.62 460.459 149.076V158.316H465.247V149.3C465.247 145.968 464.043 143.896 460.767 143.896C458.751 143.896 456.791 144.596 455.475 145.352C454.747 144.512 453.739 143.896 452.143 143.896C450.183 143.896 448.447 144.512 447.103 145.212L442.763 143.896V158.316ZM479.978 153.668C478.69 154.592 477.542 155.04 476.058 155.04C474.35 155.04 472.67 154.396 472.39 152.212H482.134C482.274 151.568 482.358 150.98 482.358 150.14C482.358 146.108 479.558 143.896 475.358 143.896C470.822 143.896 467.63 147.004 467.63 151.344C467.63 155.796 470.486 158.68 475.638 158.68C478.494 158.68 480.314 157.84 482.022 156.664L479.978 153.668ZM472.306 150.448C472.53 148.376 473.706 147.256 475.274 147.256C476.702 147.256 477.766 148.264 477.878 149.804L472.306 150.448ZM471.998 141.628L473.734 143.308L480.034 139.388L477.122 136.448L471.998 141.628ZM485.163 153.472C485.163 157.616 487.095 158.68 490.399 158.68C492.415 158.68 494.067 158.092 494.991 157.644L494.263 154.872C493.591 155.152 492.947 155.264 492.135 155.264C490.427 155.264 489.979 154.34 489.979 152.772V146.892H494.207L494.487 143.84L489.979 144.372V139.472L485.163 140.536V144.652L483.203 144.932V146.892H485.163V153.472ZM496.737 158.316H501.525V147.648C503.009 147.648 504.801 147.76 506.173 148.04L506.929 143.98C506.565 143.924 506.145 143.896 505.781 143.896C504.073 143.896 502.337 144.26 501.077 145.212L496.737 143.896V158.316ZM508.798 158.316H513.614V143.896L508.798 144.568V158.316ZM511.206 142.608C512.606 142.608 513.81 141.516 513.81 139.948C513.81 138.352 512.606 137.316 511.206 137.316C509.75 137.316 508.63 138.352 508.63 139.948C508.63 141.516 509.75 142.608 511.206 142.608ZM528.349 153.668C527.061 154.592 525.913 155.04 524.429 155.04C522.721 155.04 521.041 154.396 520.761 152.212H530.505C530.645 151.568 530.729 150.98 530.729 150.14C530.729 146.108 527.929 143.896 523.729 143.896C519.193 143.896 516.001 147.004 516.001 151.344C516.001 155.796 518.857 158.68 524.009 158.68C526.865 158.68 528.685 157.84 530.393 156.664L528.349 153.668ZM520.677 150.448C520.901 148.376 522.077 147.256 523.645 147.256C525.073 147.256 526.137 148.264 526.249 149.804L520.677 150.448ZM130.097 192.316H134.353L139.953 178.26H134.997L132.309 186.996L129.649 178.26H124.665L130.097 192.316ZM140.243 185.316C140.243 189.292 142.707 192.68 147.943 192.68C153.179 192.68 155.587 189.292 155.587 185.316C155.587 181.284 153.179 177.896 147.943 177.896C142.707 177.896 140.243 181.284 140.243 185.316ZM147.943 189.488C145.955 189.488 144.975 187.836 144.975 185.344C144.975 182.824 145.955 181.088 147.943 181.088C149.875 181.088 150.855 182.824 150.855 185.344C150.855 187.836 149.875 189.488 147.943 189.488ZM157.782 187.276C157.782 190.664 159.182 192.68 162.626 192.68C164.558 192.68 166.042 192.176 167.218 191.532L171.642 192.708V177.896L166.826 178.792V188.788C165.986 189.04 165.398 189.152 164.726 189.152C163.102 189.152 162.598 188.452 162.598 186.716V178.26H157.782V187.276ZM173.873 191.896C175.273 192.372 177.569 192.68 179.753 192.68C183.757 192.68 186.053 191.028 186.053 188.088C186.053 186.044 184.765 185.064 183.281 184.476C181.181 183.636 178.661 183.552 178.661 182.264C178.661 181.564 179.389 181.284 180.649 181.284C182.049 181.284 183.113 181.564 184.317 182.096L185.801 178.988C184.093 178.232 182.245 177.896 180.397 177.896C175.973 177.896 173.985 179.66 173.985 182.404C173.985 184.812 175.805 185.876 177.653 186.576C179.529 187.276 181.405 187.584 181.405 188.452C181.405 189.208 180.229 189.376 178.801 189.376C177.205 189.376 175.945 189.152 174.601 188.732L173.873 191.896ZM193.669 191.896C195.069 192.372 197.365 192.68 199.549 192.68C203.553 192.68 205.849 191.028 205.849 188.088C205.849 186.044 204.561 185.064 203.077 184.476C200.977 183.636 198.457 183.552 198.457 182.264C198.457 181.564 199.185 181.284 200.445 181.284C201.845 181.284 202.909 181.564 204.113 182.096L205.597 178.988C203.889 178.232 202.041 177.896 200.193 177.896C195.769 177.896 193.781 179.66 193.781 182.404C193.781 184.812 195.601 185.876 197.449 186.576C199.325 187.276 201.201 187.584 201.201 188.452C201.201 189.208 200.025 189.376 198.597 189.376C197.001 189.376 195.741 189.152 194.397 188.732L193.669 191.896ZM207.509 185.316C207.509 189.292 209.973 192.68 215.209 192.68C220.445 192.68 222.853 189.292 222.853 185.316C222.853 181.284 220.445 177.896 215.209 177.896C209.973 177.896 207.509 181.284 207.509 185.316ZM215.209 189.488C213.221 189.488 212.241 187.836 212.241 185.344C212.241 182.824 213.221 181.088 215.209 181.088C217.141 181.088 218.121 182.824 218.121 185.344C218.121 187.836 217.141 189.488 215.209 189.488ZM225.048 187.276C225.048 190.664 226.448 192.68 229.892 192.68C231.824 192.68 233.308 192.176 234.484 191.532L238.908 192.708V177.896L234.092 178.792V188.788C233.252 189.04 232.664 189.152 231.992 189.152C230.368 189.152 229.864 188.452 229.864 186.716V178.26H225.048V187.276ZM242.034 192.316H246.822V181.396C247.578 181.2 248.474 181.06 249.426 181.06C250.686 181.06 251.302 181.648 251.302 183.104V192.316H256.09V183.104C256.09 179.492 254.382 177.896 251.498 177.896C249.818 177.896 248.138 178.344 246.822 178.876V172.016L242.034 171.204V192.316ZM260.751 182.572C262.011 181.76 263.579 181.284 264.979 181.284C266.295 181.284 266.939 182.18 266.939 183.636V184.196C264.839 184.224 262.179 184.308 259.575 184.644C258.623 185.708 258.231 186.8 258.231 188.144C258.231 190.916 260.135 192.68 263.187 192.68C264.699 192.68 266.351 192.176 267.527 191.42L271.727 192.68V183.58C271.727 180.052 269.599 177.896 265.595 177.896C262.795 177.896 260.835 178.456 258.791 179.8L260.751 182.572ZM266.939 189.572C266.547 189.74 265.931 189.852 265.147 189.852C263.467 189.852 262.851 188.648 262.851 187.584C262.851 187.192 262.935 186.828 262.991 186.632C264.475 186.324 265.371 186.156 266.939 185.932V189.572ZM274.654 192.316H279.47V177.896L274.654 178.568V192.316ZM277.062 176.608C278.462 176.608 279.666 175.516 279.666 173.948C279.666 172.352 278.462 171.316 277.062 171.316C275.606 171.316 274.486 172.352 274.486 173.948C274.486 175.516 275.606 176.608 277.062 176.608ZM283.256 187.472C283.256 191.616 285.188 192.68 288.492 192.68C290.508 192.68 292.16 192.092 293.084 191.644L292.356 188.872C291.684 189.152 291.04 189.264 290.228 189.264C288.52 189.264 288.072 188.34 288.072 186.772V180.892H292.3L292.58 177.84L288.072 178.372V173.472L283.256 174.536V178.652L281.296 178.932V180.892H283.256V187.472ZM306.29 187.668C305.002 188.592 303.854 189.04 302.37 189.04C300.662 189.04 298.982 188.396 298.702 186.212H308.446C308.586 185.568 308.67 184.98 308.67 184.14C308.67 180.108 305.87 177.896 301.67 177.896C297.134 177.896 293.942 181.004 293.942 185.344C293.942 189.796 296.798 192.68 301.95 192.68C304.806 192.68 306.626 191.84 308.334 190.664L306.29 187.668ZM298.618 184.448C298.842 182.376 300.018 181.256 301.586 181.256C303.014 181.256 304.078 182.264 304.19 183.804L298.618 184.448ZM331.146 192.68V171.204L326.358 171.988V178.288C325.742 178.092 324.93 177.896 323.754 177.896C319.974 177.896 316.446 180.248 316.446 185.4C316.446 190.524 319.498 192.68 323.194 192.68C324.706 192.68 325.798 192.344 326.918 191.756L331.146 192.68ZM326.358 189.656C325.686 189.852 325.266 189.936 324.622 189.936C322.522 189.936 321.234 188.424 321.234 185.372C321.234 182.012 322.774 180.808 325.322 180.808C325.602 180.808 325.938 180.836 326.358 180.864V189.656ZM345.939 187.668C344.651 188.592 343.503 189.04 342.019 189.04C340.311 189.04 338.631 188.396 338.351 186.212H348.095C348.235 185.568 348.319 184.98 348.319 184.14C348.319 180.108 345.519 177.896 341.319 177.896C336.783 177.896 333.591 181.004 333.591 185.344C333.591 189.796 336.447 192.68 341.599 192.68C344.455 192.68 346.275 191.84 347.983 190.664L345.939 187.668ZM338.267 184.448C338.491 182.376 339.667 181.256 341.235 181.256C342.663 181.256 343.727 182.264 343.839 183.804L338.267 184.448ZM356.851 192.68L361.079 191.756C361.947 192.232 363.347 192.68 364.915 192.68C368.275 192.68 371.523 190.272 371.523 184.952C371.523 180.192 368.443 177.896 364.411 177.896C363.179 177.896 362.255 178.12 361.639 178.316V171.988L356.851 171.204V192.68ZM361.639 180.892C361.835 180.836 362.255 180.752 362.759 180.752C365.279 180.752 366.763 181.788 366.763 185.008C366.763 188.62 365.223 189.684 363.151 189.684C362.675 189.684 362.227 189.684 361.639 189.572V180.892ZM373.212 185.316C373.212 189.292 375.676 192.68 380.912 192.68C386.148 192.68 388.556 189.292 388.556 185.316C388.556 181.284 386.148 177.896 380.912 177.896C375.676 177.896 373.212 181.284 373.212 185.316ZM380.912 189.488C378.924 189.488 377.944 187.836 377.944 185.344C377.944 182.824 378.924 181.088 380.912 181.088C382.844 181.088 383.824 182.824 383.824 185.344C383.824 187.836 382.844 189.488 380.912 189.488ZM390.947 192.316H395.735V181.676C396.883 181.424 397.583 181.284 398.507 181.284C399.711 181.284 400.215 181.76 400.215 183.076V192.316H405.003V182.908C405.003 179.576 403.547 177.896 400.523 177.896C398.367 177.896 396.463 178.652 395.287 179.212L390.947 177.896V192.316ZM408.091 192.316H412.879V181.676C414.027 181.424 414.727 181.284 415.651 181.284C416.855 181.284 417.359 181.76 417.359 183.076V192.316H422.147V182.908C422.147 179.576 420.691 177.896 417.667 177.896C415.511 177.896 413.607 178.652 412.431 179.212L408.091 177.896V192.316ZM436.884 187.668C435.596 188.592 434.448 189.04 432.964 189.04C431.256 189.04 429.576 188.396 429.296 186.212H439.04C439.18 185.568 439.264 184.98 439.264 184.14C439.264 180.108 436.464 177.896 432.264 177.896C427.728 177.896 424.536 181.004 424.536 185.344C424.536 189.796 427.392 192.68 432.544 192.68C435.4 192.68 437.22 191.84 438.928 190.664L436.884 187.668ZM429.212 184.448C429.436 182.376 430.612 181.256 432.18 181.256C433.608 181.256 434.672 182.264 434.784 183.804L429.212 184.448ZM440.802 191.896C442.202 192.372 444.498 192.68 446.682 192.68C450.686 192.68 452.982 191.028 452.982 188.088C452.982 186.044 451.694 185.064 450.21 184.476C448.11 183.636 445.59 183.552 445.59 182.264C445.59 181.564 446.318 181.284 447.578 181.284C448.978 181.284 450.042 181.564 451.246 182.096L452.73 178.988C451.022 178.232 449.174 177.896 447.326 177.896C442.902 177.896 440.914 179.66 440.914 182.404C440.914 184.812 442.734 185.876 444.582 186.576C446.458 187.276 448.334 187.584 448.334 188.452C448.334 189.208 447.158 189.376 445.73 189.376C444.134 189.376 442.874 189.152 441.53 188.732L440.802 191.896ZM462.223 192.316H467.011V180.892H470.707L470.959 177.868L467.011 178.372V176.58C467.011 174.62 468.187 173.808 469.923 173.808C470.791 173.808 471.071 173.864 471.519 173.948L472.331 171.596C471.407 171.12 470.063 170.84 468.663 170.84C464.407 170.84 462.223 172.996 462.223 176.832V178.652L460.235 178.932V180.892H462.223V192.316ZM484.134 187.668C482.846 188.592 481.698 189.04 480.214 189.04C478.506 189.04 476.826 188.396 476.546 186.212H486.29C486.43 185.568 486.514 184.98 486.514 184.14C486.514 180.108 483.714 177.896 479.514 177.896C474.978 177.896 471.786 181.004 471.786 185.344C471.786 189.796 474.642 192.68 479.794 192.68C482.65 192.68 484.47 191.84 486.178 190.664L484.134 187.668ZM476.462 184.448C476.686 182.376 477.862 181.256 479.43 181.256C480.858 181.256 481.922 182.264 482.034 183.804L476.462 184.448ZM476.098 177.252L479.598 175.236L483.126 177.252L484.89 175.348L479.598 170.868L474.306 175.376L476.098 177.252ZM489.319 187.472C489.319 191.616 491.251 192.68 494.555 192.68C496.571 192.68 498.223 192.092 499.147 191.644L498.419 188.872C497.747 189.152 497.103 189.264 496.291 189.264C494.583 189.264 494.135 188.34 494.135 186.772V180.892H498.363L498.643 177.84L494.135 178.372V173.472L489.319 174.536V178.652L487.359 178.932V180.892H489.319V187.472ZM512.353 187.668C511.065 188.592 509.917 189.04 508.433 189.04C506.725 189.04 505.045 188.396 504.765 186.212H514.509C514.649 185.568 514.733 184.98 514.733 184.14C514.733 180.108 511.933 177.896 507.733 177.896C503.197 177.896 500.005 181.004 500.005 185.344C500.005 189.796 502.861 192.68 508.013 192.68C510.869 192.68 512.689 191.84 514.397 190.664L512.353 187.668ZM504.681 184.448C504.905 182.376 506.081 181.256 507.649 181.256C509.077 181.256 510.141 182.264 510.253 183.804L504.681 184.448ZM516.271 191.896C517.671 192.372 519.967 192.68 522.151 192.68C526.155 192.68 528.451 191.028 528.451 188.088C528.451 186.044 527.163 185.064 525.679 184.476C523.579 183.636 521.059 183.552 521.059 182.264C521.059 181.564 521.787 181.284 523.047 181.284C524.447 181.284 525.511 181.564 526.715 182.096L528.199 178.988C526.491 178.232 524.643 177.896 522.795 177.896C518.371 177.896 516.383 179.66 516.383 182.404C516.383 184.812 518.203 185.876 520.051 186.576C521.927 187.276 523.803 187.584 523.803 188.452C523.803 189.208 522.627 189.376 521.199 189.376C519.603 189.376 518.343 189.152 516.999 188.732L516.271 191.896ZM532.882 192.68C534.394 192.68 535.626 191.588 535.626 190.048C535.626 188.424 534.394 187.332 532.882 187.332C531.454 187.332 530.25 188.424 530.25 190.048C530.25 191.588 531.454 192.68 532.882 192.68Z" fill="#E10037"/>
<path d="M48.1896 82.2104H58.6396V78.7784L52.0616 79.4824V67.0304H48.1896V82.2104ZM69.6674 78.5584C68.6554 79.2844 67.7534 79.6364 66.5874 79.6364C65.2454 79.6364 63.9254 79.1304 63.7054 77.4144H71.3614C71.4714 76.9084 71.5374 76.4464 71.5374 75.7864C71.5374 72.6184 69.3374 70.8804 66.0374 70.8804C62.4734 70.8804 59.9654 73.3224 59.9654 76.7324C59.9654 80.2304 62.2094 82.4964 66.2574 82.4964C68.5014 82.4964 69.9314 81.8364 71.2734 80.9124L69.6674 78.5584ZM63.6394 76.0284C63.8154 74.4004 64.7394 73.5204 65.9714 73.5204C67.0934 73.5204 67.9294 74.3124 68.0174 75.5224L63.6394 76.0284ZM86.7771 79.1744C85.8971 79.5924 85.1711 79.7464 84.3571 79.7464C82.6631 79.7464 81.4311 78.8444 81.4311 76.7324C81.4311 74.5984 82.7071 73.7624 84.4671 73.7624C85.2371 73.7624 85.9411 73.9384 86.5351 74.2684L87.8991 71.8044C86.7551 71.1444 85.5671 70.8804 84.0271 70.8804C80.4851 70.8804 77.6031 72.9484 77.6031 76.7324C77.6031 80.5164 79.9571 82.4964 83.8291 82.4964C85.2811 82.4964 86.5791 82.1884 87.6131 81.6164L86.7771 79.1744ZM90.6915 74.5544C91.6815 73.9164 92.9135 73.5424 94.0135 73.5424C95.0475 73.5424 95.5535 74.2464 95.5535 75.3904V75.8304C93.9035 75.8524 91.8135 75.9184 89.7675 76.1824C89.0195 77.0184 88.7115 77.8764 88.7115 78.9324C88.7115 81.1104 90.2075 82.4964 92.6055 82.4964C93.7935 82.4964 95.0915 82.1004 96.0155 81.5064L99.3155 82.4964V75.3464C99.3155 72.5744 97.6435 70.8804 94.4975 70.8804C92.2975 70.8804 90.7575 71.3204 89.1515 72.3764L90.6915 74.5544ZM95.5535 80.0544C95.2455 80.1864 94.7615 80.2744 94.1455 80.2744C92.8255 80.2744 92.3415 79.3284 92.3415 78.4924C92.3415 78.1844 92.4075 77.8984 92.4515 77.7444C93.6175 77.5024 94.3215 77.3704 95.5535 77.1944V80.0544ZM101.615 78.3384C101.615 81.5284 103.287 82.4964 105.047 82.4964C106.147 82.4964 106.653 82.3864 107.577 82.0344V79.5044C107.335 79.5704 107.137 79.6144 106.851 79.6144C105.839 79.6144 105.377 79.0864 105.377 77.2604V65.6224L101.615 66.2604V78.3384ZM118.158 78.5584C117.146 79.2844 116.244 79.6364 115.078 79.6364C113.736 79.6364 112.416 79.1304 112.196 77.4144H119.852C119.962 76.9084 120.028 76.4464 120.028 75.7864C120.028 72.6184 117.828 70.8804 114.528 70.8804C110.964 70.8804 108.456 73.3224 108.456 76.7324C108.456 80.2304 110.7 82.4964 114.748 82.4964C116.992 82.4964 118.422 81.8364 119.764 80.9124L118.158 78.5584ZM112.13 76.0284C112.306 74.4004 113.23 73.5204 114.462 73.5204C115.584 73.5204 116.42 74.3124 116.508 75.5224L112.13 76.0284ZM121.896 82.2104H125.658V73.8504C126.56 73.6524 127.11 73.5424 127.836 73.5424C128.782 73.5424 129.178 73.9164 129.178 74.9504V82.2104H132.94V74.8184C132.94 72.2004 131.796 70.8804 129.42 70.8804C127.726 70.8804 126.23 71.4744 125.306 71.9144L121.896 70.8804V82.2104ZM146.367 82.4964V65.6224L142.605 66.2384V71.1884C142.121 71.0344 141.483 70.8804 140.559 70.8804C137.589 70.8804 134.817 72.7284 134.817 76.7764C134.817 80.8024 137.215 82.4964 140.119 82.4964C141.307 82.4964 142.165 82.2324 143.045 81.7704L146.367 82.4964ZM142.605 80.1204C142.077 80.2744 141.747 80.3404 141.241 80.3404C139.591 80.3404 138.579 79.1524 138.579 76.7544C138.579 74.1144 139.789 73.1684 141.791 73.1684C142.011 73.1684 142.275 73.1904 142.605 73.2124V80.1204ZM148.728 82.2104H152.49V73.8284C153.656 73.8284 155.064 73.9164 156.142 74.1364L156.736 70.9464C156.45 70.9024 156.12 70.8804 155.834 70.8804C154.492 70.8804 153.128 71.1664 152.138 71.9144L148.728 70.8804V82.2104ZM158.205 82.2104H161.989V70.8804L158.205 71.4084V82.2104ZM160.097 69.8684C161.197 69.8684 162.143 69.0104 162.143 67.7784C162.143 66.5244 161.197 65.7104 160.097 65.7104C158.953 65.7104 158.073 66.5244 158.073 67.7784C158.073 69.0104 158.953 69.8684 160.097 69.8684ZM173.566 78.5584C172.554 79.2844 171.652 79.6364 170.486 79.6364C169.144 79.6364 167.824 79.1304 167.604 77.4144H175.26C175.37 76.9084 175.436 76.4464 175.436 75.7864C175.436 72.6184 173.236 70.8804 169.936 70.8804C166.372 70.8804 163.864 73.3224 163.864 76.7324C163.864 80.2304 166.108 82.4964 170.156 82.4964C172.4 82.4964 173.83 81.8364 175.172 80.9124L173.566 78.5584ZM167.538 76.0284C167.714 74.4004 168.638 73.5204 169.87 73.5204C170.992 73.5204 171.828 74.3124 171.916 75.5224L167.538 76.0284ZM177.194 82.2104H180.956V73.8284C182.122 73.8284 183.53 73.9164 184.608 74.1364L185.202 70.9464C184.916 70.9024 184.586 70.8804 184.3 70.8804C182.958 70.8804 181.594 71.1664 180.604 71.9144L177.194 70.8804V82.2104ZM202.033 82.4964V65.6224L198.271 66.2384V71.1884C197.787 71.0344 197.149 70.8804 196.225 70.8804C193.255 70.8804 190.483 72.7284 190.483 76.7764C190.483 80.8024 192.881 82.4964 195.785 82.4964C196.973 82.4964 197.831 82.2324 198.711 81.7704L202.033 82.4964ZM198.271 80.1204C197.743 80.2744 197.413 80.3404 196.907 80.3404C195.257 80.3404 194.245 79.1524 194.245 76.7544C194.245 74.1144 195.455 73.1684 197.457 73.1684C197.677 73.1684 197.941 73.1904 198.271 73.2124V80.1204ZM213.656 78.5584C212.644 79.2844 211.742 79.6364 210.576 79.6364C209.234 79.6364 207.914 79.1304 207.694 77.4144H215.35C215.46 76.9084 215.526 76.4464 215.526 75.7864C215.526 72.6184 213.326 70.8804 210.026 70.8804C206.462 70.8804 203.954 73.3224 203.954 76.7324C203.954 80.2304 206.198 82.4964 210.246 82.4964C212.49 82.4964 213.92 81.8364 215.262 80.9124L213.656 78.5584ZM207.628 76.0284C207.804 74.4004 208.728 73.5204 209.96 73.5204C211.082 73.5204 211.918 74.3124 212.006 75.5224L207.628 76.0284ZM222.185 78.3384C222.185 81.5284 223.857 82.4964 225.617 82.4964C226.717 82.4964 227.223 82.3864 228.147 82.0344V79.5044C227.905 79.5704 227.707 79.6144 227.421 79.6144C226.409 79.6144 225.947 79.0864 225.947 77.2604V65.6224L222.185 66.2604V78.3384ZM229.214 73.0804H231.678L232.382 66.7224H228.51L229.214 73.0804ZM235.69 74.5544C236.68 73.9164 237.912 73.5424 239.012 73.5424C240.046 73.5424 240.552 74.2464 240.552 75.3904V75.8304C238.902 75.8524 236.812 75.9184 234.766 76.1824C234.018 77.0184 233.71 77.8764 233.71 78.9324C233.71 81.1104 235.206 82.4964 237.604 82.4964C238.792 82.4964 240.09 82.1004 241.014 81.5064L244.314 82.4964V75.3464C244.314 72.5744 242.642 70.8804 239.496 70.8804C237.296 70.8804 235.756 71.3204 234.15 72.3764L235.69 74.5544ZM240.552 80.0544C240.244 80.1864 239.76 80.2744 239.144 80.2744C237.824 80.2744 237.34 79.3284 237.34 78.4924C237.34 78.1844 237.406 77.8984 237.45 77.7444C238.616 77.5024 239.32 77.3704 240.552 77.1944V80.0544ZM249.134 82.2104H252.478L256.878 71.1664H252.984L250.872 78.0304L248.782 71.1664H244.866L249.134 82.2104ZM266.808 78.5584C265.796 79.2844 264.894 79.6364 263.728 79.6364C262.386 79.6364 261.066 79.1304 260.846 77.4144H268.502C268.612 76.9084 268.678 76.4464 268.678 75.7864C268.678 72.6184 266.478 70.8804 263.178 70.8804C259.614 70.8804 257.106 73.3224 257.106 76.7324C257.106 80.2304 259.35 82.4964 263.398 82.4964C265.642 82.4964 267.072 81.8364 268.414 80.9124L266.808 78.5584ZM260.78 76.0284C260.956 74.4004 261.88 73.5204 263.112 73.5204C264.234 73.5204 265.07 74.3124 265.158 75.5224L260.78 76.0284ZM270.547 82.2104H274.309V73.8504C275.211 73.6524 275.761 73.5424 276.487 73.5424C277.433 73.5424 277.829 73.9164 277.829 74.9504V82.2104H281.591V74.8184C281.591 72.2004 280.447 70.8804 278.071 70.8804C276.377 70.8804 274.881 71.4744 273.957 71.9144L270.547 70.8804V82.2104ZM284.567 78.4044C284.567 81.6604 286.085 82.4964 288.681 82.4964C290.265 82.4964 291.563 82.0344 292.289 81.6824L291.717 79.5044C291.189 79.7244 290.683 79.8124 290.045 79.8124C288.703 79.8124 288.351 79.0864 288.351 77.8544V73.2344H291.673L291.893 70.8364L288.351 71.2544V67.4044L284.567 68.2404V71.4744L283.027 71.6944V73.2344H284.567V78.4044ZM307.714 78.5584C306.702 79.2844 305.8 79.6364 304.634 79.6364C303.292 79.6364 301.972 79.1304 301.752 77.4144H309.408C309.518 76.9084 309.584 76.4464 309.584 75.7864C309.584 72.6184 307.384 70.8804 304.084 70.8804C300.52 70.8804 298.012 73.3224 298.012 76.7324C298.012 80.2304 300.256 82.4964 304.304 82.4964C306.548 82.4964 307.978 81.8364 309.32 80.9124L307.714 78.5584ZM301.686 76.0284C301.862 74.4004 302.786 73.5204 304.018 73.5204C305.14 73.5204 305.976 74.3124 306.064 75.5224L301.686 76.0284ZM310.793 81.8804C311.893 82.2544 313.697 82.4964 315.413 82.4964C318.559 82.4964 320.363 81.1984 320.363 78.8884C320.363 77.2824 319.351 76.5124 318.185 76.0504C316.535 75.3904 314.555 75.3244 314.555 74.3124C314.555 73.7624 315.127 73.5424 316.117 73.5424C317.217 73.5424 318.053 73.7624 318.999 74.1804L320.165 71.7384C318.823 71.1444 317.371 70.8804 315.919 70.8804C312.443 70.8804 310.881 72.2664 310.881 74.4224C310.881 76.3144 312.311 77.1504 313.763 77.7004C315.237 78.2504 316.711 78.4924 316.711 79.1744C316.711 79.7684 315.787 79.9004 314.665 79.9004C313.411 79.9004 312.421 79.7244 311.365 79.3944L310.793 81.8804ZM322.767 78.4044C322.767 81.6604 324.285 82.4964 326.881 82.4964C328.465 82.4964 329.763 82.0344 330.489 81.6824L329.917 79.5044C329.389 79.7244 328.883 79.8124 328.245 79.8124C326.903 79.8124 326.551 79.0864 326.551 77.8544V73.2344H329.873L330.093 70.8364L326.551 71.2544V67.4044L322.767 68.2404V71.4744L321.227 71.6944V73.2344H322.767V78.4044ZM337.312 78.4044C337.312 81.6604 338.83 82.4964 341.426 82.4964C343.01 82.4964 344.308 82.0344 345.034 81.6824L344.462 79.5044C343.934 79.7244 343.428 79.8124 342.79 79.8124C341.448 79.8124 341.096 79.0864 341.096 77.8544V73.2344H344.418L344.638 70.8364L341.096 71.2544V67.4044L337.312 68.2404V71.4744L335.772 71.6944V73.2344H337.312V78.4044ZM355.41 78.5584C354.398 79.2844 353.496 79.6364 352.33 79.6364C350.988 79.6364 349.668 79.1304 349.448 77.4144H357.104C357.214 76.9084 357.28 76.4464 357.28 75.7864C357.28 72.6184 355.08 70.8804 351.78 70.8804C348.216 70.8804 345.708 73.3224 345.708 76.7324C345.708 80.2304 347.952 82.4964 352 82.4964C354.244 82.4964 355.674 81.8364 357.016 80.9124L355.41 78.5584ZM349.382 76.0284C349.558 74.4004 350.482 73.5204 351.714 73.5204C352.836 73.5204 353.672 74.3124 353.76 75.5224L349.382 76.0284ZM359.038 82.2104H362.8V73.8284C363.966 73.8284 365.374 73.9164 366.452 74.1364L367.046 70.9464C366.76 70.9024 366.43 70.8804 366.144 70.8804C364.802 70.8804 363.438 71.1664 362.448 71.9144L359.038 70.8804V82.2104ZM368.515 82.2104H372.277V73.8504C372.915 73.6744 373.663 73.5424 374.235 73.5424C375.159 73.5424 375.445 73.7624 375.445 74.9284V82.2104H379.251V75.4564C379.251 74.9284 379.185 74.3124 379.053 73.8064C379.845 73.6304 380.549 73.4984 381.143 73.4984C382.133 73.4984 382.419 73.8064 382.419 74.9504V82.2104H386.181V75.1264C386.181 72.5084 385.235 70.8804 382.661 70.8804C381.077 70.8804 379.537 71.4304 378.503 72.0244C377.931 71.3644 377.139 70.8804 375.885 70.8804C374.345 70.8804 372.981 71.3644 371.925 71.9144L368.515 70.8804V82.2104ZM388.603 82.2104H392.387V70.8804L388.603 71.4084V82.2104ZM390.495 69.8684C391.595 69.8684 392.541 69.0104 392.541 67.7784C392.541 66.5244 391.595 65.7104 390.495 65.7104C389.351 65.7104 388.471 66.5244 388.471 67.7784C388.471 69.0104 389.351 69.8684 390.495 69.8684ZM394.812 82.2104H398.574V73.8504C399.476 73.6524 400.026 73.5424 400.752 73.5424C401.698 73.5424 402.094 73.9164 402.094 74.9504V82.2104H405.856V74.8184C405.856 72.2004 404.712 70.8804 402.336 70.8804C400.642 70.8804 399.146 71.4744 398.222 71.9144L394.812 70.8804V82.2104ZM417.435 78.5584C416.423 79.2844 415.521 79.6364 414.355 79.6364C413.013 79.6364 411.693 79.1304 411.473 77.4144H419.129C419.239 76.9084 419.305 76.4464 419.305 75.7864C419.305 72.6184 417.105 70.8804 413.805 70.8804C410.241 70.8804 407.733 73.3224 407.733 76.7324C407.733 80.2304 409.977 82.4964 414.025 82.4964C416.269 82.4964 417.699 81.8364 419.041 80.9124L417.435 78.5584ZM411.407 76.0284C411.583 74.4004 412.507 73.5204 413.739 73.5204C414.861 73.5204 415.697 74.3124 415.785 75.5224L411.407 76.0284ZM411.165 69.0984L412.529 70.4184L417.479 67.3384L415.191 65.0284L411.165 69.0984ZM425.855 87.2264L429.617 86.5444V82.2984C430.123 82.4304 430.695 82.4964 431.465 82.4964C435.095 82.4964 437.691 80.4944 437.691 76.4684C437.691 72.6844 435.161 70.8804 432.543 70.8804C431.201 70.8804 430.123 71.2764 429.353 71.7164L425.855 70.8804V87.2264ZM429.617 73.4104C429.859 73.3444 430.189 73.2784 430.717 73.2784C432.609 73.2784 433.841 74.0264 433.841 76.4684C433.841 78.9544 432.697 79.8784 431.201 79.8784C430.607 79.8784 430.101 79.8344 429.617 79.6804V73.4104ZM439.014 76.7104C439.014 79.8344 440.95 82.4964 445.064 82.4964C449.178 82.4964 451.07 79.8344 451.07 76.7104C451.07 73.5424 449.178 70.8804 445.064 70.8804C440.95 70.8804 439.014 73.5424 439.014 76.7104ZM445.064 79.9884C443.502 79.9884 442.732 78.6904 442.732 76.7324C442.732 74.7524 443.502 73.3884 445.064 73.3884C446.582 73.3884 447.352 74.7524 447.352 76.7324C447.352 78.6904 446.582 79.9884 445.064 79.9884ZM452.795 78.2504C452.795 80.9124 453.895 82.4964 456.601 82.4964C458.119 82.4964 459.285 82.1004 460.209 81.5944L463.685 82.5184V70.8804L459.901 71.5844V79.4384C459.241 79.6364 458.779 79.7244 458.251 79.7244C456.975 79.7244 456.579 79.1744 456.579 77.8104V71.1664H452.795V78.2504ZM465.987 82.2104H469.749V73.8284C470.915 73.8284 472.323 73.9164 473.401 74.1364L473.995 70.9464C473.709 70.9024 473.379 70.8804 473.093 70.8804C471.751 70.8804 470.387 71.1664 469.397 71.9144L465.987 70.8804V82.2104ZM488.406 79.1744C487.526 79.5924 486.8 79.7464 485.986 79.7464C484.292 79.7464 483.06 78.8444 483.06 76.7324C483.06 74.5984 484.336 73.7624 486.096 73.7624C486.866 73.7624 487.57 73.9384 488.164 74.2684L489.528 71.8044C488.384 71.1444 487.196 70.8804 485.656 70.8804C482.114 70.8804 479.232 72.9484 479.232 76.7324C479.232 80.5164 481.586 82.4964 485.458 82.4964C486.91 82.4964 488.208 82.1884 489.242 81.6164L488.406 79.1744ZM499.677 78.5584C498.665 79.2844 497.763 79.6364 496.597 79.6364C495.255 79.6364 493.935 79.1304 493.715 77.4144H501.371C501.481 76.9084 501.547 76.4464 501.547 75.7864C501.547 72.6184 499.347 70.8804 496.047 70.8804C492.483 70.8804 489.975 73.3224 489.975 76.7324C489.975 80.2304 492.219 82.4964 496.267 82.4964C498.511 82.4964 499.941 81.8364 501.283 80.9124L499.677 78.5584ZM493.649 76.0284C493.825 74.4004 494.749 73.5204 495.981 73.5204C497.103 73.5204 497.939 74.3124 498.027 75.5224L493.649 76.0284ZM503.751 78.4044C503.751 81.6604 505.269 82.4964 507.865 82.4964C509.449 82.4964 510.747 82.0344 511.473 81.6824L510.901 79.5044C510.373 79.7244 509.867 79.8124 509.229 79.8124C507.887 79.8124 507.535 79.0864 507.535 77.8544V73.2344H510.857L511.077 70.8364L507.535 71.2544V67.4044L503.751 68.2404V71.4744L502.211 71.6944V73.2344H503.751V78.4044ZM513.505 78.4044C513.505 81.6604 515.023 82.4964 517.619 82.4964C519.203 82.4964 520.501 82.0344 521.227 81.6824L520.655 79.5044C520.127 79.7244 519.621 79.8124 518.983 79.8124C517.641 79.8124 517.289 79.0864 517.289 77.8544V73.2344H520.611L520.831 70.8364L517.289 71.2544V67.4044L513.505 68.2404V71.4744L511.965 71.6944V73.2344H513.505V78.4044ZM531.603 78.5584C530.591 79.2844 529.689 79.6364 528.523 79.6364C527.181 79.6364 525.861 79.1304 525.641 77.4144H533.297C533.407 76.9084 533.473 76.4464 533.473 75.7864C533.473 72.6184 531.273 70.8804 527.973 70.8804C524.409 70.8804 521.901 73.3224 521.901 76.7324C521.901 80.2304 524.145 82.4964 528.193 82.4964C530.437 82.4964 531.867 81.8364 533.209 80.9124L531.603 78.5584ZM525.575 76.0284C525.751 74.4004 526.675 73.5204 527.907 73.5204C529.029 73.5204 529.865 74.3124 529.953 75.5224L525.575 76.0284ZM541.563 74.5544C542.553 73.9164 543.785 73.5424 544.885 73.5424C545.919 73.5424 546.425 74.2464 546.425 75.3904V75.8304C544.775 75.8524 542.685 75.9184 540.639 76.1824C539.891 77.0184 539.583 77.8764 539.583 78.9324C539.583 81.1104 541.079 82.4964 543.477 82.4964C544.665 82.4964 545.963 82.1004 546.887 81.5064L550.187 82.4964V75.3464C550.187 72.5744 548.515 70.8804 545.369 70.8804C543.169 70.8804 541.629 71.3204 540.023 72.3764L541.563 74.5544ZM546.425 80.0544C546.117 80.1864 545.633 80.2744 545.017 80.2744C543.697 80.2744 543.213 79.3284 543.213 78.4924C543.213 78.1844 543.279 77.8984 543.323 77.7444C544.489 77.5024 545.193 77.3704 546.425 77.1944V80.0544ZM552.486 82.2104H556.248V73.8504C557.15 73.6524 557.7 73.5424 558.426 73.5424C559.372 73.5424 559.768 73.9164 559.768 74.9504V82.2104H563.53V74.8184C563.53 72.2004 562.386 70.8804 560.01 70.8804C558.316 70.8804 556.82 71.4744 555.896 71.9144L552.486 70.8804V82.2104ZM565.957 82.2104H569.719V73.8504C570.621 73.6524 571.171 73.5424 571.897 73.5424C572.843 73.5424 573.239 73.9164 573.239 74.9504V82.2104H577.001V74.8184C577.001 72.2004 575.857 70.8804 573.481 70.8804C571.787 70.8804 570.291 71.4744 569.367 71.9144L565.957 70.8804V82.2104ZM588.58 78.5584C587.568 79.2844 586.666 79.6364 585.5 79.6364C584.158 79.6364 582.838 79.1304 582.618 77.4144H590.274C590.384 76.9084 590.45 76.4464 590.45 75.7864C590.45 72.6184 588.25 70.8804 584.95 70.8804C581.386 70.8804 578.878 73.3224 578.878 76.7324C578.878 80.2304 581.122 82.4964 585.17 82.4964C587.414 82.4964 588.844 81.8364 590.186 80.9124L588.58 78.5584ZM582.552 76.0284C582.728 74.4004 583.652 73.5204 584.884 73.5204C586.006 73.5204 586.842 74.3124 586.93 75.5224L582.552 76.0284ZM582.31 69.0984L583.674 70.4184L588.624 67.3384L586.336 65.0284L582.31 69.0984ZM601.47 78.5584C600.458 79.2844 599.556 79.6364 598.39 79.6364C597.048 79.6364 595.728 79.1304 595.508 77.4144H603.164C603.274 76.9084 603.34 76.4464 603.34 75.7864C603.34 72.6184 601.14 70.8804 597.84 70.8804C594.276 70.8804 591.768 73.3224 591.768 76.7324C591.768 80.2304 594.012 82.4964 598.06 82.4964C600.304 82.4964 601.734 81.8364 603.076 80.9124L601.47 78.5584ZM595.442 76.0284C595.618 74.4004 596.542 73.5204 597.774 73.5204C598.896 73.5204 599.732 74.3124 599.82 75.5224L595.442 76.0284ZM606.837 82.4964C608.025 82.4964 608.993 81.6384 608.993 80.4284C608.993 79.1524 608.025 78.2944 606.837 78.2944C605.715 78.2944 604.769 79.1524 604.769 80.4284C604.769 81.6384 605.715 82.4964 606.837 82.4964ZM187.698 108.21H191.592V101.896H197.092V98.7724L191.592 99.4544V95.8464H198.214V93.0304H187.698V108.21ZM208.252 104.558C207.24 105.284 206.338 105.636 205.172 105.636C203.83 105.636 202.51 105.13 202.29 103.414H209.946C210.056 102.908 210.122 102.446 210.122 101.786C210.122 98.6184 207.922 96.8804 204.622 96.8804C201.058 96.8804 198.55 99.3224 198.55 102.732C198.55 106.23 200.794 108.496 204.842 108.496C207.086 108.496 208.516 107.836 209.858 106.912L208.252 104.558ZM202.224 102.028C202.4 100.4 203.324 99.5204 204.556 99.5204C205.678 99.5204 206.514 100.312 206.602 101.522L202.224 102.028ZM201.982 95.0984L203.346 96.4184L208.296 93.3384L206.008 91.0284L201.982 95.0984ZM211.991 104.338C211.991 107.528 213.663 108.496 215.423 108.496C216.523 108.496 217.029 108.386 217.953 108.034V105.504C217.711 105.57 217.513 105.614 217.227 105.614C216.215 105.614 215.753 105.086 215.753 103.26V91.6224L211.991 92.2604V104.338ZM219.532 108.21H223.316V96.8804L219.532 97.4084V108.21ZM221.424 95.8684C222.524 95.8684 223.47 95.0104 223.47 93.7784C223.47 92.5244 222.524 91.7104 221.424 91.7104C220.28 91.7104 219.4 92.5244 219.4 93.7784C219.4 95.0104 220.28 95.8684 221.424 95.8684ZM234.321 105.174C233.441 105.592 232.715 105.746 231.901 105.746C230.207 105.746 228.975 104.844 228.975 102.732C228.975 100.598 230.251 99.7624 232.011 99.7624C232.781 99.7624 233.485 99.9384 234.079 100.268L235.443 97.8044C234.299 97.1444 233.111 96.8804 231.571 96.8804C228.029 96.8804 225.147 98.9484 225.147 102.732C225.147 106.516 227.501 108.496 231.373 108.496C232.825 108.496 234.123 108.188 235.157 107.616L234.321 105.174ZM236.891 108.21H240.675V96.8804L236.891 97.4084V108.21ZM238.783 95.8684C239.883 95.8684 240.829 95.0104 240.829 93.7784C240.829 92.5244 239.883 91.7104 238.783 91.7104C237.639 91.7104 236.759 92.5244 236.759 93.7784C236.759 95.0104 237.639 95.8684 238.783 95.8684ZM243.65 104.404C243.65 107.66 245.168 108.496 247.764 108.496C249.348 108.496 250.646 108.034 251.372 107.682L250.8 105.504C250.272 105.724 249.766 105.812 249.128 105.812C247.786 105.812 247.434 105.086 247.434 103.854V99.2344H250.756L250.976 96.8364L247.434 97.2544V93.4044L243.65 94.2404V97.4744L242.11 97.6944V99.2344H243.65V104.404ZM254.284 100.554C255.274 99.9164 256.506 99.5424 257.606 99.5424C258.64 99.5424 259.146 100.246 259.146 101.39V101.83C257.496 101.852 255.406 101.918 253.36 102.182C252.612 103.018 252.304 103.876 252.304 104.932C252.304 107.11 253.8 108.496 256.198 108.496C257.386 108.496 258.684 108.1 259.608 107.506L262.908 108.496V101.346C262.908 98.5744 261.236 96.8804 258.09 96.8804C255.89 96.8804 254.35 97.3204 252.744 98.3764L254.284 100.554ZM259.146 106.054C258.838 106.186 258.354 106.274 257.738 106.274C256.418 106.274 255.934 105.328 255.934 104.492C255.934 104.184 256 103.898 256.044 103.744C257.21 103.502 257.914 103.37 259.146 103.194V106.054ZM265.758 104.404C265.758 107.66 267.276 108.496 269.872 108.496C271.456 108.496 272.754 108.034 273.48 107.682L272.908 105.504C272.38 105.724 271.874 105.812 271.236 105.812C269.894 105.812 269.542 105.086 269.542 103.854V99.2344H272.864L273.084 96.8364L269.542 97.2544V93.4044L265.758 94.2404V97.4744L264.218 97.6944V99.2344H265.758V104.404ZM274.962 108.21H278.746V96.8804L274.962 97.4084V108.21ZM276.854 95.8684C277.954 95.8684 278.9 95.0104 278.9 93.7784C278.9 92.5244 277.954 91.7104 276.854 91.7104C275.71 91.7104 274.83 92.5244 274.83 93.7784C274.83 95.0104 275.71 95.8684 276.854 95.8684ZM280.621 102.71C280.621 105.834 282.557 108.496 286.671 108.496C290.785 108.496 292.677 105.834 292.677 102.71C292.677 99.5424 290.785 96.8804 286.671 96.8804C282.557 96.8804 280.621 99.5424 280.621 102.71ZM286.671 105.988C285.109 105.988 284.339 104.69 284.339 102.732C284.339 100.752 285.109 99.3884 286.671 99.3884C288.189 99.3884 288.959 100.752 288.959 102.732C288.959 104.69 288.189 105.988 286.671 105.988ZM294.555 108.21H298.317V99.8504C299.219 99.6524 299.769 99.5424 300.495 99.5424C301.441 99.5424 301.837 99.9164 301.837 100.95V108.21H305.599V100.818C305.599 98.2004 304.455 96.8804 302.079 96.8804C300.385 96.8804 298.889 97.4744 297.965 97.9144L294.555 96.8804V108.21ZM307.366 107.88C308.466 108.254 310.27 108.496 311.986 108.496C315.132 108.496 316.936 107.198 316.936 104.888C316.936 103.282 315.924 102.512 314.758 102.05C313.108 101.39 311.128 101.324 311.128 100.312C311.128 99.7624 311.7 99.5424 312.69 99.5424C313.79 99.5424 314.626 99.7624 315.572 100.18L316.738 97.7384C315.396 97.1444 313.944 96.8804 312.492 96.8804C309.016 96.8804 307.454 98.2664 307.454 100.422C307.454 102.314 308.884 103.15 310.336 103.7C311.81 104.25 313.284 104.492 313.284 105.174C313.284 105.768 312.36 105.9 311.238 105.9C309.984 105.9 308.994 105.724 307.938 105.394L307.366 107.88ZM325.011 100.554C326.001 99.9164 327.233 99.5424 328.333 99.5424C329.367 99.5424 329.873 100.246 329.873 101.39V101.83C328.223 101.852 326.133 101.918 324.087 102.182C323.339 103.018 323.031 103.876 323.031 104.932C323.031 107.11 324.527 108.496 326.925 108.496C328.113 108.496 329.411 108.1 330.335 107.506L333.635 108.496V101.346C333.635 98.5744 331.963 96.8804 328.817 96.8804C326.617 96.8804 325.077 97.3204 323.471 98.3764L325.011 100.554ZM329.873 106.054C329.565 106.186 329.081 106.274 328.465 106.274C327.145 106.274 326.661 105.328 326.661 104.492C326.661 104.184 326.727 103.898 326.771 103.744C327.937 103.502 328.641 103.37 329.873 103.194V106.054ZM335.78 104.25C335.78 106.912 336.88 108.496 339.586 108.496C341.104 108.496 342.27 108.1 343.194 107.594L346.67 108.518V96.8804L342.886 97.5844V105.438C342.226 105.636 341.764 105.724 341.236 105.724C339.96 105.724 339.564 105.174 339.564 103.81V97.1664H335.78V104.25ZM347.873 108.21H351.899L353.725 105.152L355.947 108.21H360.061L355.947 102.512L359.995 97.1664H355.925L354.143 100.048L352.119 97.1664H348.005L351.877 102.534L347.873 108.21ZM365.769 111.84C367.177 112.698 368.783 113.226 371.137 113.226C374.855 113.226 377.055 110.85 377.055 106.912V96.8804L373.887 97.6504C373.073 97.1664 372.083 96.8804 370.851 96.8804C368.233 96.8804 365.505 98.6624 365.505 102.688C365.505 106.934 368.035 108.496 370.895 108.496C371.929 108.496 372.787 108.21 373.359 107.924V108.188C373.359 109.882 372.237 110.432 370.257 110.432C368.783 110.432 367.617 109.992 366.891 109.53L365.769 111.84ZM373.293 105.636C372.919 105.768 372.611 105.856 371.951 105.856C370.345 105.856 369.333 104.91 369.333 102.754C369.333 100.29 370.631 99.4324 372.149 99.4324C372.611 99.4324 372.941 99.4764 373.293 99.5424V105.636ZM380.806 100.554C381.796 99.9164 383.028 99.5424 384.128 99.5424C385.162 99.5424 385.668 100.246 385.668 101.39V101.83C384.018 101.852 381.928 101.918 379.882 102.182C379.134 103.018 378.826 103.876 378.826 104.932C378.826 107.11 380.322 108.496 382.72 108.496C383.908 108.496 385.206 108.1 386.13 107.506L389.43 108.496V101.346C389.43 98.5744 387.758 96.8804 384.612 96.8804C382.412 96.8804 380.872 97.3204 379.266 98.3764L380.806 100.554ZM385.668 106.054C385.36 106.186 384.876 106.274 384.26 106.274C382.94 106.274 382.456 105.328 382.456 104.492C382.456 104.184 382.522 103.898 382.566 103.744C383.732 103.502 384.436 103.37 385.668 103.194V106.054ZM391.443 111.84C392.851 112.698 394.457 113.226 396.811 113.226C400.529 113.226 402.729 110.85 402.729 106.912V96.8804L399.561 97.6504C398.747 97.1664 397.757 96.8804 396.525 96.8804C393.907 96.8804 391.179 98.6624 391.179 102.688C391.179 106.934 393.709 108.496 396.569 108.496C397.603 108.496 398.461 108.21 399.033 107.924V108.188C399.033 109.882 397.911 110.432 395.931 110.432C394.457 110.432 393.291 109.992 392.565 109.53L391.443 111.84ZM398.967 105.636C398.593 105.768 398.285 105.856 397.625 105.856C396.019 105.856 395.007 104.91 395.007 102.754C395.007 100.29 396.305 99.4324 397.823 99.4324C398.285 99.4324 398.615 99.4764 398.967 99.5424V105.636ZM405.05 108.21H408.812V99.8504C409.714 99.6524 410.264 99.5424 410.99 99.5424C411.936 99.5424 412.332 99.9164 412.332 100.95V108.21H416.094V100.818C416.094 98.2004 414.95 96.8804 412.574 96.8804C410.88 96.8804 409.384 97.4744 408.46 97.9144L405.05 96.8804V108.21ZM419.864 100.554C420.854 99.9164 422.086 99.5424 423.186 99.5424C424.22 99.5424 424.726 100.246 424.726 101.39V101.83C423.076 101.852 420.986 101.918 418.94 102.182C418.192 103.018 417.884 103.876 417.884 104.932C417.884 107.11 419.38 108.496 421.778 108.496C422.966 108.496 424.264 108.1 425.188 107.506L428.488 108.496V101.346C428.488 98.5744 426.816 96.8804 423.67 96.8804C421.47 96.8804 419.93 97.3204 418.324 98.3764L419.864 100.554ZM424.726 106.054C424.418 106.186 423.934 106.274 423.318 106.274C421.998 106.274 421.514 105.328 421.514 104.492C421.514 104.184 421.58 103.898 421.624 103.744C422.79 103.502 423.494 103.37 424.726 103.194V106.054ZM430.788 108.21H434.55V99.8504C435.452 99.6524 436.002 99.5424 436.728 99.5424C437.674 99.5424 438.07 99.9164 438.07 100.95V108.21H441.832V100.818C441.832 98.2004 440.688 96.8804 438.312 96.8804C436.618 96.8804 435.122 97.4744 434.198 97.9144L430.788 96.8804V108.21ZM444.809 104.404C444.809 107.66 446.327 108.496 448.923 108.496C450.507 108.496 451.805 108.034 452.531 107.682L451.959 105.504C451.431 105.724 450.925 105.812 450.287 105.812C448.945 105.812 448.593 105.086 448.593 103.854V99.2344H451.915L452.135 96.8364L448.593 97.2544V93.4044L444.809 94.2404V97.4744L443.269 97.6944V99.2344H444.809V104.404ZM453.352 107.88C454.452 108.254 456.256 108.496 457.972 108.496C461.118 108.496 462.922 107.198 462.922 104.888C462.922 103.282 461.91 102.512 460.744 102.05C459.094 101.39 457.114 101.324 457.114 100.312C457.114 99.7624 457.686 99.5424 458.676 99.5424C459.776 99.5424 460.612 99.7624 461.558 100.18L462.724 97.7384C461.382 97.1444 459.93 96.8804 458.478 96.8804C455.002 96.8804 453.44 98.2664 453.44 100.422C453.44 102.314 454.87 103.15 456.322 103.7C457.796 104.25 459.27 104.492 459.27 105.174C459.27 105.768 458.346 105.9 457.224 105.9C455.97 105.9 454.98 105.724 453.924 105.394L453.352 107.88ZM470.491 104.008H472.867L473.725 92.7224L469.677 93.2064L470.491 104.008ZM471.767 108.474C472.823 108.474 473.725 107.682 473.725 106.56C473.725 105.416 472.823 104.624 471.767 104.624C470.733 104.624 469.853 105.416 469.853 106.56C469.853 107.682 470.733 108.474 471.767 108.474Z" fill="#B41432"/>
<path d="M20.0189 264.053H25.9269V262.751L21.2929 263.101V254.491H20.0189V264.053ZM27.9331 260.189C28.0311 258.775 28.7871 257.809 30.2151 257.809C31.4891 257.809 32.1751 258.579 32.1751 259.853L27.9331 260.189ZM32.6791 262.569C32.0491 263.045 31.3211 263.311 30.4531 263.311C28.8571 263.311 27.9891 262.303 27.9191 260.721H33.3231C33.3651 260.441 33.3931 260.175 33.3931 259.923C33.3931 257.991 32.1051 256.899 30.2151 256.899C28.0451 256.899 26.6591 258.439 26.6591 260.553C26.6591 263.157 28.5071 264.235 30.3271 264.235C31.3631 264.235 32.3851 263.899 33.0711 263.283L32.6791 262.569ZM34.7278 263.857C35.2318 264.025 36.2958 264.235 37.3458 264.235C39.0818 264.235 40.2858 263.465 40.2858 262.121C40.2858 261.015 39.3618 260.539 38.3678 260.217C37.2198 259.839 35.9878 259.643 35.9878 258.845C35.9878 258.243 36.5198 257.809 37.6258 257.809C38.4938 257.809 39.0678 257.991 39.5718 258.229L39.9918 257.333C39.4038 257.025 38.5918 256.899 37.5278 256.899C35.8198 256.899 34.7838 257.739 34.7838 258.901C34.7838 260.119 35.9878 260.595 37.1218 260.945C38.1438 261.253 39.1238 261.547 39.1238 262.219C39.1238 263.031 38.2278 263.395 37.1358 263.395C36.2958 263.395 35.4838 263.255 34.9098 263.143L34.7278 263.857ZM45.458 262.317C45.458 263.619 46.172 264.235 47.138 264.235C47.684 264.235 48.174 264.151 48.51 264.025V263.409C48.3 263.451 48.076 263.479 47.852 263.479C47.222 263.479 46.662 263.227 46.662 262.219V253.735L45.458 254.113V262.317ZM52.912 264.235C55.292 264.235 56.538 262.527 56.538 260.567C56.538 258.607 55.292 256.899 52.912 256.899C50.532 256.899 49.286 258.607 49.286 260.567C49.286 262.527 50.532 264.235 52.912 264.235ZM52.912 263.297C51.372 263.297 50.546 262.177 50.546 260.581C50.546 258.971 51.372 257.837 52.912 257.837C54.452 257.837 55.278 258.971 55.278 260.581C55.278 262.177 54.452 263.297 52.912 263.297ZM58.6996 262.555C58.6996 263.661 59.4276 264.235 60.6036 264.235C61.3036 264.235 61.9756 264.025 62.4796 263.815L62.3116 263.157C62.0316 263.241 61.5696 263.339 60.9256 263.339C60.3236 263.339 59.9036 262.975 59.9036 262.373V257.963H62.1156L62.2556 256.913L59.9036 257.207V254.869L58.6996 255.247V257.263L57.4536 257.389V257.963H58.6996V262.555ZM63.343 263.857C63.847 264.025 64.911 264.235 65.961 264.235C67.697 264.235 68.901 263.465 68.901 262.121C68.901 261.015 67.977 260.539 66.983 260.217C65.835 259.839 64.603 259.643 64.603 258.845C64.603 258.243 65.135 257.809 66.241 257.809C67.109 257.809 67.683 257.991 68.187 258.229L68.607 257.333C68.019 257.025 67.207 256.899 66.143 256.899C64.435 256.899 63.399 257.739 63.399 258.901C63.399 260.119 64.603 260.595 65.737 260.945C66.759 261.253 67.739 261.547 67.739 262.219C67.739 263.031 66.843 263.395 65.751 263.395C64.911 263.395 64.099 263.255 63.525 263.143L63.343 263.857ZM73.5832 263.857C74.0872 264.025 75.1512 264.235 76.2012 264.235C77.9372 264.235 79.1412 263.465 79.1412 262.121C79.1412 261.015 78.2172 260.539 77.2232 260.217C76.0752 259.839 74.8432 259.643 74.8432 258.845C74.8432 258.243 75.3752 257.809 76.4812 257.809C77.3492 257.809 77.9232 257.991 78.4272 258.229L78.8472 257.333C78.2592 257.025 77.4472 256.899 76.3832 256.899C74.6752 256.899 73.6392 257.739 73.6392 258.901C73.6392 260.119 74.8432 260.595 75.9772 260.945C76.9992 261.253 77.9792 261.547 77.9792 262.219C77.9792 263.031 77.0832 263.395 75.9912 263.395C75.1512 263.395 74.3392 263.255 73.7652 263.143L73.5832 263.857ZM81.5678 260.189C81.6658 258.775 82.4218 257.809 83.8498 257.809C85.1238 257.809 85.8098 258.579 85.8098 259.853L81.5678 260.189ZM86.3138 262.569C85.6838 263.045 84.9558 263.311 84.0878 263.311C82.4918 263.311 81.6238 262.303 81.5538 260.721H86.9578C86.9998 260.441 87.0278 260.175 87.0278 259.923C87.0278 257.991 85.7398 256.899 83.8498 256.899C81.6798 256.899 80.2938 258.439 80.2938 260.553C80.2938 263.157 82.1418 264.235 83.9618 264.235C84.9978 264.235 86.0198 263.899 86.7058 263.283L86.3138 262.569ZM88.8525 264.053H90.0565V258.103C90.2385 258.089 90.5045 258.089 90.7985 258.089C91.3585 258.089 92.0165 258.117 92.5205 258.215L92.7445 256.941C92.5625 256.913 92.3805 256.899 92.2125 256.899C91.3445 256.899 90.6025 257.165 90.0565 257.585L88.8525 256.899V264.053ZM97.0175 264.235C99.3975 264.235 100.643 262.527 100.643 260.567C100.643 258.607 99.3975 256.899 97.0175 256.899C94.6375 256.899 93.3915 258.607 93.3915 260.567C93.3915 262.527 94.6375 264.235 97.0175 264.235ZM97.0175 263.297C95.4775 263.297 94.6515 262.177 94.6515 260.581C94.6515 258.971 95.4775 257.837 97.0175 257.837C98.5575 257.837 99.3835 258.971 99.3835 260.581C99.3835 262.177 98.5575 263.297 97.0175 263.297ZM102.497 264.053H103.701V258.201C104.611 257.991 105.283 257.879 105.885 257.879C107.103 257.879 107.551 258.383 107.551 259.391V264.053H108.755V259.447C108.755 257.851 108.027 256.899 106.361 256.899C105.311 256.899 104.401 257.235 103.701 257.585L102.497 256.899V264.053ZM111.405 262.555C111.405 263.661 112.133 264.235 113.309 264.235C114.009 264.235 114.681 264.025 115.185 263.815L115.017 263.157C114.737 263.241 114.275 263.339 113.631 263.339C113.029 263.339 112.609 262.975 112.609 262.373V257.963H114.821L114.961 256.913L112.609 257.207V254.869L111.405 255.247V257.263L110.159 257.389V257.963H111.405V262.555ZM120.656 260.189C120.754 258.775 121.51 257.809 122.938 257.809C124.212 257.809 124.898 258.579 124.898 259.853L120.656 260.189ZM125.402 262.569C124.772 263.045 124.044 263.311 123.176 263.311C121.58 263.311 120.712 262.303 120.642 260.721H126.046C126.088 260.441 126.116 260.175 126.116 259.923C126.116 257.991 124.828 256.899 122.938 256.899C120.768 256.899 119.382 258.439 119.382 260.553C119.382 263.157 121.23 264.235 123.05 264.235C124.086 264.235 125.108 263.899 125.794 263.283L125.402 262.569ZM127.94 264.053H129.144V258.201C130.054 257.991 130.726 257.879 131.328 257.879C132.546 257.879 132.994 258.383 132.994 259.391V264.053H134.198V259.447C134.198 257.851 133.47 256.899 131.804 256.899C130.754 256.899 129.844 257.235 129.144 257.585L127.94 256.899V264.053ZM138.055 264.053H139.315L141.989 257.081H140.757L138.727 263.129L136.753 257.081H135.465L138.055 264.053ZM146.523 264.235C148.903 264.235 150.149 262.527 150.149 260.567C150.149 258.607 148.903 256.899 146.523 256.899C144.143 256.899 142.897 258.607 142.897 260.567C142.897 262.527 144.143 264.235 146.523 264.235ZM146.523 263.297C144.983 263.297 144.157 262.177 144.157 260.581C144.157 258.971 144.983 257.837 146.523 257.837C148.063 257.837 148.889 258.971 148.889 260.581C148.889 262.177 148.063 263.297 146.523 263.297ZM151.485 267.273C153.389 266.979 154.369 266.125 154.985 264.627L158.079 257.081H156.833L154.565 262.905L152.465 257.081H151.065L154.103 264.081L154.089 264.137C153.487 265.691 152.633 266.265 151.317 266.559L151.485 267.273ZM160.263 260.189C160.361 258.775 161.117 257.809 162.545 257.809C163.819 257.809 164.505 258.579 164.505 259.853L160.263 260.189ZM165.009 262.569C164.379 263.045 163.651 263.311 162.783 263.311C161.187 263.311 160.319 262.303 160.249 260.721H165.653C165.695 260.441 165.723 260.175 165.723 259.923C165.723 257.991 164.435 256.899 162.545 256.899C160.375 256.899 158.989 258.439 158.989 260.553C158.989 263.157 160.837 264.235 162.657 264.235C163.693 264.235 164.715 263.899 165.401 263.283L165.009 262.569ZM160.893 255.863L161.355 256.325L164.267 254.463L163.329 253.553L160.893 255.863ZM167.058 263.857C167.562 264.025 168.626 264.235 169.676 264.235C171.412 264.235 172.616 263.465 172.616 262.121C172.616 261.015 171.692 260.539 170.698 260.217C169.55 259.839 168.318 259.643 168.318 258.845C168.318 258.243 168.85 257.809 169.956 257.809C170.824 257.809 171.398 257.991 171.902 258.229L172.322 257.333C171.734 257.025 170.922 256.899 169.858 256.899C168.15 256.899 167.114 257.739 167.114 258.901C167.114 260.119 168.318 260.595 169.452 260.945C170.474 261.253 171.454 261.547 171.454 262.219C171.454 263.031 170.558 263.395 169.466 263.395C168.626 263.395 167.814 263.255 167.24 263.143L167.058 263.857ZM177.298 263.857C177.802 264.025 178.866 264.235 179.916 264.235C181.652 264.235 182.856 263.465 182.856 262.121C182.856 261.015 181.932 260.539 180.938 260.217C179.79 259.839 178.558 259.643 178.558 258.845C178.558 258.243 179.09 257.809 180.196 257.809C181.064 257.809 181.638 257.991 182.142 258.229L182.562 257.333C181.974 257.025 181.162 256.899 180.098 256.899C178.39 256.899 177.354 257.739 177.354 258.901C177.354 260.119 178.558 260.595 179.692 260.945C180.714 261.253 181.694 261.547 181.694 262.219C181.694 263.031 180.798 263.395 179.706 263.395C178.866 263.395 178.054 263.255 177.48 263.143L177.298 263.857ZM187.635 264.235C190.015 264.235 191.261 262.527 191.261 260.567C191.261 258.607 190.015 256.899 187.635 256.899C185.255 256.899 184.009 258.607 184.009 260.567C184.009 262.527 185.255 264.235 187.635 264.235ZM187.635 263.297C186.095 263.297 185.269 262.177 185.269 260.581C185.269 258.971 186.095 257.837 187.635 257.837C189.175 257.837 190.001 258.971 190.001 260.581C190.001 262.177 189.175 263.297 187.635 263.297ZM193.016 261.687C193.016 263.283 193.744 264.235 195.41 264.235C196.404 264.235 197.272 263.899 197.93 263.549L199.134 264.235V256.899L197.93 257.277V262.947C197.076 263.157 196.432 263.255 195.886 263.255C194.668 263.255 194.22 262.751 194.22 261.743V257.081H193.016V261.687ZM201.073 263.857C201.577 264.025 202.641 264.235 203.691 264.235C205.427 264.235 206.631 263.465 206.631 262.121C206.631 261.015 205.707 260.539 204.713 260.217C203.565 259.839 202.333 259.643 202.333 258.845C202.333 258.243 202.865 257.809 203.971 257.809C204.839 257.809 205.413 257.991 205.917 258.229L206.337 257.333C205.749 257.025 204.937 256.899 203.873 256.899C202.165 256.899 201.129 257.739 201.129 258.901C201.129 260.119 202.333 260.595 203.467 260.945C204.489 261.253 205.469 261.547 205.469 262.219C205.469 263.031 204.573 263.395 203.481 263.395C202.641 263.395 201.829 263.255 201.255 263.143L201.073 263.857ZM213.12 259.153C212.392 259.531 211.258 260.343 211.258 261.715C211.258 263.171 212.378 264.235 214.52 264.235C216.522 264.235 217.964 263.297 217.964 261.589C217.964 260.553 217.418 259.881 216.088 259.209C217.194 258.565 217.6 257.879 217.6 256.969C217.6 255.695 216.536 254.729 214.604 254.729C212.896 254.729 211.72 255.667 211.72 256.997C211.72 258.159 212.322 258.733 213.12 259.153ZM213.764 259.475C214.786 259.895 216.76 260.329 216.76 261.701C216.76 262.751 215.892 263.311 214.632 263.311C213.26 263.311 212.448 262.737 212.448 261.575C212.448 260.595 213.232 259.867 213.764 259.475ZM215.416 258.901C214.548 258.523 212.854 258.173 212.854 257.053C212.854 256.269 213.526 255.611 214.716 255.611C215.136 255.611 215.584 255.695 216.116 255.891C216.438 256.325 216.522 256.717 216.522 257.123C216.522 257.893 216.004 258.495 215.416 258.901ZM222.866 263.857C223.37 264.025 224.434 264.235 225.484 264.235C227.22 264.235 228.424 263.465 228.424 262.121C228.424 261.015 227.5 260.539 226.506 260.217C225.358 259.839 224.126 259.643 224.126 258.845C224.126 258.243 224.658 257.809 225.764 257.809C226.632 257.809 227.206 257.991 227.71 258.229L228.13 257.333C227.542 257.025 226.73 256.899 225.666 256.899C223.958 256.899 222.922 257.739 222.922 258.901C222.922 260.119 224.126 260.595 225.26 260.945C226.282 261.253 227.262 261.547 227.262 262.219C227.262 263.031 226.366 263.395 225.274 263.395C224.434 263.395 223.622 263.255 223.048 263.143L222.866 263.857ZM230.851 260.189C230.949 258.775 231.705 257.809 233.133 257.809C234.407 257.809 235.093 258.579 235.093 259.853L230.851 260.189ZM235.597 262.569C234.967 263.045 234.239 263.311 233.371 263.311C231.775 263.311 230.907 262.303 230.837 260.721H236.241C236.283 260.441 236.311 260.175 236.311 259.923C236.311 257.991 235.023 256.899 233.133 256.899C230.963 256.899 229.577 258.439 229.577 260.553C229.577 263.157 231.425 264.235 233.245 264.235C234.281 264.235 235.303 263.899 235.989 263.283L235.597 262.569ZM238.136 264.053H239.34V258.201C240.194 257.991 240.782 257.879 241.342 257.879C242.462 257.879 242.826 258.383 242.826 259.391V264.053H244.03V259.447C244.03 258.943 243.96 258.509 243.82 258.145C244.674 257.963 245.304 257.879 245.892 257.879C247.124 257.879 247.516 258.383 247.516 259.391V264.053H248.72V259.447C248.72 257.851 248.034 256.899 246.368 256.899C245.22 256.899 244.296 257.263 243.54 257.627C243.19 257.151 242.63 256.899 241.818 256.899C240.824 256.899 239.984 257.235 239.326 257.585L238.136 256.899V264.053ZM256.53 264.235V259.321C256.53 257.655 255.522 256.899 253.772 256.899C252.638 256.899 251.784 257.221 250.958 257.795L251.504 258.565C252.106 258.159 252.988 257.837 253.758 257.837C254.738 257.837 255.326 258.271 255.326 259.279V260.175C254.108 260.175 252.414 260.217 251.126 260.385C250.762 260.791 250.538 261.421 250.538 262.037C250.538 263.143 251.266 264.235 253.114 264.235C253.996 264.235 254.822 263.941 255.326 263.563L256.53 264.235ZM255.326 262.905C254.836 263.101 254.024 263.325 253.268 263.325C252.218 263.325 251.798 262.597 251.798 261.869C251.798 261.631 251.854 261.379 251.98 261.155C253.128 260.959 254.024 260.847 255.326 260.693V262.905ZM259.464 255.667C259.926 255.667 260.29 255.345 260.29 254.855C260.29 254.365 259.926 254.043 259.464 254.043C259.016 254.043 258.652 254.365 258.652 254.855C258.652 255.345 259.016 255.667 259.464 255.667ZM258.862 264.053H260.066V256.899L258.862 257.277V264.053ZM262.499 264.053H263.703V258.201C264.613 257.991 265.285 257.879 265.887 257.879C267.105 257.879 267.553 258.383 267.553 259.391V264.053H268.757V259.447C268.757 257.851 268.029 256.899 266.363 256.899C265.313 256.899 264.403 257.235 263.703 257.585L262.499 256.899V264.053ZM271.785 260.189C271.883 258.775 272.639 257.809 274.067 257.809C275.341 257.809 276.027 258.579 276.027 259.853L271.785 260.189ZM276.531 262.569C275.901 263.045 275.173 263.311 274.305 263.311C272.709 263.311 271.841 262.303 271.771 260.721H277.175C277.217 260.441 277.245 260.175 277.245 259.923C277.245 257.991 275.957 256.899 274.067 256.899C271.897 256.899 270.511 258.439 270.511 260.553C270.511 263.157 272.359 264.235 274.179 264.235C275.215 264.235 276.237 263.899 276.923 263.283L276.531 262.569ZM278.579 263.857C279.083 264.025 280.147 264.235 281.197 264.235C282.933 264.235 284.137 263.465 284.137 262.121C284.137 261.015 283.213 260.539 282.219 260.217C281.071 259.839 279.839 259.643 279.839 258.845C279.839 258.243 280.371 257.809 281.477 257.809C282.345 257.809 282.919 257.991 283.423 258.229L283.843 257.333C283.255 257.025 282.443 256.899 281.379 256.899C279.671 256.899 278.635 257.739 278.635 258.901C278.635 260.119 279.839 260.595 280.973 260.945C281.995 261.253 282.975 261.547 282.975 262.219C282.975 263.031 282.079 263.395 280.987 263.395C280.147 263.395 279.335 263.255 278.761 263.143L278.579 263.857ZM294.784 264.235V259.321C294.784 257.655 293.776 256.899 292.026 256.899C290.892 256.899 290.038 257.221 289.212 257.795L289.758 258.565C290.36 258.159 291.242 257.837 292.012 257.837C292.992 257.837 293.58 258.271 293.58 259.279V260.175C292.362 260.175 290.668 260.217 289.38 260.385C289.016 260.791 288.792 261.421 288.792 262.037C288.792 263.143 289.52 264.235 291.368 264.235C292.25 264.235 293.076 263.941 293.58 263.563L294.784 264.235ZM293.58 262.905C293.09 263.101 292.278 263.325 291.522 263.325C290.472 263.325 290.052 262.597 290.052 261.869C290.052 261.631 290.108 261.379 290.234 261.155C291.382 260.959 292.278 260.847 293.58 260.693V262.905ZM290.178 254.463L293.09 256.325L293.552 255.863L291.116 253.553L290.178 254.463ZM300.548 262.317C300.548 263.619 301.262 264.235 302.228 264.235C302.774 264.235 303.264 264.151 303.6 264.025V263.409C303.39 263.451 303.166 263.479 302.942 263.479C302.312 263.479 301.752 263.227 301.752 262.219V253.735L300.548 254.113V262.317ZM304.221 258.117H304.949L305.229 254.491H303.941L304.221 258.117ZM312.68 264.235V259.321C312.68 257.655 311.672 256.899 309.922 256.899C308.788 256.899 307.934 257.221 307.108 257.795L307.654 258.565C308.256 258.159 309.138 257.837 309.908 257.837C310.888 257.837 311.476 258.271 311.476 259.279V260.175C310.258 260.175 308.564 260.217 307.276 260.385C306.912 260.791 306.688 261.421 306.688 262.037C306.688 263.143 307.416 264.235 309.264 264.235C310.146 264.235 310.972 263.941 311.476 263.563L312.68 264.235ZM311.476 262.905C310.986 263.101 310.174 263.325 309.418 263.325C308.368 263.325 307.948 262.597 307.948 261.869C307.948 261.631 308.004 261.379 308.13 261.155C309.278 260.959 310.174 260.847 311.476 260.693V262.905ZM321.047 264.235V253.735L319.843 254.113V257.263C319.241 257.025 318.681 256.899 317.981 256.899C316.007 256.899 314.425 258.145 314.425 260.553C314.425 262.961 316.007 264.235 317.981 264.235C318.681 264.235 319.339 264.039 319.843 263.759L321.047 264.235ZM319.843 263.017C319.353 263.199 318.793 263.325 318.191 263.325C316.609 263.325 315.685 262.289 315.685 260.525C315.685 258.663 316.749 257.795 318.569 257.795C318.947 257.795 319.395 257.823 319.843 257.893V263.017ZM323.38 264.053H324.584V258.103C324.766 258.089 325.032 258.089 325.326 258.089C325.886 258.089 326.544 258.117 327.048 258.215L327.272 256.941C327.09 256.913 326.908 256.899 326.74 256.899C325.872 256.899 325.13 257.165 324.584 257.585L323.38 256.899V264.053ZM329.193 260.189C329.291 258.775 330.047 257.809 331.475 257.809C332.749 257.809 333.435 258.579 333.435 259.853L329.193 260.189ZM333.939 262.569C333.309 263.045 332.581 263.311 331.713 263.311C330.117 263.311 329.249 262.303 329.179 260.721H334.583C334.625 260.441 334.653 260.175 334.653 259.923C334.653 257.991 333.365 256.899 331.475 256.899C329.305 256.899 327.919 258.439 327.919 260.553C327.919 263.157 329.767 264.235 331.587 264.235C332.623 264.235 333.645 263.899 334.331 263.283L333.939 262.569ZM335.988 263.857C336.492 264.025 337.556 264.235 338.606 264.235C340.342 264.235 341.546 263.465 341.546 262.121C341.546 261.015 340.622 260.539 339.628 260.217C338.48 259.839 337.248 259.643 337.248 258.845C337.248 258.243 337.78 257.809 338.886 257.809C339.754 257.809 340.328 257.991 340.832 258.229L341.252 257.333C340.664 257.025 339.852 256.899 338.788 256.899C337.08 256.899 336.044 257.739 336.044 258.901C336.044 260.119 337.248 260.595 338.382 260.945C339.404 261.253 340.384 261.547 340.384 262.219C340.384 263.031 339.488 263.395 338.396 263.395C337.556 263.395 336.744 263.255 336.17 263.143L335.988 263.857ZM342.796 263.857C343.3 264.025 344.364 264.235 345.414 264.235C347.15 264.235 348.354 263.465 348.354 262.121C348.354 261.015 347.43 260.539 346.436 260.217C345.288 259.839 344.056 259.643 344.056 258.845C344.056 258.243 344.588 257.809 345.694 257.809C346.562 257.809 347.136 257.991 347.64 258.229L348.06 257.333C347.472 257.025 346.66 256.899 345.596 256.899C343.888 256.899 342.852 257.739 342.852 258.901C342.852 260.119 344.056 260.595 345.19 260.945C346.212 261.253 347.192 261.547 347.192 262.219C347.192 263.031 346.296 263.395 345.204 263.395C344.364 263.395 343.552 263.255 342.978 263.143L342.796 263.857ZM350.781 260.189C350.879 258.775 351.635 257.809 353.063 257.809C354.337 257.809 355.023 258.579 355.023 259.853L350.781 260.189ZM355.527 262.569C354.897 263.045 354.169 263.311 353.301 263.311C351.705 263.311 350.837 262.303 350.767 260.721H356.171C356.213 260.441 356.241 260.175 356.241 259.923C356.241 257.991 354.953 256.899 353.063 256.899C350.893 256.899 349.507 258.439 349.507 260.553C349.507 263.157 351.355 264.235 353.175 264.235C354.211 264.235 355.233 263.899 355.919 263.283L355.527 262.569ZM361.497 267.273L362.701 266.797V263.927C363.191 264.109 363.821 264.235 364.507 264.235C366.509 264.235 368.175 262.933 368.175 260.427C368.175 258.103 366.579 256.899 364.577 256.899C363.863 256.899 363.303 257.025 362.701 257.277L361.497 256.899V267.273ZM362.701 257.809C363.149 257.739 363.611 257.711 363.989 257.711C365.823 257.711 366.915 258.663 366.915 260.539C366.915 262.303 365.963 263.269 364.367 263.269C363.765 263.269 363.205 263.143 362.701 262.961V257.809ZM373.135 264.235C375.515 264.235 376.761 262.527 376.761 260.567C376.761 258.607 375.515 256.899 373.135 256.899C370.755 256.899 369.509 258.607 369.509 260.567C369.509 262.527 370.755 264.235 373.135 264.235ZM373.135 263.297C371.595 263.297 370.769 262.177 370.769 260.581C370.769 258.971 371.595 257.837 373.135 257.837C374.675 257.837 375.501 258.971 375.501 260.581C375.501 262.177 374.675 263.297 373.135 263.297ZM378.124 263.857C378.628 264.025 379.692 264.235 380.742 264.235C382.478 264.235 383.682 263.465 383.682 262.121C383.682 261.015 382.758 260.539 381.764 260.217C380.616 259.839 379.384 259.643 379.384 258.845C379.384 258.243 379.916 257.809 381.022 257.809C381.89 257.809 382.464 257.991 382.968 258.229L383.388 257.333C382.8 257.025 381.988 256.899 380.924 256.899C379.216 256.899 378.18 257.739 378.18 258.901C378.18 260.119 379.384 260.595 380.518 260.945C381.54 261.253 382.52 261.547 382.52 262.219C382.52 263.031 381.624 263.395 380.532 263.395C379.692 263.395 378.88 263.255 378.306 263.143L378.124 263.857ZM385.731 262.555C385.731 263.661 386.459 264.235 387.635 264.235C388.335 264.235 389.007 264.025 389.511 263.815L389.343 263.157C389.063 263.241 388.601 263.339 387.957 263.339C387.355 263.339 386.935 262.975 386.935 262.373V257.963H389.147L389.287 256.913L386.935 257.207V254.869L385.731 255.247V257.263L384.485 257.389V257.963H385.731V262.555ZM396.338 264.235V259.321C396.338 257.655 395.33 256.899 393.58 256.899C392.446 256.899 391.592 257.221 390.766 257.795L391.312 258.565C391.914 258.159 392.796 257.837 393.566 257.837C394.546 257.837 395.134 258.271 395.134 259.279V260.175C393.916 260.175 392.222 260.217 390.934 260.385C390.57 260.791 390.346 261.421 390.346 262.037C390.346 263.143 391.074 264.235 392.922 264.235C393.804 264.235 394.63 263.941 395.134 263.563L396.338 264.235ZM395.134 262.905C394.644 263.101 393.832 263.325 393.076 263.325C392.026 263.325 391.606 262.597 391.606 261.869C391.606 261.631 391.662 261.379 391.788 261.155C392.936 260.959 393.832 260.847 395.134 260.693V262.905ZM398.534 262.317C398.534 263.619 399.248 264.235 400.214 264.235C400.76 264.235 401.25 264.151 401.586 264.025V263.409C401.376 263.451 401.152 263.479 400.928 263.479C400.298 263.479 399.738 263.227 399.738 262.219V253.735L398.534 254.113V262.317ZM403.636 260.189C403.734 258.775 404.49 257.809 405.918 257.809C407.192 257.809 407.878 258.579 407.878 259.853L403.636 260.189ZM408.382 262.569C407.752 263.045 407.024 263.311 406.156 263.311C404.56 263.311 403.692 262.303 403.622 260.721H409.026C409.068 260.441 409.096 260.175 409.096 259.923C409.096 257.991 407.808 256.899 405.918 256.899C403.748 256.899 402.362 258.439 402.362 260.553C402.362 263.157 404.21 264.235 406.03 264.235C407.066 264.235 408.088 263.899 408.774 263.283L408.382 262.569ZM419.239 267.273L420.443 266.881V256.899L419.239 257.277C418.637 257.025 418.077 256.899 417.363 256.899C415.361 256.899 413.765 258.145 413.765 260.567C413.765 262.975 415.361 264.235 417.363 264.235C418.063 264.235 418.735 264.137 419.239 263.927V267.273ZM419.239 263.059C418.763 263.227 418.245 263.325 417.573 263.325C415.977 263.325 415.025 262.303 415.025 260.539C415.025 258.663 416.117 257.739 417.951 257.739C418.329 257.739 418.791 257.753 419.239 257.823V263.059ZM422.786 261.687C422.786 263.283 423.514 264.235 425.18 264.235C426.174 264.235 427.042 263.899 427.7 263.549L428.904 264.235V256.899L427.7 257.277V262.947C426.846 263.157 426.202 263.255 425.656 263.255C424.438 263.255 423.99 262.751 423.99 261.743V257.081H422.786V261.687ZM432.019 260.189C432.117 258.775 432.873 257.809 434.301 257.809C435.575 257.809 436.261 258.579 436.261 259.853L432.019 260.189ZM436.765 262.569C436.135 263.045 435.407 263.311 434.539 263.311C432.943 263.311 432.075 262.303 432.005 260.721H437.409C437.451 260.441 437.479 260.175 437.479 259.923C437.479 257.991 436.191 256.899 434.301 256.899C432.131 256.899 430.745 258.439 430.745 260.553C430.745 263.157 432.593 264.235 434.413 264.235C435.449 264.235 436.471 263.899 437.157 263.283L436.765 262.569ZM444.387 264.053H445.647L448.321 257.081H447.089L445.059 263.129L443.085 257.081H441.797L444.387 264.053ZM452.855 264.235C455.235 264.235 456.481 262.527 456.481 260.567C456.481 258.607 455.235 256.899 452.855 256.899C450.475 256.899 449.229 258.607 449.229 260.567C449.229 262.527 450.475 264.235 452.855 264.235ZM452.855 263.297C451.315 263.297 450.489 262.177 450.489 260.581C450.489 258.971 451.315 257.837 452.855 257.837C454.395 257.837 455.221 258.971 455.221 260.581C455.221 262.177 454.395 263.297 452.855 263.297ZM458.237 261.687C458.237 263.283 458.965 264.235 460.631 264.235C461.625 264.235 462.493 263.899 463.151 263.549L464.355 264.235V256.899L463.151 257.277V262.947C462.297 263.157 461.653 263.255 461.107 263.255C459.889 263.255 459.441 262.751 459.441 261.743V257.081H458.237V261.687ZM466.294 263.857C466.798 264.025 467.862 264.235 468.912 264.235C470.648 264.235 471.852 263.465 471.852 262.121C471.852 261.015 470.928 260.539 469.934 260.217C468.786 259.839 467.554 259.643 467.554 258.845C467.554 258.243 468.086 257.809 469.192 257.809C470.06 257.809 470.634 257.991 471.138 258.229L471.558 257.333C470.97 257.025 470.158 256.899 469.094 256.899C467.386 256.899 466.35 257.739 466.35 258.901C466.35 260.119 467.554 260.595 468.688 260.945C469.71 261.253 470.69 261.547 470.69 262.219C470.69 263.031 469.794 263.395 468.702 263.395C467.862 263.395 467.05 263.255 466.476 263.143L466.294 263.857ZM477.024 264.053H478.228V258.201C479.138 257.991 479.81 257.879 480.412 257.879C481.63 257.879 482.078 258.383 482.078 259.391V264.053H483.282V259.447C483.282 257.851 482.554 256.899 480.888 256.899C479.838 256.899 478.928 257.235 478.228 257.585L477.024 256.899V264.053ZM488.662 264.235C491.042 264.235 492.288 262.527 492.288 260.567C492.288 258.607 491.042 256.899 488.662 256.899C486.282 256.899 485.036 258.607 485.036 260.567C485.036 262.527 486.282 264.235 488.662 264.235ZM488.662 263.297C487.122 263.297 486.296 262.177 486.296 260.581C486.296 258.971 487.122 257.837 488.662 257.837C490.202 257.837 491.028 258.971 491.028 260.581C491.028 262.177 490.202 263.297 488.662 263.297ZM494.044 261.687C494.044 263.283 494.772 264.235 496.438 264.235C497.432 264.235 498.3 263.899 498.958 263.549L500.162 264.235V256.899L498.958 257.277V262.947C498.104 263.157 497.46 263.255 496.914 263.255C495.696 263.255 495.248 262.751 495.248 261.743V257.081H494.044V261.687ZM502.101 263.857C502.605 264.025 503.669 264.235 504.719 264.235C506.455 264.235 507.659 263.465 507.659 262.121C507.659 261.015 506.735 260.539 505.741 260.217C504.593 259.839 503.361 259.643 503.361 258.845C503.361 258.243 503.893 257.809 504.999 257.809C505.867 257.809 506.441 257.991 506.945 258.229L507.365 257.333C506.777 257.025 505.965 256.899 504.901 256.899C503.193 256.899 502.157 257.739 502.157 258.901C502.157 260.119 503.361 260.595 504.495 260.945C505.517 261.253 506.497 261.547 506.497 262.219C506.497 263.031 505.601 263.395 504.509 263.395C503.669 263.395 502.857 263.255 502.283 263.143L502.101 263.857ZM518.305 264.235V259.321C518.305 257.655 517.297 256.899 515.547 256.899C514.413 256.899 513.559 257.221 512.733 257.795L513.279 258.565C513.881 258.159 514.763 257.837 515.533 257.837C516.513 257.837 517.101 258.271 517.101 259.279V260.175C515.883 260.175 514.189 260.217 512.901 260.385C512.537 260.791 512.313 261.421 512.313 262.037C512.313 263.143 513.041 264.235 514.889 264.235C515.771 264.235 516.597 263.941 517.101 263.563L518.305 264.235ZM517.101 262.905C516.611 263.101 515.799 263.325 515.043 263.325C513.993 263.325 513.573 262.597 513.573 261.869C513.573 261.631 513.629 261.379 513.755 261.155C514.903 260.959 515.799 260.847 517.101 260.693V262.905ZM522.153 264.053H523.413L526.087 257.081H524.855L522.825 263.129L520.851 257.081H519.563L522.153 264.053ZM528.269 260.189C528.367 258.775 529.123 257.809 530.551 257.809C531.825 257.809 532.511 258.579 532.511 259.853L528.269 260.189ZM533.015 262.569C532.385 263.045 531.657 263.311 530.789 263.311C529.193 263.311 528.325 262.303 528.255 260.721H533.659C533.701 260.441 533.729 260.175 533.729 259.923C533.729 257.991 532.441 256.899 530.551 256.899C528.381 256.899 526.995 258.439 526.995 260.553C526.995 263.157 528.843 264.235 530.663 264.235C531.699 264.235 532.721 263.899 533.407 263.283L533.015 262.569ZM534.756 264.053H540.384V262.961L536.422 263.171L540.412 257.921V257.081H535.078V258.243L539.18 257.823L534.756 263.815V264.053ZM550.853 262.849C550.265 263.157 549.621 263.381 548.823 263.381C547.241 263.381 546.247 262.177 546.247 260.567C546.247 258.929 547.059 257.893 548.627 257.893C549.453 257.893 550.069 258.033 550.475 258.313L551.007 257.431C550.461 257.067 549.719 256.899 548.739 256.899C546.555 256.899 544.987 258.243 544.987 260.567C544.987 262.695 546.345 264.235 548.585 264.235C549.691 264.235 550.419 263.969 551.105 263.507L550.853 262.849ZM555.709 264.235C558.089 264.235 559.335 262.527 559.335 260.567C559.335 258.607 558.089 256.899 555.709 256.899C553.329 256.899 552.083 258.607 552.083 260.567C552.083 262.527 553.329 264.235 555.709 264.235ZM555.709 263.297C554.169 263.297 553.343 262.177 553.343 260.581C553.343 258.971 554.169 257.837 555.709 257.837C557.249 257.837 558.075 258.971 558.075 260.581C558.075 262.177 557.249 263.297 555.709 263.297ZM561.188 264.053H562.392V258.201C563.246 257.991 563.834 257.879 564.394 257.879C565.514 257.879 565.878 258.383 565.878 259.391V264.053H567.082V259.447C567.082 258.943 567.012 258.509 566.872 258.145C567.726 257.963 568.356 257.879 568.944 257.879C570.176 257.879 570.568 258.383 570.568 259.391V264.053H571.772V259.447C571.772 257.851 571.086 256.899 569.42 256.899C568.272 256.899 567.348 257.263 566.592 257.627C566.242 257.151 565.682 256.899 564.87 256.899C563.876 256.899 563.036 257.235 562.378 257.585L561.188 256.899V264.053ZM574.108 264.053H575.312V258.201C576.166 257.991 576.754 257.879 577.314 257.879C578.434 257.879 578.798 258.383 578.798 259.391V264.053H580.002V259.447C580.002 258.943 579.932 258.509 579.792 258.145C580.646 257.963 581.276 257.879 581.864 257.879C583.096 257.879 583.488 258.383 583.488 259.391V264.053H584.692V259.447C584.692 257.851 584.006 256.899 582.34 256.899C581.192 256.899 580.268 257.263 579.512 257.627C579.162 257.151 578.602 256.899 577.79 256.899C576.796 256.899 575.956 257.235 575.298 257.585L574.108 256.899V264.053ZM586.93 261.687C586.93 263.283 587.658 264.235 589.324 264.235C590.318 264.235 591.186 263.899 591.844 263.549L593.048 264.235V256.899L591.844 257.277V262.947C590.99 263.157 590.346 263.255 589.8 263.255C588.582 263.255 588.134 262.751 588.134 261.743V257.081H586.93V261.687ZM595.478 264.053H596.682V258.201C597.592 257.991 598.264 257.879 598.866 257.879C600.084 257.879 600.532 258.383 600.532 259.391V264.053H601.736V259.447C601.736 257.851 601.008 256.899 599.342 256.899C598.292 256.899 597.382 257.235 596.682 257.585L595.478 256.899V264.053ZM604.679 255.667C605.141 255.667 605.505 255.345 605.505 254.855C605.505 254.365 605.141 254.043 604.679 254.043C604.231 254.043 603.867 254.365 603.867 254.855C603.867 255.345 604.231 255.667 604.679 255.667ZM604.077 264.053H605.281V256.899L604.077 257.277V264.053ZM612.6 267.273L613.804 266.881V256.899L612.6 257.277C611.998 257.025 611.438 256.899 610.724 256.899C608.722 256.899 607.126 258.145 607.126 260.567C607.126 262.975 608.722 264.235 610.724 264.235C611.424 264.235 612.096 264.137 612.6 263.927V267.273ZM612.6 263.059C612.124 263.227 611.606 263.325 610.934 263.325C609.338 263.325 608.386 262.303 608.386 260.539C608.386 258.663 609.478 257.739 611.312 257.739C611.69 257.739 612.152 257.753 612.6 257.823V263.059ZM616.147 261.687C616.147 263.283 616.875 264.235 618.541 264.235C619.535 264.235 620.403 263.899 621.061 263.549L622.265 264.235V256.899L621.061 257.277V262.947C620.207 263.157 619.563 263.255 619.017 263.255C617.799 263.255 617.351 262.751 617.351 261.743V257.081H616.147V261.687ZM625.38 260.189C625.478 258.775 626.234 257.809 627.662 257.809C628.936 257.809 629.622 258.579 629.622 259.853L625.38 260.189ZM630.126 262.569C629.496 263.045 628.768 263.311 627.9 263.311C626.304 263.311 625.436 262.303 625.366 260.721H630.77C630.812 260.441 630.84 260.175 630.84 259.923C630.84 257.991 629.552 256.899 627.662 256.899C625.492 256.899 624.106 258.439 624.106 260.553C624.106 263.157 625.954 264.235 627.774 264.235C628.81 264.235 629.832 263.899 630.518 263.283L630.126 262.569ZM626.01 255.863L626.472 256.325L629.384 254.463L628.446 253.553L626.01 255.863ZM633.351 260.189C633.449 258.775 634.205 257.809 635.633 257.809C636.907 257.809 637.593 258.579 637.593 259.853L633.351 260.189ZM638.097 262.569C637.467 263.045 636.739 263.311 635.871 263.311C634.275 263.311 633.407 262.303 633.337 260.721H638.741C638.783 260.441 638.811 260.175 638.811 259.923C638.811 257.991 637.523 256.899 635.633 256.899C633.463 256.899 632.077 258.439 632.077 260.553C632.077 263.157 633.925 264.235 635.745 264.235C636.781 264.235 637.803 263.899 638.489 263.283L638.097 262.569ZM641.028 264.235C641.518 264.235 641.924 263.871 641.924 263.339C641.924 262.821 641.518 262.457 641.028 262.457C640.538 262.457 640.132 262.821 640.132 263.339C640.132 263.871 640.538 264.235 641.028 264.235Z" fill="black"/>
</svg>
