<svg width="170" height="210" viewBox="0 0 170 210" fill="none" xmlns="http://www.w3.org/2000/svg">
<g clip-path="url(#clip0_387_781)">
<rect width="169.051" height="209.258" transform="translate(0.740234 0.361816)" fill="#BFA100"/>
<g clip-path="url(#clip1_387_781)">
<path d="M131.02 -10V35H176.02L131.02 -10ZM131.02 35V80H176.02L131.02 35ZM131.02 80V125H176.02L131.02 80ZM131.02 125V170H176.02L131.02 125ZM86.02 -10V35H131.02L86.02 -10ZM131.02 80L86.02 35V80H131.02ZM86.02 125H131.02L86.02 80V125ZM86.02 125V170H131.02L86.02 125ZM41.02 35H86.02L41.02 -10V35ZM86.02 80L41.02 35V80H86.02ZM86.02 125L41.02 80V125H86.02ZM41.02 125V170H86.02L41.02 125ZM-3.97998 35H41.02L-3.97998 -10V35ZM41.02 80L-3.97998 35V80H41.02ZM41.02 125L-3.97998 80V125H41.02ZM41.02 170L-3.97998 125V170H41.02Z" fill="#416900"/>
<circle cx="31" cy="28" r="20" fill="white"/>
<path d="M30.5671 24.936L26.1031 26.064L25.4551 23.784L34.6951 19.584V36H30.5671V24.936Z" fill="#A90029"/>
</g>
<g clip-path="url(#clip2_387_781)">
<path d="M131.02 80V125H176.02L131.02 80ZM131.02 125V170H176.02L131.02 125ZM131.02 170V215H176.02L131.02 170ZM131.02 215V260H176.02L131.02 215ZM86.02 80V125H131.02L86.02 80ZM131.02 170L86.02 125V170H131.02ZM86.02 215H131.02L86.02 170V215ZM86.02 215V260H131.02L86.02 215ZM41.02 125H86.02L41.02 80V125ZM86.02 170L41.02 125V170H86.02ZM86.02 215L41.02 170V215H86.02ZM41.02 215V260H86.02L41.02 215ZM-3.97998 125H41.02L-3.97998 80V125ZM41.02 170L-3.97998 125V170H41.02ZM41.02 215L-3.97998 170V215H41.02ZM41.02 260L-3.97998 215V260H41.02Z" fill="#416900"/>
</g>
</g>
<defs>
<clipPath id="clip0_387_781">
<rect width="169.051" height="209.258" fill="white" transform="translate(0.740234 0.361816)"/>
</clipPath>
<clipPath id="clip1_387_781">
<rect width="180" height="180" fill="white" transform="translate(-4 -10)"/>
</clipPath>
<clipPath id="clip2_387_781">
<rect width="180" height="180" fill="white" transform="translate(-4 80)"/>
</clipPath>
</defs>
</svg>
