<svg width="240" height="229" viewBox="0 0 240 229" fill="none" xmlns="http://www.w3.org/2000/svg">
<path d="M0 0L0 229L240 229V0L0 0Z" fill="#BFA100"/>
<path d="M36.1147 114.512L119.569 34.8839L203.022 114.512L119.569 194.14L36.1147 114.512Z" fill="#416900"/>
<path d="M112.26 123H116.388V106.584L107.148 110.784L107.796 113.064L112.26 111.936V123ZM126.566 123.312C130.118 123.312 132.734 120.096 132.734 114.984C132.734 109.872 130.118 106.848 126.566 106.848C123.014 106.848 120.47 109.92 120.47 114.984C120.47 120.048 123.014 123.312 126.566 123.312ZM126.566 120.144C125.342 120.144 124.574 118.272 124.574 114.984C124.574 112.344 125.126 109.896 126.566 109.896C128.006 109.896 128.654 112.32 128.654 114.984C128.654 118.272 128.03 120.144 126.566 120.144Z" fill="white"/>
</svg>
