<svg width="144" height="134" viewBox="0 0 144 134" fill="none" xmlns="http://www.w3.org/2000/svg">
<path d="M0.716309 0.287369L0.716309 133.932H143.299V0.287369H0.716309Z" fill="#A90029"/>
<path d="M109.616 31H114.432V11.848L103.652 16.748L104.408 19.408L109.616 18.092V31ZM119.558 31H133.054V27.024L124.962 27.528C129.666 23.804 132.606 21.004 132.606 17.308C132.606 14.032 130.114 12.156 126.306 12.156C123.506 12.156 121.21 13.108 119.278 14.844L121.462 17.728C122.638 16.58 124.458 15.908 125.662 15.908C126.838 15.908 127.818 16.412 127.818 17.56C127.818 20.612 123.338 25.036 119.558 28.312V31Z" fill="white"/>
</svg>
