<svg width="170" height="250" viewBox="0 0 170 250" fill="none" xmlns="http://www.w3.org/2000/svg">
<g clip-path="url(#clip0_387_697)">
<rect width="169.965" height="248.551" transform="translate(0 0.913818)" fill="#A90029"/>
<path d="M169.965 165.396V0.913818L4.57764e-05 0.913818V165.396H169.965Z" fill="#A90029"/>
<path d="M84.9826 0.913818H0V42.0345H84.9826V0.913818Z" fill="#416900"/>
<path d="M84.9826 83.155H0V124.276H84.9826V83.155Z" fill="#416900"/>
<path d="M169.965 42.0344H84.9827V83.1551H169.965V42.0344Z" fill="#416900"/>
<path d="M169.965 124.276H84.9827V165.396H169.965V124.276Z" fill="#416900"/>
<path d="M169.965 249.465V84.9827L4.57764e-05 84.9827V249.465H169.965Z" fill="#A90029"/>
<path d="M84.9826 84.9827H0V126.103H84.9826V84.9827Z" fill="#416900"/>
<path d="M84.9826 167.224H0V208.345H84.9826V167.224Z" fill="#416900"/>
<path d="M169.965 126.103H84.9827V167.224H169.965V126.103Z" fill="#416900"/>
<path d="M169.965 208.344H84.9827V249.465H169.965V208.344Z" fill="#416900"/>
<path d="M13.616 28H18.432V8.848L7.652 13.748L8.408 16.408L13.616 15.092V28ZM23.1942 26.88C24.9862 27.86 26.8062 28.364 29.5782 28.364C34.2262 28.364 37.1382 25.844 37.1382 21.98C37.1382 18.816 35.2902 16.968 31.4822 16.688L36.4102 12.068L35.3462 9.52H24.7902V13.16H31.6222L26.9182 17.948L28.3182 19.824C28.6822 19.684 29.2422 19.6 29.8022 19.6C31.5102 19.6 32.5182 20.384 32.5182 21.952C32.5182 23.772 30.8382 24.612 28.8222 24.612C27.5062 24.612 26.0502 24.36 24.5102 23.604L23.1942 26.88Z" fill="white"/>
</g>
<defs>
<clipPath id="clip0_387_697">
<rect width="169.965" height="248.551" fill="white" transform="translate(0 0.913818)"/>
</clipPath>
</defs>
</svg>
