<svg width="226" height="243" viewBox="0 0 226 243" fill="none" xmlns="http://www.w3.org/2000/svg">
<g clip-path="url(#clip0_387_715)">
<rect width="224.793" height="242.155" transform="translate(0.89624 0.810059)" fill="#416900"/>
<path fill-rule="evenodd" clip-rule="evenodd" d="M0.895927 0.810059C62.6346 2.07896 112.316 55.8013 112.316 121.887C112.316 187.974 62.6346 241.696 0.895927 242.965L0.895927 0.810059Z" fill="#A90029"/>
<path fill-rule="evenodd" clip-rule="evenodd" d="M112.435 0.810059C174.173 2.07896 223.855 55.8013 223.855 121.887C223.855 187.974 174.173 241.696 112.435 242.965L112.435 0.810059Z" fill="#BFA100"/>
<path d="M31.1415 132H36.6455V110.112L24.3255 115.712L25.1895 118.752L31.1415 117.248V132ZM42.376 127.872H51.752V132H56.392V127.872H58.888V124.192L56.392 124.288V110.56H52.36L41.736 125.44L42.376 127.872ZM46.28 124.768L51.752 116.64V124.544L46.28 124.768Z" fill="white"/>
</g>
<defs>
<clipPath id="clip0_387_715">
<rect width="224.793" height="242.155" fill="white" transform="translate(0.89624 0.810059)"/>
</clipPath>
</defs>
</svg>
