<svg width="269" height="140" viewBox="0 0 269 140" fill="none" xmlns="http://www.w3.org/2000/svg">
<rect width="269" height="140" fill="#416900"/>
<path d="M11.334 24H15.462V7.584L6.22197 11.784L6.86997 14.064L11.334 12.936V24ZM19.9758 23.4C21.2238 23.928 22.8558 24.312 24.7998 24.312C28.9518 24.312 31.3038 21.84 31.3038 18.384C31.3038 15.624 29.3358 13.752 25.8798 13.752C25.0878 13.752 24.3438 13.824 23.8638 13.968L24.0558 11.28H30.7278V8.16H21.1038L20.3118 15.96L21.5598 17.16C22.4958 16.752 23.1918 16.536 24.3438 16.536C26.0718 16.536 27.1758 17.352 27.1758 18.768C27.1758 20.4 26.0478 21.144 24.3438 21.144C23.1918 21.144 22.2798 20.952 21.0318 20.52L19.9758 23.4Z" fill="white"/>
<path d="M129 133.03H190.187V117.643H150.277V97.448H179.248V80.9793L150.277 84.5856V65.4723H189.225V50.0855H129V133.03ZM163.019 34.4582C163.019 40.2283 167.828 44.4356 173.237 44.4356C179.127 44.4356 183.575 40.2283 183.575 34.4582C183.575 28.2073 179.127 24 173.237 24C167.828 24 163.019 28.2073 163.019 34.4582ZM135.371 34.4582C135.371 40.2283 140.059 44.4356 145.829 44.4356C151.479 44.4356 155.927 40.2283 155.927 34.4582C155.927 28.2073 151.479 24 145.829 24C140.059 24 135.371 28.2073 135.371 34.4582Z" fill="white"/>
<path d="M201.9 133.03H259V114.277L223.057 118.124V50.0855H201.9V133.03Z" fill="white"/>
</svg>
