<svg width="141" height="217" viewBox="0 0 141 217" fill="none" xmlns="http://www.w3.org/2000/svg">
<rect width="139.81" height="216.569" transform="translate(0.223145 0.257812)" fill="#A90029"/>
<path d="M112.684 26H116.812V9.584L107.572 13.784L108.22 16.064L112.684 14.936V26ZM121.326 25.4C122.574 25.928 124.206 26.312 126.15 26.312C130.302 26.312 132.654 23.84 132.654 20.384C132.654 17.624 130.686 15.752 127.23 15.752C126.438 15.752 125.694 15.824 125.214 15.968L125.406 13.28H132.078V10.16H122.454L121.662 17.96L122.91 19.16C123.846 18.752 124.542 18.536 125.694 18.536C127.422 18.536 128.526 19.352 128.526 20.768C128.526 22.4 127.398 23.144 125.694 23.144C124.542 23.144 123.63 22.952 122.382 22.52L121.326 25.4Z" fill="white"/>
<path d="M5 214.03H66.1866V198.643H26.2771V178.448H55.2476V161.979L26.2771 165.586V146.472H65.225V131.085H5V214.03ZM39.0193 115.458C39.0193 121.228 43.8277 125.436 49.2371 125.436C55.1274 125.436 59.5751 121.228 59.5751 115.458C59.5751 109.207 55.1274 105 49.2371 105C43.8277 105 39.0193 109.207 39.0193 115.458ZM11.3711 115.458C11.3711 121.228 16.0593 125.436 21.8293 125.436C27.4792 125.436 31.9269 121.228 31.9269 115.458C31.9269 109.207 27.4792 105 21.8293 105C16.0593 105 11.3711 109.207 11.3711 115.458Z" fill="white"/>
<path d="M77.9005 214.03H135V195.277L99.0574 199.124V131.085H77.9005V214.03Z" fill="white"/>
</svg>
