<svg width="167" height="125" viewBox="0 0 167 125" fill="none" xmlns="http://www.w3.org/2000/svg">
<g clip-path="url(#clip0_387_769)">
<rect width="166.31" height="123.362" transform="translate(0.32666 0.913818)" fill="#416900"/>
<g clip-path="url(#clip1_387_769)">
<path d="M83.5 124L0 62.5L83.5 1V62.5L167 1V124L83.5 62.5V124Z" fill="#A90029"/>
</g>
<path d="M10.528 26H14.656V9.584L5.416 13.784L6.064 16.064L10.528 14.936V26ZM30.4739 10.472C28.9859 9.992 28.0259 9.848 26.8019 9.848C22.7459 9.848 18.8579 13.328 18.8579 19.016C18.8579 23.072 20.8739 26.312 24.9059 26.312C28.5059 26.312 30.9539 23.768 30.9539 20C30.9539 17.192 29.2019 15.2 26.2019 15.2C24.6179 15.2 23.5139 15.824 22.6499 16.4C23.5139 14.192 25.3379 12.824 27.4499 12.824C28.2659 12.824 28.9379 12.944 29.7059 13.136L30.4739 10.472ZM26.8019 18.176C27.1139 18.8 27.1619 19.496 27.1619 20.288C27.1619 21.968 26.3939 23.384 25.0499 23.384C23.5139 23.384 22.6019 21.992 22.6019 18.608C23.6339 18.2 24.6899 18.056 25.5539 18.056C26.0339 18.056 26.4419 18.104 26.8019 18.176Z" fill="white"/>
</g>
<defs>
<clipPath id="clip0_387_769">
<rect width="166.31" height="123.362" fill="white" transform="translate(0.32666 0.913818)"/>
</clipPath>
<clipPath id="clip1_387_769">
<rect width="167" height="123" fill="white" transform="matrix(-1 0 0 1 167 1)"/>
</clipPath>
</defs>
</svg>
