<svg width="166" height="168" viewBox="0 0 166 168" fill="none" xmlns="http://www.w3.org/2000/svg">
<g clip-path="url(#clip0_459_127)">
<rect width="166" height="168" fill="#A90029"/>
<path d="M64.9561 0L-18.7925 79.5955V96.0808L82.2517 0H64.9561ZM28.0037 0L-18.7925 44.4583V60.9435L45.2993 0H28.0037ZM-8.94869 0L-18.7617 9.32106V25.8063L8.37775 0H-8.94869ZM156.187 0H138.861L-18.7925 149.87V166.355L156.187 0ZM101.908 0L-18.7925 114.733V131.218L119.204 0H101.908Z" fill="white"/>
<path d="M82.282 175.686L166 96.081V79.5958L64.9555 175.686H82.282ZM119.234 175.686L166 131.218V114.733L101.908 175.686H119.234ZM156.187 175.686L166 166.355V149.87L138.86 175.686H156.187ZM-8.94922 175.686H8.37722L165.969 25.8065V9.32129L-8.94922 175.686ZM45.3296 175.686L165.969 60.9438V44.4585L28.0032 175.686H45.3296Z" fill="white"/>
<circle cx="82.9827" cy="82.9827" r="31.9827" fill="#416900"/>
<path d="M72.1542 95.1387H77.6582V73.2507L65.3382 78.8507L66.2022 81.8907L72.1542 80.3867V95.1387ZM84.0287 95.1387H90.0127L99.7727 76.7067L98.9407 74.0187H83.8367V78.1787H93.9167L84.0287 95.1387Z" fill="white"/>
</g>
<defs>
<clipPath id="clip0_459_127">
<rect width="166" height="168" fill="white"/>
</clipPath>
</defs>
</svg>
