<svg width="270" height="179" viewBox="0 0 270 179" fill="none" xmlns="http://www.w3.org/2000/svg">
<g clip-path="url(#clip0_421_6)">
<rect width="270" height="179" fill="#A90029"/>
<path d="M122.365 0L0 81.0968V97.893L147.635 0H122.365ZM68.3738 0L0 45.2968V62.093L93.6444 0H68.3738ZM14.3828 0L0.0450365 9.49687V26.293L39.6984 0H14.3828ZM255.663 0H230.347L0 152.697V169.493L255.663 0ZM176.356 0L0 116.897V133.693L201.627 0H176.356Z" fill="white"/>
<path d="M147.68 179L270 97.8932V81.097L122.364 179H147.68ZM201.671 179L270 133.693V116.897L176.356 179H201.671ZM255.662 179L270 169.493V152.697L230.347 179H255.662ZM14.3823 179H39.698L269.955 26.2932V9.49707L14.3823 179ZM93.689 179L269.955 62.0932V45.297L68.3734 179H93.689Z" fill="white"/>
<circle cx="223.983" cy="40.9827" r="31.9827" fill="#416900"/>
<path d="M212.704 53H218.208V31.112L205.888 36.712L206.752 39.752L212.704 38.248V53ZM224.579 53H230.562L240.323 34.568L239.491 31.88H224.387V36.04H234.467L224.579 53Z" fill="white"/>
</g>
<defs>
<clipPath id="clip0_421_6">
<rect width="270" height="179" fill="white"/>
</clipPath>
</defs>
</svg>
