<svg width="132" height="215" viewBox="0 0 132 215" fill="none" xmlns="http://www.w3.org/2000/svg">
<g clip-path="url(#clip0_422_13)">
<rect width="132" height="215" fill="#A90029"/>
<path d="M64.6407 0L-26 97.4067V117.581L83.3596 0H64.6407ZM24.6473 0L-26 54.4068V74.581L43.3662 0H24.6473ZM-15.3461 0L-25.9666 11.4068V31.581L3.40621 0H-15.3461ZM163.38 0H144.627L-26 183.407V203.581L163.38 0ZM104.634 0L-26 140.407V160.581L123.353 0H104.634Z" fill="white"/>
<path d="M83.3924 215L174 117.581V97.4071L64.6401 215H83.3924ZM123.386 215L174 160.581V140.407L104.633 215H123.386ZM163.379 215L174 203.581V183.407L144.627 215H163.379ZM-15.3467 215H3.40564L173.966 31.5814V11.4072L-15.3467 215ZM43.399 215L173.966 74.5813V54.4072L24.6467 215H43.399Z" fill="white"/>
<circle cx="65.9827" cy="107.983" r="31.9827" fill="#416900"/>
<path d="M55.1542 120.139H60.6582V98.2509L48.3382 103.851L49.2022 106.891L55.1542 105.387V120.139ZM67.0287 120.139H73.0127L82.7727 101.707L81.9407 99.0189H66.8367V103.179H76.9167L67.0287 120.139Z" fill="white"/>
</g>
<defs>
<clipPath id="clip0_422_13">
<rect width="132" height="215" fill="white"/>
</clipPath>
</defs>
</svg>
