<svg width="101" height="191" viewBox="0 0 101 191" fill="none" xmlns="http://www.w3.org/2000/svg">
<path d="M0.188965 0.957611L0.188965 190.197H100.027L100.027 0.957611H0.188965Z" fill="#416900"/>
<path d="M41.528 103.137H45.656V86.7212L36.416 90.9212L37.064 93.2012L41.528 92.0732V103.137ZM52.4979 95.0252C50.9859 95.7932 49.7139 96.9212 49.7139 99.0092C49.7139 101.433 51.4659 103.449 55.6659 103.449C59.5299 103.449 62.0259 101.673 62.0259 98.5292C62.0259 96.9692 61.4499 95.7932 59.1219 94.4492C60.5859 93.6812 61.4019 92.6012 61.4019 91.2092C61.4019 88.8092 59.6979 86.9852 55.7859 86.9852C52.5939 86.9852 50.3859 88.7612 50.3859 91.2572C50.3859 93.0092 51.2739 94.0892 52.4979 95.0252ZM54.6819 95.9852C55.4979 96.2972 56.0499 96.5132 56.8419 96.9452C57.5619 97.3292 58.0899 97.9292 58.0899 98.7212C58.0899 99.9452 57.2259 100.665 55.8579 100.665C54.3939 100.665 53.6259 99.8972 53.6259 98.5052C53.6259 97.5692 54.1299 96.5852 54.6819 95.9852ZM56.9859 93.4892C56.1219 93.0572 54.1779 92.6252 54.1779 91.3532C54.1779 90.4652 54.7299 89.6972 56.0739 89.6972C56.5779 89.6972 56.7939 89.7212 57.3459 89.9132C57.6339 90.3692 57.7059 90.8732 57.7059 91.3772C57.7059 92.2172 57.5619 92.9372 56.9859 93.4892Z" fill="white"/>
</svg>
