<svg width="100" height="102" viewBox="0 0 100 102" fill="none" xmlns="http://www.w3.org/2000/svg">
<path d="M0 0L0 102H100V0H0Z" fill="#416900"/>
<path d="M41.528 57H45.656V40.584L36.416 44.784L37.064 47.064L41.528 45.936V57ZM52.4979 48.888C50.9859 49.656 49.7139 50.784 49.7139 52.872C49.7139 55.296 51.4659 57.312 55.6659 57.312C59.5299 57.312 62.0259 55.536 62.0259 52.392C62.0259 50.832 61.4499 49.656 59.1219 48.312C60.5859 47.544 61.4019 46.464 61.4019 45.072C61.4019 42.672 59.6979 40.848 55.7859 40.848C52.5939 40.848 50.3859 42.624 50.3859 45.12C50.3859 46.872 51.2739 47.952 52.4979 48.888ZM54.6819 49.848C55.4979 50.16 56.0499 50.376 56.8419 50.808C57.5619 51.192 58.0899 51.792 58.0899 52.584C58.0899 53.808 57.2259 54.528 55.8579 54.528C54.3939 54.528 53.6259 53.76 53.6259 52.368C53.6259 51.432 54.1299 50.448 54.6819 49.848ZM56.9859 47.352C56.1219 46.92 54.1779 46.488 54.1779 45.216C54.1779 44.328 54.7299 43.56 56.0739 43.56C56.5779 43.56 56.7939 43.584 57.3459 43.776C57.6339 44.232 57.7059 44.736 57.7059 45.24C57.7059 46.08 57.5619 46.8 56.9859 47.352Z" fill="white"/>
</svg>
