<svg width="203" height="241" viewBox="0 0 203 241" fill="none" xmlns="http://www.w3.org/2000/svg">
<path d="M0 -1.52588e-05L0 241L203 241V-1.52588e-05L0 -1.52588e-05Z" fill="#416900"/>
<path d="M161.363 222.169H166.179V203.017L155.399 207.917L156.155 210.577L161.363 209.261V222.169ZM171.585 221.889C172.761 222.309 174.105 222.533 175.869 222.533C181.077 222.533 185.277 218.865 185.277 211.977C185.277 208.477 183.681 203.325 178.165 203.325C173.965 203.325 171.025 206.209 171.025 210.353C171.025 214.133 173.433 216.261 176.961 216.261C178.725 216.261 180.041 215.729 181.273 214.721C180.881 217.157 178.249 219.117 175.225 219.117C174.301 219.117 173.489 219.005 172.537 218.753L171.585 221.889ZM181.105 212.201C180.573 212.481 179.397 212.845 178.389 212.845C176.513 212.845 175.393 211.837 175.393 209.877C175.393 207.413 176.933 206.741 178.025 206.741C178.753 206.741 179.313 206.853 179.649 206.937C180.489 208.505 181.105 209.933 181.105 212.201Z" fill="white"/>
<mask id="mask0_471_2" style="mask-type:alpha" maskUnits="userSpaceOnUse" x="35" y="54" width="132" height="133">
<circle cx="101.013" cy="120.259" r="65.9515" transform="rotate(-35.5842 101.013 120.259)" fill="#C4C4C4"/>
</mask>
<g mask="url(#mask0_471_2)">
<path d="M44.6602 155.066L193.017 48.9147L234.004 106.198L85.6469 212.349L44.6602 155.066Z" fill="#416900"/>
<path d="M182.326 62.0781L33.969 168.229L-7.01783 110.946L141.339 4.79506L182.326 62.0781Z" fill="#416900"/>
</g>
<mask id="mask1_471_2" style="mask-type:alpha" maskUnits="userSpaceOnUse" x="35" y="54" width="132" height="133">
<circle cx="101.013" cy="120.259" r="65.9515" transform="rotate(-35.5842 101.013 120.259)" fill="#C4C4C4"/>
</mask>
<g mask="url(#mask1_471_2)">
<path d="M44.6602 155.066L193.017 48.9147L234.004 106.198L85.6469 212.349L44.6602 155.066Z" fill="white"/>
<path d="M182.326 62.0781L33.969 168.229L-7.01783 110.946L141.339 4.79506L182.326 62.0781Z" fill="#BFA100"/>
</g>
</svg>
