<svg width="240" height="243" viewBox="0 0 240 243" fill="none" xmlns="http://www.w3.org/2000/svg">
<path d="M0.549805 0.792633L0.549805 242.931L239.572 242.931L239.572 0.792633L0.549805 0.792633Z" fill="#416900"/>
<mask id="mask0_387_640" style="mask-type:alpha" maskUnits="userSpaceOnUse" x="42" y="44" width="156" height="156">
<circle cx="119.727" cy="121.952" r="77.6723" transform="rotate(-35.5842 119.727 121.952)" fill="#C4C4C4"/>
</mask>
<g mask="url(#mask0_387_640)">
<path d="M53.3589 162.945L228.081 37.9292L276.352 105.392L101.63 230.409L53.3589 162.945Z" fill="#416900"/>
<path d="M215.49 53.4321L40.7679 178.448L-7.50299 110.985L167.219 -14.0312L215.49 53.4321Z" fill="#416900"/>
</g>
<mask id="mask1_387_640" style="mask-type:alpha" maskUnits="userSpaceOnUse" x="42" y="44" width="156" height="156">
<circle cx="119.727" cy="121.952" r="77.6723" transform="rotate(-35.5842 119.727 121.952)" fill="#C4C4C4"/>
</mask>
<g mask="url(#mask1_387_640)">
<path d="M53.3589 162.945L228.081 37.9292L276.352 105.392L101.63 230.409L53.3589 162.945Z" fill="white"/>
<path d="M215.49 53.4321L40.7679 178.448L-7.50299 110.985L167.219 -14.0312L215.49 53.4321Z" fill="#BFA100"/>
</g>
<path d="M200.374 224H205.19V204.848L194.41 209.748L195.166 212.408L200.374 211.092V224ZM210.596 223.72C211.772 224.14 213.116 224.364 214.88 224.364C220.088 224.364 224.288 220.696 224.288 213.808C224.288 210.308 222.692 205.156 217.176 205.156C212.976 205.156 210.036 208.04 210.036 212.184C210.036 215.964 212.444 218.092 215.972 218.092C217.736 218.092 219.052 217.56 220.284 216.552C219.892 218.988 217.26 220.948 214.236 220.948C213.312 220.948 212.5 220.836 211.548 220.584L210.596 223.72ZM220.116 214.032C219.584 214.312 218.408 214.676 217.4 214.676C215.524 214.676 214.404 213.668 214.404 211.708C214.404 209.244 215.944 208.572 217.036 208.572C217.764 208.572 218.324 208.684 218.66 208.768C219.5 210.336 220.116 211.764 220.116 214.032Z" fill="white"/>
</svg>
