<svg width="295" height="190" viewBox="0 0 295 190" fill="none" xmlns="http://www.w3.org/2000/svg">
<g clip-path="url(#clip0_387_680)">
<rect width="294.241" height="189.155" transform="translate(0 0.637207)" fill="#BFA100"/>
<path d="M31.5107 45.4128L60.3825 163.942H2.63885L31.5107 45.4128Z" fill="#416900"/>
<path d="M89.9555 45.4128L118.827 163.942H61.0837L89.9555 45.4128Z" fill="#416900"/>
<path d="M148.401 45.4128L177.272 163.942H119.529L148.401 45.4128Z" fill="#416900"/>
<path d="M206.022 45.4128L234.894 163.942H177.15L206.022 45.4128Z" fill="#416900"/>
<path d="M263.644 45.4128L292.516 163.942H234.772L263.644 45.4128Z" fill="#416900"/>
<path d="M257.178 148.311C258.13 147.49 259.091 146.612 260.062 145.679C261.032 144.746 261.919 143.803 262.722 142.851C263.524 141.899 264.178 140.975 264.682 140.079C265.186 139.164 265.438 138.324 265.438 137.559C265.438 136.98 265.223 136.56 264.794 136.299C264.383 136.038 263.879 135.907 263.282 135.907C262.983 135.907 262.647 135.954 262.274 136.047C261.919 136.122 261.546 136.234 261.154 136.383C260.78 136.532 260.416 136.728 260.062 136.971C259.707 137.195 259.38 137.447 259.082 137.727L256.898 134.843C257.868 133.966 258.932 133.303 260.09 132.855C261.247 132.388 262.526 132.155 263.926 132.155C264.878 132.155 265.736 132.276 266.502 132.519C267.286 132.743 267.948 133.079 268.49 133.527C269.05 133.956 269.479 134.488 269.778 135.123C270.076 135.758 270.226 136.486 270.226 137.307C270.226 138.24 270.048 139.127 269.694 139.967C269.339 140.788 268.826 141.61 268.154 142.431C267.5 143.234 266.698 144.055 265.746 144.895C264.812 145.716 263.758 146.594 262.582 147.527L270.674 147.023V150.999H257.178V148.311Z" fill="#BFA100"/>
<path d="M25.5863 163.292H36.5518L39 189.792H23L25.5863 163.292Z" fill="#416900"/>
<path d="M84.5863 163H95.5518L98 189.5H82L84.5863 163Z" fill="#416900"/>
<path d="M142.586 163H153.552L156 190H140L142.586 163Z" fill="#416900"/>
<path d="M200.586 163H211.552L214 190H198L200.586 163Z" fill="#416900"/>
<path d="M258.586 163H269.552L272 190H256L258.586 163Z" fill="#416900"/>
</g>
<defs>
<clipPath id="clip0_387_680">
<rect width="294.241" height="189.155" fill="white" transform="translate(0 0.637207)"/>
</clipPath>
</defs>
</svg>
