<svg width="170" height="210" viewBox="0 0 170 210" fill="none" xmlns="http://www.w3.org/2000/svg">
<rect width="169.051" height="209.258" transform="translate(0.429688 0.310059)" fill="#A90029"/>
<path d="M13.316 31H26.812V27.024L18.72 27.528C23.424 23.804 26.364 21.004 26.364 17.308C26.364 14.032 23.872 12.156 20.064 12.156C17.264 12.156 14.968 13.108 13.036 14.844L15.22 17.728C16.396 16.58 18.216 15.908 19.42 15.908C20.596 15.908 21.576 16.412 21.576 17.56C21.576 20.612 17.096 25.036 13.316 28.312V31ZM36.3062 31.364C40.4502 31.364 43.5022 27.612 43.5022 21.648C43.5022 15.684 40.4502 12.156 36.3062 12.156C32.1622 12.156 29.1942 15.74 29.1942 21.648C29.1942 27.556 32.1622 31.364 36.3062 31.364ZM36.3062 27.668C34.8782 27.668 33.9822 25.484 33.9822 21.648C33.9822 18.568 34.6262 15.712 36.3062 15.712C37.9862 15.712 38.7422 18.54 38.7422 21.648C38.7422 25.484 38.0142 27.668 36.3062 27.668Z" fill="white"/>
<path d="M85.0826 190C118.819 190 146.168 163.586 146.168 131C146.168 105.63 129.579 83.9915 106.305 75.6583V54.9187H98.439C98.3068 55.0804 98.1747 55.2408 98.039 55.3989C96.4367 57.278 94.4696 58.8123 92.257 59.9089C90.0266 61.0116 87.5719 61.585 85.0838 61.5845C82.5957 61.5847 80.1411 61.0113 77.9105 59.9089C75.6979 58.8124 73.7308 57.2781 72.1286 55.3989C71.9925 55.2416 71.8591 55.0815 71.7285 54.9187H63.8615V75.6619C40.5884 83.9915 24 105.624 24 131.004C23.9988 163.589 51.3465 190 85.0826 190Z" fill="white"/>
<path d="M93.4295 54.9187H76.7432C79.1102 56.8645 81.9871 58.0067 85.0858 58.0067C88.1844 58.0067 91.0589 56.8645 93.4295 54.9187Z" fill="white"/>
<path d="M77.9085 59.9087C80.139 61.0111 82.5936 61.5845 85.0817 61.5843C87.5698 61.5848 90.0245 61.0114 92.2549 59.9087C94.4676 58.8121 96.4346 57.2778 98.0369 55.3987C98.1726 55.2406 98.3048 55.0801 98.4369 54.9185C101.562 51.0658 103.275 46.0756 103.275 40.7915C103.275 35.2868 101.413 30.0996 98.0345 26.1855C96.4322 24.3065 94.4652 22.7721 92.2526 21.6756C90.0222 20.5728 87.5675 19.9995 85.0793 20C82.5913 19.9998 80.1366 20.5731 77.9061 21.6756C75.6934 22.7721 73.7264 24.3064 72.1241 26.1855C68.7446 30.0996 66.8838 35.2868 66.8838 40.7915C66.8838 46.0756 68.5995 51.0658 71.7218 54.9185C71.8532 55.0798 71.9865 55.2398 72.1218 55.3987C73.7254 57.2784 75.6941 58.8127 77.9085 59.9087ZM70.4639 40.7927C70.4639 31.3008 77.0211 23.5789 85.0817 23.5789C93.1423 23.5789 99.7007 31.3008 99.7007 40.7927C99.7007 46.6361 97.2156 51.8068 93.4255 54.9196C91.0584 56.8655 88.1816 58.0077 85.0817 58.0077C81.9819 58.0077 79.1062 56.8655 76.7391 54.9196C72.949 51.8056 70.4639 46.6349 70.4639 40.7915V40.7927Z" fill="white"/>
<path d="M129.878 126.97H113.646L119.9 120.716L115.615 116.431L105.077 126.97H90.6866L97.8816 114.508L112.278 110.651L110.71 104.797L102.167 107.087L110.282 93.0298L105.034 90L96.9187 104.057L94.6294 95.5137L88.7759 97.0823L92.6338 111.478L85.4389 123.94L78.2443 111.479L82.1014 97.0819L76.2482 95.5137L73.959 104.057L65.8434 90L60.5955 93.0298L68.7111 107.086L60.1681 104.797L58.5999 110.651L72.996 114.508L80.1911 126.97H65.8014L55.2621 116.431L50.9774 120.716L57.2313 126.97H41V133.03H57.2313L50.9774 139.284L55.2621 143.569L65.8014 133.03H80.1911L72.9961 145.492L58.5992 149.349L60.1677 155.203L68.7113 152.913L60.5955 166.97L65.8434 170L73.9589 155.943L76.2482 164.487L82.1014 162.918L78.2438 148.522L85.4389 136.06L92.6338 148.521L88.7759 162.918L94.6294 164.486L96.9185 155.943L105.034 170L110.282 166.97L102.167 152.913L110.71 155.203L112.278 149.349L97.8817 145.492L90.6866 133.03H105.076L115.615 143.569L119.9 139.284L113.646 133.03H129.878V126.97Z" fill="#A90029"/>
</svg>
