<svg width="192" height="168" viewBox="0 0 192 168" fill="none" xmlns="http://www.w3.org/2000/svg">
<g clip-path="url(#clip0_387_761)">
<rect width="190.982" height="166.31" transform="translate(0.861572 0.913818)" fill="#A90029"/>
<g clip-path="url(#clip1_387_761)">
<path d="M16.0002 -6V174H32.8899V-6H16.0002ZM88.0002 -6V174H104.89V-6H88.0002ZM52.0002 -6V174H68.8899V-6H52.0002ZM176.89 -6H160V174H176.89V-6ZM124 -6V174H140.89V-6H124Z" fill="#BFA100"/>
</g>
<circle cx="32" cy="32" r="25" fill="#416900"/>
<path d="M19.2061 38H30.7741V34.592L23.8381 35.024C27.8701 31.832 30.3901 29.432 30.3901 26.264C30.3901 23.456 28.2541 21.848 24.9901 21.848C22.5901 21.848 20.6221 22.664 18.9661 24.152L20.8381 26.624C21.8461 25.64 23.4061 25.064 24.4381 25.064C25.4461 25.064 26.2861 25.496 26.2861 26.48C26.2861 29.096 22.4461 32.888 19.2061 35.696V38ZM33.128 38H44.696V34.592L37.76 35.024C41.792 31.832 44.312 29.432 44.312 26.264C44.312 23.456 42.176 21.848 38.912 21.848C36.512 21.848 34.544 22.664 32.888 24.152L34.76 26.624C35.768 25.64 37.328 25.064 38.36 25.064C39.368 25.064 40.208 25.496 40.208 26.48C40.208 29.096 36.368 32.888 33.128 35.696V38Z" fill="white"/>
</g>
<defs>
<clipPath id="clip0_387_761">
<rect width="190.982" height="166.31" fill="white" transform="translate(0.861572 0.913818)"/>
</clipPath>
<clipPath id="clip1_387_761">
<rect width="160.89" height="180" fill="white" transform="translate(16 -6)"/>
</clipPath>
</defs>
</svg>
