<svg width="248" height="200" viewBox="0 0 248 200" fill="none" xmlns="http://www.w3.org/2000/svg">
<g clip-path="url(#clip0_387_776)">
<rect width="246.724" height="199.207" transform="translate(0.757324)" fill="#416900"/>
<path d="M204.11 163.824H0.757324V181.845H226.464V0H204.11V163.824ZM156.437 125.416H0.757324V143.436H178.791V0H156.437V125.416ZM61.0903 48.5978H0.757324V66.6073H83.444V0H61.0903V48.5978ZM108.764 87.0067H0.757324V105.027H131.117V0H108.764V87.0067ZM0.757324 10.1889V28.2091H35.7706V0H13.417V10.1889H0.757324Z" fill="white"/>
<circle cx="210" cy="34" r="25" fill="#A90029"/>
<path d="M197.206 37.696C198.022 36.992 198.846 36.24 199.678 35.44C200.51 34.64 201.27 33.832 201.958 33.016C202.646 32.2 203.206 31.408 203.638 30.64C204.07 29.856 204.286 29.136 204.286 28.48C204.286 27.984 204.102 27.624 203.734 27.4C203.382 27.176 202.95 27.064 202.438 27.064C202.182 27.064 201.894 27.104 201.574 27.184C201.27 27.248 200.95 27.344 200.614 27.472C200.294 27.6 199.982 27.768 199.678 27.976C199.374 28.168 199.094 28.384 198.838 28.624L196.966 26.152C197.798 25.4 198.71 24.832 199.702 24.448C200.694 24.048 201.79 23.848 202.99 23.848C203.806 23.848 204.542 23.952 205.198 24.16C205.87 24.352 206.438 24.64 206.902 25.024C207.382 25.392 207.75 25.848 208.006 26.392C208.262 26.936 208.39 27.56 208.39 28.264C208.39 29.064 208.238 29.824 207.934 30.544C207.63 31.248 207.19 31.952 206.614 32.656C206.054 33.344 205.366 34.048 204.55 34.768C203.75 35.472 202.846 36.224 201.838 37.024L208.774 36.592V40H197.206V37.696ZM211.944 36.232C212.616 36.552 213.256 36.776 213.864 36.904C214.488 37.032 215.08 37.096 215.64 37.096C216.072 37.096 216.48 37.056 216.864 36.976C217.248 36.88 217.584 36.736 217.872 36.544C218.16 36.352 218.384 36.112 218.544 35.824C218.72 35.536 218.808 35.2 218.808 34.816C218.808 34.144 218.6 33.64 218.184 33.304C217.784 32.968 217.216 32.8 216.48 32.8C215.968 32.8 215.544 32.864 215.208 32.992L214.008 31.384L218.04 27.28H212.184V24.16H221.232L222.144 26.344L217.92 30.304C219.568 30.432 220.784 30.88 221.568 31.648C222.368 32.416 222.768 33.48 222.768 34.84C222.768 35.672 222.616 36.424 222.312 37.096C222.008 37.768 221.576 38.344 221.016 38.824C220.456 39.304 219.776 39.672 218.976 39.928C218.176 40.184 217.28 40.312 216.288 40.312C215.104 40.312 214.088 40.208 213.24 40C212.392 39.776 211.584 39.456 210.816 39.04L211.944 36.232Z" fill="white"/>
</g>
<defs>
<clipPath id="clip0_387_776">
<rect width="246.724" height="199.207" fill="white" transform="translate(0.757324)"/>
</clipPath>
</defs>
</svg>
