<svg width="170" height="167" viewBox="0 0 170 167" fill="none" xmlns="http://www.w3.org/2000/svg">
<g clip-path="url(#clip0_387_757)">
<rect width="169.965" height="166.31" transform="translate(0 0.516357)" fill="#A90029"/>
<path d="M0 109.468V0.516357H108.951C108.951 29.4121 97.4726 57.1243 77.0403 77.5566C56.6079 97.989 28.8957 109.468 0 109.468Z" fill="#416900"/>
<path d="M170.176 58.0852V167.037H61.2241C61.2241 138.141 72.7029 110.429 93.1352 89.9964C113.568 69.5641 141.28 58.0852 170.176 58.0852Z" fill="#BFA100"/>
<path d="M8.128 154H19.696V150.592L12.76 151.024C16.792 147.832 19.312 145.432 19.312 142.264C19.312 139.456 17.176 137.848 13.912 137.848C11.512 137.848 9.544 138.664 7.888 140.152L9.76 142.624C10.768 141.64 12.328 141.064 13.36 141.064C14.368 141.064 15.208 141.496 15.208 142.48C15.208 145.096 11.368 148.888 8.128 151.696V154ZM21.9539 150.904H28.9859V154H32.4659V150.904H34.3379V148.144L32.4659 148.216V137.92H29.4419L21.4739 149.08L21.9539 150.904ZM24.8819 148.576L28.9859 142.48V148.408L24.8819 148.576Z" fill="white"/>
</g>
<defs>
<clipPath id="clip0_387_757">
<rect width="169.965" height="166.31" fill="white" transform="translate(0 0.516357)"/>
</clipPath>
</defs>
</svg>
