<svg width="308" height="186" viewBox="0 0 308 186" fill="none" xmlns="http://www.w3.org/2000/svg">
<path d="M0.974121 0.648193L0.974121 185.914L307.564 185.914V0.648193L0.974121 0.648193Z" fill="#A90029"/>
<g clip-path="url(#clip0_387_626)">
<path d="M308 1H1V186H308V1Z" fill="#A90029"/>
<path d="M308 104.084H1V138.766H308V104.084Z" fill="#BFA100"/>
<path d="M176.276 109.543V133.361H132.724V109.543H176.276ZM182.198 104.191H126.684V138.981H182.287V104.191H182.198Z" fill="white"/>
<path d="M137.964 118.722H106.166V124.155H137.964V118.722Z" fill="white"/>
<path d="M154.515 64.1029C161.579 64.1029 167.305 58.9269 167.305 52.542C167.305 46.1572 161.579 40.9812 154.515 40.9812C147.451 40.9812 141.725 46.1572 141.725 52.542C141.725 58.9269 147.451 64.1029 154.515 64.1029Z" fill="white"/>
<path d="M18.256 53H41.392V46.184L27.52 47.048C35.584 40.664 40.624 35.864 40.624 29.528C40.624 23.912 36.352 20.696 29.824 20.696C25.024 20.696 21.088 22.328 17.776 25.304L21.52 30.248C23.536 28.28 26.656 27.128 28.72 27.128C30.736 27.128 32.416 27.992 32.416 29.96C32.416 35.192 24.736 42.776 18.256 48.392V53ZM46.3398 51.8C48.8358 52.856 52.0998 53.624 55.9878 53.624C64.2918 53.624 68.9958 48.68 68.9958 41.768C68.9958 36.248 65.0598 32.504 58.1478 32.504C56.5638 32.504 55.0758 32.648 54.1158 32.936L54.4998 27.56H67.8438V21.32H48.5958L47.0117 36.92L49.5078 39.32C51.3798 38.504 52.7718 38.072 55.0758 38.072C58.5318 38.072 60.7398 39.704 60.7398 42.536C60.7398 45.8 58.4838 47.288 55.0758 47.288C52.7718 47.288 50.9478 46.904 48.4518 46.04L46.3398 51.8Z" fill="white"/>
</g>
<defs>
<clipPath id="clip0_387_626">
<rect width="307" height="185" fill="white" transform="translate(1 1)"/>
</clipPath>
</defs>
</svg>
