<svg width="201" height="195" viewBox="0 0 201 195" fill="none" xmlns="http://www.w3.org/2000/svg">
<g clip-path="url(#clip0_387_693)">
<rect width="200.12" height="193.724" transform="translate(0.360352 0.464844)" fill="#416900"/>
<g clip-path="url(#clip1_387_693)">
<path d="M190.9 179.881C186.389 174.819 183.907 168.352 183.907 161.661C183.907 154.97 186.389 148.503 190.9 143.441L196.455 137.126C198.385 134.959 199.446 132.191 199.446 129.328C199.446 126.465 198.385 123.697 196.455 121.53L190.9 115.214C186.39 110.15 183.909 103.681 183.909 96.9892C183.909 90.2972 186.39 83.8284 190.9 78.7639L196.455 72.459C198.385 70.292 199.446 67.5244 199.446 64.6613C199.446 61.7982 198.385 59.0306 196.455 56.8636L190.9 50.5477C186.389 45.4859 183.907 39.0187 183.907 32.3279C183.907 25.6372 186.389 19.1698 190.9 14.1081L196.455 7.79231C198.388 5.62904 199.454 2.86277 199.456 0H16.0442C16.0319 6.68951 13.5529 13.154 9.05528 18.2251L3.49973 24.5302C1.57062 26.6972 0.509277 29.4648 0.509277 32.3279C0.509277 35.191 1.57062 37.9587 3.49973 40.1256L9.05528 46.4306C13.5648 51.4951 16.0464 57.9639 16.0464 64.6559C16.0464 71.3479 13.5648 77.8165 9.05528 82.881L3.49973 89.1969C1.57062 91.3639 0.509277 94.1315 0.509277 96.9946C0.509277 99.8577 1.57062 102.625 3.49973 104.792L9.05528 111.097C13.5648 116.162 16.0464 122.631 16.0464 129.323C16.0464 136.015 13.5648 142.483 9.05528 147.548L3.49973 153.864C1.57062 156.031 0.509277 158.798 0.509277 161.661C0.509277 164.524 1.57062 167.292 3.49973 169.459L9.05528 175.775C13.5615 180.841 16.0418 187.309 16.0442 194H39.5002C39.4959 191.134 38.4311 188.365 36.4999 186.197L30.9444 179.881C26.4335 174.819 23.9511 168.352 23.9511 161.661C23.9511 154.97 26.4335 148.503 30.9444 143.441L36.4999 137.126C38.4291 134.959 39.4904 132.191 39.4904 129.328C39.4904 126.465 38.4291 123.697 36.4999 121.53L30.9444 115.214C26.4349 110.15 23.9533 103.681 23.9533 96.9892C23.9533 90.2972 26.4349 83.8284 30.9444 78.7639L36.4999 72.459C38.4291 70.292 39.4904 67.5244 39.4904 64.6613C39.4904 61.7982 38.4291 59.0306 36.4999 56.8636L30.9444 50.5477C26.4335 45.4859 23.9511 39.0187 23.9511 32.3279C23.9511 25.6372 26.4335 19.1698 30.9444 14.1081L36.4999 7.79231C38.433 5.62904 39.4982 2.86277 39.5002 0H56.0442C56.0319 6.68951 53.5529 13.154 49.0553 18.2251L43.4997 24.5302C41.5706 26.6972 40.5093 29.4648 40.5093 32.3279C40.5093 35.191 41.5706 37.9587 43.4997 40.1256L49.0553 46.4306C53.5648 51.4951 56.0464 57.9639 56.0464 64.6559C56.0464 71.3479 53.5648 77.8165 49.0553 82.881L43.4997 89.1969C41.5706 91.3639 40.5093 94.1315 40.5093 96.9946C40.5093 99.8577 41.5706 102.625 43.4997 104.792L49.0553 111.097C53.5648 116.162 56.0464 122.631 56.0464 129.323C56.0464 136.015 53.5648 142.483 49.0553 147.548L43.4997 153.864C41.5706 156.031 40.5093 158.798 40.5093 161.661C40.5093 164.524 41.5706 167.292 43.4997 169.459L49.0553 175.775C53.5615 180.841 56.0418 187.309 56.0442 194H79.5002C79.4959 191.134 78.4311 188.365 76.4999 186.197L70.9444 179.881C66.4335 174.819 63.9511 168.352 63.9511 161.661C63.9511 154.97 66.4335 148.503 70.9444 143.441L76.4999 137.126C78.429 134.959 79.4904 132.191 79.4904 129.328C79.4904 126.465 78.429 123.697 76.4999 121.53L70.9444 115.214C66.4349 110.15 63.9533 103.681 63.9533 96.9892C63.9533 90.2972 66.4349 83.8284 70.9444 78.7639L76.4999 72.459C78.429 70.292 79.4904 67.5244 79.4904 64.6613C79.4904 61.7982 78.429 59.0306 76.4999 56.8636L70.9444 50.5477C66.4335 45.4859 63.9511 39.0187 63.9511 32.3279C63.9511 25.6372 66.4335 19.1698 70.9444 14.1081L76.4999 7.79231C78.433 5.62904 79.4982 2.86277 79.5002 0H96.0442C96.0319 6.68951 93.5529 13.154 89.0553 18.2251L83.4997 24.5302C81.5706 26.6972 80.5093 29.4648 80.5093 32.3279C80.5093 35.191 81.5706 37.9587 83.4997 40.1256L89.0553 46.4306C93.5648 51.4951 96.0464 57.9639 96.0464 64.6559C96.0464 71.3479 93.5648 77.8165 89.0553 82.881L83.4997 89.1969C81.5706 91.3639 80.5093 94.1315 80.5093 96.9946C80.5093 99.8577 81.5706 102.625 83.4997 104.792L89.0553 111.097C93.5648 116.162 96.0464 122.631 96.0464 129.323C96.0464 136.015 93.5648 142.483 89.0553 147.548L83.4997 153.864C81.5706 156.031 80.5093 158.798 80.5093 161.661C80.5093 164.524 81.5706 167.292 83.4997 169.459L89.0553 175.775C93.5615 180.841 96.0418 187.309 96.0442 194H119.5C119.496 191.134 118.431 188.365 116.5 186.197L110.944 179.881C106.434 174.819 103.951 168.352 103.951 161.661C103.951 154.97 106.434 148.503 110.944 143.441L116.5 137.126C118.429 134.959 119.49 132.191 119.49 129.328C119.49 126.465 118.429 123.697 116.5 121.53L110.944 115.214C106.435 110.15 103.953 103.681 103.953 96.9892C103.953 90.2972 106.435 83.8284 110.944 78.7639L116.5 72.459C118.429 70.292 119.49 67.5244 119.49 64.6613C119.49 61.7982 118.429 59.0306 116.5 56.8636L110.944 50.5477C106.434 45.4859 103.951 39.0187 103.951 32.3279C103.951 25.6372 106.434 19.1698 110.944 14.1081L116.5 7.79231C118.433 5.62904 119.498 2.86277 119.5 0H136.044C136.032 6.68951 133.553 13.154 129.055 18.2251L123.5 24.5302C121.571 26.6972 120.509 29.4648 120.509 32.3279C120.509 35.191 121.571 37.9587 123.5 40.1256L129.055 46.4306C133.565 51.4951 136.046 57.9639 136.046 64.6559C136.046 71.3479 133.565 77.8165 129.055 82.881L123.5 89.1969C121.571 91.3639 120.509 94.1315 120.509 96.9946C120.509 99.8577 121.571 102.625 123.5 104.792L129.055 111.097C133.565 116.162 136.046 122.631 136.046 129.323C136.046 136.015 133.565 142.483 129.055 147.548L123.5 153.864C121.571 156.031 120.509 158.798 120.509 161.661C120.509 164.524 121.571 167.292 123.5 169.459L129.055 175.775C133.562 180.841 136.042 187.309 136.044 194H159.5C159.496 191.134 158.431 188.365 156.5 186.197L150.944 179.881C146.434 174.819 143.951 168.352 143.951 161.661C143.951 154.97 146.434 148.503 150.944 143.441L156.5 137.126C158.429 134.959 159.49 132.191 159.49 129.328C159.49 126.465 158.429 123.697 156.5 121.53L150.944 115.214C146.435 110.15 143.953 103.681 143.953 96.9892C143.953 90.2972 146.435 83.8284 150.944 78.7639L156.5 72.459C158.429 70.292 159.49 67.5244 159.49 64.6613C159.49 61.7982 158.429 59.0306 156.5 56.8636L150.944 50.5477C146.434 45.4859 143.951 39.0187 143.951 32.3279C143.951 25.6372 146.434 19.1698 150.944 14.1081L156.5 7.79231C158.433 5.62904 159.498 2.86277 159.5 0H176.044C176.032 6.68951 173.553 13.154 169.055 18.2251L163.5 24.5302C161.571 26.6972 160.509 29.4648 160.509 32.3279C160.509 35.191 161.571 37.9587 163.5 40.1256L169.055 46.4306C173.565 51.4951 176.046 57.9639 176.046 64.6559C176.046 71.3479 173.565 77.8165 169.055 82.881L163.5 89.1969C161.571 91.3639 160.509 94.1315 160.509 96.9946C160.509 99.8577 161.571 102.625 163.5 104.792L169.055 111.097C173.565 116.162 176.046 122.631 176.046 129.323C176.046 136.015 173.565 142.483 169.055 147.548L163.5 153.864C161.571 156.031 160.509 158.798 160.509 161.661C160.509 164.524 161.571 167.292 163.5 169.459L169.055 175.775C173.562 180.841 176.042 187.309 176.044 194H199.5C199.496 191.134 198.431 188.365 196.5 186.197L190.9 179.881Z" fill="#A90029"/>
</g>
<path d="M11.3641 186.258C13.1561 187.238 14.9761 187.742 17.7481 187.742C22.3961 187.742 25.3081 185.222 25.3081 181.358C25.3081 178.194 23.4601 176.346 19.6521 176.066L24.5801 171.446L23.5161 168.898H12.9601V172.538H19.7921L15.0881 177.326L16.4881 179.202C16.8521 179.062 17.4121 178.978 17.9721 178.978C19.6801 178.978 20.6881 179.762 20.6881 181.33C20.6881 183.15 19.0081 183.99 16.9921 183.99C15.6761 183.99 14.2201 183.738 12.6801 182.982L11.3641 186.258Z" fill="white"/>
</g>
<defs>
<clipPath id="clip0_387_693">
<rect width="200.12" height="193.724" fill="white" transform="translate(0.360352 0.464844)"/>
</clipPath>
<clipPath id="clip1_387_693">
<rect width="200" height="194" fill="white"/>
</clipPath>
</defs>
</svg>
