<svg width="132" height="215" viewBox="0 0 132 215" fill="none" xmlns="http://www.w3.org/2000/svg">
<g clip-path="url(#clip0_421_2)">
<rect width="132" height="215" fill="#416900"/>
<path d="M157.391 199.353C152.88 193.743 150.397 186.576 150.397 179.161C150.397 171.746 152.88 164.578 157.391 158.969L162.946 151.969C164.875 149.568 165.937 146.5 165.937 143.327C165.937 140.154 164.875 137.087 162.946 134.686L157.391 127.686C152.881 122.073 150.4 114.904 150.4 107.488C150.4 100.072 152.881 92.9026 157.391 87.2899L162.946 80.3025C164.875 77.9009 165.937 74.8337 165.937 71.6607C165.937 68.4877 164.875 65.4205 162.946 63.0189L157.391 56.0193C152.88 50.4097 150.397 43.2424 150.397 35.8274C150.397 28.4123 152.88 21.2449 157.391 15.6352L162.946 8.63581C164.879 6.23837 165.944 3.17266 165.946 0H-17.4651C-17.4774 7.41363 -19.9564 14.5779 -24.454 20.198L-30.0095 27.1856C-31.9387 29.5871 -33 32.6543 -33 35.8274C-33 39.0004 -31.9387 42.0676 -30.0095 44.4691L-24.454 51.4566C-19.9445 57.0693 -17.4629 64.2383 -17.4629 71.6547C-17.4629 79.0711 -19.9445 86.24 -24.454 91.8527L-30.0095 98.8522C-31.9387 101.254 -33 104.321 -33 107.494C-33 110.667 -31.9387 113.734 -30.0095 116.136L-24.454 123.123C-19.9445 128.736 -17.4629 135.905 -17.4629 143.321C-17.4629 150.738 -19.9445 157.907 -24.454 163.519L-30.0095 170.519C-31.9387 172.92 -33 175.988 -33 179.161C-33 182.334 -31.9387 185.401 -30.0095 187.802L-24.454 194.802C-19.9478 200.417 -17.4675 207.584 -17.4651 215H5.99088C5.98661 211.824 4.92185 208.756 2.99067 206.352L-2.56489 199.353C-7.07575 193.743 -9.55816 186.576 -9.55816 179.161C-9.55816 171.746 -7.07575 164.578 -2.56489 158.969L2.99067 151.969C4.91977 149.568 5.98112 146.5 5.98112 143.327C5.98112 140.154 4.91977 137.087 2.99067 134.686L-2.56489 127.686C-7.07441 122.073 -9.55599 114.904 -9.55599 107.488C-9.55599 100.072 -7.07441 92.9026 -2.56489 87.2899L2.99067 80.3025C4.91977 77.9009 5.98112 74.8337 5.98112 71.6607C5.98112 68.4877 4.91977 65.4205 2.99067 63.0189L-2.56489 56.0193C-7.07575 50.4097 -9.55816 43.2424 -9.55816 35.8274C-9.55816 28.4123 -7.07575 21.2449 -2.56489 15.6352L2.99067 8.63581C4.92368 6.23837 5.98891 3.17266 5.99088 0H22.5349C22.5226 7.41363 20.0436 14.5779 15.546 20.198L9.99045 27.1856C8.06134 29.5871 7 32.6543 7 35.8274C7 39.0004 8.06134 42.0676 9.99045 44.4691L15.546 51.4566C20.0555 57.0693 22.5371 64.2383 22.5371 71.6547C22.5371 79.0711 20.0555 86.24 15.546 91.8527L9.99045 98.8522C8.06134 101.254 7 104.321 7 107.494C7 110.667 8.06134 113.734 9.99045 116.136L15.546 123.123C20.0555 128.736 22.5371 135.905 22.5371 143.321C22.5371 150.738 20.0555 157.907 15.546 163.519L9.99045 170.519C8.06134 172.92 7 175.988 7 179.161C7 182.334 8.06134 185.401 9.99045 187.802L15.546 194.802C20.0522 200.417 22.5325 207.584 22.5349 215H45.9909C45.9866 211.824 44.9218 208.756 42.9907 206.352L37.4351 199.353C32.9243 193.743 30.4418 186.576 30.4418 179.161C30.4418 171.746 32.9243 164.578 37.4351 158.969L42.9907 151.969C44.9198 149.568 45.9811 146.5 45.9811 143.327C45.9811 140.154 44.9198 137.087 42.9907 134.686L37.4351 127.686C32.9256 122.073 30.444 114.904 30.444 107.488C30.444 100.072 32.9256 92.9026 37.4351 87.2899L42.9907 80.3025C44.9198 77.9009 45.9811 74.8337 45.9811 71.6607C45.9811 68.4877 44.9198 65.4205 42.9907 63.0189L37.4351 56.0193C32.9243 50.4097 30.4418 43.2424 30.4418 35.8274C30.4418 28.4123 32.9243 21.2449 37.4351 15.6352L42.9907 8.63581C44.9237 6.23837 45.9889 3.17266 45.9909 0H62.5349C62.5226 7.41363 60.0436 14.5779 55.546 20.198L49.9904 27.1856C48.0613 29.5871 47 32.6543 47 35.8274C47 39.0004 48.0613 42.0676 49.9904 44.4691L55.546 51.4566C60.0555 57.0693 62.5371 64.2383 62.5371 71.6547C62.5371 79.0711 60.0555 86.24 55.546 91.8527L49.9904 98.8522C48.0613 101.254 47 104.321 47 107.494C47 110.667 48.0613 113.734 49.9904 116.136L55.546 123.123C60.0555 128.736 62.5371 135.905 62.5371 143.321C62.5371 150.738 60.0555 157.907 55.546 163.519L49.9904 170.519C48.0613 172.92 47 175.988 47 179.161C47 182.334 48.0613 185.401 49.9904 187.802L55.546 194.802C60.0522 200.417 62.5325 207.584 62.5349 215H85.9909C85.9866 211.824 84.9218 208.756 82.9907 206.352L77.4351 199.353C72.9242 193.743 70.4418 186.576 70.4418 179.161C70.4418 171.746 72.9242 164.578 77.4351 158.969L82.9907 151.969C84.9198 149.568 85.9811 146.5 85.9811 143.327C85.9811 140.154 84.9198 137.087 82.9907 134.686L77.4351 127.686C72.9256 122.073 70.444 114.904 70.444 107.488C70.444 100.072 72.9256 92.9026 77.4351 87.2899L82.9907 80.3025C84.9198 77.9009 85.9811 74.8337 85.9811 71.6607C85.9811 68.4877 84.9198 65.4205 82.9907 63.0189L77.4351 56.0193C72.9242 50.4097 70.4418 43.2424 70.4418 35.8274C70.4418 28.4123 72.9242 21.2449 77.4351 15.6352L82.9907 8.63581C84.9237 6.23837 85.9889 3.17266 85.9909 0H102.535C102.523 7.41363 100.044 14.5779 95.546 20.198L89.9904 27.1856C88.0613 29.5871 87 32.6543 87 35.8274C87 39.0004 88.0613 42.0676 89.9904 44.4691L95.546 51.4566C100.056 57.0693 102.537 64.2383 102.537 71.6547C102.537 79.0711 100.056 86.24 95.546 91.8527L89.9904 98.8522C88.0613 101.254 87 104.321 87 107.494C87 110.667 88.0613 113.734 89.9904 116.136L95.546 123.123C100.056 128.736 102.537 135.905 102.537 143.321C102.537 150.738 100.056 157.907 95.546 163.519L89.9904 170.519C88.0613 172.92 87 175.988 87 179.161C87 182.334 88.0613 185.401 89.9904 187.802L95.546 194.802C100.052 200.417 102.532 207.584 102.535 215H125.991C125.987 211.824 124.922 208.756 122.991 206.352L117.435 199.353C112.924 193.743 110.442 186.576 110.442 179.161C110.442 171.746 112.924 164.578 117.435 158.969L122.991 151.969C124.92 149.568 125.981 146.5 125.981 143.327C125.981 140.154 124.92 137.087 122.991 134.686L117.435 127.686C112.926 122.073 110.444 114.904 110.444 107.488C110.444 100.072 112.926 92.9026 117.435 87.2899L122.991 80.3025C124.92 77.9009 125.981 74.8337 125.981 71.6607C125.981 68.4877 124.92 65.4205 122.991 63.0189L117.435 56.0193C112.924 50.4097 110.442 43.2424 110.442 35.8274C110.442 28.4123 112.924 21.2449 117.435 15.6352L122.991 8.63581C124.924 6.23837 125.989 3.17266 125.991 0H142.535C142.523 7.41363 140.044 14.5779 135.546 20.198L129.99 27.1856C128.061 29.5871 127 32.6543 127 35.8274C127 39.0004 128.061 42.0676 129.99 44.4691L135.546 51.4566C140.056 57.0693 142.537 64.2383 142.537 71.6547C142.537 79.0711 140.056 86.24 135.546 91.8527L129.99 98.8522C128.061 101.254 127 104.321 127 107.494C127 110.667 128.061 113.734 129.99 116.136L135.546 123.123C140.056 128.736 142.537 135.905 142.537 143.321C142.537 150.738 140.056 157.907 135.546 163.519L129.99 170.519C128.061 172.92 127 175.988 127 179.161C127 182.334 128.061 185.401 129.99 187.802L135.546 194.802C140.052 200.417 142.532 207.584 142.535 215H165.991C165.987 211.824 164.922 208.756 162.991 206.352L157.391 199.353Z" fill="#A90029"/>
<path d="M7.952 202.88C9.744 203.86 11.564 204.364 14.336 204.364C18.984 204.364 21.896 201.844 21.896 197.98C21.896 194.816 20.048 192.968 16.24 192.688L21.168 188.068L20.104 185.52H9.548V189.16H16.38L11.676 193.948L13.076 195.824C13.44 195.684 14 195.6 14.56 195.6C16.268 195.6 17.276 196.384 17.276 197.952C17.276 199.772 15.596 200.612 13.58 200.612C12.264 200.612 10.808 200.36 9.268 199.604L7.952 202.88Z" fill="white"/>
</g>
<defs>
<clipPath id="clip0_421_2">
<rect width="132" height="215" fill="white"/>
</clipPath>
</defs>
</svg>
