<svg width="224" height="167" viewBox="0 0 224 167" fill="none" xmlns="http://www.w3.org/2000/svg">
<g clip-path="url(#clip0_387_726)">
<rect width="223.879" height="166.31" transform="translate(0.120361 0.516357)" fill="#BFA100"/>
<path d="M129.541 0.516357L106.075 28.2347L129.541 55.9531L106.075 83.6714L129.541 111.381L106.065 139.108L129.541 166.826H141.758V163.528L121.079 139.108L141.758 114.679V108.091L121.079 83.6714L141.758 59.2423V52.6546L121.079 28.2347L141.758 3.81484V0.516357H-22.7244V3.81484L-19.9373 0.516357H-2.04526L-22.7244 24.9362V31.524L-2.04526 55.9531L-22.7244 80.3729V86.9607L-2.04526 111.381L-22.7244 135.81V142.397L-2.04526 166.826H12.9592L-10.507 139.108L12.9592 111.39L-10.507 83.6714L12.9592 55.9531L-10.507 28.2347L12.9592 0.516357H30.8513L7.38508 28.2347L30.8513 55.9531L7.38508 83.6714L30.8513 111.381L7.38508 139.108L30.8513 166.826H45.8557L22.3895 139.108L45.8557 111.39L22.3895 83.6714L45.8557 55.9531L22.3895 28.2347L45.8557 0.516357H63.7478L40.2816 28.2347L63.7478 55.9531L40.2724 83.6714L63.7478 111.381L40.2724 139.108L63.7478 166.826H78.7522H78.7614L55.286 139.108L78.7614 111.39L55.286 83.6714L78.7614 55.9531L55.286 28.2347L78.7522 0.516357H96.6443L73.1781 28.2347L96.6443 55.9531L73.1781 83.6714L96.6443 111.381L73.169 139.108L96.6443 166.826H111.649H111.658L88.1826 139.108L111.658 111.39L88.1826 83.6714L111.658 55.9531L88.1826 28.2347L111.649 0.516357H129.541Z" fill="#A90029"/>
<path d="M261.127 0.516357L237.661 28.2347L261.127 55.9531L237.661 83.6714L261.127 111.381L237.651 139.108L261.127 166.826H273.344V163.528L252.665 139.108L273.344 114.679V108.091L252.665 83.6714L273.344 59.2423V52.6546L252.665 28.2347L273.344 3.81484V0.516357H108.862V3.81484L111.649 0.516357H129.541L108.862 24.9362V31.524L129.541 55.9531L108.862 80.3729V86.9607L129.541 111.381L108.862 135.81V142.397L129.541 166.826H144.545L121.079 139.108L144.545 111.39L121.079 83.6714L144.545 55.9531L121.079 28.2347L144.545 0.516357H162.437L138.971 28.2347L162.437 55.9531L138.971 83.6714L162.437 111.381L138.971 139.108L162.437 166.826H177.442L153.975 139.108L177.442 111.39L153.975 83.6714L177.442 55.9531L153.975 28.2347L177.442 0.516357H195.334L171.868 28.2347L195.334 55.9531L171.858 83.6714L195.334 111.381L171.858 139.108L195.334 166.826H210.338H210.347L186.872 139.108L210.347 111.39L186.872 83.6714L210.347 55.9531L186.872 28.2347L210.338 0.516357H228.23L204.764 28.2347L228.23 55.9531L204.764 83.6714L228.23 111.381L204.755 139.108L228.23 166.826H243.235H243.244L219.768 139.108L243.244 111.39L219.768 83.6714L243.244 55.9531L219.768 28.2347L243.235 0.516357H261.127Z" fill="#A90029"/>
<circle cx="108.862" cy="83.6714" r="31.9827" fill="white"/>
<path d="M99.9548 87.44L110.579 72.56H114.611V86.288L117.107 86.192V89.872H114.611V94H109.971V89.872H100.595L99.9548 87.44ZM109.971 86.544V78.64L104.499 86.768L109.971 86.544Z" fill="#A90029"/>
</g>
<defs>
<clipPath id="clip0_387_726">
<rect width="223.879" height="166.31" fill="white" transform="translate(0.120361 0.516357)"/>
</clipPath>
</defs>
</svg>
