<svg width="116" height="146" viewBox="0 0 116 146" fill="none" xmlns="http://www.w3.org/2000/svg">
<g clip-path="url(#clip0_387_711)">
<rect width="115.138" height="145.293" transform="translate(0.447754 0.413574)" fill="#416900"/>
<path d="M57.5597 0.413574L86.4446 122.405H28.6748L57.5597 0.413574Z" fill="white"/>
<path d="M52.4805 111.078C53.2085 111.339 53.8618 111.526 54.4405 111.638C55.0378 111.75 55.6725 111.806 56.3445 111.806C57.3525 111.806 58.1551 111.582 58.7525 111.134C59.3498 110.686 59.6485 109.986 59.6485 109.034C59.6485 108.194 59.3498 107.55 58.7525 107.102C58.1551 106.654 57.3525 106.43 56.3445 106.43C55.6725 106.43 55.0938 106.495 54.6085 106.626C54.1418 106.738 53.6378 106.915 53.0965 107.158L51.6405 105.758L52.5645 96.6577H63.7925V100.298H56.0085L55.7845 103.434C56.0645 103.34 56.4098 103.275 56.8205 103.238C57.2311 103.2 57.6698 103.182 58.1365 103.182C59.1445 103.182 60.0405 103.312 60.8245 103.574C61.6085 103.835 62.2711 104.208 62.8125 104.694C63.3538 105.16 63.7645 105.73 64.0445 106.402C64.3245 107.055 64.4645 107.783 64.4645 108.586C64.4645 109.594 64.2965 110.527 63.9605 111.386C63.6245 112.226 63.1298 112.954 62.4765 113.57C61.8418 114.167 61.0485 114.643 60.0965 114.998C59.1631 115.334 58.0898 115.502 56.8765 115.502C55.7378 115.502 54.6925 115.399 53.7405 115.194C52.8071 115.007 51.9765 114.755 51.2485 114.438L52.4805 111.078Z" fill="#416900"/>
<path d="M52.5863 120H63.5518L66 146.5H50L52.5863 120Z" fill="white"/>
</g>
<defs>
<clipPath id="clip0_387_711">
<rect width="115.138" height="145.293" fill="white" transform="translate(0.447754 0.413574)"/>
</clipPath>
</defs>
</svg>
