<svg width="149" height="168" viewBox="0 0 149 168" fill="none" xmlns="http://www.w3.org/2000/svg">
<rect width="148.034" height="166.31" transform="translate(0.810059 0.827637)" fill="#BFA100"/>
<path d="M7 73.8396H23.3209V37.3319L53.7496 73.8396H67.9497V11L51.721 13.8563V50.6318L19.7247 12.2497H7V73.8396Z" fill="white"/>
<path d="M110.082 75C130.091 75 143 61.2538 143 42.9554C143 24.7462 130.275 11 110.082 11C89.9802 11 77.1633 24.8354 77.1633 42.9554C77.1633 61.0753 90.0724 75 110.082 75ZM110.082 63.1283C100.031 63.1283 93.853 55.8089 93.853 42.9554C93.853 29.7448 100.031 22.7824 110.082 22.7824C119.948 22.7824 126.31 29.7448 126.31 42.9554C126.31 56.0767 120.132 63.1283 110.082 63.1283Z" fill="white"/>
<path d="M144.644 144.884C142.908 144.324 141.788 144.156 140.36 144.156C135.628 144.156 131.092 148.216 131.092 154.852C131.092 159.584 133.444 163.364 138.148 163.364C142.348 163.364 145.204 160.396 145.204 156C145.204 152.724 143.16 150.4 139.66 150.4C137.812 150.4 136.524 151.128 135.516 151.8C136.524 149.224 138.652 147.628 141.116 147.628C142.068 147.628 142.852 147.768 143.748 147.992L144.644 144.884ZM140.36 153.872C140.724 154.6 140.78 155.412 140.78 156.336C140.78 158.296 139.884 159.948 138.316 159.948C136.524 159.948 135.46 158.324 135.46 154.376C136.664 153.9 137.896 153.732 138.904 153.732C139.464 153.732 139.94 153.788 140.36 153.872Z" fill="white"/>
</svg>
