<svg width="96" height="200" viewBox="0 0 96 200" fill="none" xmlns="http://www.w3.org/2000/svg">
<path d="M0.716309 0.562454L0.716309 199.748H95.555L95.555 0.562454H0.716309Z" fill="#A90029"/>
<path fill-rule="evenodd" clip-rule="evenodd" d="M0.308956 0.5625C26.4827 1.06765 47.5449 22.452 47.5449 48.7579C47.5449 75.0638 26.4827 96.4482 0.308956 96.9533L0.308956 0.5625Z" fill="#BFA100"/>
<path fill-rule="evenodd" clip-rule="evenodd" d="M95.7648 0.5625C69.5911 1.06765 48.5288 22.452 48.5288 48.7579C48.5288 75.0638 69.5911 96.4482 95.7648 96.9533L95.7648 0.5625Z" fill="#BFA100"/>
<path fill-rule="evenodd" clip-rule="evenodd" d="M95.7648 102.907C69.5911 103.412 48.5288 124.797 48.5288 151.103C48.5288 177.409 69.5911 198.793 95.7648 199.298L95.7648 102.907Z" fill="#BFA100"/>
<path fill-rule="evenodd" clip-rule="evenodd" d="M0.308956 102.907C26.4827 103.412 47.5449 124.797 47.5449 151.103C47.5449 177.409 26.4827 198.793 0.308956 199.298L0.308956 102.907Z" fill="#BFA100"/>
<path d="M79.4742 17.8768C78.7649 17.3355 78.1769 16.7288 77.7102 16.0568C77.2436 15.3662 77.0102 14.5075 77.0102 13.4808C77.0102 12.7528 77.1596 12.0902 77.4582 11.4928C77.7756 10.8768 78.2049 10.3448 78.7462 9.89682C79.3062 9.44882 79.9689 9.10349 80.7342 8.86082C81.5182 8.61815 82.3769 8.49682 83.3102 8.49682C84.4489 8.49682 85.4289 8.62749 86.2502 8.88882C87.0902 9.13149 87.7716 9.47682 88.2942 9.92482C88.8356 10.3542 89.2276 10.8768 89.4702 11.4928C89.7316 12.0902 89.8622 12.7342 89.8622 13.4248C89.8622 14.2462 89.6289 14.9742 89.1622 15.6088C88.7142 16.2248 88.0609 16.7568 87.2022 17.2048C87.8742 17.5968 88.4249 17.9795 88.8542 18.3528C89.3022 18.7262 89.6476 19.1088 89.8902 19.5008C90.1516 19.8742 90.3289 20.2662 90.4222 20.6768C90.5342 21.0875 90.5902 21.5168 90.5902 21.9648C90.5902 22.8795 90.4129 23.6915 90.0582 24.4008C89.7036 25.1102 89.1996 25.7168 88.5462 26.2208C87.9116 26.7062 87.1369 27.0795 86.2222 27.3408C85.3076 27.5835 84.2902 27.7048 83.1702 27.7048C81.9382 27.7048 80.8836 27.5742 80.0062 27.3128C79.1289 27.0328 78.4102 26.6595 77.8502 26.1928C77.2902 25.7075 76.8796 25.1568 76.6182 24.5408C76.3569 23.9062 76.2262 23.2342 76.2262 22.5248C76.2262 21.9088 76.3102 21.3675 76.4782 20.9008C76.6649 20.4155 76.8982 19.9862 77.1782 19.6128C77.4769 19.2395 77.8222 18.9128 78.2142 18.6328C78.6062 18.3528 79.0262 18.1008 79.4742 17.8768ZM82.0222 18.9968C81.7049 19.3515 81.4156 19.7995 81.1542 20.3408C80.9116 20.8635 80.7902 21.3955 80.7902 21.9368C80.7902 22.7582 81.0049 23.3835 81.4342 23.8128C81.8822 24.2422 82.5356 24.4568 83.3942 24.4568C84.1969 24.4568 84.8316 24.2608 85.2982 23.8688C85.7649 23.4582 85.9982 22.8982 85.9982 22.1888C85.9982 21.7222 85.8582 21.3208 85.5782 20.9848C85.3169 20.6302 84.9716 20.3408 84.5422 20.1168C84.0756 19.8555 83.6556 19.6502 83.2822 19.5008C82.9276 19.3515 82.5076 19.1835 82.0222 18.9968ZM84.7102 16.0848C85.0462 15.7675 85.2702 15.4035 85.3822 14.9928C85.4942 14.5635 85.5502 14.1062 85.5502 13.6208C85.5502 13.3222 85.5222 13.0328 85.4662 12.7528C85.4102 12.4542 85.2982 12.1742 85.1302 11.9128C84.8129 11.8008 84.5609 11.7355 84.3742 11.7168C84.1876 11.6795 83.9449 11.6608 83.6462 11.6608C82.8622 11.6608 82.2929 11.8568 81.9382 12.2488C81.6022 12.6222 81.4342 13.0702 81.4342 13.5928C81.4342 13.9662 81.5556 14.2835 81.7982 14.5448C82.0409 14.8062 82.3396 15.0302 82.6942 15.2168C83.0489 15.4035 83.4036 15.5622 83.7582 15.6928C84.1316 15.8235 84.4489 15.9542 84.7102 16.0848Z" fill="#A90029"/>
</svg>
