<svg width="177" height="207" viewBox="0 0 177 207" fill="none" xmlns="http://www.w3.org/2000/svg">
<rect width="176.362" height="205.603" transform="translate(0.620117 0.861572)" fill="#BFA100"/>
<circle cx="34.9567" cy="78.4169" r="20.9567" fill="#A90029"/>
<circle cx="34.9567" cy="27.2824" r="20.9567" fill="#A90029"/>
<circle cx="34.9567" cy="129.551" r="20.9567" fill="#A90029"/>
<circle cx="34.9567" cy="180.115" r="20.9567" fill="#A90029"/>
<circle cx="88.3044" cy="78.4169" r="20.9567" fill="#A90029"/>
<circle cx="88.3044" cy="27.2824" r="20.9567" fill="#A90029"/>
<circle cx="88.3044" cy="129.551" r="20.9567" fill="#A90029"/>
<circle cx="88.3044" cy="180.115" r="20.9567" fill="#A90029"/>
<circle cx="141.957" cy="77.8703" r="20.9567" fill="#A90029"/>
<circle cx="141.957" cy="26.9567" r="20.9567" fill="#A90029"/>
<circle cx="141.957" cy="128.784" r="20.9567" fill="#A90029"/>
<circle cx="141.957" cy="179.697" r="20.9567" fill="#A90029"/>
<path d="M29.368 188.76C30.376 189.12 31.528 189.312 33.04 189.312C37.504 189.312 41.104 186.168 41.104 180.264C41.104 177.264 39.736 172.848 35.008 172.848C31.408 172.848 28.888 175.32 28.888 178.872C28.888 182.112 30.952 183.936 33.976 183.936C35.488 183.936 36.616 183.48 37.672 182.616C37.336 184.704 35.08 186.384 32.488 186.384C31.696 186.384 31 186.288 30.184 186.072L29.368 188.76ZM37.528 180.456C37.072 180.696 36.064 181.008 35.2 181.008C33.592 181.008 32.632 180.144 32.632 178.464C32.632 176.352 33.952 175.776 34.888 175.776C35.512 175.776 35.992 175.872 36.28 175.944C37 177.288 37.528 178.512 37.528 180.456Z" fill="white"/>
</svg>
